<?xml version="1.0" encoding="UTF-8" standalone="no"?>
<svg width="18px" height="18px" viewBox="0 0 18 18" version="1.1" xmlns="http://www.w3.org/2000/svg" xmlns:xlink="http://www.w3.org/1999/xlink">
    <!-- Generator: Sketch 39.1 (31720) - http://www.bohemiancoding.com/sketch -->
    <title>airplane</title>
    <desc>Created with Sketch.</desc>
    <defs></defs>
    <g id="Symbols" stroke="none" stroke-width="1" fill="none" fill-rule="evenodd">
        <g id="airplane" fill="#FFFFFF">
            <g id="未标题-2" transform="translate(1.000000, 1.000000)">
                <g id="图层_1">
                    <path d="M15.56,0.43 C15,-0.103333333 14.12,-0.103333333 13.56,0.43 L9.21,4.71 L2.28,3.76 C1.94220531,3.73430718 1.60893689,3.85022663 1.36,4.08 L0.36,5.08 C0.197058024,5.22190807 0.126508422,5.44262813 0.176934258,5.65273578 C0.227360093,5.86284343 0.390400536,6.02750187 0.6,6.08 L6.05,7.88 L3.88,10.07 L1.16,9.94 C1.05228305,9.93499813 0.947302508,9.97481834 0.87,10.05 L0.12,10.8 C0.0364579989,10.8869922 -0.00213425857,11.0077429 0.0154701646,11.1270618 C0.0330745878,11.2463806 0.104894709,11.350841 0.21,11.41 L3.05,12.94 L4.55,15.78 C4.60728892,15.8864622 4.71071234,15.9603361 4.83,15.98 L4.89,15.98 C4.99083625,15.9796172 5.08760495,15.940193 5.16,15.87 L5.81,15.22 C5.88729752,15.1474856 5.93079818,15.045984 5.93,14.94 L5.93,12.12 L8.11,9.94 L9.94,15.38 C10.0108425,15.6315325 10.2387052,15.8064984 10.5,15.81 C10.6674235,15.8044817 10.8257557,15.7325125 10.94,15.61 L11.79,14.76 C12.0197523,14.5145194 12.1389991,14.1856872 12.12,13.85 L11.38,6.65 L15.56,2.47 C16.1192235,1.90497461 16.1192235,0.995025388 15.56,0.43 L15.56,0.43 Z M15.05,1.94 L10.71,6.24 C10.6294181,6.32205929 10.5891642,6.43550215 10.6,6.55 L11.35,13.94 C11.348564,14.044878 11.3135124,14.1465277 11.25,14.23 L10.59,14.89 L8.64,9.1 C8.59303473,8.99054654 8.49862869,8.90855395 8.38367648,8.87738047 C8.26872428,8.84620699 8.1458285,8.86927028 8.05,8.94 L5.26,11.69 L5.26,11.69 C5.19439751,11.7573499 5.15533349,11.8461318 5.15,11.94 L5.15,14.76 L4.99,14.94 L3.69,12.47 C3.65415134,12.4016568 3.59834325,12.3458487 3.53,12.31 L1.05,11 L1.31,10.74 L4.05,10.84 C4.15771695,10.8450019 4.26269749,10.8051817 4.34,10.73 L7.05,7.99 C7.14855946,7.89706883 7.19019528,7.75869727 7.15928385,7.62680847 C7.12837241,7.49491968 7.02958841,7.38945901 6.9,7.35 L1.12,5.42 L1.88,4.75 C1.97533477,4.63595153 2.12281182,4.57922959 2.27,4.6 L9.46,5.6 C9.59300808,5.56299804 9.70723586,5.47732721 9.78,5.36 L14.05,1.03 C14.1802531,0.893035618 14.3609892,0.815499737 14.55,0.815499737 C14.7390108,0.815499737 14.9197469,0.893035618 15.05,1.03 C15.1715302,1.15021698 15.2399167,1.31405639 15.2399167,1.485 C15.2399167,1.65594361 15.1715302,1.81978302 15.05,1.94 L15.05,1.94 Z" id="Shape"></path>
                </g>
            </g>
        </g>
    </g>
</svg>