<?xml version="1.0" encoding="UTF-8" standalone="no"?>
<svg width="8px" height="7px" viewBox="0 0 8 7" version="1.1" xmlns="http://www.w3.org/2000/svg" xmlns:xlink="http://www.w3.org/1999/xlink">
    <!-- Generator: Sketch 3.7.1 (28215) - http://www.bohemiancoding.com/sketch -->
    <title>icons-sys-arrowdown2-disabled</title>
    <desc>Created with Sketch.</desc>
    <defs></defs>
    <g id="Page-1" stroke="none" stroke-width="1" fill="none" fill-rule="evenodd">
        <g id="系统图标" transform="translate(-525.000000, -134.000000)" fill="#E4EBF0">
            <g id="disabled" transform="translate(118.000000, 131.000000)">
                <g id="icons-sys-arrowdown2-disabled" transform="translate(407.000000, 3.000000)">
                    <path d="M4.09703842,0.00650440603 C4.16499166,0.0148638073 4.23122647,0.0326585607 4.29118253,0.0606292335 C4.29175249,0.0608951341 4.29232141,0.0611617591 4.29288926,0.0614291058 C4.34041903,0.0834045489 4.3830254,0.111152613 4.41804417,0.144473546 L7.90889224,3.4660726 C8.06646284,3.61600361 8.01590463,3.8319598 7.78619366,3.93912446 C7.56320074,4.04315501 7.23898163,4.00824482 7.07703521,3.85415015 L4.00062791,0.926898263 L0.923033042,3.85528014 C0.765462443,4.00521115 0.443585572,4.0474191 0.213874597,3.94025445 C-0.00911832667,3.83622389 -0.0707704046,3.62129726 0.0911760146,3.4672026 L3.58202408,0.145603538 C3.58294919,0.144723289 3.58387995,0.143846752 3.58481633,0.142973937 C3.61751574,0.111208049 3.6589713,0.0827852972 3.70888573,0.0594992409 C3.82346056,0.0060478444 3.96475864,-0.0107238402 4.09703842,0.00650440603 Z M4.09703842,3.00650441 C4.16499166,3.01486381 4.23122647,3.03265856 4.29118253,3.06062923 C4.29175249,3.06089513 4.29232141,3.06116176 4.29288926,3.06142911 C4.34041903,3.08340455 4.3830254,3.11115261 4.41804417,3.14447355 L7.90889224,6.4660726 C8.06646284,6.61600361 8.01590463,6.8319598 7.78619366,6.93912446 C7.56320074,7.04315501 7.23898163,7.00824482 7.07703521,6.85415015 L4.00062791,3.92689826 L0.923033042,6.85528014 C0.765462443,7.00521115 0.443585572,7.0474191 0.213874597,6.94025445 C-0.00911832667,6.83622389 -0.0707704046,6.62129726 0.0911760146,6.4672026 L3.58202408,3.14560354 C3.58294919,3.14472329 3.58387995,3.14384675 3.58481633,3.14297394 C3.61751574,3.11120805 3.6589713,3.0827853 3.70888573,3.05949924 C3.82346056,3.00604784 3.96475864,2.98927616 4.09703842,3.00650441 Z" id="Combined-Shape" transform="translate(4.000000, 3.500000) scale(1, -1) translate(-4.000000, -3.500000) "></path>
                </g>
            </g>
        </g>
    </g>
</svg>