<?xml version="1.0" encoding="UTF-8" standalone="no"?>
<svg width="18px" height="18px" viewBox="0 0 18 18" version="1.1" xmlns="http://www.w3.org/2000/svg" xmlns:xlink="http://www.w3.org/1999/xlink">
    <!-- Generator: Sketch 3.7.1 (28215) - http://www.bohemiancoding.com/sketch -->
    <title>@</title>
    <desc>Created with Sketch.</desc>
    <defs></defs>
    <g id="发分享控件" stroke="none" stroke-width="1" fill="none" fill-rule="evenodd">
        <g id="发表框控件" transform="translate(-109.000000, -308.000000)" fill="#66757F">
            <g id="发表框-激活" transform="translate(70.000000, 176.000000)">
                <g id="功能按钮" transform="translate(5.000000, 124.000000)">
                    <path d="M43.2490119,12.9784067 C40.7825964,13.1206476 39.5019768,14.7326869 39.4071146,17.8145731 C39.4071146,19.9481866 40.2371458,21.0149774 41.8972332,21.0149774 C43.7944759,20.8253229 45.0276651,19.5688804 45.5968379,17.2456124 C45.6917001,16.6766488 45.7391304,16.2025195 45.7391304,15.8232105 C45.7865615,14.068906 44.9565303,13.1206476 43.2490119,12.9784067 L43.2490119,12.9784067 Z M47.2332016,12.2672057 C46.7588909,15.6335737 46.4743088,17.6960358 46.3794466,18.454654 C46.0474292,20.3511993 46.5325175,20.9377157 47.6708632,20.7480612 C49.710399,20.4635794 50.9871826,19.2470646 50.9871826,15.9271145 C50.9871826,11.3454428 47.6708632,8.92456121 43.2490119,8.92456124 C39.4988599,8.92456126 35.0220289,11.2745111 35.0220289,16.9970512 C35.0220289,22.2407703 39.1595311,25.0688229 43.3201581,25.0688228 C46.2134532,25.0688228 48.3416263,24.1409971 50.0491447,22.5289335 L50.6482213,23.2197003 C48.5612544,25.1636593 46.0724732,25.9564728 43.1778656,25.9933841 C38.6658168,26.0509205 34,22.6507397 34,17.2456124 C34,11.5184813 37.8457422,8 43.3201581,8 C48.2819691,8 51.9608688,10.8352075 51.9608688,15.9271145 C51.9608688,17.6723328 51.6482649,18.9641878 50.9871826,19.9088058 C50.1918058,21.0453168 48.9102874,21.6678348 47.3043478,21.7972984 C45.7865537,21.7498848 45.2370955,20.8660007 45.4742508,19.1116962 C44.8576469,20.9134143 43.4861757,21.7972984 41.541502,21.7972984 C39.407104,21.7498848 38.3162058,20.3749101 38.2687747,17.6723329 C38.50593,14.163724 40.1659925,12.2909136 43.2490119,12.0538454 C44.7193749,12.1012591 45.6205517,12.7413335 45.9525692,13.974088 L46.0237154,13.974088 C46.1185775,13.4051244 46.1897231,12.8361693 46.2371542,12.2672057 L47.2332016,12.2672057 Z" id="@"></path>
                </g>
            </g>
        </g>
    </g>
</svg>