<?xml version="1.0" encoding="UTF-8" standalone="no"?>
<svg width="8px" height="8px" viewBox="0 0 8 8" version="1.1" xmlns="http://www.w3.org/2000/svg" xmlns:xlink="http://www.w3.org/1999/xlink">
    <!-- Generator: Sketch 3.8.3 (29802) - http://www.bohemiancoding.com/sketch -->
    <title>icons-sys-bitian-nomal</title>
    <desc>Created with Sketch.</desc>
    <defs></defs>
    <g id="系统图标" stroke="none" stroke-width="1" fill="none" fill-rule="evenodd">
        <g transform="translate(-459.000000, -245.000000)" id="icons-sys-bitian-nomal" fill="#CC2929">
            <g transform="translate(459.000000, 245.000000)">
                <path d="M2.62044939,3.42857143 L0.575340271,3.42857143 C0.257113576,3.42857143 0,3.68440871 0,4 C0,4.31779153 0.257588613,4.57142857 0.575340271,4.57142857 L2.62044939,4.57142857 L1.17433886,6.0175391 C0.949318611,6.24255935 0.948416137,6.60527039 1.17157288,6.82842712 C1.39628542,7.05313967 1.75777655,7.05034549 1.9824609,6.82566114 L3.42857143,5.37955061 L3.42857143,7.42465973 C3.42857143,7.74288642 3.68440871,8 4,8 C4.31779153,8 4.57142857,7.74241139 4.57142857,7.42465973 L4.57142857,5.37955061 L6.0175391,6.82566114 C6.24255935,7.05068139 6.60527039,7.05158386 6.82842712,6.82842712 C7.05313967,6.60371458 7.05034549,6.24222345 6.82566114,6.0175391 L5.37955061,4.57142857 L7.42465973,4.57142857 C7.74288642,4.57142857 8,4.31559129 8,4 C8,3.68220847 7.74241139,3.42857143 7.42465973,3.42857143 L5.37955061,3.42857143 L6.82566114,1.9824609 C7.05068139,1.75744065 7.05158386,1.39472961 6.82842712,1.17157288 C6.60371458,0.946860329 6.24222345,0.949654513 6.0175391,1.17433886 L4.57142857,2.62044939 L4.57142857,0.575340271 C4.57142857,0.257113576 4.31559129,-1.93243929e-17 4,0 C3.68220847,1.9459119e-17 3.42857143,0.257588613 3.42857143,0.575340271 L3.42857143,2.62044939 L1.9824609,1.17433886 C1.75744065,0.949318611 1.39472961,0.948416137 1.17157288,1.17157288 C0.946860329,1.39628542 0.949654513,1.75777655 1.17433886,1.9824609 L2.62044939,3.42857143 Z" id="必填项"></path>
            </g>
        </g>
    </g>
</svg>