<?xml version="1.0" encoding="UTF-8" standalone="no"?>
<svg width="11px" height="13px" viewBox="0 0 11 13" version="1.1" xmlns="http://www.w3.org/2000/svg" xmlns:xlink="http://www.w3.org/1999/xlink">
    <!-- Generator: Sketch 40 (33762) - http://www.bohemiancoding.com/sketch -->
    <title>icons-sys-bukebianji-nomal</title>
    <desc>Created with Sketch.</desc>
    <defs></defs>
    <g id="只读" stroke="none" stroke-width="1" fill="none" fill-rule="evenodd">
        <g id="编辑态表单项－只读" transform="translate(-876.000000, -249.000000)" fill="#C2CBD1">
            <g id="编辑态" transform="translate(112.000000, 77.000000)">
                <g id="内容" transform="translate(20.000000, 56.000000)">
                    <g id="Group">
                        <g id="右" transform="translate(395.000000, 30.000000)">
                            <g id="3" transform="translate(0.000000, 60.000000)">
                                <path d="M358,31 L358,29.5054058 C358,27.5676804 356.432997,26 354.5,26 C352.570937,26 351,27.5694236 351,29.5054058 L351,31 L350.992017,31 C349.900176,31 349,31.8945804 349,32.9981014 L349,37.0018986 C349,38.1132936 349.891856,39 350.992017,39 L358.007983,39 C359.099824,39 360,38.1054196 360,37.0018986 L360,32.9981014 C360,31.8867064 359.108144,31 358.007983,31 L358,31 Z M356,31 L356,29.5001649 C356,28.6743222 355.328427,28 354.5,28 C353.665797,28 353,28.6716467 353,29.5001649 L353,31 L356,31 Z" id="icons-sys-bukebianji-nomal"></path>
                            </g>
                        </g>
                    </g>
                </g>
            </g>
        </g>
    </g>
</svg>