<?xml version="1.0" encoding="UTF-8" standalone="no"?>
<svg width="16px" height="16px" viewBox="0 0 16 16" version="1.1" xmlns="http://www.w3.org/2000/svg" xmlns:xlink="http://www.w3.org/1999/xlink">
    <!-- Generator: Sketch 40 (33762) - http://www.bohemiancoding.com/sketch -->
    <title>changgui-nomal-small</title>
    <desc>Created with Sketch.</desc>
    <defs></defs>
    <g id="Page-6" stroke="none" stroke-width="1" fill="none" fill-rule="evenodd">
        <g id="Artboard" transform="translate(-336.000000, -288.000000)" fill="#0095FF">
            <g id="系统提示图标-小" transform="translate(122.000000, 288.000000)">
                <g id="changgui-nomal-small" transform="translate(214.000000, 0.000000)">
                    <path d="M8,16 C12.418278,16 16,12.418278 16,8 C16,3.581722 12.418278,0 8,0 C3.581722,0 0,3.581722 0,8 C0,12.418278 3.581722,16 8,16 Z M7.33333333,7.33169643 C7.33333333,6.96441063 7.62924321,6.66666667 8,6.66666667 C8.36818983,6.66666667 8.66666667,6.95605914 8.66666667,7.33169643 L8.66666667,12.0016369 C8.66666667,12.3689227 8.37075679,12.6666667 8,12.6666667 C7.63181017,12.6666667 7.33333333,12.3772742 7.33333333,12.0016369 L7.33333333,7.33169643 Z M8,5.33333333 C8.55228475,5.33333333 9,4.88561808 9,4.33333333 C9,3.78104858 8.55228475,3.33333333 8,3.33333333 C7.44771525,3.33333333 7,3.78104858 7,4.33333333 C7,4.88561808 7.44771525,5.33333333 8,5.33333333 Z" id="Combined-Shape"></path>
                </g>
            </g>
        </g>
    </g>
</svg>