<?xml version="1.0" encoding="UTF-8" standalone="no"?>
<svg width="24px" height="24px" viewBox="0 0 24 24" version="1.1" xmlns="http://www.w3.org/2000/svg" xmlns:xlink="http://www.w3.org/1999/xlink">
    <!-- Generator: Sketch 40 (33762) - http://www.bohemiancoding.com/sketch -->
    <title>changgui-nomal</title>
    <desc>Created with Sketch.</desc>
    <defs></defs>
    <g id="Page-6" stroke="none" stroke-width="1" fill="none" fill-rule="evenodd">
        <g id="Artboard" transform="translate(-332.000000, -236.000000)" fill="#0095FF">
            <g id="系统提示图标" transform="translate(118.000000, 236.000000)">
                <g id="changgui-nomal" transform="translate(214.000000, 0.000000)">
                    <path d="M12,24 C18.627417,24 24,18.627417 24,12 C24,5.372583 18.627417,0 12,0 C5.372583,0 0,5.372583 0,12 C0,18.627417 5.372583,24 12,24 Z M11,10.9975446 C11,10.446616 11.4438648,10 12,10 C12.5522847,10 13,10.4463114 13,10.9975446 L13,18.0024554 C13,18.553384 12.5561352,19 12,19 C11.4477153,19 11,18.5536886 11,18.0024554 L11,10.9975446 Z M12,8 C12.8284271,8 13.5,7.32842712 13.5,6.5 C13.5,5.67157288 12.8284271,5 12,5 C11.1715729,5 10.5,5.67157288 10.5,6.5 C10.5,7.32842712 11.1715729,8 12,8 Z" id="Combined-Shape"></path>
                </g>
            </g>
        </g>
    </g>
</svg>