<?xml version="1.0" encoding="UTF-8" standalone="no"?>
<svg width="12px" height="12px" viewBox="0 0 12 12" version="1.1" xmlns="http://www.w3.org/2000/svg" xmlns:xlink="http://www.w3.org/1999/xlink">
    <!-- Generator: Sketch 42 (36781) - http://www.bohemiancoding.com/sketch -->
    <title>guanbi01</title>
    <desc>Created with Sketch.</desc>
    <defs></defs>
    <g id="Page-1" stroke="none" stroke-width="1" fill="none" fill-rule="evenodd">
        <g id="交互" transform="translate(-413.000000, -381.000000)" fill="#C2CBD1">
            <g id="事件交互" transform="translate(100.000000, 100.000000)">
                <g id="项目弹层" transform="translate(0.000000, 271.000000)">
                    <path d="M314.685957,10.4521573 C314.288232,10.0680792 313.661169,10.0811928 313.279822,10.4760887 C312.895817,10.8737377 312.909739,11.5005228 313.304979,11.8822017 L317.594489,16.0245333 L313.452157,20.3140432 C313.068079,20.7117678 313.081193,21.3388311 313.476089,21.7201776 C313.873738,22.1041828 314.500523,22.0902611 314.882202,21.6950211 L319.024533,17.4055111 L323.314043,21.5478427 C323.711768,21.9319208 324.338831,21.9188072 324.720178,21.5239113 C325.104183,21.1262623 325.090261,20.4994772 324.695021,20.1177983 L320.405511,15.9754667 L324.547843,11.6859568 C324.931921,11.2882322 324.918807,10.6611689 324.523911,10.2798224 C324.126262,9.89581721 323.499477,9.90973886 323.117798,10.3049789 L318.975467,14.5944889 L314.685957,10.4521573 Z" id="guanbi01"></path>
                </g>
            </g>
        </g>
    </g>
</svg>