<?xml version="1.0" encoding="UTF-8" standalone="no"?>
<svg width="24px" height="24px" viewBox="0 0 24 24" version="1.1" xmlns="http://www.w3.org/2000/svg" xmlns:xlink="http://www.w3.org/1999/xlink">
    <!-- Generator: Sketch 44 (41411) - http://www.bohemiancoding.com/sketch -->
    <title>Group 102</title>
    <desc>Created with Sketch.</desc>
    <defs></defs>
    <g id="首页" stroke="none" stroke-width="1" fill="none" fill-rule="evenodd">
        <g id="全部组件1" transform="translate(-174.000000, -3010.000000)">
            <g id="Group-71" transform="translate(151.000000, 2802.000000)">
                <g id="Group-69">
                    <g transform="translate(0.000000, 39.000000)" id="Group-102">
                        <g transform="translate(23.000000, 169.000000)">
                            <g id="Group-8-Copy" transform="translate(6.400000, 1.000000)">
                                <polygon id="Rectangle-17" fill="#6CC10F" transform="translate(8.400000, 2.400000) scale(-1, 1) translate(-8.400000, -2.400000) " points="4.8 0 8.32653061 0 12 4.8 8.47346939 4.8"></polygon>
                                <polygon id="Rectangle-17" fill="#7ED321" points="0 0 3.52653061 0 7.2 4.8 3.67346939 4.8"></polygon>
                            </g>
                            <rect id="Rectangle-7-Copy" opacity="0.507695896" x="0" y="1" width="24" height="24"></rect>
                            <circle id="Oval-13-Copy" fill="#D2B07B" cx="12" cy="13.8" r="9.6"></circle>
                            <circle id="Oval-11-Copy-47" fill="#FFFFFF" cx="12" cy="13.8" r="8"></circle>
                            <path d="M12.0520038,16.804088 L9.68552102,18.1180652 C9.20705679,18.38373 8.88817989,18.1592562 8.97407554,17.6116782 L9.42064394,14.7648401 L7.5177981,12.7701787 C7.13307369,12.3668906 7.26318042,11.9694924 7.80614961,11.8829236 L10.425734,11.4652679 L11.6247205,8.9002798 C11.8607026,8.39544422 12.2385576,8.38528812 12.479287,8.9002798 L13.6782736,11.4652679 L16.2978579,11.8829236 C16.8418345,11.969653 16.9744156,12.3632409 16.5862095,12.7701787 L14.6833636,14.7648401 L15.129932,17.6116782 C15.2154758,18.1570128 14.8884156,18.3789909 14.4184865,18.1180652 L12.0520038,16.804088 Z" id="Star-Copy" fill="#D2B07B"></path>
                        </g>
                    </g>
                </g>
            </g>
        </g>
    </g>
</svg>