<?xml version="1.0" encoding="UTF-8" standalone="no"?>
<svg width="16px" height="16px" viewBox="0 0 16 16" version="1.1" xmlns="http://www.w3.org/2000/svg" xmlns:xlink="http://www.w3.org/1999/xlink">
    <!-- Generator: Sketch 40 (33762) - http://www.bohemiancoding.com/sketch -->
    <title>cuowu-nomal-small</title>
    <desc>Created with Sketch.</desc>
    <defs></defs>
    <g id="Page-6" stroke="none" stroke-width="1" fill="none" fill-rule="evenodd">
        <g id="Artboard" transform="translate(-178.000000, -288.000000)" fill="#CC2929">
            <g id="系统提示图标-小" transform="translate(122.000000, 288.000000)">
                <g id="cuowu-nomal-small" transform="translate(56.000000, 0.000000)">
                    <path d="M8,7.19187796 L5.9824609,5.17433886 C5.75113539,4.94301336 5.39472961,4.94841614 5.17157288,5.17157288 C4.95494251,5.38820325 4.94965451,5.75777655 5.17433886,5.9824609 L7.19187796,8 L5.17433886,10.0175391 C4.94301336,10.2488646 4.94841614,10.6052704 5.17157288,10.8284271 C5.38820325,11.0450575 5.75777655,11.0503455 5.9824609,10.8256611 L8,8.80812204 L10.0175391,10.8256611 C10.2488646,11.0569866 10.6052704,11.0515839 10.8284271,10.8284271 C11.0450575,10.6117968 11.0503455,10.2422235 10.8256611,10.0175391 L8.80812204,8 L10.8256611,5.9824609 C11.0569866,5.75113539 11.0515839,5.39472961 10.8284271,5.17157288 C10.6117968,4.95494251 10.2422235,4.94965451 10.0175391,5.17433886 L8,7.19187796 Z M8,16 C12.418278,16 16,12.418278 16,8 C16,3.581722 12.418278,0 8,0 C3.581722,0 0,3.581722 0,8 C0,12.418278 3.581722,16 8,16 Z" id="Combined-Shape"></path>
                </g>
            </g>
        </g>
    </g>
</svg>