<?xml version="1.0" encoding="UTF-8" standalone="no"?>
<svg width="24px" height="24px" viewBox="0 0 24 24" version="1.1" xmlns="http://www.w3.org/2000/svg" xmlns:xlink="http://www.w3.org/1999/xlink">
    <!-- Generator: Sketch 40 (33762) - http://www.bohemiancoding.com/sketch -->
    <title>cuowu-nomal</title>
    <desc>Created with Sketch.</desc>
    <defs></defs>
    <g id="Page-6" stroke="none" stroke-width="1" fill="none" fill-rule="evenodd">
        <g id="Artboard" transform="translate(-174.000000, -236.000000)" fill="#CC2929">
            <g id="系统提示图标" transform="translate(118.000000, 236.000000)">
                <g id="cuowu-nomal" transform="translate(56.000000, 0.000000)">
                    <path d="M12,10.7878169 L8.97369135,7.7615083 C8.63616097,7.42397792 8.09209442,7.42262421 7.75735931,7.75735931 C7.42029049,8.09442813 7.42448177,8.63666482 7.7615083,8.97369135 L10.7878169,12 L7.7615083,15.0263086 C7.42397792,15.363839 7.42262421,15.9079056 7.75735931,16.2426407 C8.09442813,16.5797095 8.63666482,16.5755182 8.97369135,16.2384917 L12,13.2121831 L15.0263086,16.2384917 C15.363839,16.5760221 15.9079056,16.5773758 16.2426407,16.2426407 C16.5797095,15.9055719 16.5755182,15.3633352 16.2384917,15.0263086 L13.2121831,12 L16.2384917,8.97369135 C16.5760221,8.63616097 16.5773758,8.09209442 16.2426407,7.75735931 C15.9055719,7.42029049 15.3633352,7.42448177 15.0263086,7.7615083 L12,10.7878169 Z M12,24 C18.627417,24 24,18.627417 24,12 C24,5.372583 18.627417,0 12,0 C5.372583,0 0,5.372583 0,12 C0,18.627417 5.372583,24 12,24 Z" id="Combined-Shape"></path>
                </g>
            </g>
        </g>
    </g>
</svg>