<?xml version="1.0" encoding="UTF-8" standalone="no"?>
<svg width="18px" height="18px" viewBox="0 0 18 18" version="1.1" xmlns="http://www.w3.org/2000/svg" xmlns:xlink="http://www.w3.org/1999/xlink">
    <!-- Generator: Sketch 40 (33762) - http://www.bohemiancoding.com/sketch -->
    <title>cus-xiala</title>
    <desc>Created with Sketch.</desc>
    <defs></defs>
    <g id="icon" stroke="none" stroke-width="1" fill="none" fill-rule="evenodd">
        <g id="cus-xiala-nomal" fill="#1687D9">
            <path d="M0,2.99253976 C0,1.33980569 1.35292554,0 2.99253976,0 L15.0074602,0 C16.6601943,0 18,1.35292554 18,2.99253976 L18,15.0074602 C18,16.6601943 16.6470745,18 15.0074602,18 L2.99253976,18 C1.33980569,18 0,16.6470745 0,15.0074602 L0,2.99253976 Z M1,2.99406028 C1,1.8927712 1.89451376,1 2.99406028,1 L15.0059397,1 C16.1072288,1 17,1.89451376 17,2.99406028 L17,15.0059397 C17,16.1072288 16.1054862,17 15.0059397,17 L2.99406028,17 C1.8927712,17 1,16.1054862 1,15.0059397 L1,2.99406028 Z M8.82065915,7 C10.101924,7 11.4337241,7 11.7178397,7 C12.2615741,7 11.8810265,7.69705207 11.7178397,7.95632572 L9.29628037,11.8037375 C9.13006723,12.0678195 8.85755608,12.0630111 8.69436936,11.8037375 L6.27280998,7.95632572 C6.10659685,7.69224366 5.75244238,7 6.27280998,7 C6.52127168,7 7.64986721,7 8.82065915,7 Z" id="cus-xiala"></path>
        </g>
    </g>
</svg>