<?xml version="1.0" encoding="UTF-8" standalone="no"?>
<svg width="11px" height="15px" viewBox="0 0 11 15" version="1.1" xmlns="http://www.w3.org/2000/svg" xmlns:xlink="http://www.w3.org/1999/xlink">
    <!-- Generator: Sketch 40 (33762) - http://www.bohemiancoding.com/sketch -->
    <title>cus-shanchu</title>
    <desc>Created with Sketch.</desc>
    <defs></defs>
    <g id="icon" stroke="none" stroke-width="1" fill="none" fill-rule="evenodd">
        <path d="M1,5.75657061 L1,12.9914698 C1,14.0980496 1.89426273,15 2.9973917,15 L8.0026083,15 C9.10414219,15 10,14.1007504 10,12.9914698 L10,5.75657061 L10,4.49538898 C10,4.2157526 9.77614237,4 9.5,4 C9.23193359,4 9,4.2217932 9,4.49538898 L9,5.75230551 L9,13.0046024 C9,13.5543453 8.56211865,14 7.99707067,14 L3.00292933,14 C2.44902676,14 2,13.5443356 2,13.0046024 L2,5.75230551 L2,4.49538898 C2,4.2157526 1.77614237,4 1.5,4 C1.23193359,4 1,4.2217932 1,4.49538898 L1,5.75657061 Z M7,4.50043583 C7,4.22405275 7.23193359,4 7.5,4 C7.77614237,4 8,4.23079681 8,4.50043583 L8,11.4995642 C8,11.7759472 7.76806641,12 7.5,12 C7.22385763,12 7,11.7692032 7,11.4995642 L7,4.50043583 Z M5,4.50043583 C5,4.22405275 5.23193359,4 5.5,4 C5.77614237,4 6,4.23079681 6,4.50043583 L6,11.4995642 C6,11.7759472 5.76806641,12 5.5,12 C5.22385763,12 5,11.7692032 5,11.4995642 L5,4.50043583 Z M3,4.50043583 C3,4.22405275 3.23193359,4 3.5,4 C3.77614237,4 4,4.23079681 4,4.50043583 L4,11.4995642 C4,11.7759472 3.76806641,12 3.5,12 C3.22385763,12 3,11.7692032 3,11.4995642 L3,4.50043583 Z M4,0.5 C4,0.223857625 4.2157526,0 4.49538898,0 L6.50461102,0 C6.7782068,0 7,0.231933594 7,0.5 C7,0.776142375 6.7842474,1 6.50461102,1 L4.49538898,1 C4.2217932,1 4,0.768066406 4,0.5 Z M-1.77635684e-15,2.5 C-1.77635684e-15,2.22385763 0.229750633,2 0.501230836,2 L10.4987692,2 C10.7755913,2 11,2.23193359 11,2.5 C11,2.77614237 10.7702494,3 10.4987692,3 L0.501230836,3 C0.224408689,3 -1.77635684e-15,2.76806641 -1.77635684e-15,2.5 Z" id="cus-shanchu" fill="#BCC9D1"></path>
    </g>
</svg>