<?xml version="1.0" encoding="UTF-8" standalone="no"?>
<svg width="12px" height="12px" viewBox="0 0 12 12" version="1.1" xmlns="http://www.w3.org/2000/svg" xmlns:xlink="http://www.w3.org/1999/xlink">
    <!-- Generator: Sketch 40 (33762) - http://www.bohemiancoding.com/sketch -->
    <title>cus-bianji</title>
    <desc>Created with Sketch.</desc>
    <defs></defs>
    <g id="icon" stroke="none" stroke-width="1" fill="none" fill-rule="evenodd">
        <path d="M11.0505615,0.59354819 L11.408891,0.951877727 C12.2003898,1.7433765 12.1957087,3.03133066 11.4027581,3.82428122 L4.24309255,10.9839468 L0.736273174,11.9658562 C0.199567296,12.1161339 -0.110694816,11.7921581 0.0365829645,11.266166 L1.01849239,7.75934665 L8.17815798,0.599681057 C8.97304385,-0.19520481 10.2545034,-0.202509897 11.0505615,0.59354819 L11.0505615,0.59354819 Z M1.19763684,10.8048024 L3.69979851,10.0940852 L10.6861803,3.10770341 C11.0848758,2.70900794 11.0865557,2.06269809 10.6923132,1.66845554 L10.3339837,1.310126 C9.93629681,0.912439152 9.29648569,0.914508972 8.8947358,1.31625887 L1.90704188,8.30395278 L1.19763684,10.8048024 L1.19763684,10.8048024 Z M8.48854467,1.72245 L10.2799892,3.51389454 L9.56341139,4.23047235 L7.77196685,2.43902781 L8.48854467,1.72245 L8.48854467,1.72245 Z" id="cus-bianji" fill="#BCC9D1"></path>
    </g>
</svg>