<?xml version="1.0" encoding="UTF-8" standalone="no"?>
<svg width="12px" height="12px" viewBox="0 0 12 12" version="1.1" xmlns="http://www.w3.org/2000/svg" xmlns:xlink="http://www.w3.org/1999/xlink">
    <!-- Generator: Sketch 44 (41411) - http://www.bohemiancoding.com/sketch -->
    <title>cus-formtishi</title>
    <desc>Created with Sketch.</desc>
    <defs></defs>
    <g id="表单项提示图标" stroke="none" stroke-width="1" fill="none" fill-rule="evenodd">
        <g id="cus-formtishi" fill="#C3CBD1">
            <path d="M6,12 C2.6862915,12 0,9.3137085 0,6 C0,2.6862915 2.6862915,0 6,0 C9.3137085,0 12,2.6862915 12,6 C12,9.3137085 9.3137085,12 6,12 Z M5.98604983,2.57142857 C4.85758167,2.57142857 3.92011449,3.35999484 3.73393914,4.39684694 C3.72113694,4.43936536 3.71428571,4.4842361 3.71428571,4.53061224 C3.71428571,4.80111906 3.9473819,5.02040816 4.23492062,5.02040816 C4.52245934,5.02040816 4.75555553,4.80111906 4.75556016,4.53061224 C4.87321611,3.97169625 5.38566148,3.55102041 6,3.55102041 C6.70131397,3.55102041 7.26984127,4.09924316 7.26984127,4.7755102 C7.26984127,5.45177724 6.70131397,6 6,6 C5.99534405,6 5.99069395,5.99997584 5.98604983,6.01270414 C5.67481809,6.0266684 5.42857143,6.28278793 5.42857143,6.59116272 L5.42857143,7.41699473 C5.42857143,7.72754373 5.68440871,7.98367356 6,7.98367356 C6.31779153,7.98367356 6.57142857,7.7267922 6.57142857,7.40991298 L6.57142857,6.90664573 C7.55018665,6.65732245 8.27176412,5.79767353 8.27176412,4.7755102 C8.27176412,3.55822953 7.24841498,2.57142857 5.98604983,2.57142857 Z M6,10.2857143 C6.47338693,10.2857143 6.85714286,9.90195836 6.85714286,9.42857143 C6.85714286,8.9551845 6.47338693,8.57142857 6,8.57142857 C5.52661307,8.57142857 5.14285714,8.9551845 5.14285714,9.42857143 C5.14285714,9.90195836 5.52661307,10.2857143 6,10.2857143 Z"></path>
        </g>
    </g>
</svg>