<?xml version="1.0" encoding="UTF-8" standalone="no"?>
<svg width="14px" height="14px" viewBox="0 0 14 14" version="1.1" xmlns="http://www.w3.org/2000/svg" xmlns:xlink="http://www.w3.org/1999/xlink">
    <!-- Generator: Sketch 40 (33762) - http://www.bohemiancoding.com/sketch -->
    <title>cus-renyuan</title>
    <desc>Created with Sketch.</desc>
    <defs></defs>
    <g id="icon" stroke="none" stroke-width="1" fill="none" fill-rule="evenodd">
        <path d="M13.9999998,13.0016654 C13.9999999,13.0022206 14,13.0027758 14,13.0033309 L14,14 L-2.22044605e-16,14 L0,13.0033309 C0,13.0027758 7.52248564e-08,13.0022206 2.25664943e-07,13.0016654 C0.000900532996,13.5531847 0.448270617,14 1,14 L0,14 L0,13 C0,12.9992354 8.5805874e-07,12.998471 2.57326578e-06,12.9977069 C0.0025070297,10.2609614 1.83286336,7.9529094 4.33735126,7.2328282 C5.10830729,7.71881628 6.02131666,8 7,8 C7.97889257,8 8.89208307,7.71869604 9.66314316,7.23251649 C12.1660107,7.95100799 13.9975024,10.2534664 13.9999974,12.9977162 C13.9999991,12.9984773 14,12.9992385 14,13 L14,14 L13,14 C13.5517294,14 13.9990995,13.5531847 13.9999986,13.0016658 Z M7,6 C8.65685425,6 10,4.65685425 10,3 C10,1.34314575 8.65685425,0 7,0 C5.34314575,0 4,1.34314575 4,3 C4,4.65685425 5.34314575,6 7,6 Z" id="cus-renyuan" fill="#BCC9D1"></path>
    </g>
</svg>