<?xml version="1.0" encoding="UTF-8" standalone="no"?>
<svg width="14px" height="11px" viewBox="0 0 14 11" version="1.1" xmlns="http://www.w3.org/2000/svg" xmlns:xlink="http://www.w3.org/1999/xlink">
    <!-- Generator: Sketch 40 (33762) - http://www.bohemiancoding.com/sketch -->
    <title>cus-chengshi</title>
    <desc>Created with Sketch.</desc>
    <defs></defs>
    <g id="icon" stroke="none" stroke-width="1" fill="none" fill-rule="evenodd">
        <path d="M7,3.26474483 L7,1.99201702 C7,0.900176167 6.10191945,0 4.99408095,0 L2.00591905,0 C0.886554837,0 0,0.891856397 0,1.99201702 L0,10.0044225 C0,10.555163 0.449026756,11 1.00292933,11 L5.99707067,11 C6.182972,11 6.35510861,10.9517529 6.50241545,10.8674246 C6.64818045,10.9515927 6.81703522,11 6.99703014,11 L13.0029699,11 C13.5469637,11 14,10.5536144 14,10.0029699 L14,4.99810135 C14,3.88670635 13.1054196,3 12.0018986,3 L7.99810135,3 C7.63341093,3 7.29291368,3.09632328 7,3.26474483 Z M2,2 L3,2 L3,3 L2,3 L2,2 Z M4,2 L5,2 L5,3 L4,3 L4,2 Z M2,4 L3,4 L3,5 L2,5 L2,4 Z M4,4 L5,4 L5,5 L4,5 L4,4 Z M2,6 L3,6 L3,7 L2,7 L2,6 Z M4,6 L5,6 L5,7 L4,7 L4,6 Z M8,5 L10,5 L10,6 L8,6 L8,5 Z M11,5 L12,5 L12,6 L11,6 L11,5 Z M8,7 L10,7 L10,8 L8,8 L8,7 Z M11,7 L12,7 L12,8 L11,8 L11,7 Z" id="cus-chengshi" fill="#BCC9D1"></path>
    </g>
</svg>