<?xml version="1.0" encoding="UTF-8" standalone="no"?>
<svg width="5px" height="5px" viewBox="0 0 5 5" version="1.1" xmlns="http://www.w3.org/2000/svg" xmlns:xlink="http://www.w3.org/1999/xlink">
    <!-- Generator: Sketch 40 (33762) - http://www.bohemiancoding.com/sketch -->
    <title>cus-bitian</title>
    <desc>Created with Sketch.</desc>
    <defs></defs>
    <g id="icon" stroke="none" stroke-width="1" fill="none" fill-rule="evenodd">
        <path d="M3,1.99312419 L4.33622225,1.52577677 C4.60152596,1.43298607 4.88967292,1.5998576 4.97413317,1.87966644 C5.06113793,2.16790501 4.9224556,2.47474158 4.65129436,2.56958097 L3.46093085,2.98591389 L4.23341017,4.13040108 C4.39737688,4.3733303 4.33898321,4.7198852 4.11786341,4.89281657 C3.89008199,5.07095781 3.57612753,5.0238003 3.40854066,4.77550755 L2.45421316,3.36159838 L1.49988566,4.77550755 C1.3322988,5.0238003 1.01834434,5.07095781 0.790562917,4.89281657 C0.569443113,4.7198852 0.511049447,4.3733303 0.675016158,4.13040108 L1.46498449,2.96000258 L0.348705639,2.56958097 C0.0775444027,2.47474158 -0.0611379297,2.16790501 0.0258668322,1.87966644 C0.110327082,1.5998576 0.398474042,1.43298607 0.663777753,1.52577677 L2,1.99312419 L2,0.505912304 C2,0.226504654 2.23193359,0 2.5,0 C2.77614237,0 3,0.230712891 3,0.505912304 L3,1.99312419 Z" id="cus-bitian" fill="#CC2929"></path>
    </g>
</svg>