<?xml version="1.0" encoding="UTF-8" standalone="no"?>
<svg width="12px" height="12px" viewBox="0 0 12 12" version="1.1" xmlns="http://www.w3.org/2000/svg" xmlns:xlink="http://www.w3.org/1999/xlink">
    <!-- Generator: Sketch 42 (36781) - http://www.bohemiancoding.com/sketch -->
    <title>Group 5 Copy 101x</title>
    <desc>Created with Sketch.</desc>
    <defs></defs>
    <g id="Pagebuilder" stroke="none" stroke-width="1" fill="none" fill-rule="evenodd">
        <g id="属性面板-常用链接组件" transform="translate(-921.000000, -609.000000)" fill="#ED5858">
            <g id="Group-5-Copy-10" transform="translate(921.000000, 609.000000)">
                <path d="M6,4.58578644 L4.58368643,3.16947287 C4.1990247,2.78481114 3.56209717,2.78104858 3.17157288,3.17157288 C2.77832592,3.56481983 2.78010838,4.19432194 3.16947287,4.58368643 L4.58578644,6 L3.16947287,7.41631357 C2.78481114,7.8009753 2.78104858,8.43790283 3.17157288,8.82842712 C3.56481983,9.22167408 4.19432194,9.21989162 4.58368643,8.83052713 L6,7.41421356 L7.41631357,8.83052713 C7.8009753,9.21518886 8.43790283,9.21895142 8.82842712,8.82842712 C9.22167408,8.43518017 9.21989162,7.80567806 8.83052713,7.41631357 L7.41421356,6 L8.83052713,4.58368643 C9.21518886,4.1990247 9.21895142,3.56209717 8.82842712,3.17157288 C8.43518017,2.77832592 7.80567806,2.78010838 7.41631357,3.16947287 L6,4.58578644 L6,4.58578644 Z M1.75735931,10.2426407 C4.10050506,12.5857864 7.89949494,12.5857864 10.2426407,10.2426407 C12.5857864,7.89949494 12.5857864,4.10050506 10.2426407,1.75735931 C7.89949494,-0.585786438 4.10050506,-0.585786438 1.75735931,1.75735931 C-0.585786438,4.10050506 -0.585786438,7.89949494 1.75735931,10.2426407 L1.75735931,10.2426407 Z" id="Combined-Shape"></path>
            </g>
        </g>
    </g>
</svg>