<?xml version="1.0" encoding="UTF-8" standalone="no"?>
<svg width="18px" height="15px" viewBox="0 0 18 15" version="1.1" xmlns="http://www.w3.org/2000/svg" xmlns:xlink="http://www.w3.org/1999/xlink">
    <!-- Generator: Sketch 3.7.1 (28215) - http://www.bohemiancoding.com/sketch -->
    <title>Group</title>
    <desc>Created with Sketch.</desc>
    <defs></defs>
    <g id="同事页" stroke="none" stroke-width="1" fill="none" fill-rule="evenodd">
        <g id="同事页-组织架构-竖" transform="translate(-934.000000, -79.000000)" fill="#66757F">
            <g id="筛选内容" transform="translate(70.000000, 70.000000)">
                <g id="切换按钮" transform="translate(856.000000, 0.000000)">
                    <g id="Group" transform="translate(8.000000, 9.000000)">
                        <path d="M18,5.00094932 L18,1.99810135 C18,0.886706352 17.1067681,0 16.0049107,0 L1.99508929,0 C0.892622799,0 0,0.894580447 0,1.99810135 L0,6.00189865 C0,7.11329365 0.893231902,8 1.99508929,8 L9,8 L9,7 L2.00087166,7 C1.4481055,7 1,6.54902482 1,6.00922203 L1,1.99077797 C1,1.44358641 1.44463086,1 2.00087166,1 L15.9991283,1 C16.5518945,1 17,1.45097518 17,1.99077797 L17,4 L18,4 L18,5.00094932 Z" id="Combined-Shape"></path>
                        <path d="M9,4.00276013 C9,2.89666625 9.89585781,2 10.9973917,2 L16.0026083,2 C17.1057373,2 18,2.89354265 18,4.00276013 L18,12.9972399 C18,14.1033337 17.1041422,15 16.0026083,15 L10.9973917,15 C9.89426273,15 9,14.1064574 9,12.9972399 L9,4.00276013 Z M10,3.9955775 C10,3.44573523 10.4378814,3 11.0029293,3 L15.9970707,3 C16.5509732,3 17,3.44483697 17,3.9955775 L17,13.0044225 C17,13.5542648 16.5621186,14 15.9970707,14 L11.0029293,14 C10.4490268,14 10,13.555163 10,13.0044225 L10,3.9955775 Z" id="Combined-Shape"></path>
                        <path d="M7,13.9775785 C6.83531898,13.9924187 6.66854485,14 6.5,14 C3.63097872,14 1.2750359,11.80325 1.02242151,9 L2.02746439,9 C2.27618653,11.2499752 4.18372317,13 6.5,13 C6.66900455,13 6.83583307,12.9906833 7,12.9725356 L7,13.9775785 Z" id="Combined-Shape"></path>
                        <polygon id="Triangle-5" transform="translate(6.500000, 13.500000) rotate(-258.000000) translate(-6.500000, -13.500000) " points="6.5 11.5 8.5 15.5 4.5 15.5"></polygon>
                    </g>
                </g>
            </g>
        </g>
    </g>
</svg>