<?xml version="1.0" encoding="UTF-8" standalone="no"?>
<svg width="24px" height="24px" viewBox="0 0 24 24" version="1.1" xmlns="http://www.w3.org/2000/svg" xmlns:xlink="http://www.w3.org/1999/xlink">
    <!-- Generator: Sketch 43.1 (39012) - http://www.bohemiancoding.com/sketch -->
    <title>dongtai</title>
    <desc>Created with Sketch.</desc>
    <defs></defs>
    <g id="Page-1" stroke="none" stroke-width="1" fill="none" fill-rule="evenodd">
        <g id="dongtai" fill-rule="nonzero" fill="#9DA1A3">
            <path d="M12,24 C11.4477153,24 11,23.5522847 11,23 C11,22.4477153 11.4477153,22 12,22 C17.5228475,22 22,17.5228475 22,12 C22,6.4771525 17.5228475,2 12,2 C6.4771525,2 2,6.4771525 2,12 C2,12.4475045 2.02939481,12.8881435 2.08635893,13.3200915 L2.08392628,13.3204645 C2.09448475,13.3787092 2.09999847,13.4387107 2.09999847,13.5 C2.09999847,14.0522847 1.65228322,14.5 1.09999847,14.5 C0.575052027,14.5 0.144578846,14.0955119 0.103247947,13.5812046 C0.0351420973,13.0637965 0,12.5360022 0,12 C0,5.372583 5.372583,0 12,0 C18.627417,0 24,5.372583 24,12 C24,18.627417 18.627417,24 12,24 Z M2,18 C1.44771525,18 1,17.5522847 1,17 C1,16.4477153 1.44771525,16 2,16 C2.55228475,16 3,16.4477153 3,17 C3,17.5522847 2.55228475,18 2,18 Z M5,22 C4.44771525,22 4,21.5522847 4,21 C4,20.4477153 4.44771525,20 5,20 C5.55228475,20 6,20.4477153 6,21 C6,21.5522847 5.55228475,22 5,22 Z M9,24 C8.44771525,24 8,23.5522847 8,23 C8,22.4477153 8.44771525,22 9,22 C9.55228475,22 10,22.4477153 10,23 C10,23.5522847 9.55228475,24 9,24 Z M12,19 C8.13400675,19 5,15.8659932 5,12 C5,8.13400675 8.13400675,5 12,5 C15.8659932,5 19,8.13400675 19,12 C19,15.8659932 15.8659932,19 12,19 Z M14.1002206,11.6933398 L11.469018,10.0488382 C10.9381178,9.71702558 10.5,9.95453295 10.5,10.5852917 L10.5,14.0126605 C10.5,14.6478884 10.9338441,14.8835976 11.469018,14.549114 L14.1002206,12.9046123 C14.6311208,12.5727997 14.6353945,12.0278235 14.1002206,11.6933398 Z" id="动态"></path>
        </g>
    </g>
</svg>