<?xml version="1.0" encoding="UTF-8"?>
<svg width="40px" height="40px" viewBox="0 0 40 40" version="1.1" xmlns="http://www.w3.org/2000/svg" xmlns:xlink="http://www.w3.org/1999/xlink">
    <!-- Generator: Sketch 43.1 (39012) - http://www.bohemiancoding.com/sketch -->
    <title>Group 6</title>
    <desc>Created with Sketch.</desc>
    <defs></defs>
    <g id="工作页" stroke="none" stroke-width="1" fill="none" fill-rule="evenodd">
        <g id="工作页-薪酬假勤" transform="translate(-36.000000, -312.000000)">
            <g id="Group-15" transform="translate(12.000000, 286.000000)">
                <g id="Group-5" transform="translate(0.000000, 12.000000)">
                    <g id="Group-2">
                        <g id="Group-6" transform="translate(24.000000, 14.000000)">
                            <rect id="Rectangle-2" fill="#FF7360" x="2.77555756e-15" y="0" width="40" height="40" rx="10"></rect>
                            <g id="Group-11" transform="translate(7.000000, 7.000000)" fill-rule="nonzero" fill="#FFFFFF">
                                <path d="M13,26 C12.4477153,26 12,25.5522847 12,25 C12,24.4477153 12.4477153,24 13,24 C19.0751322,24 24,19.0751322 24,13 C24,6.92486775 19.0751322,2 13,2 C6.92486775,2 2,6.92486775 2,13 C2,13.5577087 2.04142288,14.1098596 2.12331357,14.653497 C2.20557876,15.1996205 1.82954729,15.7090302 1.28342378,15.7912954 C0.737300277,15.8735606 0.227890592,15.4975291 0.145625407,14.9514056 C0.048893417,14.3092432 0,13.6575129 0,13 C0,5.82029825 5.82029825,0 13,0 C20.1797017,0 26,5.82029825 26,13 C26,20.1797017 20.1797017,26 13,26 Z M2,20 C1.44771525,20 1,19.5522847 1,19 C1,18.4477153 1.44771525,18 2,18 C2.55228475,18 3,18.4477153 3,19 C3,19.5522847 2.55228475,20 2,20 Z M5,24 C4.44771525,24 4,23.5522847 4,23 C4,22.4477153 4.44771525,22 5,22 C5.55228475,22 6,22.4477153 6,23 C6,23.5522847 5.55228475,24 5,24 Z M9,26 C8.44771525,26 8,25.5522847 8,25 C8,24.4477153 8.44771525,24 9,24 C9.55228475,24 10,24.4477153 10,25 C10,25.5522847 9.55228475,26 9,26 Z M13,21 C8.581722,21 5,17.418278 5,13 C5,8.581722 8.581722,5 13,5 C17.418278,5 21,8.581722 21,13 C21,17.418278 17.418278,21 13,21 Z M15.1002206,12.6933398 L12.469018,11.0488382 C11.9381178,10.7170256 11.5,10.954533 11.5,11.5852917 L11.5,15.0126605 C11.5,15.6478884 11.9338441,15.8835976 12.469018,15.549114 L15.1002206,13.9046123 C15.6311208,13.5727997 15.6353945,13.0278235 15.1002206,12.6933398 Z" id="动态"></path>
                            </g>
                        </g>
                    </g>
                </g>
            </g>
        </g>
    </g>
</svg>