<?xml version="1.0" encoding="UTF-8" standalone="no"?>
<svg width="18px" height="18px" viewBox="0 0 18 18" version="1.1" xmlns="http://www.w3.org/2000/svg" xmlns:xlink="http://www.w3.org/1999/xlink">
    <!-- Generator: Sketch 3.7.1 (28215) - http://www.bohemiancoding.com/sketch -->
    <title>Combined Shape</title>
    <desc>Created with Sketch.</desc>
    <defs></defs>
    <g id="发分享控件" stroke="none" stroke-width="1" fill="none" fill-rule="evenodd">
        <g id="发表框控件" transform="translate(-147.000000, -501.000000)" fill="#66757F">
            <g id="发表框-一行文字" transform="translate(70.000000, 369.000000)">
                <g id="功能按钮" transform="translate(5.000000, 124.000000)">
                    <path d="M85.8999819,18 C85.4367116,20.2822403 83.4189579,22 81,22 C78.5810421,22 76.5632884,20.2822403 76.1000181,18 L77.1260175,18 C77.5700603,19.7252272 79.1361606,21 81,21 C82.8638394,21 84.4299397,19.7252272 84.8739825,18 L85.8999819,18 Z M81,26 C85.9705627,26 90,21.9705627 90,17 C90,12.0294373 85.9705627,8 81,8 C76.0294373,8 72,12.0294373 72,17 C72,21.9705627 76.0294373,26 81,26 Z M81,25 C85.418278,25 89,21.418278 89,17 C89,12.581722 85.418278,9 81,9 C76.581722,9 73,12.581722 73,17 C73,21.418278 76.581722,25 81,25 Z M78,17 C78.5522847,17 79,16.3284271 79,15.5 C79,14.6715729 78.5522847,14 78,14 C77.4477153,14 77,14.6715729 77,15.5 C77,16.3284271 77.4477153,17 78,17 Z M84,17 C84.5522847,17 85,16.3284271 85,15.5 C85,14.6715729 84.5522847,14 84,14 C83.4477153,14 83,14.6715729 83,15.5 C83,16.3284271 83.4477153,17 84,17 Z" id="Combined-Shape"></path>
                </g>
            </g>
        </g>
    </g>
</svg>