<?xml version="1.0" encoding="UTF-8" standalone="no"?>
<svg width="9px" height="8px" viewBox="0 0 9 8" version="1.1" xmlns="http://www.w3.org/2000/svg" xmlns:xlink="http://www.w3.org/1999/xlink">
    <!-- Generator: Sketch 3.7.1 (28215) - http://www.bohemiancoding.com/sketch -->
    <title>icons-sys-Forward2-nomal</title>
    <desc>Created with Sketch.</desc>
    <defs></defs>
    <g id="Page-1" stroke="none" stroke-width="1" fill="none" fill-rule="evenodd">
        <g id="系统图标" transform="translate(-465.000000, -37.000000)" fill="#66757F">
            <g id="Nomal" transform="translate(118.000000, 33.000000)">
                <g id="icons-sys-Forward2-nomal" transform="translate(347.000000, 4.000000)">
                    <path d="M0.00813050753,4.09703842 C0.0185797591,4.16499166 0.0408232009,4.23122647 0.0757865419,4.29118253 C0.0761189176,4.29175249 0.0764521989,4.29232141 0.0767863823,4.29288926 C0.104255686,4.34041903 0.138940767,4.3830254 0.180591932,4.41804417 L4.33259076,7.90889224 C4.52000451,8.06646284 4.78994975,8.01590463 4.92390557,7.78619366 C5.05394376,7.56320074 5.01030602,7.23898163 4.81768769,7.07703521 L1.15862283,4.00062791 L4.81910018,0.923033042 C5.00651393,0.765462443 5.05927388,0.443585572 4.92531806,0.213874597 C4.79527987,-0.00911832667 4.52662158,-0.0707704046 4.33400325,0.0911760146 L0.182004423,3.58202408 C0.180904111,3.58294919 0.17980844,3.58387995 0.178717421,3.58481633 C0.139010062,3.61751574 0.103481621,3.6589713 0.0743740511,3.70888573 C0.0075598055,3.82346056 -0.0134048003,3.96475864 0.00813050753,4.09703842 Z M4.00813051,4.09703842 C4.01857976,4.16499166 4.0408232,4.23122647 4.07578654,4.29118253 C4.07611892,4.29175249 4.0764522,4.29232141 4.07678638,4.29288926 C4.10425569,4.34041903 4.13894077,4.3830254 4.18059193,4.41804417 L8.33259076,7.90889224 C8.52000451,8.06646284 8.78994975,8.01590463 8.92390557,7.78619366 C9.05394376,7.56320074 9.01030602,7.23898163 8.81768769,7.07703521 L5.15862283,4.00062791 L8.81910018,0.923033042 C9.00651393,0.765462443 9.05927388,0.443585572 8.92531806,0.213874597 C8.79527987,-0.00911832667 8.52662158,-0.0707704046 8.33400325,0.0911760146 L4.18200442,3.58202408 C4.18090411,3.58294919 4.17980844,3.58387995 4.17871742,3.58481633 C4.13901006,3.61751574 4.10348162,3.6589713 4.07437405,3.70888573 C4.00755981,3.82346056 3.9865952,3.96475864 4.00813051,4.09703842 Z" transform="translate(4.500000, 4.000000) scale(-1, 1) translate(-4.500000, -4.000000) "></path>
                </g>
            </g>
        </g>
    </g>
</svg>