<?xml version="1.0" encoding="UTF-8"?>
<svg width="40px" height="40px" viewBox="0 0 40 40" version="1.1" xmlns="http://www.w3.org/2000/svg" xmlns:xlink="http://www.w3.org/1999/xlink">
    <!-- Generator: Sketch 43.1 (39012) - http://www.bohemiancoding.com/sketch -->
    <title>Group 19</title>
    <desc>Created with Sketch.</desc>
    <defs></defs>
    <g id="工作页" stroke="none" stroke-width="1" fill="none" fill-rule="evenodd">
        <g id="工作页-无统计" transform="translate(-124.000000, -394.000000)">
            <g id="Group-15" transform="translate(12.000000, 192.000000)">
                <g id="Group-5" transform="translate(0.000000, 12.000000)">
                    <g id="Group-2-Copy-9" transform="translate(88.000000, 176.000000)">
                        <g id="Group-3" transform="translate(4.000000, 14.000000)">
                            <g id="Group-19" transform="translate(20.000000, 0.000000)">
                                <rect id="Rectangle-2" fill="#F3F4F5" x="2.77555756e-15" y="0" width="40" height="40" rx="10"></rect>
                                <path d="M10,11.9973917 C10,10.8942627 10.8958578,10 11.9973917,10 L17.0026083,10 C18.1057373,10 19,10.8958578 19,11.9973917 L19,17.0026083 C19,18.1057373 18.1041422,19 17.0026083,19 L11.9973917,19 C10.8942627,19 10,18.1041422 10,17.0026083 L10,11.9973917 Z M10,22.9973917 C10,21.8942627 10.8958578,21 11.9973917,21 L17.0026083,21 C18.1057373,21 19,21.8958578 19,22.9973917 L19,28.0026083 C19,29.1057373 18.1041422,30 17.0026083,30 L11.9973917,30 C10.8942627,30 10,29.1041422 10,28.0026083 L10,22.9973917 Z M24.0876308,9.54840819 C24.8676608,8.76837821 26.1334671,8.7695061 26.9123692,9.54840819 L30.4515918,13.0876308 C31.2316218,13.8676608 31.2304939,15.1334671 30.4515918,15.9123692 L26.9123692,19.4515918 C26.1323392,20.2316218 24.8665329,20.2304939 24.0876308,19.4515918 L20.5484082,15.9123692 C19.7683782,15.1323392 19.7695061,13.8665329 20.5484082,13.0876308 L24.0876308,9.54840819 Z M21,22.9973917 C21,21.8942627 21.8958578,21 22.9973917,21 L28.0026083,21 C29.1057373,21 30,21.8958578 30,22.9973917 L30,28.0026083 C30,29.1057373 29.1041422,30 28.0026083,30 L22.9973917,30 C21.8942627,30 21,29.1041422 21,28.0026083 L21,22.9973917 Z" id="Combined-Shape" fill="#BFC4C7"></path>
                            </g>
                        </g>
                    </g>
                </g>
            </g>
        </g>
    </g>
</svg>