<?xml version="1.0" encoding="UTF-8" standalone="no"?>
<svg width="24px" height="24px" viewBox="0 0 24 24" version="1.1" xmlns="http://www.w3.org/2000/svg" xmlns:xlink="http://www.w3.org/1999/xlink">
    <!-- Generator: Sketch 44 (41411) - http://www.bohemiancoding.com/sketch -->
    <title>Group 69</title>
    <desc>Created with Sketch.</desc>
    <defs></defs>
    <g id="首页" stroke="none" stroke-width="1" fill="none" fill-rule="evenodd">
        <g id="全部组件1" transform="translate(-174.000000, -2906.000000)">
            <g id="Group-71" transform="translate(151.000000, 2802.000000)">
                <g id="Group-69">
                    <g transform="translate(0.000000, 39.000000)" id="Group-100">
                        <g transform="translate(23.000000, 66.000000)">
                            <g id="Group-8" transform="translate(6.400000, 0.000000)">
                                <polygon id="Rectangle-17" fill="#6CC10F" transform="translate(8.400000, 2.400000) scale(-1, 1) translate(-8.400000, -2.400000) " points="4.8 0 8.32653061 0 12 4.8 8.47346939 4.8"></polygon>
                                <polygon id="Rectangle-17" fill="#7ED321" points="0 0 3.52653061 0 7.2 4.8 3.67346939 4.8"></polygon>
                            </g>
                            <rect id="Rectangle-7" opacity="0.507695896" x="0" y="0" width="24" height="24"></rect>
                            <circle id="Oval-13" fill="#EFAE44" cx="12" cy="12.8" r="9.6"></circle>
                            <circle id="Oval-11" fill="#FCE26C" cx="12" cy="12.8" r="8"></circle>
                            <path d="M12.0333333,15.9116454 L9.66685058,17.2256226 C9.18838634,17.4912874 8.86950945,17.2668136 8.9554051,16.7192356 L9.40197349,13.8723976 L7.49912766,11.8777361 C7.11440325,11.4744481 7.24450998,11.0770498 7.78747917,10.9904811 L10.4070635,10.5728253 L11.6060501,8.00783721 C11.8420321,7.50300163 12.2198872,7.49284553 12.4606166,8.00783721 L13.6596032,10.5728253 L16.2791875,10.9904811 C16.823164,11.0772104 16.9557451,11.4707983 16.567539,11.8777361 L14.6646932,13.8723976 L15.1112616,16.7192356 C15.1968053,17.2645702 14.8697452,17.4865483 14.3998161,17.2256226 L12.0333333,15.9116454 Z" id="Star" fill="#EFAE44"></path>
                        </g>
                    </g>
                </g>
            </g>
        </g>
    </g>
</svg>