<?xml version="1.0" encoding="UTF-8" standalone="no"?>
<svg width="14px" height="14px" viewBox="0 0 14 14" version="1.1" xmlns="http://www.w3.org/2000/svg" xmlns:xlink="http://www.w3.org/1999/xlink">
    <!-- Generator: Sketch 3.7.1 (28215) - http://www.bohemiancoding.com/sketch -->
    <title>icons-sys-guanbi-hove\active</title>
    <desc>Created with Sketch.</desc>
    <defs></defs>
    <g id="Page-1" stroke="none" stroke-width="1" fill="none" fill-rule="evenodd">
        <g id="系统图标" transform="translate(-563.000000, -83.000000)" fill="#CC2929">
            <g id="Hove\Active" transform="translate(118.000000, 37.000000)">
                <g id="icons-sys-guanbi-hove\active" transform="translate(445.000000, 46.000000)">
                    <path d="M2.05025253,11.9497475 C4.78392257,14.6834175 9.21607743,14.6834175 11.9497475,11.9497475 C14.6834175,9.21607743 14.6834175,4.78392257 11.9497475,2.05025253 C9.21607743,-0.68341751 4.78392257,-0.68341751 2.05025253,2.05025253 C-0.68341751,4.78392257 -0.68341751,9.21607743 2.05025253,11.9497475 Z M7,5.89237711 L5.33601679,4.22839391 C5.03710639,3.9294835 4.5368044,3.92508117 4.23094279,4.23094279 C3.92294876,4.53893681 3.92394,5.03156288 4.22839391,5.33601679 L5.89237711,7 L4.22839391,8.66398321 C3.9294835,8.96289361 3.92508117,9.4631956 4.23094279,9.76905721 C4.53893681,10.0770512 5.03156288,10.07606 5.33601679,9.77160609 L7,8.10762289 L8.66398321,9.77160609 C8.96289361,10.0705165 9.4631956,10.0749188 9.76905721,9.76905721 C10.0770512,9.46106319 10.07606,8.96843712 9.77160609,8.66398321 L8.10762289,7 L9.77160609,5.33601679 C10.0705165,5.03710639 10.0749188,4.5368044 9.76905721,4.23094279 C9.46106319,3.92294876 8.96843712,3.92394 8.66398321,4.22839391 L7,5.89237711 L7,5.89237711 Z" id="Combined-Shape"></path>
                </g>
            </g>
        </g>
    </g>
</svg>