<?xml version="1.0" encoding="UTF-8" standalone="no"?>
<svg width="24px" height="24px" viewBox="0 0 24 24" version="1.1" xmlns="http://www.w3.org/2000/svg" xmlns:xlink="http://www.w3.org/1999/xlink">
    <!-- Generator: Sketch 41.2 (35397) - http://www.bohemiancoding.com/sketch -->
    <title>ic_cancel</title>
    <desc>Created with Sketch.</desc>
    <defs></defs>
    <g id="Page-1" stroke="none" stroke-width="1" fill="none" fill-rule="evenodd">
        <rect id="Rectangle-26" fill="#FFFFFF" x="-109" y="-79" width="543" height="168"></rect>
        <g id="ic_cancel">
            <g id="ic_next" transform="translate(12.000000, 12.000000) scale(-1, 1) translate(-12.000000, -12.000000) ">
                <rect id="Rectangle-13" fill="#D8D8D8" opacity="0" x="0" y="0" width="24" height="24"></rect>
                <path d="M10.6964109,3.50481202 C8.07099697,3.5893369 5.58795552,4.74544066 3.83025899,6.76743922 C0.388110719,10.7271778 0.807700604,16.7275927 4.76743922,20.169741 C8.72717785,23.6118893 14.7275927,23.1922994 18.169741,19.2325608 C21.6118893,15.2728222 21.1922994,9.27240726 17.2325608,5.83025899 C17.0241535,5.64909329 16.7083422,5.67117697 16.5271765,5.87958426 C16.3460108,6.08799156 16.3680945,6.40380287 16.5765017,6.58496857 C20.1194258,9.66478544 20.4948483,15.0335777 17.4150314,18.5765017 C14.3352146,22.1194258 8.96642228,22.4948483 5.42349825,19.4150314 C1.88057422,16.3352146 1.5051517,10.9664223 4.58496857,7.42349825 C6.15817319,5.61373336 8.37848732,4.5799554 10.7285891,4.50429417 C11.0045885,4.4954084 11.2211268,4.26446337 11.2122411,3.98846399 C11.2033553,3.71246462 10.9724103,3.49592625 10.6964109,3.50481202 Z" id="Oval-4" fill="#66757F"></path>
                <path d="M21.3564465,6.52387622 C21.6315381,6.54794361 21.8740544,6.34444831 21.8981218,6.06935674 C21.9221892,5.79426517 21.7186939,5.55174891 21.4436023,5.52768152 L15.9645314,5.04832493 L15.4851749,10.5273958 C15.4611075,10.8024873 15.6646028,11.0450036 15.9396943,11.069071 C16.2147859,11.0931384 16.4573022,10.8896431 16.4813696,10.6145515 L16.8735704,6.13167537 L21.3564465,6.52387622 Z" id="Rectangle-25" fill="#66757F"></path>
            </g>
        </g>
    </g>
</svg>