<?xml version="1.0" encoding="UTF-8"?>
<svg width="16px" height="16px" viewBox="0 0 16 16" version="1.1" xmlns="http://www.w3.org/2000/svg" xmlns:xlink="http://www.w3.org/1999/xlink">
    <!-- Generator: Sketch 42 (36781) - http://www.bohemiancoding.com/sketch -->
    <title>sousuo</title>
    <desc>Created with Sketch.</desc>
    <defs></defs>
    <g id="Pagebuilder" stroke="none" stroke-width="1" fill="none" fill-rule="evenodd">
        <g id="2-pagebuilder组件交互" transform="translate(-356.000000, -373.000000)">
            <g id="搜素-激活" transform="translate(345.000000, 354.000000)">
                <rect id="Rectangle-5-Copy" fill="#FFFFFF" x="1" y="0" width="200" height="61"></rect>
                <g id="搜索－默认-copy" fill="#1587D9">
                    <g id="内容" transform="translate(11.000000, 15.000000)">
                        <g id="sousuo" transform="translate(0.000000, 4.000000)">
                            <path d="M7,13 L7,13 C10.3137085,13 13,10.3137085 13,7 C13,3.6862915 10.3137085,1 7,1 C3.6862915,1 1,3.6862915 1,7 C1,10.3137085 3.6862915,13 7,13 L7,13 Z M0,7 C0,3.13400675 3.13400675,0 7,0 C10.8659932,0 14,3.13400675 14,7 C14,10.8659932 10.8659932,14 7,14 C3.13400675,14 0,10.8659932 0,7 Z" id="Oval-1" fill-rule="nonzero"></path>
                            <path d="M11.1892716,11.1944042 C11.4445076,10.9397352 11.8499955,10.9314222 12.1114359,11.192282 L15.8128554,14.8854797 C16.0669167,15.1389767 16.0584999,15.5583746 15.8107284,15.8055958 L15.8107284,15.8055958 C15.5554924,16.0602648 15.1500045,16.0685778 14.8885641,15.807718 L11.1871446,12.1145203 C10.9330833,11.8610233 10.9415001,11.4416254 11.1892716,11.1944042 L11.1892716,11.1944042 L11.1892716,11.1944042 Z" id="Rectangle-1"></path>
                        </g>
                    </g>
                </g>
            </g>
        </g>
    </g>
</svg>