<?xml version="1.0" encoding="UTF-8" standalone="no"?>
<svg width="20px" height="20px" viewBox="0 0 20 20" version="1.1" xmlns="http://www.w3.org/2000/svg" xmlns:xlink="http://www.w3.org/1999/xlink">
    <!-- Generator: Sketch 41.2 (35397) - http://www.bohemiancoding.com/sketch -->
    <title>ic_delet</title>
    <desc>Created with Sketch.</desc>
    <defs>
        <rect id="path-1" x="7" y="0" width="6" height="5" rx="2"></rect>
        <mask id="mask-2" maskContentUnits="userSpaceOnUse" maskUnits="objectBoundingBox" x="0" y="0" width="6" height="5" fill="white">
            <use xlink:href="#path-1"></use>
        </mask>
    </defs>
    <g id="pagebuilder0103" stroke="none" stroke-width="1" fill="none" fill-rule="evenodd">
        <g id="ic_delet">
            <g id="Group-18">
                <use id="Rectangle-29" stroke="#1687D9" mask="url(#mask-2)" stroke-width="4" xlink:href="#path-1"></use>
                <rect id="Rectangle-31" fill="#1687D9" x="1" y="3" width="18" height="2" rx="1"></rect>
                <path d="M4,4.00087166 C4,3.4481055 4.45576096,3 5.00247329,3 L14.9975267,3 C15.5511774,3 16,3.44463086 16,4.00087166 L16,15.9905224 C16,17.652611 14.6583772,19 13.002848,19 L6.99715203,19 C5.34187067,19 4,17.6633689 4,15.9905224 L4,4.00087166 Z M6,7.99703014 C6,7.4463856 6.44386482,7 7,7 C7.55228475,7 8,7.45303631 8,7.99703014 L8,14.0029699 C8,14.5536144 7.55613518,15 7,15 C6.44771525,15 6,14.5469637 6,14.0029699 L6,7.99703014 Z M9,7.99703014 C9,7.4463856 9.44386482,7 10,7 C10.5522847,7 11,7.45303631 11,7.99703014 L11,14.0029699 C11,14.5536144 10.5561352,15 10,15 C9.44771525,15 9,14.5469637 9,14.0029699 L9,7.99703014 Z M12,7.99703014 C12,7.4463856 12.4438648,7 13,7 C13.5522847,7 14,7.45303631 14,7.99703014 L14,14.0029699 C14,14.5536144 13.5561352,15 13,15 C12.4477153,15 12,14.5469637 12,14.0029699 L12,7.99703014 Z" id="Combined-Shape" fill="#1687D9"></path>
            </g>
        </g>
    </g>
</svg>