<?xml version="1.0" encoding="UTF-8" standalone="no"?>
<svg width="20px" height="20px" viewBox="0 0 20 20" version="1.1" xmlns="http://www.w3.org/2000/svg" xmlns:xlink="http://www.w3.org/1999/xlink">
    <!-- Generator: Sketch 41.2 (35397) - http://www.bohemiancoding.com/sketch -->
    <title>ic_edit</title>
    <desc>Created with Sketch.</desc>
    <defs></defs>
    <g id="pagebuilder0103" stroke="none" stroke-width="1" fill="none" fill-rule="evenodd">
        <g id="ic_edit" fill="#1687D9">
            <g id="Group-2">
                <g id="Group-17">
                    <path d="M20,11.7040536 L20,8.29594638 L17.5918077,8.29594638 C17.3916332,7.41136335 17.0409662,6.58383066 16.5679703,5.84194186 L18.2760403,4.13387185 L15.8661672,1.72397922 L14.1537584,3.43640765 C13.4124559,2.96757474 12.5865649,2.62060164 11.7039754,2.42326105 L11.7039754,0 L8.29592683,0 L8.29592683,2.42247928 C7.41300509,2.61940942 6.58666461,2.96620662 5.84483444,3.43505908 L4.13383276,1.72395967 L1.72397922,4.13389139 L3.42993843,5.83973334 C2.95618031,6.58220847 2.60506378,7.41054249 2.40473289,8.29594638 L-1.77635684e-15,8.29594638 L-1.77635684e-15,11.7040341 L2.39527336,11.7040341 C2.59163672,12.5951645 2.94060336,13.4288928 3.41350152,14.1766254 L1.72397922,15.8661477 L4.13383276,18.2760208 L5.81903573,16.5907983 C6.56735466,17.0678789 7.40276378,17.4205004 8.29600501,17.6196782 L8.29600501,20 L11.7040927,20 L11.7040927,17.6189746 C12.5968453,17.419445 13.4316486,17.0665304 14.1795962,16.5894692 L15.8661086,18.2759817 L18.2759622,15.8661086 L16.5843095,14.174456 C17.0565041,13.4272901 17.4050603,12.594285 17.6012086,11.7039364 L19.9999805,11.7039364 L19.9999805,11.7040927 L20,11.7040536 L20,11.7040536 Z M5,10.0000649 C5,7.23865477 7.23852905,5 9.99994434,5 C12.7614524,5 15,7.23861766 15,10.0000649 C15,12.7615122 12.7614153,15 9.99994434,15 C7.23856615,15 5,12.7614751 5,10.0000649 Z" id="Shape"></path>
                    <circle id="Oval" cx="10" cy="10" r="2"></circle>
                </g>
            </g>
        </g>
    </g>
</svg>