<?xml version="1.0" encoding="UTF-8" standalone="no"?>
<svg width="24px" height="24px" viewBox="0 0 24 24" version="1.1" xmlns="http://www.w3.org/2000/svg" xmlns:xlink="http://www.w3.org/1999/xlink">
    <!-- Generator: Sketch 41.2 (35397) - http://www.bohemiancoding.com/sketch -->
    <title>ic_next</title>
    <desc>Created with Sketch.</desc>
    <defs></defs>
    <g id="Page-1" stroke="none" stroke-width="1" fill="none" fill-rule="evenodd">
        <rect id="Rectangle-26" fill="#FFFFFF" x="-75" y="-79" width="543" height="168"></rect>
        <g id="ic_next">
            <g transform="translate(12.000000, 12.000000) scale(-1, 1) translate(-12.000000, -12.000000) ">
                <rect id="Rectangle-13" fill="#D8D8D8" opacity="0" x="0" y="0" width="24" height="24"></rect>
                <path d="M1.15152477,12.4747952 C1.14164442,12.6129703 1.18753416,12.7547842 1.29209184,12.8593418 L9.24878448,20.8160345 C9.43366324,21.0009132 9.75715653,21.007824 9.95241867,20.8125619 C10.1419702,20.6230103 10.1492356,20.302272 9.95589126,20.1089277 L2.33109833,12.4841348 L9.95589126,4.85934184 C10.14077,4.67446308 10.1476808,4.35096979 9.95241867,4.15570764 C9.7628671,3.96615607 9.44212877,3.95889077 9.24878448,4.15223506 L1.29209184,12.1089277 C1.19534716,12.2056724 1.14733535,12.3403738 1.15152477,12.4747952 Z" id="Combined-Shape" fill="#66757F"></path>
                <rect id="Rectangle-19" fill="#66757F" x="2" y="12" width="21" height="1" rx="0.5"></rect>
            </g>
        </g>
    </g>
</svg>