<?xml version="1.0" encoding="UTF-8"?>
<svg width="8px" height="8px" viewBox="0 0 8 8" version="1.1" xmlns="http://www.w3.org/2000/svg" xmlns:xlink="http://www.w3.org/1999/xlink">
    <!-- Generator: Sketch 39.1 (31720) - http://www.bohemiancoding.com/sketch -->
    <title>Line</title>
    <desc>Created with Sketch.</desc>
    <defs>
        <rect id="path-1" x="0" y="0" width="10" height="10"></rect>
    </defs>
    <g id="属性面板_面板+内容样式" stroke="none" stroke-width="1" fill="none" fill-rule="evenodd">
        <g id="Group-2" transform="translate(-21.000000, -3.000000)">
            <g id="Combined-Shape" transform="translate(20.000000, 2.000000)">
                <mask id="mask-2" fill="white">
                    <use xlink:href="#path-1"></use>
                </mask>
                <use id="Mask" fill="#C3C3C3" opacity="0" xlink:href="#path-1"></use>
                <path d="M1.29289322,2.70710678 L7.29289322,8.70710678 C7.68341751,9.09763107 8.31658249,9.09763107 8.70710678,8.70710678 C9.09763107,8.31658249 9.09763107,7.68341751 8.70710678,7.29289322 L2.70710678,1.29289322 C2.31658249,0.902368927 1.68341751,0.902368927 1.29289322,1.29289322 C0.902368927,1.68341751 0.902368927,2.31658249 1.29289322,2.70710678 Z" id="Line" fill="#1687D9" mask="url(#mask-2)"></path>
                <path d="M7.29289322,1.29289322 L1.29289322,7.29289322 C0.902368927,7.68341751 0.902368927,8.31658249 1.29289322,8.70710678 C1.68341751,9.09763107 2.31658249,9.09763107 2.70710678,8.70710678 L8.70710678,2.70710678 C9.09763107,2.31658249 9.09763107,1.68341751 8.70710678,1.29289322 C8.31658249,0.902368927 7.68341751,0.902368927 7.29289322,1.29289322 Z" id="Line" fill="#1687D9" mask="url(#mask-2)"></path>
            </g>
        </g>
    </g>
</svg>