<?xml version="1.0" encoding="UTF-8" standalone="no"?>
<svg width="16px" height="16px" viewBox="0 0 16 16" version="1.1" xmlns="http://www.w3.org/2000/svg" xmlns:xlink="http://www.w3.org/1999/xlink">
    <!-- Generator: Sketch 41.2 (35397) - http://www.bohemiancoding.com/sketch -->
    <title>ic_pre_phone</title>
    <desc>Created with Sketch.</desc>
    <defs></defs>
    <g id="预览页图标" stroke="none" stroke-width="1" fill="none" fill-rule="evenodd">
        <g id="ic_pre_phone">
            <rect id="Rectangle-2" fill="#D8D8D8" opacity="0" x="0" y="0" width="16" height="16"></rect>
            <path d="M4,2.00684547 C4,1.45078007 4.45303631,1 4.99703014,1 L11.0029699,1 C11.5536144,1 12,1.44994876 12,2.00684547 L12,13.9931545 C12,14.5492199 11.5469637,15 11.0029699,15 L4.99703014,15 C4.4463856,15 4,14.5500512 4,13.9931545 L4,2.00684547 Z M5,3 L11,3 L11,12 L5,12 L5,3 Z M7,13.5 C7,13.2238576 7.21403503,13 7.50468445,13 L8.49531555,13 C8.77404508,13 9,13.2319336 9,13.5 C9,13.7761424 8.78596497,14 8.49531555,14 L7.50468445,14 C7.22595492,14 7,13.7680664 7,13.5 Z M7.5,2 C7.5,1.72385763 7.73193359,1.5 8,1.5 C8.27614237,1.5 8.5,1.73193359 8.5,2 C8.5,2.27614237 8.26806641,2.5 8,2.5 C7.72385763,2.5 7.5,2.26806641 7.5,2 Z" id="Combined-Shape" fill="#1687D9"></path>
        </g>
    </g>
</svg>