<?xml version="1.0" encoding="UTF-8" standalone="no"?>
<svg width="24px" height="24px" viewBox="0 0 24 24" version="1.1" xmlns="http://www.w3.org/2000/svg" xmlns:xlink="http://www.w3.org/1999/xlink">
    <!-- Generator: Sketch 41.2 (35397) - http://www.bohemiancoding.com/sketch -->
    <title>ic_preview_act</title>
    <desc>Created with Sketch.</desc>
    <defs></defs>
    <g id="Page-1" stroke="none" stroke-width="1" fill="none" fill-rule="evenodd">
        <rect id="Rectangle-26" fill="#FFFFFF" x="-143" y="-39" width="543" height="168"></rect>
        <g id="ic_preview_act">
            <g id="preview" transform="translate(12.000000, 12.000000) scale(-1, 1) translate(-12.000000, -12.000000) ">
                <rect id="Rectangle-13" fill="#757575" opacity="0" x="0" y="0" width="24" height="24"></rect>
                <g id="Group-11" transform="translate(0.000000, 3.000000)" fill="#1687D9">
                    <path d="M12,17 C14.7077465,17 17.1095261,15.8713569 19.187682,13.9684054 C19.9253644,13.2929154 20.5674668,12.5672768 21.1083946,11.8429026 C21.4289517,11.4136341 21.6408607,11.0866592 21.7400089,10.9139551 L21.7979613,10.8244305 C22.5219893,9.82690426 22.5278604,8.13051936 21.8035367,7.18408163 L21.7302555,7.07392823 C21.631436,6.90166904 21.4200894,6.57541492 21.1002555,6.14704919 C20.5605084,5.42414514 19.9196023,4.69996825 19.1830555,4.02583111 C17.1079206,2.126528 14.7079698,1 12,1 C9.29225349,1 6.89047395,2.12864311 4.81231796,4.03159456 C4.07463562,4.70708461 3.43253319,5.43272323 2.8916054,6.15709742 C2.57104835,6.58636591 2.35913931,6.91334083 2.25999111,7.08604494 L2.20203866,7.1755695 C1.47801066,8.17309574 1.47213961,9.86948064 2.19646329,10.8159184 L2.26974453,10.9260718 C2.36856403,11.098331 2.57991061,11.4245851 2.89974446,11.8529508 C3.43949162,12.5758549 4.08039773,13.3000317 4.81694449,13.9741689 C6.89207942,15.873472 9.29203023,17 12,17 Z M12,18 C5.17496371,18 1.4023392,11.423674 1.4023392,11.423674 C0.392047936,10.1035767 0.425933903,7.92018476 1.39274505,6.58816516 C1.39274505,6.58816516 5.17496371,0 12,0 C18.8250363,0 22.5976608,6.57632598 22.5976608,6.57632598 C23.6079521,7.89642334 23.5740661,10.0798152 22.607255,11.4118348 C22.607255,11.4118348 18.8250363,18 12,18 Z" id="Oval-2"></path>
                    <path d="M12,13 C14.209139,13 16,11.209139 16,9 C16,6.790861 14.209139,5 12,5 C9.790861,5 8,6.790861 8,9 C8,11.209139 9.790861,13 12,13 Z M12,14 C9.23857625,14 7,11.7614237 7,9 C7,6.23857625 9.23857625,4 12,4 C14.7614237,4 17,6.23857625 17,9 C17,11.7614237 14.7614237,14 12,14 Z" id="Oval-3"></path>
                </g>
            </g>
        </g>
    </g>
</svg>