<?xml version="1.0" encoding="UTF-8" standalone="no"?>
<svg width="16px" height="16px" viewBox="0 0 16 16" version="1.1" xmlns="http://www.w3.org/2000/svg" xmlns:xlink="http://www.w3.org/1999/xlink">
    <!-- Generator: Sketch 41.2 (35397) - http://www.bohemiancoding.com/sketch -->
    <title>ic_pre_pc</title>
    <desc>Created with Sketch.</desc>
    <defs></defs>
    <g id="预览页图标" stroke="none" stroke-width="1" fill="none" fill-rule="evenodd">
        <g id="ic_pre_pc">
            <rect id="Rectangle-3" fill="#D8D8D8" opacity="0" x="0" y="0" width="16" height="16"></rect>
            <path d="M10,13 L14.9991283,13 C15.5553691,13 16,12.5511774 16,11.9975267 L16,2.00247329 C16,1.45576096 15.5518945,1 14.9991283,1 L1.00087166,1 C0.444630861,1 0,1.44882258 0,2.00247329 L0,11.9975267 C0,12.544239 0.448105505,13 1.00087166,13 L6,13 L6,14 L10,14 L10,13 Z M1,2 L15,2 L15,11 L1,11 L1,2 Z M6,14 L10,14 L12,15 L4,15 L6,14 Z M7,12.5 C7,12.2238576 7.21403503,12 7.50468445,12 L8.49531555,12 C8.77404508,12 9,12.2319336 9,12.5 C9,12.7761424 8.78596497,13 8.49531555,13 L7.50468445,13 C7.22595492,13 7,12.7680664 7,12.5 Z" id="Combined-Shape" fill="#1687D9"></path>
        </g>
    </g>
</svg>