<?xml version="1.0" encoding="UTF-8" standalone="no"?>
<svg width="16px" height="16px" viewBox="0 0 16 16" version="1.1" xmlns="http://www.w3.org/2000/svg" xmlns:xlink="http://www.w3.org/1999/xlink">
    <!-- Generator: Sketch 41.2 (35397) - http://www.bohemiancoding.com/sketch -->
    <title>ic_pre_book</title>
    <desc>Created with Sketch.</desc>
    <defs></defs>
    <g id="预览页图标" stroke="none" stroke-width="1" fill="none" fill-rule="evenodd">
        <g id="ic_pre_book">
            <rect id="Rectangle-4" fill="#D8D8D8" opacity="0" x="0" y="0" width="16" height="16"></rect>
            <path d="M1,2.99539757 C1,2.44565467 1.44994876,2 2.00684547,2 L13.9931545,2 C14.5492199,2 15,2.4556644 15,2.99539757 L15,11.0046024 C15,11.5543453 14.5500512,12 13.9931545,12 L2.00684547,12 C1.45078007,12 1,11.5443356 1,11.0046024 L1,2.99539757 Z M2,3 L14,3 L14,11 L2,11 L2,3 Z M0,13 C0,12.4477153 0.444630861,12 1.00087166,12 L14.9991283,12 C15.5518945,12 16,12.4438648 16,13 C16,13.5522847 15.5553691,14 14.9991283,14 L1.00087166,14 C0.448105505,14 0,13.5561352 0,13 Z M7,12.5 C7,12.2238576 7.21403503,12 7.50468445,12 L8.49531555,12 C8.77404508,12 9,12.2319336 9,12.5 C9,12.7761424 8.78596497,13 8.49531555,13 L7.50468445,13 C7.22595492,13 7,12.7680664 7,12.5 Z" id="Combined-Shape" fill="#1687D9"></path>
        </g>
    </g>
</svg>