<?xml version="1.0" encoding="UTF-8" standalone="no"?>
<svg width="16px" height="16px" viewBox="0 0 16 16" version="1.1" xmlns="http://www.w3.org/2000/svg" xmlns:xlink="http://www.w3.org/1999/xlink">
    <!-- Generator: Sketch 41.2 (35397) - http://www.bohemiancoding.com/sketch -->
    <title>ic_pre_pad</title>
    <desc>Created with Sketch.</desc>
    <defs></defs>
    <g id="预览页图标" stroke="none" stroke-width="1" fill="none" fill-rule="evenodd">
        <g id="ic_pre_pad">
            <rect id="Rectangle-2" fill="#D8D8D8" opacity="0" x="0" y="0" width="16" height="16"></rect>
            <path d="M3,2.00684547 C3,1.45078007 3.4556644,1 3.99539757,1 L12.0046024,1 C12.5543453,1 13,1.44994876 13,2.00684547 L13,13.9931545 C13,14.5492199 12.5443356,15 12.0046024,15 L3.99539757,15 C3.44565467,15 3,14.5500512 3,13.9931545 L3,2.00684547 Z M4,2 L12,2 L12,12 L4,12 L4,2 Z M7,13.5 C7,13.2238576 7.21403503,13 7.50468445,13 L8.49531555,13 C8.77404508,13 9,13.2319336 9,13.5 C9,13.7761424 8.78596497,14 8.49531555,14 L7.50468445,14 C7.22595492,14 7,13.7680664 7,13.5 Z" id="Combined-Shape" fill="#1687D9"></path>
        </g>
    </g>
</svg>