<?xml version="1.0" encoding="UTF-8" standalone="no"?>
<svg width="16px" height="16px" viewBox="0 0 16 16" version="1.1" xmlns="http://www.w3.org/2000/svg" xmlns:xlink="http://www.w3.org/1999/xlink">
    <!-- Generator: Sketch 41.2 (35397) - http://www.bohemiancoding.com/sketch -->
    <title>ic_pre_close</title>
    <desc>Created with Sketch.</desc>
    <defs></defs>
    <g id="预览页图标" stroke="none" stroke-width="1" fill="none" fill-rule="evenodd">
        <g id="ic_pre_close">
            <rect id="Rectangle-18" fill="#96D1FA" opacity="0" x="0" y="0" width="16" height="16"></rect>
            <path d="M9.41421356,8 L14.2071068,12.7928932 C14.5976311,13.1834175 14.5976311,13.8165825 14.2071068,14.2071068 C13.8165825,14.5976311 13.1834175,14.5976311 12.7928932,14.2071068 L8,9.41421356 L3.20710678,14.2071068 C2.81658249,14.5976311 2.18341751,14.5976311 1.79289322,14.2071068 C1.40236893,13.8165825 1.40236893,13.1834175 1.79289322,12.7928932 L6.58578644,8 L1.79289322,3.20710678 C1.40236893,2.81658249 1.40236893,2.18341751 1.79289322,1.79289322 C2.18341751,1.40236893 2.81658249,1.40236893 3.20710678,1.79289322 L8,6.58578644 L12.7928932,1.79289322 C13.1834175,1.40236893 13.8165825,1.40236893 14.2071068,1.79289322 C14.5976311,2.18341751 14.5976311,2.81658249 14.2071068,3.20710678 L9.41421356,8 Z" id="Combined-Shape" fill="#1687D9"></path>
        </g>
    </g>
</svg>