<?xml version="1.0" encoding="UTF-8"?>
<svg width="24px" height="24px" viewBox="0 0 24 24" version="1.1" xmlns="http://www.w3.org/2000/svg" xmlns:xlink="http://www.w3.org/1999/xlink">
    <!-- Generator: Sketch 39.1 (31720) - http://www.bohemiancoding.com/sketch -->
    <title>Rectangle 13</title>
    <desc>Created with Sketch.</desc>
    <defs>
        <filter x="-50%" y="-50%" width="200%" height="200%" filterUnits="objectBoundingBox" id="filter-1">
            <feOffset dx="0" dy="2" in="SourceAlpha" result="shadowOffsetOuter1"></feOffset>
            <feGaussianBlur stdDeviation="2.5" in="shadowOffsetOuter1" result="shadowBlurOuter1"></feGaussianBlur>
            <feComposite in="shadowBlurOuter1" in2="SourceAlpha" operator="out" result="shadowBlurOuter1"></feComposite>
            <feColorMatrix values="0 0 0 0 0   0 0 0 0 0   0 0 0 0 0  0 0 0 0.295063406 0" type="matrix" in="shadowBlurOuter1" result="shadowMatrixOuter1"></feColorMatrix>
            <feMerge>
                <feMergeNode in="shadowMatrixOuter1"></feMergeNode>
                <feMergeNode in="SourceGraphic"></feMergeNode>
            </feMerge>
        </filter>
    </defs>
    <g id="顶部操作区_按钮置灰" stroke="none" stroke-width="1" fill="none" fill-rule="evenodd">
        <g id="保存状态交互" transform="translate(-1053.000000, -126.000000)">
            <g id="Group" filter="url(#filter-1)" transform="translate(86.000000, 113.000000)">
                <g id="ic_save" transform="translate(979.000000, 25.000000) scale(-1, 1) translate(-979.000000, -25.000000) translate(967.000000, 13.000000)">
                    <rect id="Rectangle-13" fill="#D8D8D8" opacity="0" x="0" y="0" width="24" height="24"></rect>
                    <g opacity="0.2" transform="translate(2.000000, 2.000000)" fill="#3E4F59">
                        <path d="M1,2.99420208 L1,17.0057979 C1,18.1054998 1.89393065,19 2.99420208,19 L17.0057979,19 C18.1054998,19 19,18.1060694 19,17.0057979 L19,2.99420208 C19,1.89450024 18.1060694,1 17.0057979,1 L2.99420208,1 C1.89450024,1 1,1.89393065 1,2.99420208 Z M0,2.99420208 C0,1.34054993 1.34331197,0 2.99420208,0 L17.0057979,0 C18.6594501,0 20,1.34331197 20,2.99420208 L20,17.0057979 C20,18.6594501 18.656688,20 17.0057979,20 L2.99420208,20 C1.34054993,20 0,18.656688 0,17.0057979 L0,2.99420208 Z" id="Rectangle-13"></path>
                        <path d="M6,4.00208688 C6,4.55085529 6.448943,5 6.99961498,5 L13.000385,5 C13.5571638,5 14,4.55634145 14,4.00208688 L14,1 L6,1 L6,4.00208688 Z M5,0 L15,0 L15,4.00208688 C15,5.10550383 14.1125667,6 13.000385,6 L6.99961498,6 C5.89525812,6 5,5.10173938 5,4.00208688 L5,0 Z M5,10.5 C5,10.2238576 5.22765279,10 5.50964952,10 L14.4903505,10 C14.7718221,10 15,10.2319336 15,10.5 C15,10.7761424 14.7723472,11 14.4903505,11 L5.50964952,11 C5.22817786,11 5,10.7680664 5,10.5 Z M5,13.5 C5,13.2238576 5.22765279,13 5.50964952,13 L14.4903505,13 C14.7718221,13 15,13.2319336 15,13.5 C15,13.7761424 14.7723472,14 14.4903505,14 L5.50964952,14 C5.22817786,14 5,13.7680664 5,13.5 Z" id="Combined-Shape"></path>
                    </g>
                </g>
            </g>
        </g>
    </g>
</svg>