<?xml version="1.0" encoding="UTF-8"?>
<svg width="24px" height="24px" viewBox="0 0 24 24" version="1.1" xmlns="http://www.w3.org/2000/svg" xmlns:xlink="http://www.w3.org/1999/xlink">
    <!-- Generator: Sketch 39.1 (31720) - http://www.bohemiancoding.com/sketch -->
    <title>ic_save</title>
    <desc>Created with Sketch.</desc>
    <defs></defs>
    <g id="顶部操作区_按钮置灰" stroke="none" stroke-width="1" fill="none" fill-rule="evenodd">
        <g id="ic_save" fill="#FFFFFF">
            <g transform="translate(12.000000, 12.000000) scale(-1, 1) translate(-12.000000, -12.000000) translate(2.000000, 2.000000)">
                <g>
                    <path d="M1,2.99420208 L1,17.0057979 C1,18.1054998 1.89393065,19 2.99420208,19 L17.0057979,19 C18.1054998,19 19,18.1060694 19,17.0057979 L19,2.99420208 C19,1.89450024 18.1060694,1 17.0057979,1 L2.99420208,1 C1.89450024,1 1,1.89393065 1,2.99420208 Z M0,2.99420208 C0,1.34054993 1.34331197,0 2.99420208,0 L17.0057979,0 C18.6594501,0 20,1.34331197 20,2.99420208 L20,17.0057979 C20,18.6594501 18.656688,20 17.0057979,20 L2.99420208,20 C1.34054993,20 0,18.656688 0,17.0057979 L0,2.99420208 Z" id="Rectangle-13"></path>
                    <path d="M6,4.00208688 C6,4.55085529 6.448943,5 6.99961498,5 L13.000385,5 C13.5571638,5 14,4.55634145 14,4.00208688 L14,1 L6,1 L6,4.00208688 Z M5,0 L15,0 L15,4.00208688 C15,5.10550383 14.1125667,6 13.000385,6 L6.99961498,6 C5.89525812,6 5,5.10173938 5,4.00208688 L5,0 Z" id="Rectangle-24"></path>
                    <rect id="Rectangle-27" x="5" y="10" width="10" height="1" rx="0.5"></rect>
                    <rect id="Rectangle-27" x="5" y="13" width="10" height="1" rx="0.5"></rect>
                </g>
            </g>
        </g>
    </g>
</svg>