<?xml version="1.0" encoding="UTF-8" standalone="no"?>
<svg width="24px" height="24px" viewBox="0 0 24 24" version="1.1" xmlns="http://www.w3.org/2000/svg" xmlns:xlink="http://www.w3.org/1999/xlink">
    <!-- Generator: Sketch 40.3 (33839) - http://www.bohemiancoding.com/sketch -->
    <title>icons-sys-cuowu-nomal</title>
    <desc>Created with Sketch.</desc>
    <defs></defs>
    <g id="系统图标" stroke="none" stroke-width="1" fill="none" fill-rule="evenodd">
        <g transform="translate(-174.000000, -236.000000)" id="系统提示图标">
            <g transform="translate(118.000000, 236.000000)">
                <g id="icons-sys-cuowu-nomal" transform="translate(56.000000, 0.000000)">
                    <circle id="Oval-9-Copy" fill="#CC2929" cx="12" cy="12" r="12"></circle>
                    <g id="×" transform="translate(12.000000, 12.000000) rotate(-315.000000) translate(-12.000000, -12.000000) translate(6.000000, 6.000000)" fill="#FFFFFF">
                        <path d="M6.85714286,5.14285714 L6.85714286,0.863010406 C6.85714286,0.385670364 6.47338693,-1.84741111e-13 6,-1.84741111e-13 C5.5233127,-1.84741111e-13 5.14285714,0.38638292 5.14285714,0.863010406 L5.14285714,5.14285714 L0.863010406,5.14285714 C0.385670364,5.14285714 -2.088034e-13,5.52661307 -2.08774413e-13,6 C-2.08745225e-13,6.4766873 0.38638292,6.85714286 0.863010406,6.85714286 L5.14285714,6.85714286 L5.14285714,11.1369896 C5.14285714,11.6143296 5.52661307,12 6,12 C6.4766873,12 6.85714286,11.6136171 6.85714286,11.1369896 L6.85714286,6.85714286 L11.1369896,6.85714286 C11.6143296,6.85714286 12,6.47338693 12,6 C12,5.5233127 11.6136171,5.14285714 11.1369896,5.14285714 L6.85714286,5.14285714 Z" id="Combined-Shape"></path>
                    </g>
                </g>
            </g>
        </g>
    </g>
</svg>