<?xml version="1.0" encoding="UTF-8" standalone="no"?>
<svg width="24px" height="24px" viewBox="0 0 24 24" version="1.1" xmlns="http://www.w3.org/2000/svg" xmlns:xlink="http://www.w3.org/1999/xlink">
    <!-- Generator: Sketch 40.3 (33839) - http://www.bohemiancoding.com/sketch -->
    <title>icons-sys-changgui-nomal</title>
    <desc>Created with Sketch.</desc>
    <defs></defs>
    <g id="系统图标" stroke="none" stroke-width="1" fill="none" fill-rule="evenodd">
        <g transform="translate(-332.000000, -236.000000)" id="系统提示图标">
            <g transform="translate(118.000000, 236.000000)">
                <g id="icons-sys-changgui-nomal" transform="translate(214.000000, 0.000000)">
                    <circle id="Oval-9-Copy" fill="#0095FF" cx="12" cy="12" r="12"></circle>
                    <path d="M13,18.0024554 C13,18.553384 12.5561352,19 12,19 C11.4477153,19 11,18.5536886 11,18.0024554 L11,10.9975446 C11,10.446616 11.4438648,10 12,10 C12.5522847,10 13,10.4463114 13,10.9975446 L13,18.0024554 Z M12,5 C11.1715729,5 10.5,5.67157288 10.5,6.5 C10.5,7.32842712 11.1715729,8 12,8 C12.8284271,8 13.5,7.32842712 13.5,6.5 C13.5,5.67157288 12.8284271,5 12,5 Z" id="Combined-Shape" fill="#FFFFFF"></path>
                </g>
            </g>
        </g>
    </g>
</svg>