<?xml version="1.0" encoding="UTF-8"?>
<svg width="40px" height="40px" viewBox="0 0 40 40" version="1.1" xmlns="http://www.w3.org/2000/svg" xmlns:xlink="http://www.w3.org/1999/xlink">
    <!-- Generator: Sketch 43.1 (39012) - http://www.bohemiancoding.com/sketch -->
    <title>Group 21</title>
    <desc>Created with Sketch.</desc>
    <defs></defs>
    <g id="工作页" stroke="none" stroke-width="1" fill="none" fill-rule="evenodd">
        <g id="工作页-薪酬假勤" transform="translate(-299.000000, -312.000000)">
            <g id="Group-15" transform="translate(12.000000, 286.000000)">
                <g id="Group-5" transform="translate(0.000000, 12.000000)">
                    <g id="Group-2-Copy-3" transform="translate(263.000000, 0.000000)">
                        <g id="Group-21" transform="translate(24.000000, 14.000000)">
                            <rect id="Rectangle-2" fill="#8BDA44" x="2.77555756e-15" y="0" width="40" height="40" rx="10"></rect>
                            <path d="M25,25 L23.990778,25 C23.4509752,25 23,25.4477153 23,26 C23,26.5561352 23.4435864,27 23.990778,27 L25,27 L25,28.009222 C25,28.5490248 25.4477153,29 26,29 C26.5561352,29 27,28.5564136 27,28.009222 L27,27 L28.009222,27 C28.5490248,27 29,26.5522847 29,26 C29,25.4438648 28.5564136,25 28.009222,25 L27,25 L27,23.990778 C27,23.4509752 26.5522847,23 26,23 C25.4438648,23 25,23.4435864 25,23.990778 L25,25 Z M24.802046,20.1196068 C25.1891436,20.0411711 25.5897638,20 26,20 C29.3137085,20 32,22.6862915 32,26 C32,29.3137085 29.3137085,32 26,32 C23.7824002,32 21.8457925,30.7969301 20.8072497,29.0078631 C20.2458901,29.0034396 19.6442823,29 19,29 C11.9323437,29 10,29.384865 10,27 C10,22.0294373 14.0294373,18 19,18 C21.2107664,18 23.2353574,18.7971113 24.802046,20.1196068 Z M19,18 C16.2385763,18 14,15.7614237 14,13 C14,10.2385763 16.2385763,8 19,8 C21.7614237,8 24,10.2385763 24,13 C24,15.7614237 21.7614237,18 19,18 Z" id="加班" fill="#FFFFFF"></path>
                        </g>
                    </g>
                </g>
            </g>
        </g>
    </g>
</svg>