<?xml version="1.0" encoding="UTF-8"?>
<svg width="40px" height="40px" viewBox="0 0 40 40" version="1.1" xmlns="http://www.w3.org/2000/svg" xmlns:xlink="http://www.w3.org/1999/xlink">
    <!-- Generator: Sketch 43.1 (39012) - http://www.bohemiancoding.com/sketch -->
    <title>Group 4</title>
    <desc>Created with Sketch.</desc>
    <defs></defs>
    <g id="工作页" stroke="none" stroke-width="1" fill="none" fill-rule="evenodd">
        <g id="工作页-无统计" transform="translate(-36.000000, -306.000000)">
            <g id="Group-15" transform="translate(12.000000, 192.000000)">
                <g id="Group-5" transform="translate(0.000000, 12.000000)">
                    <g id="Group-2-Copy-4" transform="translate(0.000000, 88.000000)">
                        <g id="Group-4" transform="translate(24.000000, 14.000000)">
                            <rect id="Rectangle-2" fill="#00E099" x="2.77555756e-15" y="0" width="40" height="40" rx="10"></rect>
                            <path d="M23.6549672,19.4761905 C23.6010604,19.3109687 23.503295,19.1330451 23.3591048,18.947645 C23.3591048,18.947645 22.2942297,18.2009519 22.2942297,15.8780943 C22.2942297,14.5150243 22.6701412,13.6577711 22.9807889,13.1820641 C24.0517564,13.0865085 24.8888889,12.1886906 24.8888889,11.0952381 C24.8888889,9.93000249 23.9497709,9 22.7913102,9 L17.2086898,9 C16.0486455,9 15.1111111,9.93807005 15.1111111,11.0952381 C15.1111111,12.2076721 15.9670469,13.1057088 17.0526242,13.1848119 C17.3567916,13.6591794 17.7128359,14.5069291 17.7128359,15.8763691 C17.7128359,18.2669346 16.6613482,18.9523213 16.6613482,18.9523213 C16.5277166,19.1381221 16.434519,19.3140082 16.380399,19.4761905 L15.6700773,19.4761905 C14.0071165,19.4761905 12.4456737,20.8021481 12.1730651,22.4377998 L11.9570761,23.733734 C10.2709195,24.0611299 9,25.5482657 9,27.3333333 C9,29.3542569 10.6375403,31 12.6575486,31 L27.3424514,31 C29.3643978,31 31,29.3583774 31,27.3333333 C31,25.5521023 29.7278663,24.0623325 28.0429683,23.734 L27.8269349,22.4377998 C27.5546686,20.8042018 25.9886606,19.4761905 24.3299227,19.4761905 L23.6549672,19.4761905 Z" id="绩效" fill="#FFFFFF"></path>
                        </g>
                    </g>
                </g>
            </g>
        </g>
    </g>
</svg>