<?xml version="1.0" encoding="UTF-8" standalone="no"?>
<svg width="26px" height="20px" viewBox="0 0 26 20" version="1.1" xmlns="http://www.w3.org/2000/svg" xmlns:xlink="http://www.w3.org/1999/xlink">
    <!-- Generator: Sketch 44 (41411) - http://www.bohemiancoding.com/sketch -->
    <title>Group 8</title>
    <desc>Created with Sketch.</desc>
    <defs></defs>
    <g id="Page-1" stroke="none" stroke-width="1" fill="none" fill-rule="evenodd">
        <g id="工作页" transform="translate(-43.000000, -396.000000)" fill="#FFFFFF">
            <g id="Group-9" transform="translate(12.000000, 130.000000)">
                <g id="Group-5" transform="translate(0.000000, 127.000000)">
                    <g id="Group-2-Copy-4" transform="translate(0.000000, 115.000000)">
                        <g id="Group-8" transform="translate(31.000000, 24.000000)">
                            <path d="M13.2265929,13.7118742 L11.2956861,15.6059595 L11.5455333,15.9402933 C12.9661659,17.3053054 12.1193285,19.2029259 10.2009054,19.2029259 L2.65649066,19.2029259 C1.20188552,19.2029259 0,18.0380694 0,16.5905887 L0,9.31214828 C0,7.37922124 1.9099271,6.63887627 3.26834151,7.95538785 L3.62781645,8.30396446 L6.90488701,5.19099784 C8.05953413,4.07855401 9.90619982,4.08421238 11.0650016,5.20066481 L11.1749845,5.30662795 L11.1768531,5.30842825 L10.8284271,5.65685425 C9.26632996,7.21895142 9.26632996,9.75161133 10.8284271,11.3137085 L13.2265929,13.7118742 L13.2265929,13.7118742 Z" id="Combined-Shape"></path>
                            <path d="M22.3099239,10.7966963 L19.0365178,13.8873328 C17.8921267,14.9898889 16.0618831,14.9842767 14.9133869,13.8777518 L11.6092631,10.6943779 C10.4368457,9.56480852 10.4330411,7.7017752 11.5993189,6.57812005 L14.74212,3.51189461 L14.4371309,3.233621 C13.0291307,1.88074392 13.868438,0 15.7698051,0 L23.247137,0 C24.6887967,0 25.8800004,1.15449389 25.8800004,2.58911219 L25.8800004,9.802828 C25.8800004,11.7185673 23.9870523,12.4523291 22.6407157,11.147524 L22.3099239,10.7966963 L22.3099239,10.7966963 Z" id="Path"></path>
                        </g>
                    </g>
                </g>
            </g>
        </g>
    </g>
</svg>