<?xml version="1.0" encoding="UTF-8"?>
<svg width="40px" height="40px" viewBox="0 0 40 40" version="1.1" xmlns="http://www.w3.org/2000/svg" xmlns:xlink="http://www.w3.org/1999/xlink">
    <!-- Generator: Sketch 43.1 (39012) - http://www.bohemiancoding.com/sketch -->
    <title>Group 17</title>
    <desc>Created with Sketch.</desc>
    <defs></defs>
    <g id="工作页" stroke="none" stroke-width="1" fill="none" fill-rule="evenodd">
        <g id="工作页-无统计" transform="translate(-299.000000, -306.000000)">
            <g id="Group-15" transform="translate(12.000000, 192.000000)">
                <g id="Group-5" transform="translate(0.000000, 12.000000)">
                    <g id="Group-2-Copy-7" transform="translate(263.000000, 88.000000)">
                        <g id="Group-3" transform="translate(4.000000, 14.000000)">
                            <g id="Group-17" transform="translate(20.000000, 0.000000)">
                                <rect id="Rectangle-2" fill="#349AF6" x="2.77555756e-15" y="0" width="40" height="40" rx="10"></rect>
                                <path d="M26,10 L29.4994984,10 C30.8804873,10 32,11.1096621 32,12.5 L32,15 L8,15 L8,12.5 C8,11.1192881 9.12537944,10 10.5005016,10 L14,10 L14,9.50016487 C14,8.67164669 14.6657972,8 15.5,8 C16.3284271,8 17,8.67432225 17,9.50016487 L17,10 L23,10 L23,9.50016487 C23,8.67164669 23.6657972,8 24.5,8 C25.3284271,8 26,8.67432225 26,9.50016487 L26,10 Z M8,17 L32,17 L32,29.0005775 C32,30.6571128 30.6582294,32 29.0089096,32 L10.9910904,32 C9.33915679,32 8,30.6556493 8,29.0005775 L8,17 Z M16,27.009222 C16.0749288,28.7466943 17.910137,30.009222 19.7739764,30.009222 C21.9831154,30.009222 23.7739764,28.218361 23.7739764,26.009222 C23.7739764,23.800083 21.9831154,22.009222 19.7739764,22.009222 C19.4286768,22.009222 19.0935963,22.052975 18.7739764,22.1352395 L18.7739764,21.009222 L22.4218776,21 C22.9616804,21 23.4126556,20.5522847 23.4126556,20 C23.4126556,19.4438648 22.9690692,19 22.4218776,19 L17.7647544,19.009222 C17.4963553,19.009222 17.2499165,19.1199083 17.0624473,19.3023855 C16.8837226,19.4814414 16.7739764,19.7279124 16.7739764,20 L16.7739764,24.0184441 C16.7739764,24.5582469 17.2216917,25.009222 17.7739764,25.009222 C18.2318888,25.009222 18.6258429,24.6669833 18.7342662,24.2968052 C19.0958148,24.0674343 19.4096893,24.009222 19.7739764,24.009222 C20.8785459,24.009222 21.7739764,24.9046525 21.7739764,26.009222 C21.7739764,27.1137915 20.8785459,28.009222 19.7739764,28.009222 C19.0336941,28.009222 18.3458094,27.6070234 18,27.009222 C18,26.4569373 17.5522847,26.009222 17,26.009222 C16.4477153,26.009222 16,26.4569373 16,27.009222 Z" id="工作日历" fill="#FFFFFF"></path>
                            </g>
                        </g>
                    </g>
                </g>
            </g>
        </g>
    </g>
</svg>