<?xml version="1.0" encoding="UTF-8" standalone="no"?>
<svg width="16px" height="16px" viewBox="0 0 16 16" version="1.1" xmlns="http://www.w3.org/2000/svg" xmlns:xlink="http://www.w3.org/1999/xlink">
    <!-- Generator: Sketch 42 (36781) - http://www.bohemiancoding.com/sketch -->
    <title>@1xloading圈圈</title>
    <desc>Created with Sketch.</desc>
    <defs></defs>
    <g id="Pagebuilder" stroke="none" stroke-width="1" fill="none" fill-rule="evenodd">
        <g id="属性面板-图片组件" transform="translate(-741.000000, -353.000000)">
            <rect id="Rectangle-14-Copy-7" fill="#1587D9" x="677" y="349" width="180" height="24" rx="2"></rect>
            <path d="M754.936667,361.001667 C754.936667,357.723857 752.279477,355.066667 749.001667,355.066667 C745.723857,355.066667 743.066667,357.723857 743.066667,361.001667 C743.066667,364.279477 745.723857,366.936667 749.001667,366.936667 C752.279477,366.936667 754.936667,364.279477 754.936667,361.001667 Z M741,361 C741,356.581722 744.581722,353 749,353 C753.418278,353 757,356.581722 757,361 C757,365.418278 753.418278,369 749,369 C744.581722,369 741,365.418278 741,361 Z" id="loading圈圈" fill="" fill-rule="nonzero"></path>
        </g>
    </g>
</svg>