<?xml version="1.0" encoding="UTF-8" standalone="no"?>
<svg width="118px" height="20px" viewBox="0 0 118 20" version="1.1" xmlns="http://www.w3.org/2000/svg" xmlns:xlink="http://www.w3.org/1999/xlink">
    <!-- Generator: Sketch 41.2 (35397) - http://www.bohemiancoding.com/sketch -->
    <title>logo_pagebuillder</title>
    <desc>Created with Sketch.</desc>
    <defs></defs>
    <g id="Page-1" stroke="none" stroke-width="1" fill="none" fill-rule="evenodd">
        <rect id="Rectangle-26" fill="#FFFFFF" x="-41" y="-123" width="543" height="168"></rect>
        <g id="logo_pagebuillder" fill="#1687D9">
            <g>
                <path d="M8.93990123,19.9616731 C3.43911923,19.517659 0,15.2707169 0,10.0971648 C0,7.69326618 0.85654174,5.4894236 2.28107672,3.77418556 C2.54625458,2.12114488 3.04135708,0.389909243 3.96113408,0.0736113063 C4.71842272,-0.186809246 5.51074501,0.278981751 6.18107679,0.917484665 C7.33008621,0.451174935 8.58646598,0.194329608 9.9028352,0.194329608 C11.3325681,0.194329608 12.6915343,0.497318056 13.9190272,1.04258846 C14.6150626,0.341854633 15.4607041,-0.203546575 16.266664,0.0736113063 C17.3150665,0.434141678 17.8117128,2.63302253 18.0450152,4.45901893 C19.1551212,6.05912866 19.8056704,8.00217478 19.8056704,10.0971648 C19.8056704,15.189551 16.4736148,19.3841735 11.1231407,19.9379782 C10.401428,18.4390869 9.91818539,16.7885789 9.68521998,15.2263309 C9.68361197,15.2155477 9.68201589,15.2047687 9.68043173,15.193994 C9.68009106,15.205023 9.67973894,15.2160187 9.67937534,15.2269805 C9.68132351,15.2267645 9.68327172,15.226548 9.68521998,15.2263309 C10.2256782,15.1661095 10.7694271,15.0648029 11.305134,14.9138954 C12.5796772,14.5548593 13.6715512,13.940676 14.5026429,13.0210957 C17.600233,9.59369677 15.0224996,5.16041278 10.4695748,7.03687102 C9.78816064,7.31771141 9.23140129,7.79657345 8.79413504,8.42457789 C8.46112079,7.75103239 8.10479612,7.31030209 7.82363308,7.07319225 C7.40143666,6.71714642 6.77054667,6.77077207 6.41450084,7.19296849 C6.05845502,7.6151649 6.11208066,8.24605489 6.53427708,8.60210072 C6.53178198,8.59999656 6.56589754,8.63452966 6.62628808,8.70926099 C6.74937736,8.86157997 6.87817672,9.06157793 7.00263723,9.31370586 C7.37702748,10.072133 7.59305191,11.031731 7.59889633,12.2878054 C7.57432997,12.6055293 7.56158375,12.93095 7.56047926,13.2623781 C7.56038488,13.2907009 7.56037551,13.3190675 7.56045105,13.347477 C7.56176164,13.3163184 7.56324306,13.287962 7.56485821,13.2627259 C7.56339834,13.2626103 7.56193869,13.2624944 7.56047926,13.2623781 C7.52002912,13.2591573 7.4797491,13.2557148 7.43965132,13.2520563 C7.2767493,13.2371931 7.16522918,13.2230117 7.11488449,13.2150403 C6.56939525,13.1286693 6.05717138,13.5008583 5.97080046,14.0463475 C5.88442953,14.5918367 6.25661846,15.1040606 6.8021077,15.1904315 C6.8944458,15.205052 7.04941343,15.2247585 7.25792628,15.2437832 C7.39571781,15.2563553 7.53505965,15.2668311 7.67571964,15.2750363 C7.68595441,15.3303946 7.69697402,15.3841684 7.70882758,15.4359364 C7.91386113,16.9446485 8.32901012,18.4985973 8.93990123,19.9616731 Z" id="Combined-Shape"></path>
                <path d="M11.2316732,8.88598054 C13.6855273,7.87464061 14.7709585,9.74140653 13.0188415,11.6800762 C12.4628354,12.2952817 11.698419,12.7252689 10.7628439,12.9888184 C10.3591199,13.1025466 9.94242412,13.1813848 9.52403556,13.2306315 C9.50936335,11.0818339 10.065435,9.366638 11.2316732,8.88598054 Z" id="Path-2"></path>
            </g>
            <path d="M25,2 L27.8543658,2 C29.4781909,2 30.5438101,2.06342333 31.0512555,2.19027189 C31.5587008,2.31712046 32.0249092,2.54544445 32.4498947,2.87525071 C32.8748802,3.20505698 33.2078862,3.61730862 33.4489227,4.11201802 C33.6899593,4.60672742 33.8104757,5.16485272 33.8104757,5.78641069 C33.8104757,6.40796865 33.6931307,6.96609395 33.4584373,7.46080335 C33.2237438,7.95551275 32.8875663,8.36459323 32.4498947,8.68805706 C32.0122231,9.0115209 31.476242,9.23984489 30.8419353,9.37303588 C30.2076286,9.50622687 29.0849226,9.57282137 27.4737837,9.57282137 L26.3828741,9.57282137 L26.3828741,15.9279026 L25,15.9279026 L25,2 Z M26.3730326,8.09787895 L28.7360397,8.09787895 C30.1317409,8.12612793 31.0817708,7.90013953 31.5861579,7.41990697 C32.090545,6.93967442 32.3427347,6.33939273 32.3427347,5.6190439 C32.3427347,4.0088524 31.1819709,3.20376873 28.8604085,3.20376873 L26.3730326,3.20376873 L26.3730326,8.09787895 Z M42.8931873,15.9279026 L41.6037316,15.9279026 L41.6037316,14.6544944 C40.6591873,15.6944496 39.5713858,16.2144195 38.3402944,16.2144195 C37.109203,16.2144195 36.0558928,15.7607723 35.1803321,14.8534644 C34.3047714,13.9461565 33.8669976,12.8637703 33.8669976,11.6062734 C33.8669976,10.3487765 34.3074246,9.27169612 35.1882917,8.375 C36.0691588,7.47830388 37.1436944,7.02996255 38.4119308,7.02996255 C39.6801672,7.02996255 40.7440902,7.54462656 41.6037316,8.57397004 L41.6037316,7.25280899 L42.8931873,7.25280899 L42.8931873,15.9279026 Z M38.4358097,14.988764 C39.3166768,14.988764 40.0754847,14.6704152 40.7122561,14.0337079 C41.3490275,13.3970006 41.6674084,12.6037813 41.6674084,11.6540262 C41.6674084,10.7042712 41.3543338,9.90839897 40.7281753,9.26638577 C40.1020167,8.62437257 39.3352493,8.30337079 38.4278501,8.30337079 C37.5204508,8.30337079 36.7536834,8.6349842 36.1275248,9.29822097 C35.5013663,9.96145775 35.1882917,10.7440654 35.1882917,11.6460674 C35.1882917,12.5480694 35.5066726,13.3306771 36.143444,13.9939139 C36.7802154,14.6571506 37.5443297,14.988764 38.4358097,14.988764 Z M53.7978432,13.8904494 C53.7978432,15.0365226 53.6996758,15.8854529 53.5033379,16.4372659 C53.307,16.9890789 53.0098445,17.4559906 52.6118624,17.838015 C52.2138802,18.2200394 51.7363088,18.5092063 51.1791339,18.7055243 C50.6219589,18.9018424 50.0090756,19 49.3404656,19 C47.0799271,19 45.572924,18.0449534 44.8194112,16.1348315 L46.2203013,16.1348315 C46.835847,17.2384575 47.8599723,17.7902622 49.292708,17.7902622 C49.9507051,17.7902622 50.5397098,17.6629226 51.0597398,17.4082397 C51.5797698,17.1535568 51.9459079,16.8139846 52.158165,16.3895131 C52.3704221,15.9650416 52.4765491,15.3124264 52.4765491,14.4316479 L52.4765491,14.3520599 C52.0626477,14.8189786 51.5638509,15.1744682 50.9801438,15.4185393 C50.3964367,15.6626105 49.7915129,15.7846442 49.1653543,15.7846442 C47.9130372,15.7846442 46.8650333,15.3548732 46.0213112,14.4953184 C45.1775891,13.6357635 44.7610407,12.6223529 44.7716535,11.4550562 C44.7610407,10.2347005 45.2014676,9.19210794 46.0929476,8.32724719 C46.9844276,7.46238644 48.0430442,7.02996255 49.2688292,7.02996255 C50.4946141,7.02996255 51.5638434,7.52870912 52.4765491,8.52621723 L52.4765491,7.25280899 L53.7978432,7.25280899 L53.7978432,13.8904494 Z M52.5243067,11.4550562 C52.5243067,10.5424424 52.2191917,9.7890167 51.6089524,9.19475655 C50.9987131,8.6004964 50.2531711,8.30337079 49.372304,8.30337079 C48.4383726,8.30337079 47.6556861,8.62437257 47.0242212,9.26638577 C46.3927562,9.90839897 46.0770284,10.6538659 46.0770284,11.502809 C46.0770284,12.3517521 46.3794903,13.0706899 46.9844231,13.6596442 C47.589356,14.2485985 48.3640829,14.5430712 49.3086272,14.5430712 C50.2531714,14.5430712 51.0252452,14.2539043 51.6248716,13.6755618 C52.224498,13.0972193 52.5243067,12.3570582 52.5243067,11.4550562 Z M64.384115,11.821161 L56.7747347,11.821161 C56.827799,12.776222 57.1488331,13.5429122 57.7378466,14.1212547 C58.3268602,14.6995971 59.0299514,14.988764 59.8471414,14.988764 C61.2374256,14.988764 62.2986954,14.304314 63.0309825,12.9353933 L64.1453269,13.508427 C63.6465227,14.4316526 63.0575179,15.1134497 62.3782951,15.553839 C61.6990723,15.9942282 60.8872009,16.2144195 59.9426566,16.2144195 C58.6372752,16.2144195 57.5600864,15.7660781 56.7110579,14.869382 C55.8620293,13.9726859 55.4375214,12.8929526 55.4375214,11.6301498 C55.4375214,10.367347 55.8646825,9.28496081 56.7190175,8.3829588 C57.5733524,7.48095679 58.631969,7.02996255 59.894899,7.02996255 C61.157829,7.02996255 62.2137924,7.45708062 63.062821,8.31132959 C63.9118495,9.16557855 64.3522765,10.3355107 64.384115,11.821161 Z M62.9195481,10.659176 C62.7603552,9.91635084 62.3995235,9.33801705 61.8370421,8.9241573 C61.2745607,8.51029756 60.6271861,8.30337079 59.894899,8.30337079 C58.409099,8.30337079 57.4221182,9.08863135 56.9339267,10.659176 L62.9195481,10.659176 Z M67.552037,8.52621723 C68.4541298,7.52870912 69.536625,7.02996255 70.7995549,7.02996255 C72.0624849,7.02996255 73.1264079,7.47830388 73.9913557,8.375 C74.8563035,9.27169612 75.288771,10.3514294 75.288771,11.6142322 C75.288771,12.877035 74.848344,13.9594212 73.9674769,14.8614232 C73.0866098,15.7634252 72.0226868,16.2144195 70.7756761,16.2144195 C69.5286655,16.2144195 68.4541298,15.6732264 67.552037,14.590824 L67.552037,15.9279026 L66.2625813,15.9279026 L66.2625813,3.98970037 L67.552037,3.98970037 L67.552037,8.52621723 Z M70.7199589,14.9410112 C71.6220518,14.9410112 72.3888192,14.6067449 73.0202841,13.9382022 C73.6517491,13.2696596 73.9674769,12.4870519 73.9674769,11.5903558 C73.9674769,10.6936597 73.6597087,9.91105203 73.044163,9.24250936 C72.4286173,8.57396669 71.6591967,8.23970037 70.7358781,8.23970037 C69.8125596,8.23970037 69.0404858,8.55274344 68.4196337,9.17883895 C67.7987816,9.80493447 67.4883602,10.5928479 67.4883602,11.542603 C67.4883602,12.4923581 67.8014347,13.296189 68.4275933,13.9541199 C69.0537518,14.6120507 69.8178661,14.9410112 70.7199589,14.9410112 Z M84.5219103,15.9279026 L83.2006162,15.9279026 L83.2006162,14.6226592 C82.3409748,15.6413909 81.3221558,16.1507491 80.1441287,16.1507491 C79.5179702,16.1507491 78.9501908,15.9889217 78.4407737,15.6652622 C77.9313566,15.3416026 77.5492995,14.8959142 77.2945909,14.3281835 C77.0398823,13.7604528 76.91253,12.8876463 76.91253,11.7097378 L76.91253,7.25280899 L78.2179048,7.25280899 L78.2179048,11.3913858 C78.2179048,12.3464467 78.2630088,12.996409 78.3532181,13.3412921 C78.4434274,13.6861753 78.5760861,13.9779951 78.7511982,14.2167603 C78.9263104,14.4555255 79.149177,14.6332703 79.4198049,14.75 C79.6904327,14.8667297 80.0194263,14.9250936 80.4067956,14.9250936 C80.7941649,14.9250936 81.1735688,14.829589 81.5450188,14.6385768 C81.9164688,14.4475646 82.2348498,14.1822739 82.5001712,13.8426966 C82.7654926,13.5031194 82.9485616,13.142324 83.0493838,12.7602996 C83.1502059,12.3782752 83.2006162,11.6142379 83.2006162,10.4681648 L83.2006162,7.25280899 L84.5219103,7.25280899 L84.5219103,15.9279026 Z M87.2122561,3.98970037 C87.4988032,3.98970037 87.7402421,4.08785794 87.9365799,4.28417603 C88.1329178,4.48049412 88.2310852,4.71925577 88.2310852,5.00046816 C88.2310852,5.28168056 88.1329178,5.52044221 87.9365799,5.7167603 C87.7402421,5.91307838 87.5014564,6.01123596 87.2202157,6.01123596 C86.938975,6.01123596 86.7001893,5.91042548 86.5038514,5.7088015 C86.3075136,5.50717752 86.2093461,5.27106877 86.2093461,5.00046816 C86.2093461,4.72986756 86.3075136,4.49375881 86.5038514,4.29213483 C86.7001893,4.09051085 86.9363218,3.98970037 87.2122561,3.98970037 Z M87.8808627,15.9279026 L86.5595686,15.9279026 L86.5595686,7.25280899 L87.8808627,7.25280899 L87.8808627,15.9279026 Z M91.0487847,15.9279026 L89.7434098,15.9279026 L89.7434098,3.98970037 L91.0487847,3.98970037 L91.0487847,15.9279026 Z M101.746491,15.9279026 L100.457035,15.9279026 L100.457035,14.6544944 C99.512491,15.6944496 98.4220363,16.2144195 97.1856385,16.2144195 C95.9492407,16.2144195 94.8959304,15.7634252 94.0256761,14.8614232 C93.1554219,13.9594212 92.7203013,12.877035 92.7203013,11.6142322 C92.7203013,10.3514294 93.1607282,9.27169612 94.0415953,8.375 C94.9224625,7.47830388 95.9969981,7.02996255 97.2652345,7.02996255 C98.5334709,7.02996255 99.5973939,7.54462656 100.457035,8.57397004 L100.457035,3.98970037 L101.746491,3.98970037 L101.746491,15.9279026 Z M97.2891133,14.988764 C98.127529,14.988764 98.8757242,14.675721 99.5337213,14.0496255 C100.191718,13.42353 100.520712,12.6303107 100.520712,11.6699438 C100.520712,10.709577 100.215597,9.90839897 99.6053578,9.26638577 C98.9951185,8.62437257 98.2256979,8.30337079 97.2970729,8.30337079 C96.3684479,8.30337079 95.593721,8.6349842 94.9728689,9.29822097 C94.3520168,9.96145775 94.0415953,10.7414125 94.0415953,11.6381086 C94.0415953,12.5348047 94.3599763,13.3174124 94.9967477,13.9859551 C95.6335191,14.6544977 96.3976333,14.988764 97.2891133,14.988764 Z M112.539712,11.821161 L104.930332,11.821161 C104.983396,12.776222 105.30443,13.5429122 105.893444,14.1212547 C106.482458,14.6995971 107.185549,14.988764 108.002739,14.988764 C109.393023,14.988764 110.454293,14.304314 111.18658,12.9353933 L112.300924,13.508427 C111.80212,14.4316526 111.213115,15.1134497 110.533893,15.553839 C109.85467,15.9942282 109.042798,16.2144195 108.098254,16.2144195 C106.792873,16.2144195 105.715684,15.7660781 104.866655,14.869382 C104.017627,13.9726859 103.593119,12.8929526 103.593119,11.6301498 C103.593119,10.367347 104.02028,9.28496081 104.874615,8.3829588 C105.72895,7.48095679 106.787566,7.02996255 108.050496,7.02996255 C109.313426,7.02996255 110.36939,7.45708062 111.218418,8.31132959 C112.067447,9.16557855 112.507874,10.3355107 112.539712,11.821161 Z M111.075145,10.659176 C110.915953,9.91635084 110.555121,9.33801705 109.99264,8.9241573 C109.430158,8.51029756 108.782784,8.30337079 108.050496,8.30337079 C106.564696,8.30337079 105.577716,9.08863135 105.089524,10.659176 L111.075145,10.659176 Z M118,7.38014981 L117.315474,8.49438202 C117.135056,8.39887593 116.959946,8.3511236 116.79014,8.3511236 C116.461142,8.3511236 116.163986,8.51295094 115.898665,8.83661049 C115.633343,9.16027003 115.434355,9.5847352 115.301695,10.1100187 C115.169034,10.6353023 115.102705,11.5823902 115.102705,12.9513109 L115.102705,15.9279026 L113.765491,15.9279026 L113.765491,7.25280899 L115.102705,7.25280899 L115.102705,8.19194757 C115.368026,7.7993114 115.635997,7.50749159 115.906624,7.3164794 C116.177252,7.12546721 116.485021,7.02996255 116.829938,7.02996255 C117.174856,7.02996255 117.564873,7.14669047 118,7.38014981 Z" id="Pagebuilder"></path>
        </g>
    </g>
</svg>