<?xml version="1.0" encoding="UTF-8" standalone="no"?>
<svg width="11px" height="12px" viewBox="0 0 11 12" version="1.1" xmlns="http://www.w3.org/2000/svg" xmlns:xlink="http://www.w3.org/1999/xlink">
    <!-- Generator: Sketch 42 (36781) - http://www.bohemiancoding.com/sketch -->
    <title>Combined Shape Copy 161x</title>
    <desc>Created with Sketch.</desc>
    <defs></defs>
    <g id="Pagebuilder" stroke="none" stroke-width="1" fill="none" fill-rule="evenodd">
        <g id="属性面板-常用链接组件" transform="translate(-1083.000000, -564.000000)" fill="#FFFFFF">
            <path d="M1082.28468,569.626956 C1082.15764,569.71767 1082.07323,569.866045 1082.07323,570.03369 C1082.07323,570.202182 1082.16174,570.356399 1082.2961,570.44772 C1082.31634,570.536301 1082.36048,570.620522 1082.42921,570.68925 L1086.66701,574.92705 C1086.8583,575.118337 1087.18127,575.124733 1087.37654,574.92947 C1087.56609,574.739919 1087.57071,574.416542 1087.37412,574.219943 L1083.68786,570.53369 L1093.57289,570.53369 C1093.84423,570.53369 1094.07323,570.309832 1094.07323,570.03369 C1094.07323,569.765623 1093.84922,569.53369 1093.57289,569.53369 L1083.62032,569.53369 L1087.37412,565.77989 C1087.5654,565.588603 1087.5718,565.265625 1087.37654,565.070363 C1087.18698,564.880811 1086.86361,564.876184 1086.66701,565.072783 L1082.42921,569.310583 C1082.34269,569.397101 1082.294,569.510559 1082.28468,569.626956 Z" id="Combined-Shape-Copy-16" transform="translate(1088.073235, 570.000000) scale(1, -1) rotate(90.000000) translate(-1088.073235, -570.000000) "></path>
        </g>
    </g>
</svg>