<?xml version="1.0" encoding="UTF-8"?>
<svg width="18px" height="18px" viewBox="0 0 18 18" version="1.1" xmlns="http://www.w3.org/2000/svg" xmlns:xlink="http://www.w3.org/1999/xlink">
    <!-- Generator: Sketch 42 (36781) - http://www.bohemiancoding.com/sketch -->
    <title>已暂停</title>
    <desc>Created with Sketch.</desc>
    <defs></defs>
    <g id="平台组件规范+部分组件视觉" stroke="none" stroke-width="1" fill="none" fill-rule="evenodd">
        <g id="A4" transform="translate(-56.000000, -135.000000)" fill="#96D1FA">
            <path d="M66,143 L69.009222,143 C69.5564136,143 70,143.443865 70,144 C70,144.552285 69.5490248,145 69.009222,145 L64.990778,145 C64.4435864,145 64,144.556135 64,144 L64,143.009222 L64,139.001652 C64,138.448455 64.4438648,138 65,138 C65.5522847,138 66,138.450975 66,138.990778 L66,143 Z M56,136.995089 C56,135.893232 56.8926228,135 57.9950893,135 L72.0049107,135 C73.1067681,135 74,135.892623 74,136.995089 L74,151.004911 C74,152.106768 73.1073772,153 72.0049107,153 L57.9950893,153 C56.8932319,153 56,152.107377 56,151.004911 L56,136.995089 Z M58,138.006845 L58,149.993155 C58,150.550051 58.4507801,151 59.0068455,151 L70.9931545,151 C71.5500512,151 72,150.54922 72,149.993155 L72,138.006845 C72,137.449949 71.5492199,137 70.9931545,137 L59.0068455,137 C58.4499488,137 58,137.45078 58,138.006845 Z" id="已暂停"></path>
        </g>
    </g>
</svg>