<?xml version="1.0" encoding="UTF-8"?>
<svg width="109px" height="118px" viewBox="0 0 109 118" version="1.1" xmlns="http://www.w3.org/2000/svg" xmlns:xlink="http://www.w3.org/1999/xlink" style="background: #FFFFFF;">
    <!-- Generator: Sketch 42 (36781) - http://www.bohemiancoding.com/sketch -->
    <title>空数据</title>
    <desc>Created with Sketch.</desc>
    <defs>
        <rect id="path-1" x="1061" y="565" width="200" height="718"></rect>
        <filter x="-50%" y="-50%" width="200%" height="200%" filterUnits="objectBoundingBox" id="filter-2">
            <feOffset dx="1" dy="0" in="SourceAlpha" result="shadowOffsetOuter1"></feOffset>
            <feGaussianBlur stdDeviation="0.5" in="shadowOffsetOuter1" result="shadowBlurOuter1"></feGaussianBlur>
            <feColorMatrix values="0 0 0 0 0   0 0 0 0 0   0 0 0 0 0  0 0 0 0.2 0" type="matrix" in="shadowBlurOuter1"></feColorMatrix>
        </filter>
        <rect id="path-3" x="4" y="2" width="3" height="7" rx="1.5"></rect>
        <mask id="mask-4" maskContentUnits="userSpaceOnUse" maskUnits="objectBoundingBox" x="0" y="0" width="3" height="7" fill="white">
            <use xlink:href="#path-3"></use>
        </mask>
        <rect id="path-5" x="4" y="1" width="1" height="2" rx="0.5"></rect>
        <mask id="mask-6" maskContentUnits="userSpaceOnUse" maskUnits="objectBoundingBox" x="0" y="0" width="1" height="2" fill="white">
            <use xlink:href="#path-5"></use>
        </mask>
        <rect id="path-7" x="6" y="1" width="1" height="2" rx="0.5"></rect>
        <mask id="mask-8" maskContentUnits="userSpaceOnUse" maskUnits="objectBoundingBox" x="0" y="0" width="1" height="2" fill="white">
            <use xlink:href="#path-7"></use>
        </mask>
        <circle id="path-9" cx="8.5" cy="4.5" r="2.5"></circle>
        <mask id="mask-10" maskContentUnits="userSpaceOnUse" maskUnits="objectBoundingBox" x="0" y="0" width="5" height="5" fill="white">
            <use xlink:href="#path-9"></use>
        </mask>
        <circle id="path-11" cx="7.5" cy="7.5" r="1.5"></circle>
        <mask id="mask-12" maskContentUnits="userSpaceOnUse" maskUnits="objectBoundingBox" x="0" y="0" width="3" height="3" fill="white">
            <use xlink:href="#path-11"></use>
        </mask>
        <circle id="path-13" cx="3.5" cy="7.5" r="1.5"></circle>
        <mask id="mask-14" maskContentUnits="userSpaceOnUse" maskUnits="objectBoundingBox" x="0" y="0" width="3" height="3" fill="white">
            <use xlink:href="#path-13"></use>
        </mask>
        <circle id="path-15" cx="2.5" cy="4.5" r="2.5"></circle>
        <mask id="mask-16" maskContentUnits="userSpaceOnUse" maskUnits="objectBoundingBox" x="0" y="0" width="5" height="5" fill="white">
            <use xlink:href="#path-15"></use>
        </mask>
        <rect id="path-17" x="0" y="0" width="68" height="55" rx="12"></rect>
        <mask id="mask-18" maskContentUnits="userSpaceOnUse" maskUnits="objectBoundingBox" x="0" y="0" width="68" height="55" fill="white">
            <use xlink:href="#path-17"></use>
        </mask>
        <mask id="mask-20" maskContentUnits="userSpaceOnUse" maskUnits="objectBoundingBox" x="0" y="0" width="68" height="55" fill="white">
            <use xlink:href="#path-17"></use>
        </mask>
        <path d="M-2,6.5 C-2,3.46243388 0.462112427,1 3.50157094,1 L66.4984291,1 C69.5368628,1 72,3.46861471 72,6.5 L72,12 L-2,12 L-2,6.5 Z" id="path-21"></path>
        <mask id="mask-22" maskContentUnits="userSpaceOnUse" maskUnits="objectBoundingBox" x="0" y="0" width="74" height="11" fill="white">
            <use xlink:href="#path-21"></use>
        </mask>
    </defs>
    <g id="Pagebuilder" stroke="none" stroke-width="1" fill="none" fill-rule="evenodd">
        <g id="2-pagebuilder组件交互" transform="translate(-1108.000000, -683.000000)">
            <rect id="Rectangle-3" fill="#FFFFFF" x="755" y="538" width="545" height="778"></rect>
            <g id="bg-copy">
                <use fill="black" fill-opacity="1" filter="url(#filter-2)" xlink:href="#path-1"></use>
                <use fill="#F5F8FA" fill-rule="evenodd" xlink:href="#path-1"></use>
            </g>
            <g id="空数据" transform="translate(1090.000000, 671.000000)">
                <g id="空页面">
                    <g id="Group-3" transform="translate(71.276467, 71.219225) rotate(50.000000) translate(-71.276467, -71.219225) translate(23.276467, 18.719225)">
                        <rect id="Rectangle-1412" fill-opacity="0.3" fill="#CCEAFF" x="20.9103351" y="31.0743085" width="17" height="66" rx="8.5"></rect>
                        <rect id="Rectangle-1412" fill-opacity="0.3" fill="#CCEAFF" x="3.74471899" y="9.09492216" width="17" height="66" rx="8.5"></rect>
                        <rect id="Rectangle-1412" fill-opacity="0.3" fill="#CCEAFF" x="60.2032238" y="6.63311964" width="17" height="66" rx="8.5"></rect>
                        <path d="M-4.52120583,65.6871083 C0.582450937,56.4641259 18.1350804,58.5038121 18.1350804,64.25056 C18.1350804,69.997308 13.1163178,71.4022267 9.55296905,69.5278904 C5.98962028,67.6535542 5.37316537,56.0640676 26.9519007,48.0479195 C48.5306361,40.0317714 74.9278273,52.4491151 85.6067785,58.4289056 C96.2857297,64.4086962 101.383283,58.9532539 100.138715,51.2949945 C98.8941473,43.6367351 89.0608179,41.8667123 96.2796224,34.6046269" id="Path-504" stroke="#96D1FA" stroke-dasharray="4" transform="translate(47.900704, 52.456392) rotate(-50.000000) translate(-47.900704, -52.456392) "></path>
                    </g>
                    <g id="Group-7" transform="translate(121.500000, 49.500000) rotate(40.000000) translate(-121.500000, -49.500000) translate(116.000000, 45.000000)" stroke="#96D0FA" stroke-width="2">
                        <use id="Rectangle-1396" mask="url(#mask-4)" xlink:href="#path-3"></use>
                        <use id="Rectangle-1396" mask="url(#mask-6)" transform="translate(4.500000, 2.000000) rotate(-30.000000) translate(-4.500000, -2.000000) " xlink:href="#path-5"></use>
                        <use id="Rectangle-1396" mask="url(#mask-8)" transform="translate(6.500000, 2.000000) scale(-1, 1) rotate(-30.000000) translate(-6.500000, -2.000000) " xlink:href="#path-7"></use>
                        <use id="Oval-125" mask="url(#mask-10)" xlink:href="#path-9"></use>
                        <use id="Oval-125" mask="url(#mask-12)" xlink:href="#path-11"></use>
                        <use id="Oval-125" mask="url(#mask-14)" xlink:href="#path-13"></use>
                        <use id="Oval-125" mask="url(#mask-16)" xlink:href="#path-15"></use>
                    </g>
                    <g id="Rectangle-1392" transform="translate(41.000000, 29.000000)">
                        <mask id="mask-19" fill="white">
                            <use xlink:href="#path-17"></use>
                        </mask>
                        <g id="Mask" stroke="#CCEAFF" mask="url(#mask-18)" stroke-width="4" fill="#F5F8FA">
                            <use mask="url(#mask-20)" xlink:href="#path-17"></use>
                        </g>
                        <g mask="url(#mask-19)" stroke-width="4" stroke="#CDEAFF" fill="#CCEAFF">
                            <use mask="url(#mask-22)" xlink:href="#path-21"></use>
                        </g>
                    </g>
                    <rect id="Rectangle-1394" fill="#CCEAFF" x="51" y="52" width="16" height="2" rx="1"></rect>
                    <rect id="Rectangle-1394" fill="#CCEAFF" x="83" y="52" width="16" height="2" rx="1"></rect>
                    <circle id="Oval-129" fill="#CCEAFF" cx="95" cy="54.5" r="2"></circle>
                    <circle id="Oval-129" fill="#CCEAFF" cx="63" cy="54.5" r="2"></circle>
                    <circle id="Oval-123" fill="#F3FAFF" cx="50.5" cy="35.5" r="1.5"></circle>
                    <circle id="Oval-123" fill="#F3FAFF" cx="56.5" cy="35.5" r="1.5"></circle>
                </g>
                <text id="没有搜索结果…" font-family="PingFangSC-Regular, PingFang SC" font-size="14" font-weight="normal" fill="#96D0FA">
                    <tspan x="26" y="128">没有搜索结果…</tspan>
                </text>
            </g>
        </g>
    </g>
</svg>