<?xml version="1.0" encoding="UTF-8" standalone="no"?>
<svg width="5px" height="51px" viewBox="0 0 5 51" version="1.1" xmlns="http://www.w3.org/2000/svg" xmlns:xlink="http://www.w3.org/1999/xlink">
    <!-- Generator: Sketch 42 (36781) - http://www.bohemiancoding.com/sketch -->
    <title>拖拽区 copytree-right-ico</title>
    <desc>Created with Sketch.</desc>
    <defs></defs>
    <g id="同事页" stroke="none" stroke-width="1" fill="none" fill-rule="evenodd">
        <g id="交互标注" transform="translate(-2836.000000, -398.000000)">
            <g id="拖拽区-copy" transform="translate(2836.000000, 398.000000)">
                <path d="M0,5.49678245 C0,4.9462747 0.185978006,4.0847168 0.412879665,3.58935785 C0.412879665,3.58935785 1.97796556,0 2.5,0 C2.9780939,0 4.58438161,3.60017326 4.58438161,3.60017326 C4.81392131,4.09713384 5,4.94326177 5,5.49678245 L5,45.5032175 C5,46.0537253 4.7998298,46.898159 4.54753251,47.3877296 C4.54753251,47.3877296 3.02860922,50.5 2.5,50.5 C2.02848088,50.5 0.463522808,47.3877296 0.463522808,47.3877296 C0.20752623,46.8974501 0,46.0567382 0,45.5032175 L0,5.49678245 Z" id="Combined-Shape" fill="#1587D9"></path>
                <rect id="Rectangle-6" fill="#FFFFFF" x="1" y="8" width="2" height="2" rx="1"></rect>
                <rect id="Rectangle-6-Copy" fill="#FFFFFF" x="1" y="12" width="2" height="2" rx="1"></rect>
                <rect id="Rectangle-6-Copy-2" fill="#FFFFFF" x="1" y="16" width="2" height="2" rx="1"></rect>
                <rect id="Rectangle-6-Copy-3" fill="#FFFFFF" x="1" y="20" width="2" height="2" rx="1"></rect>
                <rect id="Rectangle-6-Copy-3" fill="#FFFFFF" x="1" y="24" width="2" height="2" rx="1"></rect>
                <rect id="Rectangle-6-Copy-3" fill="#FFFFFF" x="1" y="28" width="2" height="2" rx="1"></rect>
                <rect id="Rectangle-6-Copy-3" fill="#FFFFFF" x="1" y="32" width="2" height="2" rx="1"></rect>
                <rect id="Rectangle-6-Copy-3" fill="#FFFFFF" x="1" y="36" width="2" height="2" rx="1"></rect>
                <rect id="Rectangle-6-Copy-3" fill="#FFFFFF" x="1" y="40" width="2" height="2" rx="1"></rect>
            </g>
        </g>
    </g>
</svg>