<?xml version="1.0" encoding="UTF-8"?>
<svg width="18px" height="19px" viewBox="0 0 18 19" version="1.1" xmlns="http://www.w3.org/2000/svg" xmlns:xlink="http://www.w3.org/1999/xlink">
    <!-- Generator: Sketch 42 (36781) - http://www.bohemiancoding.com/sketch -->
    <title>Rectangle 10</title>
    <desc>Created with Sketch.</desc>
    <defs></defs>
    <g id="菜单设置" stroke="none" stroke-width="1" fill="none" fill-rule="evenodd">
        <g id="交互" transform="translate(-115.000000, -657.000000)">
            <g id="目标-copy-2" transform="translate(115.000000, 657.000000)">
                <rect id="Rectangle-10" x="0" y="0" width="18" height="18"></rect>
                <path d="M9,10 C9.55228475,10 10,9.55228475 10,9 C10,8.44771525 9.55228475,8 9,8 C8.44771525,8 8,8.44771525 8,9 C8,9.55228475 8.44771525,10 9,10 L9,10 Z M9,11 L9,11 C7.8954305,11 7,10.1045695 7,9 C7,7.8954305 7.8954305,7 9,7 C10.1045695,7 11,7.8954305 11,9 C11,10.1045695 10.1045695,11 9,11 L9,11 Z" id="Oval-80" fill="#1687D9" fill-rule="nonzero"></path>
                <path d="M10,15.9291111 C13.0656912,15.4905984 15.4905984,13.0656912 15.9291111,10 L14.9170416,10 C14.4955231,12.5125049 12.5125049,14.4955231 10,14.9170416 L10,15.9291111 Z M8,15.9291111 C4.93430884,15.4905984 2.50940162,13.0656912 2.07088886,10 L3.08295844,10 C3.50447689,12.5125049 5.48749513,14.4955231 8,14.9170416 L8,15.9291111 Z M15.9291111,8 C15.4905984,4.93430884 13.0656912,2.50940162 10,2.07088886 L10,3.08295844 C12.5125049,3.50447689 14.4955231,5.48749513 14.9170416,8 L15.9291111,8 Z M2.07088886,8 C2.50940162,4.93430884 4.93430884,2.50940162 8,2.07088886 L8,3.08295844 C5.48749513,3.50447689 3.50447689,5.48749513 3.08295844,8 L2.07088886,8 Z" id="Combined-Shape" fill="#1687D9"></path>
                <path d="M10.9721685,3.33165186 C10.9904772,3.22223257 11,3.1098 11,2.9951185 L11,2.0048815 C11,0.893899798 10.1045695,0 9,0 C7.88772964,0 7,0.897616023 7,2.0048815 L7,2.9951185 C7,3.10985275 7.00955002,3.22227177 7.02789415,3.33163007 C7.34194664,3.22237935 7.66787303,3.13849148 8.00322079,3.082419 C8.00108728,3.05559603 8,3.02845772 8,3.00104344 L8,1.99895656 C8,1.44724809 8.44386482,1 9,1 C9.55228475,1 10,1.44266033 10,1.99895656 L10,3.00104344 C10,3.02843896 9.99890556,3.05557692 9.99675729,3.08241533 C10.3321351,3.13849155 10.6580898,3.22238812 10.9721685,3.33165186 Z M7.02783153,14.6683481 C7.00952278,14.7777674 7,14.8902 7,15.0048815 L7,15.9951185 C7,17.1061002 7.8954305,18 9,18 C10.1122704,18 11,17.102384 11,15.9951185 L11,15.0048815 C11,14.8901472 10.99045,14.7777282 10.9721058,14.6683699 C10.6580534,14.7776207 10.332127,14.8615085 9.99677921,14.917581 C9.99891272,14.944404 10,14.9715423 10,14.9989566 L10,16.0010434 C10,16.5527519 9.55613518,17 9,17 C8.44771525,17 8,16.5573397 8,16.0010434 L8,14.9989566 C8,14.971561 8.00109444,14.9444231 8.00324271,14.9175847 C7.66786495,14.8615085 7.34191016,14.7776119 7.02783153,14.6683481 Z M3.33165186,7.02783153 C3.22223257,7.00952278 3.1098,7 2.9951185,7 L2.0048815,7 C0.893899798,7 0,7.8954305 0,9 C0,10.1122704 0.897616023,11 2.0048815,11 L2.9951185,11 C3.10985275,11 3.22227177,10.99045 3.33163007,10.9721058 C3.22237935,10.6580534 3.13849148,10.332127 3.082419,9.99677921 C3.05559603,9.99891272 3.02845772,10 3.00104344,10 L1.99895656,10 C1.44724809,10 1,9.55613518 1,9 C1,8.44771525 1.44266033,8 1.99895656,8 L3.00104344,8 C3.02843896,8 3.05557692,8.00109444 3.08241533,8.00324271 C3.13849155,7.66786495 3.22238812,7.34191016 3.33165186,7.02783153 Z M14.6683699,7.02789415 C14.7777282,7.00955002 14.8901472,7 15.0048815,7 L15.9951185,7 C17.102384,7 18,7.88772964 18,9 C18,10.1045695 17.1061002,11 15.9951185,11 L15.0048815,11 C14.8902,11 14.7777674,10.9904772 14.6683481,10.9721685 C14.7776119,10.6580898 14.8615085,10.3321351 14.9175847,9.99675729 C14.9444231,9.99890556 14.971561,10 14.9989566,10 L16.0010434,10 C16.5573397,10 17,9.55228475 17,9 C17,8.44386482 16.5527519,8 16.0010434,8 L14.9989566,8 C14.9715423,8 14.944404,8.00108728 14.917581,8.00322079 C14.8615085,7.66787303 14.7776207,7.34194664 14.6683699,7.02789415 Z" id="Combined-Shape" fill="#1687D9"></path>
            </g>
        </g>
    </g>
</svg>