<?xml version="1.0" encoding="UTF-8"?>
<svg width="12px" height="12px" viewBox="0 0 12 12" version="1.1" xmlns="http://www.w3.org/2000/svg" xmlns:xlink="http://www.w3.org/1999/xlink">
    <!-- Generator: Sketch 42 (36781) - http://www.bohemiancoding.com/sketch -->
    <title>Combined Shape</title>
    <desc>Created with Sketch.</desc>
    <defs></defs>
    <g id="菜单设置" stroke="none" stroke-width="1" fill="none" fill-rule="evenodd">
        <g id="交互" transform="translate(-110.000000, -409.000000)" fill="#CC2929">
            <path d="M117.364803,414.95059 L121.606827,410.708565 C122.000149,410.315244 121.997968,409.68426 121.607444,409.293735 C121.214197,408.900488 120.583479,408.903487 120.192614,409.294352 L115.95059,413.536376 L111.708565,409.294352 C111.315244,408.90103 110.68426,408.903211 110.293735,409.293735 C109.900488,409.686982 109.903487,410.3177 110.294352,410.708565 L114.536376,414.95059 L110.294352,419.192614 C109.90103,419.585935 109.903211,420.216919 110.293735,420.607444 C110.686982,421.000691 111.3177,420.997692 111.708565,420.606827 L115.95059,416.364803 L120.192614,420.606827 C120.585935,421.000149 121.216919,420.997968 121.607444,420.607444 C122.000691,420.214197 121.997692,419.583479 121.606827,419.192614 L117.364803,414.95059 Z" id="Combined-Shape"></path>
        </g>
    </g>
</svg>