<?xml version="1.0" encoding="UTF-8"?>
<svg width="4px" height="10px" viewBox="0 0 4 10" version="1.1" xmlns="http://www.w3.org/2000/svg" xmlns:xlink="http://www.w3.org/1999/xlink">
    <!-- Generator: Sketch 42 (36781) - http://www.bohemiancoding.com/sketch -->
    <title>Combined Shape</title>
    <desc>Created with Sketch.</desc>
    <defs></defs>
    <g id="菜单设置" stroke="none" stroke-width="1" fill="none" fill-rule="evenodd">
        <g id="交互" transform="translate(-1017.000000, -194.000000)">
            <g id="Group" transform="translate(108.000000, 104.000000)">
                <g id="提示" transform="translate(909.000000, 90.000000)">
                    <rect id="Rectangle-11" x="0" y="0" width="4" height="10"></rect>
                    <path d="M0.713110413,1.31664646 C0.609229876,0.589482698 1.11772152,-1.37138492e-17 1.84959444,-3.19921704e-19 L2.20044168,6.10089596e-18 C2.93198502,1.94887918e-17 3.43975862,0.596816063 3.33692571,1.31664646 L2.5969356,6.49657726 C2.55721664,6.77460996 2.29308447,7 2.02501806,7 C1.74887569,7 1.49399349,6.78282797 1.45310053,6.49657726 L0.713110413,1.31664646 Z M1,9 C1,8.44771525 1.44386482,8 2,8 C2.55228475,8 3,8.44386482 3,9 C3,9.55228475 2.55613518,10 2,10 C1.44771525,10 1,9.55613518 1,9 Z" id="Combined-Shape" fill="#CC2929"></path>
                </g>
            </g>
        </g>
    </g>
</svg>