<?xml version="1.0" encoding="UTF-8"?>
<svg width="14px" height="11px" viewBox="0 0 14 11" version="1.1" xmlns="http://www.w3.org/2000/svg" xmlns:xlink="http://www.w3.org/1999/xlink">
    <!-- Generator: Sketch 42 (36781) - http://www.bohemiancoding.com/sketch -->
    <title>096 copy</title>
    <desc>Created with Sketch.</desc>
    <defs>
        <rect id="path-1" x="0" y="0" width="800" height="614" rx="2"></rect>
        <filter x="-50%" y="-50%" width="200%" height="200%" filterUnits="objectBoundingBox" id="filter-2">
            <feOffset dx="0" dy="5" in="SourceAlpha" result="shadowOffsetOuter1"></feOffset>
            <feGaussianBlur stdDeviation="10" in="shadowOffsetOuter1" result="shadowBlurOuter1"></feGaussianBlur>
            <feColorMatrix values="0 0 0 0 0.0117647059   0 0 0 0 0.062745098   0 0 0 0 0.101960784  0 0 0 0.3 0" type="matrix" in="shadowBlurOuter1"></feColorMatrix>
        </filter>
        <rect id="path-3" x="0" y="0" width="300" height="444" rx="2"></rect>
        <mask id="mask-4" maskContentUnits="userSpaceOnUse" maskUnits="objectBoundingBox" x="-1" y="-1" width="302" height="446">
            <rect x="-1" y="-1" width="302" height="446" fill="white"></rect>
            <use xlink:href="#path-3" fill="black"></use>
        </mask>
        <mask id="mask-6" maskContentUnits="userSpaceOnUse" maskUnits="objectBoundingBox" x="-1" y="-1" width="302" height="446">
            <rect x="-1" y="-1" width="302" height="446" fill="white"></rect>
            <use xlink:href="#path-3" fill="black"></use>
        </mask>
    </defs>
    <g id="菜单设置" stroke="none" stroke-width="1" fill="none" fill-rule="evenodd">
        <g id="PC端交互" transform="translate(-209.000000, -2406.000000)">
            <g id="无已选菜单" transform="translate(90.000000, 2131.000000)">
                <g id="Rectangle-6">
                    <use fill="black" fill-opacity="1" filter="url(#filter-2)" xlink:href="#path-1"></use>
                    <use fill="#FFFFFF" fill-rule="evenodd" xlink:href="#path-1"></use>
                </g>
                <g id="可选菜单" transform="translate(80.000000, 76.000000)">
                    <mask id="mask-5" fill="white">
                        <use xlink:href="#path-3"></use>
                    </mask>
                    <g id="Mask" stroke="#E4EBF0" mask="url(#mask-4)" stroke-width="2">
                        <use mask="url(#mask-6)" xlink:href="#path-3"></use>
                    </g>
                    <g id="已选菜单内容" mask="url(#mask-5)">
                        <g transform="translate(0.000000, -1.000000)">
                            <g id="分割线" transform="translate(0.000000, 35.000000)"></g>
                            <g id="展开" transform="translate(39.000000, 107.000000)">
                                <path d="M13,95.9953976 C13,95.4556644 12.553384,95 12.0024554,95 L7,95 C6.44771525,95 6,95 6,95 C6,94.4426603 5.55097324,94 4.99707067,94 L2.00292933,94 C1.43788135,94 1,94.4472481 1,94.9989566 L1,95 L1,96.5 L1,97 L13,97 L13,95.9953976 Z M13,102.004602 C13,102.554345 12.610948,103 12.1242373,103 L1.8757627,103 C1.39209232,103 1,102.555163 1,102.004423 L1,98 L13,98 L13,102.004602 Z M12.0049107,94 C13.1067681,94 14,94.9019504 14,96.0085302 L14,101.99147 C14,103.10075 13.1073772,104 12.0049107,104 L1.99508929,104 C0.893231902,104 0,103.09805 0,101.99147 L0,95 C0,93.8954305 0.895857811,93 1.9973917,93 L5.0026083,93 C6.10573727,93 7,93.5 7,94 L12.0049107,94 Z" id="096-copy" fill="#8F9CA6"></path>
                            </g>
                        </g>
                    </g>
                </g>
            </g>
        </g>
    </g>
</svg>