<?xml version="1.0" encoding="UTF-8" standalone="no"?>
<svg width="16px" height="16px" viewBox="0 0 16 16" version="1.1" xmlns="http://www.w3.org/2000/svg" xmlns:xlink="http://www.w3.org/1999/xlink">
    <!-- Generator: Sketch 42 (36781) - http://www.bohemiancoding.com/sketch -->
    <title>Group 7</title>
    <desc>Created with Sketch.</desc>
    <defs></defs>
    <g id="平台组件规范+部分组件视觉" stroke="none" stroke-width="1" fill="none" fill-rule="evenodd">
        <g id="首页-copy" transform="translate(-235.000000, -1638.000000)">
            <g id="任务列表-copy-2" transform="translate(220.000000, 1544.000000)">
                <g id="Group-2" transform="translate(15.000000, 67.000000)">
                    <g id="Group-6">
                        <g id="Group-5" transform="translate(0.000000, 20.000000)">
                            <g id="Group-7" transform="translate(0.000000, 7.000000)">
                                <rect id="Rectangle-2" fill="#ED5858" x="0" y="3.55271368e-15" width="16" height="16" rx="8"></rect>
                                <path d="M7,7 L3.67123032,7 C3.2895627,7 3,7.29847683 3,7.66666667 C3,8.03742345 3.30052005,8.33333333 3.67123032,8.33333333 L7,8.33333333 L7,11.662103 C7,12.0437706 7.29847683,12.3333333 7.66666667,12.3333333 C8.03742345,12.3333333 8.33333333,12.0328133 8.33333333,11.662103 L8.33333333,8.33333333 L11.662103,8.33333333 C12.0437706,8.33333333 12.3333333,8.0348565 12.3333333,7.66666667 C12.3333333,7.29590988 12.0328133,7 11.662103,7 L8.33333333,7 L8.33333333,3.67123032 C8.33333333,3.2895627 8.0348565,3 7.66666667,3 C7.29590988,3 7,3.30052005 7,3.67123032 L7,7 Z" id="Combined-Shape" fill="#FFFFFF" transform="translate(7.666667, 7.666667) rotate(45.000000) translate(-7.666667, -7.666667) "></path>
                            </g>
                        </g>
                    </g>
                </g>
            </g>
        </g>
    </g>
</svg>