<?xml version="1.0" encoding="UTF-8"?>
<svg width="18px" height="18px" viewBox="0 0 18 18" version="1.1" xmlns="http://www.w3.org/2000/svg" xmlns:xlink="http://www.w3.org/1999/xlink">
    <!-- Generator: Sketch 42 (36781) - http://www.bohemiancoding.com/sketch -->
    <title>仪表盘 copy 2</title>
    <desc>Created with Sketch.</desc>
    <defs></defs>
    <g id="菜单设置" stroke="none" stroke-width="1" fill="none" fill-rule="evenodd">
        <g id="交互" transform="translate(-127.000000, -688.000000)">
            <g id="仪表盘-copy-2" transform="translate(127.000000, 688.000000)">
                <rect id="Rectangle-10" x="0" y="0" width="18" height="18"></rect>
                <path d="M9,17 L9,17 C13.418278,17 17,13.418278 17,9 C17,4.581722 13.418278,1 9,1 C4.581722,1 1,4.581722 1,9 C1,13.418278 4.581722,17 9,17 L9,17 Z M9,18 L9,18 C4.02943725,18 0,13.9705627 0,9 C0,4.02943725 4.02943725,0 9,0 C13.9705627,0 18,4.02943725 18,9 C18,13.9705627 13.9705627,18 9,18 L9,18 Z" id="yibiao-l-copy" fill="#1687D9" fill-rule="nonzero"></path>
                <path d="M9.79994159,12.3998248 L9,10 L8.20005841,12.3998248 C8.07444097,12.5669869 8,12.7748001 8,13 C8,13.5522847 8.44771525,14 9,14 C9.55228475,14 10,13.5522847 10,13 C10,12.7748001 9.92555903,12.5669869 9.79994159,12.3998248 L9.79994159,12.3998248 L9.79994159,12.3998248 L9.79994159,12.3998248 L9.79994159,12.3998248 Z M11,13 C11,14.1045695 10.1045695,15 9,15 C7.8954305,15 7,14.1045695 7,13 C7,12.561879 8.0513167,9.68377223 8.0513167,9.68377223 L9,6.83772234 L9.9486833,9.68377223 C9.9486833,9.68377223 11,12.561879 11,13 Z" id="Path" fill="#1687D9" fill-rule="nonzero"></path>
                <path d="M15,9 C15,5.6862915 12.3137085,3 9,3 C5.6862915,3 3,5.6862915 3,9 C3,9.27614237 3.22385763,9.5 3.5,9.5 C3.77614237,9.5 4,9.27614237 4,9 C4,6.23857625 6.23857625,4 9,4 C11.7614237,4 14,6.23857625 14,9 C14,9.27614237 14.2238576,9.5 14.5,9.5 C14.7761424,9.5 15,9.27614237 15,9 L15,9 Z" id="Combined-Shape" fill="#1687D9"></path>
            </g>
        </g>
    </g>
</svg>