<?xml version="1.0" encoding="UTF-8"?>
<svg width="16px" height="16px" viewBox="0 0 16 16" version="1.1" xmlns="http://www.w3.org/2000/svg" xmlns:xlink="http://www.w3.org/1999/xlink">
    <!-- Generator: Sketch 42 (36781) - http://www.bohemiancoding.com/sketch -->
    <title>icon首页</title>
    <desc>Created with Sketch.</desc>
    <defs></defs>
    <g id="菜单设置" stroke="none" stroke-width="1" fill="none" fill-rule="evenodd">
        <g id="交互" transform="translate(-125.000000, -618.000000)">
            <g id="首页-copy-2" transform="translate(124.000000, 617.000000)">
                <rect id="Rectangle-10" x="0" y="0" width="18" height="18"></rect>
                <path d="M14,11.8311026 L14,11.8311026 L14,11.416889 L14.2928932,11.1239958 L15.7051264,9.71176263 C16.0983019,9.31858707 16.0982805,8.68139147 15.7051264,8.28823737 L9.71176263,2.29487362 C9.31858707,1.90169806 8.68139147,1.90171952 8.28823737,2.29487362 L2.29487362,8.28823737 C1.90169806,8.68141293 1.90171952,9.31860853 2.29487362,9.71176263 L3.70535719,11.1222462 L3.9982504,11.4151394 L3.9982504,11.829353 L3.9982504,15.0071909 C3.9982504,15.5489056 4.45166163,16 5.00707345,16 L12.991177,16 C13.5485559,16 14,15.5525703 14,15.0071909 L14,11.8311026 Z M15,11.8311026 L15,15.0071909 C15,16.107789 14.0979181,17 12.991177,17 L5.00707345,17 C3.89763112,17 2.9982504,16.0994659 2.9982504,15.0071909 L2.9982504,11.829353 L1.58776684,10.4188694 C0.8041469,9.63524947 0.804008546,8.36488888 1.58776684,7.58113059 L7.58113059,1.58776684 C8.36475053,0.8041469 9.63511112,0.804008546 10.4188694,1.58776684 L16.4122332,7.58113059 C17.1958531,8.36475053 17.1959915,9.63511112 16.4122332,10.4188694 L15,11.8311026 L15,11.8311026 L15,11.8311026 Z" id="icon首页" fill="#1687D9" fill-rule="nonzero"></path>
                <path d="M7,12.9979131 C7,11.8944962 7.88772964,11 9,11 C10.1045695,11 11,11.8982606 11,12.9979131 L11,17 L7,17 L7,12.9979131 Z M8,12.9998075 L8,17 L10,17 L10,12.9998075 C10,12.4437166 9.55228475,12 9,12 C8.44386482,12 8,12.4476291 8,12.9998075 Z" id="Combined-Shape" fill="#1687D9"></path>
            </g>
        </g>
    </g>
</svg>