<?xml version="1.0" encoding="UTF-8"?>
<svg width="34px" height="34px" viewBox="0 0 34 34" version="1.1" xmlns="http://www.w3.org/2000/svg" xmlns:xlink="http://www.w3.org/1999/xlink">
    <!-- Generator: Sketch 42 (36781) - http://www.bohemiancoding.com/sketch -->
    <title>Oval 8</title>
    <desc>Created with Sketch.</desc>
    <defs>
        <rect id="path-1" x="0" y="0" width="788" height="460"></rect>
        <mask id="mask-2" maskContentUnits="userSpaceOnUse" maskUnits="objectBoundingBox" x="-1" y="-1" width="790" height="462">
            <rect x="-1" y="-1" width="790" height="462" fill="white"></rect>
            <use xlink:href="#path-1" fill="black"></use>
        </mask>
    </defs>
    <g id="平台组件规范+部分组件视觉" stroke="none" stroke-width="1" fill="none" fill-rule="evenodd">
        <g id="首页" transform="translate(-235.000000, -1444.000000)">
            <g id="Group-24-Copy" transform="translate(220.000000, 1317.000000)">
                <g id="Rectangle-4-Copy-2">
                    <use fill="#FFFFFF" fill-rule="evenodd" xlink:href="#path-1"></use>
                    <use stroke="#F5F8FA" mask="url(#mask-2)" stroke-width="2" xlink:href="#path-1"></use>
                </g>
                <g id="Group-6-Copy-5" transform="translate(15.000000, 127.000000)">
                    <g id="Group-25">
                        <g id="Group-27-Copy">
                            <g id="Group-27">
                                <ellipse id="Oval-8" fill="#96D1FA" cx="17" cy="17" rx="17" ry="17"></ellipse>
                                <g id="cus-xiangmu" transform="translate(8.000000, 7.000000)" fill="#FFFFFF">
                                    <path d="M15.2727273,9.38150137 C14.927135,9.20483631 14.5621527,9.06069875 14.1818182,8.95312635 L14.1818182,2.09203262 C14.1818182,1.53991257 13.7316473,1.09090909 13.1763333,1.09090909 L2.09639395,1.09090909 C1.54152781,1.09090909 1.09090909,1.53912736 1.09090909,2.09203262 L1.09090909,17.544331 C1.09090909,18.0964511 1.54108,18.5454545 2.09639395,18.5454545 L7.91690412,18.5454545 C8.25874736,18.9593781 8.65504334,19.3266709 9.09482276,19.6363636 L1.99664237,19.6363636 C0.89392724,19.6363636 0,18.7416045 0,17.6454622 L0,1.99090144 C0,0.891356935 0.887140632,0 1.99664237,0 L13.2760849,0 C14.3788,0 15.2727273,0.894759178 15.2727273,1.99090144 L15.2727273,9.38150137 Z M6.77130817,13.0909091 C6.67186838,13.4424898 6.60367399,13.8071893 6.56991437,14.1818182 L3.7669487,14.1818182 C3.49399774,14.1818182 3.27272727,13.9504644 3.27272727,13.6874334 L3.27272727,13.5852939 C3.27272727,13.3122527 3.48845881,13.0909091 3.7669487,13.0909091 L6.77130817,13.0909091 Z M11.7291027,8.78234281 C10.7578089,8.91447418 9.86042429,9.27904515 9.09482276,9.81818182 L3.7669487,9.81818182 C3.49399774,9.81818182 3.27272727,9.58682806 3.27272727,9.32379705 L3.27272727,9.22165749 C3.27272727,8.94861633 3.48845881,8.72727273 3.7669487,8.72727273 L11.5057786,8.72727273 C11.5861428,8.72727273 11.662027,8.74732821 11.7291027,8.78234281 Z M3.27272727,4.85802113 C3.27272727,4.58497996 3.48845881,4.36363636 3.7669487,4.36363636 L11.5057786,4.36363636 C11.7787295,4.36363636 12,4.59499012 12,4.85802113 L12,4.96016069 C12,5.23320186 11.7842685,5.45454545 11.5057786,5.45454545 L3.7669487,5.45454545 C3.49399774,5.45454545 3.27272727,5.22319169 3.27272727,4.96016069 L3.27272727,4.85802113 Z M12.5454545,19.6363636 C9.8342385,19.6363636 7.63636364,17.4384888 7.63636364,14.7272727 C7.63636364,12.0160567 9.8342385,9.81818182 12.5454545,9.81818182 C15.2566706,9.81818182 17.4545455,12.0160567 17.4545455,14.7272727 C17.4545455,17.4384888 15.2566706,19.6363636 12.5454545,19.6363636 Z M12.5454545,18.5454545 C14.6541781,18.5454545 16.3636364,16.8359963 16.3636364,14.7272727 C16.3636364,12.6185491 14.6541781,10.9090909 12.5454545,10.9090909 C10.436731,10.9090909 8.72727273,12.6185491 8.72727273,14.7272727 C8.72727273,16.8359963 10.436731,18.5454545 12.5454545,18.5454545 Z M13.0909091,14.1818182 L13.6363636,14.1818182 C13.9376099,14.1818182 14.1818182,14.4348366 14.1818182,14.7272727 C14.1818182,15.028519 13.9287997,15.2727273 13.6363636,15.2727273 L13.0909091,15.2727273 L13.0909091,14.1818182 Z M12,12.5404243 C12,12.2419562 12.2530185,12 12.5454545,12 C12.8467008,12 13.0909091,12.2353665 13.0909091,12.5404243 L13.0909091,15.2727273 L12,15.2727273 L12,12.5404243 Z" id="项目ico"></path>
                                </g>
                            </g>
                        </g>
                    </g>
                </g>
            </g>
        </g>
    </g>
</svg>