<?xml version="1.0" encoding="UTF-8"?>
<svg width="13px" height="14px" viewBox="0 0 13 14" version="1.1" xmlns="http://www.w3.org/2000/svg" xmlns:xlink="http://www.w3.org/1999/xlink">
    <!-- Generator: Sketch 42 (36781) - http://www.bohemiancoding.com/sketch -->
    <title>Combined Shape Copy 5</title>
    <desc>Created with Sketch.</desc>
    <defs></defs>
    <g id="菜单设置" stroke="none" stroke-width="1" fill="none" fill-rule="evenodd">
        <g id="交互" transform="translate(-734.000000, -159.000000)">
            <g id="Group" transform="translate(108.000000, 104.000000)"></g>
            <path d="M742,165 L742,166.000193 C742,166.556283 741.63086,166.742912 741.175503,166.425779 L739.345401,165.151203 C738.893228,164.836287 738.882174,164.309387 739.327823,163.979293 L741.193081,162.597689 C741.640779,162.266076 742,162.447629 742,162.999807 L742,164 L746.508995,164 C746.780169,164 747,164.231934 747,164.5 C747,164.776142 746.77212,165 746.508995,165 L742,165 Z M744,167 L745,167 L745,170.994141 C745,172.101946 744.099824,173 743.007983,173 L735.992017,173 C734.891856,173 734,172.10294 734,170.994141 L734,161.005859 C734,159.898054 734.900176,159 735.992017,159 L743.007983,159 C744.108144,159 745,159.89706 745,161.005859 L745,162 L744,162 L744,161.002473 C744,160.455761 743.553384,160 743.002455,160 L735.997545,160 C735.446311,160 735,160.448823 735,161.002473 L735,169 L744,169 L744,167 Z M744,170 L735,170 L735,170.997527 C735,171.544239 735.446616,172 735.997545,172 L743.002455,172 C743.553689,172 744,171.551177 744,170.997527 L744,170 Z" id="Combined-Shape-Copy-5" fill="#1687D9"></path>
        </g>
    </g>
</svg>