<?xml version="1.0" encoding="UTF-8"?>
<svg width="18px" height="22px" viewBox="0 0 18 22" version="1.1" xmlns="http://www.w3.org/2000/svg" xmlns:xlink="http://www.w3.org/1999/xlink">
    <!-- Generator: Sketch 41.2 (35397) - http://www.bohemiancoding.com/sketch -->
    <title>Combined Shape</title>
    <desc>Created with Sketch.</desc>
    <defs></defs>
    <g id="Page-1" stroke="none" stroke-width="1" fill="none" fill-rule="evenodd">
        <g id="页面管理-方案一" transform="translate(-36.000000, -64.000000)" fill="#FFFFFF">
            <g id="M-列表-视图切换-2" transform="translate(0.000000, 40.000000)">
                <g id="cus-shiti" transform="translate(36.000000, 24.000000)">
                    <path d="M0,1.991155 C0,0.891470458 0.895875788,0 1.99635023,0 L15.1147609,0 C16.2173147,0 17.1111111,0.889673948 17.1111111,1.991155 L17.1111111,20.008845 C17.1111111,21.1085295 16.2152353,22 15.1147609,22 L1.99635023,22 C0.893796444,22 0,21.1103261 0,20.008845 L0,1.991155 Z M1.22222222,2.21887016 C1.22222222,1.6684367 1.67724933,1.22222222 2.23032162,1.22222222 L14.8807895,1.22222222 C15.4375474,1.22222222 15.8888889,1.6674099 15.8888889,2.21887016 L15.8888889,19.7811298 C15.8888889,20.3315633 15.4338618,20.7777778 14.8807895,20.7777778 L2.23032162,20.7777778 C1.6735637,20.7777778 1.22222222,20.3325901 1.22222222,19.7811298 L1.22222222,2.21887016 Z M3.66666667,5.38601345 C3.66666667,5.11145914 3.8829517,4.88888889 4.16369407,4.88888889 L7.6538963,4.88888889 C7.92839695,4.88888889 8.1509237,5.11306328 8.1509237,5.38601345 L8.1509237,5.61398655 C8.1509237,5.88854086 7.93463866,6.11111111 7.6538963,6.11111111 L4.16369407,6.11111111 C3.88919341,6.11111111 3.66666667,5.88693672 3.66666667,5.61398655 L3.66666667,5.38601345 Z M3.66666667,9.05268012 C3.66666667,8.7781258 3.8892605,8.55555556 4.16499064,8.55555556 L12.9461205,8.55555556 C13.2213372,8.55555556 13.4444444,8.77972995 13.4444444,9.05268012 L13.4444444,9.28065321 C13.4444444,9.55520753 13.2218506,9.77777778 12.9461205,9.77777778 L4.16499064,9.77777778 C3.88977391,9.77777778 3.66666667,9.55360338 3.66666667,9.28065321 L3.66666667,9.05268012 Z M3.66666667,12.7193468 C3.66666667,12.4447925 3.8892605,12.2222222 4.16499064,12.2222222 L12.9461205,12.2222222 C13.2213372,12.2222222 13.4444444,12.4463966 13.4444444,12.7193468 L13.4444444,12.9473199 C13.4444444,13.2218742 13.2218506,13.4444444 12.9461205,13.4444444 L4.16499064,13.4444444 C3.88977391,13.4444444 3.66666667,13.2202701 3.66666667,12.9473199 L3.66666667,12.7193468 Z M3.66666667,16.3860135 C3.66666667,16.1114591 3.8892605,15.8888889 4.16499064,15.8888889 L12.9461205,15.8888889 C13.2213372,15.8888889 13.4444444,16.1130633 13.4444444,16.3860135 L13.4444444,16.6139865 C13.4444444,16.8885409 13.2218506,17.1111111 12.9461205,17.1111111 L4.16499064,17.1111111 C3.88977391,17.1111111 3.66666667,16.8869367 3.66666667,16.6139865 L3.66666667,16.3860135 Z" id="Combined-Shape"></path>
                </g>
            </g>
        </g>
    </g>
</svg>