<?xml version="1.0" encoding="UTF-8"?>
<svg width="8px" height="8px" viewBox="0 0 8 8" version="1.1" xmlns="http://www.w3.org/2000/svg" xmlns:xlink="http://www.w3.org/1999/xlink">
    <!-- Generator: Sketch 42 (36781) - http://www.bohemiancoding.com/sketch -->
    <title>Combined Shape</title>
    <desc>Created with Sketch.</desc>
    <defs></defs>
    <g id="菜单设置" stroke="none" stroke-width="1" fill="none" fill-rule="evenodd">
        <g id="交互" transform="translate(-271.000000, -110.000000)" fill="#C2CBD1">
            <g id="Group" transform="translate(108.000000, 104.000000)">
                <path d="M167.033869,9.32676186 L163.852758,6.14565167 C163.660793,5.95368618 163.340043,5.9495192 163.144781,6.14478134 C162.95523,6.33433291 162.949909,6.65701564 163.145652,6.85275845 L166.326762,10.0338686 L163.145652,13.2149788 C162.953686,13.4069443 162.949519,13.7276938 163.144781,13.9229559 C163.334333,14.1125075 163.657016,14.1178284 163.852758,13.9220856 L167.033869,10.7409754 L170.214979,13.9220856 C170.406944,14.1140511 170.727694,14.1182181 170.922956,13.9229559 C171.112508,13.7334044 171.117828,13.4107216 170.922086,13.2149788 L167.740975,10.0338686 L170.922086,6.85275845 C171.114051,6.66079296 171.118218,6.34004349 170.922956,6.14478134 C170.733404,5.95522977 170.410722,5.94990886 170.214979,6.14565167 L167.033869,9.32676186 Z" id="Combined-Shape"></path>
            </g>
        </g>
    </g>
</svg>