<?xml version="1.0" encoding="UTF-8"?>
<svg width="18px" height="18px" viewBox="0 0 18 18" version="1.1" xmlns="http://www.w3.org/2000/svg" xmlns:xlink="http://www.w3.org/1999/xlink">
    <!-- Generator: Sketch 42 (36781) - http://www.bohemiancoding.com/sketch -->
    <title>Group</title>
    <desc>Created with Sketch.</desc>
    <defs></defs>
    <g id="平台组件规范+部分组件视觉" stroke="none" stroke-width="1" fill="none" fill-rule="evenodd">
        <g id="A4" transform="translate(-22.000000, -51.000000)" fill="#F5D540">
            <g id="Group" transform="translate(22.000000, 51.000000)">
                <path d="M9,18 C4.02943725,18 0,13.9705627 0,9 C0,4.02943725 4.02943725,0 9,0 C13.9705627,0 18,4.02943725 18,9 C18,13.9705627 13.9705627,18 9,18 Z M9,17 C13.418278,17 17,13.418278 17,9 C17,4.581722 13.418278,1 9,1 C4.581722,1 1,4.581722 1,9 C1,13.418278 4.581722,17 9,17 Z" id="Combined-Shape"></path>
                <path d="M9,17 L9,17 C11.05096,17 13,13.491728 13,9 C13,4.50827196 11.05096,1 9,1 C6.94903998,1 5,4.50827196 5,9 C5,13.491728 6.94903998,17 9,17 L9,17 Z M9,18 L9,18 C6.23857625,18 4,13.9705627 4,9 C4,4.02943725 6.23857625,0 9,0 C11.7614237,0 14,4.02943725 14,9 C14,13.9705627 11.7614237,18 9,18 L9,18 Z" id="Oval-15" fill-rule="nonzero"></path>
                <path d="M9,11 L9,7 L1,7 L1,6 L9,6 L9,1 L10,1 L10,6 L17,6 L17,7 L10,7 L10,11 L17,11 L17,12 L10,12 L10,18 L9,18 L9,12 L1,12 L1,11 L9,11 Z" id="Combined-Shape"></path>
            </g>
        </g>
    </g>
</svg>