<?xml version="1.0" encoding="UTF-8" standalone="no"?>
<svg width="18px" height="18px" viewBox="0 0 18 18" version="1.1" xmlns="http://www.w3.org/2000/svg" xmlns:xlink="http://www.w3.org/1999/xlink">
    <!-- Generator: Sketch 40.3 (33839) - http://www.bohemiancoding.com/sketch -->
    <title>cus-zaopin copy</title>
    <desc>Created with Sketch.</desc>
    <defs></defs>
    <g id="同事页" stroke="none" stroke-width="1" fill="none" fill-rule="evenodd">
        <g id="交互标注" transform="translate(-668.000000, -1160.000000)">
            <g id="卡片2-copy-4" transform="translate(464.000000, 1134.000000)">
                <g id="cus-zaopin-copy" transform="translate(204.000000, 26.000000)">
                    <g id="Group-2" transform="translate(9.000000, 10.000000)">
                        <path d="M0,4 C0,1.790861 2.01471863,0 4.5,0 C6.98528137,0 9,1.790861 9,4 C9,6.209139 6.98528137,8 4.5,8 C2.01471863,8 0,6.209139 0,4 Z M8,4 C8,2.37109723 6.45751561,1 4.5,1 C2.54248439,1 1,2.37109723 1,4 C1,5.62890277 2.54248439,7 4.5,7 C6.45751561,7 8,5.62890277 8,4 Z" id="Combined-Shape" fill="#C3CBD1"></path>
                        <path d="M2.5,5 C2.77614237,5 3,4.55228475 3,4 C3,3.44771525 2.77614237,3 2.5,3 C2.22385763,3 2,3.44771525 2,4 C2,4.55228475 2.22385763,5 2.5,5 Z M4.5,5 C4.77614237,5 5,4.55228475 5,4 C5,3.44771525 4.77614237,3 4.5,3 C4.22385763,3 4,3.44771525 4,4 C4,4.55228475 4.22385763,5 4.5,5 Z M6.5,5 C6.77614237,5 7,4.55228475 7,4 C7,3.44771525 6.77614237,3 6.5,3 C6.22385763,3 6,3.44771525 6,4 C6,4.55228475 6.22385763,5 6.5,5 Z" id="Combined-Shape" fill="#C3CBD1"></path>
                        <polygon id="Rectangle-2" fill="#C2CBD1" points="8.5 5.5 9 8 6.5 7.5"></polygon>
                    </g>
                    <g id="Group">
                        <path d="M3.5,4.5 C3.5,2.01471863 5.51471863,0 8,0 C10.4852814,0 12.5,2.01471863 12.5,4.5 C12.5,6.98528137 10.4852814,9 8,9 C5.51471863,9 3.5,6.98528137 3.5,4.5 Z M8,8 L8,8 C9.93613601,8 11.5,6.42978994 11.5,4.5 C11.5,2.57021006 9.93613601,1 8,1 C6.06386399,1 4.5,2.57021006 4.5,4.5 C4.5,6.42978994 6.06386399,8 8,8 L8,8 Z" id="Path" fill="#C3CBD1"></path>
                        <path d="M12.5583832,9.07299119 C11.3523916,8.38664925 9.96975928,8 8.5,8 C3.80557963,8 -2.91038305e-10,11.9444704 -2.91038305e-10,17 L-2.91038305e-10,17.5 L1,17.5 L1,17 C1,12.6666889 4.52779815,9 8.5,9 C9.38807958,9 10.2539456,9.18328006 11.0631399,9.51631333 C11.528153,9.30704383 12.0303843,9.15579987 12.5583832,9.07299119 Z" id="Combined-Shape" fill="#C3CBD1"></path>
                        <circle id="Oval" fill="#C2CBD1" cx="0.5" cy="17.5" r="0.5"></circle>
                    </g>
                </g>
            </g>
        </g>
    </g>
</svg>