<?xml version="1.0" encoding="UTF-8"?>
<svg width="5px" height="8px" viewBox="0 0 5 8" version="1.1" xmlns="http://www.w3.org/2000/svg" xmlns:xlink="http://www.w3.org/1999/xlink">
    <!-- Generator: Sketch 42 (36781) - http://www.bohemiancoding.com/sketch -->
    <title>Combined Shape</title>
    <desc>Created with Sketch.</desc>
    <defs></defs>
    <g id="时间控件" stroke="none" stroke-width="1" fill="none" fill-rule="evenodd">
        <g id="日－日" transform="translate(-220.000000, -242.000000)" fill="#ACB7BF">
            <g id="时间弹层" transform="translate(171.000000, 181.000000)">
                <g id="头部" transform="translate(15.000000, 55.000000)">
                    <path d="M34.0757865,10.2911825 C34.1042557,10.340419 34.1389408,10.3830254 34.1805919,10.4180442 L38.3325908,13.9088922 C38.5200045,14.0664628 38.7899497,14.0159046 38.9239056,13.7861937 C39.0539438,13.5632007 39.010306,13.2389816 38.8176877,13.0770352 L35.1586228,10.0006279 L38.8191002,6.92303304 C39.0065139,6.76546244 39.0592739,6.44358557 38.9253181,6.2138746 C38.7952799,5.99088167 38.5266216,5.9292296 38.3340032,6.09117601 L34.1820044,9.58202408 C34.1390101,9.61751574 34.1034816,9.6589713 34.0743741,9.70888573 C34.0075598,9.82346056 33.9865952,9.96475864 34.0081305,10.0970384 C34.0185798,10.1649917 34.0408232,10.2312265 34.0757865,10.2911825 Z" id="Combined-Shape"></path>
                </g>
            </g>
        </g>
    </g>
</svg>