<?xml version="1.0" encoding="UTF-8"?>
<svg width="12px" height="12px" viewBox="0 0 12 12" version="1.1" xmlns="http://www.w3.org/2000/svg" xmlns:xlink="http://www.w3.org/1999/xlink">
    <!-- Generator: Sketch 42 (36781) - http://www.bohemiancoding.com/sketch -->
    <title>编辑 copy</title>
    <desc>Created with Sketch.</desc>
    <defs></defs>
    <g id="菜单设置" stroke="none" stroke-width="1" fill="none" fill-rule="evenodd">
        <g id="交互" transform="translate(-245.000000, -163.000000)">
            <g id="Group" transform="translate(108.000000, 104.000000)">
                <g id="编辑-copy" transform="translate(134.000000, 56.000000)">
                    <rect id="Rectangle-13" x="0" y="0" width="18" height="18"></rect>
                    <path d="M14.0505615,3.59354819 L14.408891,3.95187773 C15.2003898,4.7433765 15.1957087,6.03133066 14.4027581,6.82428122 L7.24309255,13.9839468 L3.73627317,14.9658562 C3.1995673,15.1161339 2.88930518,14.7921581 3.03658296,14.266166 L4.01849239,10.7593466 L11.178158,3.59968106 C11.9730438,2.80479519 13.2545034,2.7974901 14.0505615,3.59354819 L14.0505615,3.59354819 Z M4.19763684,13.8048024 L6.69979851,13.0940852 L13.6861803,6.10770341 C14.0848758,5.70900794 14.0865557,5.06269809 13.6923132,4.66845554 L13.3339837,4.310126 C12.9362968,3.91243915 12.2964857,3.91450897 11.8947358,4.31625887 L4.90704188,11.3039528 L4.19763684,13.8048024 L4.19763684,13.8048024 Z M11.4885447,4.72245 L13.2799892,6.51389454 L12.5634114,7.23047235 L10.7719669,5.43902781 L11.4885447,4.72245 L11.4885447,4.72245 Z" id="cus-bianji-nomal" fill="#1687D9" fill-rule="nonzero"></path>
                </g>
            </g>
        </g>
    </g>
</svg>