<?xml version="1.0" encoding="UTF-8"?>
<svg width="13px" height="14px" viewBox="0 0 13 14" version="1.1" xmlns="http://www.w3.org/2000/svg" xmlns:xlink="http://www.w3.org/1999/xlink">
    <!-- Generator: Sketch 42 (36781) - http://www.bohemiancoding.com/sketch -->
    <title>Combined Shape</title>
    <desc>Created with Sketch.</desc>
    <defs></defs>
    <g id="菜单设置" stroke="none" stroke-width="1" fill="none" fill-rule="evenodd">
        <g id="交互" transform="translate(-734.000000, -107.000000)">
            <g id="Group" transform="translate(108.000000, 104.000000)"></g>
            <path d="M742,113 L742,114.000193 C742,114.556283 741.63086,114.742912 741.175503,114.425779 L739.345401,113.151203 C738.893228,112.836287 738.882174,112.309387 739.327823,111.979293 L741.193081,110.597689 C741.640779,110.266076 742,110.447629 742,110.999807 L742,112 L746.508995,112 C746.780169,112 747,112.231934 747,112.5 C747,112.776142 746.77212,113 746.508995,113 L742,113 Z M744,115 L745,115 L745,118.994141 C745,120.101946 744.099824,121 743.007983,121 L735.992017,121 C734.891856,121 734,120.10294 734,118.994141 L734,109.005859 C734,107.898054 734.900176,107 735.992017,107 L743.007983,107 C744.108144,107 745,107.89706 745,109.005859 L745,110 L744,110 L744,109.002473 C744,108.455761 743.553384,108 743.002455,108 L735.997545,108 C735.446311,108 735,108.448823 735,109.002473 L735,117 L744,117 L744,115 Z M744,118 L735,118 L735,118.997527 C735,119.544239 735.446616,120 735.997545,120 L743.002455,120 C743.553689,120 744,119.551177 744,118.997527 L744,118 Z" id="Combined-Shape" fill="#8F9CA6"></path>
        </g>
    </g>
</svg>