<?xml version="1.0" encoding="UTF-8"?>
<svg width="14px" height="18px" viewBox="0 0 14 18" version="1.1" xmlns="http://www.w3.org/2000/svg" xmlns:xlink="http://www.w3.org/1999/xlink">
    <!-- Generator: Sketch 42 (36781) - http://www.bohemiancoding.com/sketch -->
    <title>098</title>
    <desc>Created with Sketch.</desc>
    <defs>
        <rect id="path-1" x="0" y="0" width="319" height="412"></rect>
        <mask id="mask-2" maskContentUnits="userSpaceOnUse" maskUnits="objectBoundingBox" x="0" y="0" width="319" height="412" fill="white">
            <use xlink:href="#path-1"></use>
        </mask>
    </defs>
    <g id="平台组件规范+部分组件视觉" stroke="none" stroke-width="1" fill="none" fill-rule="evenodd">
        <g id="动态" transform="translate(-1040.000000, -76.000000)">
            <g id="置顶公告" transform="translate(1023.000000, 60.000000)">
                <use id="Rectangle-4-Copy" stroke="#F5F8FA" mask="url(#mask-2)" stroke-width="2" fill="#FFFFFF" xlink:href="#path-1"></use>
                <g id="Group-16" transform="translate(16.000000, 10.000000)" fill-rule="nonzero" fill="#F28D49">
                    <path d="M3.59652237,19.8534173 C2.81553945,19.0718918 2.81397963,17.8083488 3.5966584,17.0251263 C4.0302343,16.5912491 4.61224014,16.3976746 5.17816388,16.4453196 C5.46228464,16.4692396 5.74235188,16.5539595 5.99754789,16.6995953 L5.99499225,13.4910052 C5.99499225,12.6636032 6.67781709,12 7.49395085,12 C8.31746937,12 8.99290945,12.6712667 8.99290945,13.4910052 C8.99290945,13.4910052 8.99290949,15.2332153 8.99290945,16 C11.2005147,16 12.9901324,17.790861 12.9901324,20 C12.9901324,22.209139 11.2005147,24 8.99290945,24 C7.37102674,24 5.93404673,23.0244494 5.31416019,21.5667064 C5.28448679,21.4969255 3.59652237,19.8534173 3.59652237,19.8534173 Z M8.99290945,23 C10.6486134,23 11.9908267,21.6568542 11.9908267,20 C11.9908267,18.3431458 10.6486134,17 8.99290945,17 C8.64251746,17 8.30616549,17.0601542 7.99360372,17.1707057 L7.99360372,13.4910052 C7.99360372,13.2278805 7.76990151,13 7.49395085,13 C7.22607056,13 6.99429799,13.2198305 6.99429799,13.4910052 L6.99429799,17.7638935 C6.77397415,17.9612257 6.58298771,18.1906858 6.42869281,18.4449147 L5.71636995,17.7320969 C5.32342734,17.3388813 4.69352742,17.3417088 4.30327426,17.732233 C3.91030032,18.12548 3.91296019,18.7558614 4.30313823,19.1463105 L6.17114291,21.015613 C6.58706624,22.1726425 7.69343507,23 8.99290945,23 Z M7.49395085,6.49538898 C7.49395085,6.2217932 7.72572342,6 7.99360372,6 C8.26955438,6 8.49325659,6.2157526 8.49325659,6.49538898 L8.49325659,8.50461102 C8.49325659,8.7782068 8.26148402,9 7.99360372,9 C7.71765306,9 7.49395085,8.7842474 7.49395085,8.50461102 L7.49395085,6.49538898 Z M12.1494652,13.0155505 C12.0550189,12.7560616 12.1810555,12.4719637 12.4436453,12.3763889 L14.3303856,11.6896715 C14.587303,11.5961612 14.8749017,11.7383024 14.9665858,11.9902025 C15.0610321,12.2496914 14.9349955,12.5337893 14.6724057,12.6293642 L12.7856654,13.3160815 C12.528748,13.4095918 12.2411493,13.2674506 12.1494652,13.0155505 Z M1.02946565,11.987326 C1.1239119,11.727837 1.40307609,11.5912202 1.6656659,11.686795 L3.5524062,12.3735123 C3.80932365,12.4670226 3.93827043,12.760774 3.84658632,13.012674 C3.75214006,13.272163 3.47297587,13.4087798 3.21038606,13.313205 L1.32364576,12.6264877 C1.06672831,12.5329774 0.937781535,12.239226 1.02946565,11.987326 Z M11.8635694,7.87919306 C12.0003673,7.64225216 12.3119849,7.5660599 12.543976,7.70000005 C12.7829563,7.83797538 12.8688118,8.13667371 12.7289936,8.37884593 L11.7243826,10.1188832 C11.5875847,10.3558241 11.2759671,10.4320164 11.043976,10.2980763 C10.8049957,10.1601009 10.7191402,9.86140259 10.8589584,9.61923038 L11.8635694,7.87919306 Z M3.63000623,7.87919306 L4.63461724,9.61923038 C4.77443543,9.86140259 4.68857994,10.1601009 4.44959966,10.2980763 C4.21760852,10.4320164 3.90599098,10.3558241 3.76919309,10.1188832 L2.76458208,8.37884593 C2.62476388,8.13667371 2.71061938,7.83797538 2.94959966,7.70000005 C3.1815908,7.5660599 3.49320834,7.64225216 3.63000623,7.87919306 Z" id="098"></path>
                </g>
            </g>
        </g>
    </g>
</svg>