<?xml version="1.0" encoding="UTF-8"?>
<svg width="18px" height="18px" viewBox="0 0 18 18" version="1.1" xmlns="http://www.w3.org/2000/svg" xmlns:xlink="http://www.w3.org/1999/xlink">
    <!-- Generator: Sketch 42 (36781) - http://www.bohemiancoding.com/sketch -->
    <title>已完成</title>
    <desc>Created with Sketch.</desc>
    <defs></defs>
    <g id="平台组件规范+部分组件视觉" stroke="none" stroke-width="1" fill="none" fill-rule="evenodd">
        <g id="A4" transform="translate(-56.000000, -28.000000)" fill="#96D1FA">
            <path d="M63.2426407,40.2928932 L59.7005858,36.7508384 C59.313663,36.3639155 59.3138598,35.7363927 59.7071068,35.3431458 C60.0976311,34.9526215 60.7331012,34.9549266 61.1147994,35.3366248 L63.9497475,38.1715729 L68.9027493,33.218571 C69.2914763,32.8298441 69.9204615,32.8285785 70.3137085,33.2218254 C70.7042328,33.6123497 70.6986119,34.2511356 70.3169629,34.6327846 L64.6535998,40.2961476 C64.2648729,40.6848746 63.6358876,40.6861402 63.2426407,40.2928932 Z M56,29.9950893 C56,28.8932319 56.8926228,28 57.9950893,28 L72.0049107,28 C73.1067681,28 74,28.8926228 74,29.9950893 L74,44.0049107 C74,45.1067681 73.1073772,46 72.0049107,46 L57.9950893,46 C56.8932319,46 56,45.1073772 56,44.0049107 L56,29.9950893 Z M58,31.0068455 L58,42.9931545 C58,43.5500512 58.4507801,44 59.0068455,44 L70.9931545,44 C71.5500512,44 72,43.5492199 72,42.9931545 L72,31.0068455 C72,30.4499488 71.5492199,30 70.9931545,30 L59.0068455,30 C58.4499488,30 58,30.4507801 58,31.0068455 Z" id="已完成"></path>
        </g>
    </g>
</svg>