<?xml version="1.0" encoding="UTF-8"?>
<svg width="16px" height="16px" viewBox="0 0 16 16" version="1.1" xmlns="http://www.w3.org/2000/svg" xmlns:xlink="http://www.w3.org/1999/xlink">
    <!-- Generator: Sketch 42 (36781) - http://www.bohemiancoding.com/sketch -->
    <title>Combined Shape</title>
    <desc>Created with Sketch.</desc>
    <defs></defs>
    <g id="平台组件规范+部分组件视觉" stroke="none" stroke-width="1" fill="none" fill-rule="evenodd">
        <g id="A4" transform="translate(-206.000000, -509.000000)" fill="#41B0D9">
            <path d="M218,510 L220.00594,510 C221.107229,510 222,510.893397 222,511.991884 L222,523.008116 C222,524.108203 221.105486,525 220.00594,525 L207.99406,525 C206.892771,525 206,524.106603 206,523.008116 L206,511.991884 C206,510.891797 206.894514,510 207.99406,510 L210,510 L210,509.998957 C210,509.447248 210.443865,509 211,509 C211.552285,509 212,509.44266 212,509.998957 L212,510 L216,510 L216,509.998957 C216,509.447248 216.443865,509 217,509 C217.552285,509 218,509.44266 218,509.998957 L218,510 Z M218,511 L218,511.001043 C218,511.552752 217.556135,512 217,512 C216.447715,512 216,511.55734 216,511.001043 L216,511 L212,511 L212,511.001043 C212,511.552752 211.556135,512 211,512 C210.447715,512 210,511.55734 210,511.001043 L210,511 L208.006845,511 C207.449949,511 207,511.447715 207,512 L207,513 L221,513 L221,512 C221,511.443865 220.54922,511 219.993155,511 L218,511 Z M207,514 L207,523.004602 C207,523.544336 207.45078,524 208.006845,524 L219.993155,524 C220.550051,524 221,523.554345 221,523.004602 L221,514 L207,514 Z M209,516 L211,516 L211,518 L209,518 L209,516 Z M209,520 L211,520 L211,522 L209,522 L209,520 Z M213,516 L215,516 L215,518 L213,518 L213,516 Z M213,520 L215,520 L215,522 L213,522 L213,520 Z M217,516 L219,516 L219,518 L217,518 L217,516 Z M217,520 L219,520 L219,522 L217,522 L217,520 Z" id="Combined-Shape"></path>
        </g>
    </g>
</svg>