<?xml version="1.0" encoding="UTF-8"?>
<svg width="16px" height="16px" viewBox="0 0 16 16" version="1.1" xmlns="http://www.w3.org/2000/svg" xmlns:xlink="http://www.w3.org/1999/xlink">
    <!-- Generator: Sketch 42 (36781) - http://www.bohemiancoding.com/sketch -->
    <title>086</title>
    <desc>Created with Sketch.</desc>
    <defs></defs>
    <g id="平台组件规范+部分组件视觉" stroke="none" stroke-width="1" fill="none" fill-rule="evenodd">
        <g id="A4" transform="translate(-173.000000, -375.000000)" fill="#41B0D9">
            <path d="M181,383.705935 L179.939758,384.766177 C179.155186,385.550749 179.160744,386.808221 179.939758,387.587235 L182.766177,390.413653 C183.550749,391.198226 184.808221,391.192667 185.587235,390.413653 L188.413653,387.587235 C189.198226,386.802662 189.192667,385.54519 188.413653,384.766177 L185.587235,381.939758 C184.802662,381.155186 183.54519,381.160744 182.766177,381.939758 L181.705935,383 L181,382.294065 L182.060242,381.233823 C182.844814,380.449251 182.839256,379.191779 182.060242,378.412765 L179.233823,375.586347 C178.449251,374.801774 177.191779,374.807333 176.412765,375.586347 L173.586347,378.412765 C172.801774,379.197338 172.807333,380.45481 173.586347,381.233823 L176.412765,384.060242 C177.197338,384.844814 178.45481,384.839256 179.233823,384.060242 L180.294065,383 L181,383.705935 L181,383.705935 Z M181.705935,384.411869 L180.640523,385.477281 C180.259457,385.858347 180.254241,386.489849 180.640523,386.87613 L183.477281,389.712889 C183.858347,390.093954 184.489849,390.09917 184.87613,389.712889 L187.712889,386.87613 C188.093954,386.495065 188.09917,385.863563 187.712889,385.477281 L184.87613,382.640523 C184.495065,382.259457 183.863563,382.254241 183.477281,382.640523 L182.411869,383.705935 L183.468355,384.76242 C183.664628,384.958693 183.660008,385.281534 183.470771,385.470771 C183.275833,385.66571 182.95339,385.659324 182.76242,385.468355 L181.705935,384.411869 L181.705935,384.411869 Z M180.294065,381.588131 L181.359477,380.522719 C181.740543,380.141653 181.745759,379.510151 181.359477,379.12387 L178.522719,376.287111 C178.141653,375.906046 177.510151,375.90083 177.12387,376.287111 L174.287111,379.12387 C173.906046,379.504935 173.90083,380.136437 174.287111,380.522719 L177.12387,383.359477 C177.504935,383.740543 178.136437,383.745759 178.522719,383.359477 L179.588131,382.294065 L178.531645,381.23758 C178.335372,381.041307 178.339992,380.718466 178.529229,380.529229 C178.724167,380.33429 179.04661,380.340676 179.23758,380.531645 L180.294065,381.588131 L180.294065,381.588131 Z" id="086"></path>
        </g>
    </g>
</svg>