<?xml version="1.0" encoding="UTF-8" standalone="no"?>
<svg width="117px" height="117px" viewBox="0 0 117 117" version="1.1" xmlns="http://www.w3.org/2000/svg" xmlns:xlink="http://www.w3.org/1999/xlink">
    <!-- Generator: Sketch 40 (33762) - http://www.bohemiancoding.com/sketch -->
    <title>空数据</title>
    <desc>Created with Sketch.</desc>
    <defs>
        <rect id="path-1" x="25" y="16" width="68" height="55" rx="12"></rect>
        <mask id="mask-2" maskContentUnits="userSpaceOnUse" maskUnits="objectBoundingBox" x="0" y="0" width="68" height="55" fill="white">
            <use xlink:href="#path-1"></use>
        </mask>
    </defs>
    <g id="Page-1" stroke="none" stroke-width="1" fill="none" fill-rule="evenodd">
        <g id="空页面" transform="translate(-185.000000, -352.000000)">
            <g id="Group-4" transform="translate(70.000000, 240.000000)">
                <g id="空数据" transform="translate(115.000000, 112.000000)">
                    <g id="背景">
                        <path d="M46.3857844,29.2162852 C49.9618583,26.2041746 55.298078,26.6780273 58.2909349,30.2583594 C61.2898941,33.8459917 60.816695,39.2006511 57.2459764,42.2082509 L19.8791183,73.6821835 C16.3030444,76.694294 10.9668247,76.2204414 7.97396781,72.6401092 C4.97500861,69.0524769 5.44820772,63.6978176 9.01892637,60.6902177 L46.3857844,29.2162852 L46.3857844,29.2162852 Z M52.1763981,1.98373711 C55.752472,-1.02837345 61.0886917,-0.554520805 64.0815486,3.02581137 C67.0805078,6.61344365 66.6073087,11.968103 63.0365901,14.9757029 L25.669732,46.4496354 C22.0936581,49.461746 16.7574384,48.9878933 13.7645815,45.4075612 C10.7656223,41.8199289 11.2388214,36.4652695 14.8095401,33.4576696 L52.1763981,1.98373711 L52.1763981,1.98373711 Z M90.1208817,43.5503646 C93.6969556,40.538254 99.0331753,41.0121067 102.026032,44.5924388 C105.024991,48.1800711 104.551792,53.5347305 100.981074,56.5423304 L63.6142156,88.0162629 C60.0381417,91.0283735 54.701922,90.5545208 51.7090651,86.9741886 C48.7101059,83.3865563 49.183305,78.031897 52.7540236,75.0242971 L90.1208817,43.5503646 L90.1208817,43.5503646 Z" id="Combined-Shape" fill="#F3FAFF"></path>
                        <path d="M100.909686,41.7568268 C98.5673467,44.2793599 98.0783319,46.3179992 99.0560325,48.4791847 L99.9977206,48.1364382 C99.1392919,46.3060001 99.5607494,44.655461 101.676317,42.4001064 L100.909686,41.7568268 Z M101.459146,51.861234 C101.680395,52.1246045 101.903368,52.3903743 102.005177,52.5136485 C103.07207,53.8054813 103.830414,54.9014019 104.342595,56.0109143 L105.287005,55.6671771 C104.734775,54.4460346 103.918098,53.2594926 102.776219,51.8768639 C102.70949,51.7960657 102.592909,51.656652 102.459226,51.4972346 L101.459146,51.861234 Z M105.245959,59.9388276 C105.335336,61.4622754 105.1515,62.7924554 104.721247,63.8943773 L105.525378,64.5691236 C106.125861,63.2071372 106.376321,61.5254194 106.223439,59.5830539 L105.245959,59.9388276 Z M102.044063,66.8695828 C101.073495,67.3395277 99.90158,67.5531147 98.5528969,67.4782468 L98.009841,68.4188471 C99.9240168,68.605952 101.564459,68.2960209 102.867025,67.56013 L102.044063,66.8695828 Z M94.4745156,66.5422104 C93.4659773,66.1608682 92.3996063,65.6606925 91.2810304,65.0343343 C91.1234682,64.9461057 90.96544,64.8580782 90.8069528,64.7702598 L90.3068742,65.6364214 C90.4692232,65.726348 90.6310856,65.8164955 90.7924532,65.906855 C91.8957073,66.5246337 92.9573536,67.024669 93.9714505,67.4135446 L94.4745156,66.5422104 Z M87.2746873,62.8883232 C80.6613938,59.5034901 73.3922016,56.5499525 65.9261776,54.548674 C53.519961,51.2231697 42.0621189,50.9601663 32.2077481,54.6209043 C31.5898008,54.8504616 30.9866289,55.084133 30.3981936,55.3217363 L30.9031726,56.1963856 C31.4413387,55.9804674 31.9922604,55.7677253 32.55598,55.5583127 C42.1887875,51.9798819 53.4445026,52.2382457 65.6672664,55.5145751 C73.0414197,57.4912276 80.2308063,60.4101722 86.7740198,63.7555129 L87.2746873,62.8883232 Z M26.7191295,56.9494104 C25.4385615,57.5707503 24.245624,58.2132022 23.1397505,58.8740997 L23.6392165,59.7392002 C24.7414335,59.0801696 25.9348166,58.4385298 27.2201982,57.8172867 L26.7191295,56.9494104 Z M19.8133486,61.1126025 C18.1728139,62.3636792 16.8098539,63.6645924 15.7212094,65 L17,65 L17,65.038402 C17.9226986,63.9975637 19.0274873,62.9767026 20.3168003,61.9846065 L19.8133486,61.1126025 Z M12.7644572,70.8999939 C12.3686989,72.9572606 12.6858841,74.8034523 13.5800772,76 L15.0028173,76 C13.8018238,75.1932571 13.277207,73.2311505 13.7815608,70.8999939 L12.7644572,70.8999939 Z M12,66.9384167 L12,65.9726656 C12.6566988,65.9158636 13.3245509,65.8898602 14,65.8951261 L14,66.8951591 C13.7830718,66.8933906 13.5670447,66.8950097 13.3520494,66.8999939 L12,66.8999939 L12,66.9384167 Z M17,77.7875164 C18.8783419,78.1095812 20.6842172,77.6235582 22,76.4467731 L22,74.952342 C20.8749748,76.5089256 18.9911244,77.1735755 17,76.7715429 L17,77.7875164 Z M23.8995329,73 C24.0075846,72.4694599 24.0650437,71.8995666 24.0650437,71.292249 C24.0650437,70.8406232 23.9733719,70.4087191 23.7999504,70 L22.6682816,70 C22.9266075,70.4082988 23.0650437,70.8421736 23.0650437,71.292249 C23.0650437,71.9083497 22.9982699,72.4784214 22.8739098,73 L23.8995329,73 Z M20,66.9214711 C19.1037323,66.5781283 18.0922633,66.3130647 17,66.1382896 L17,67.1535443 C18.1205984,67.3448465 19.1352181,67.6355474 20,68.0034757 L20,66.9214711 Z M9,66.4669198 C7.94425443,66.7295467 6.9381944,67.0813754 6,67.5199991 L6,68.6353811 C6.92637636,68.1625915 7.93362694,67.7830823 9,67.5005703 L9,66.4669198 Z M3,69.4246634 C1.97751362,70.2926746 1.11945211,71.3153624 0.471272249,72.4867091 L1.34624274,72.9708854 C1.79126677,72.1666681 2.3484762,71.4372298 3,70.7856243 L3,69.4246634 Z" id="Combined-Shape" fill="#CCEAFF"></path>
                    </g>
                    <path d="M103.776491,37.403877 C103.597833,37.6167937 103.625307,37.9319098 103.837042,38.1095766 C104.050827,38.2889628 104.36261,38.2610915 104.542536,38.0466646 L107.111532,34.985054 C107.29019,34.7721373 107.262716,34.4570212 107.05098,34.2793544 C106.837196,34.0999682 106.525413,34.1278395 106.345487,34.3422664 L103.776491,37.403877 L103.776491,37.403877 L103.776491,37.403877 L103.776491,37.403877 Z M106.27427,33.2321294 C106.30283,33.223015 106.331624,33.2147703 106.36061,33.2073997 L106.52133,32.2959076 C106.569731,32.0214126 106.837378,31.8391653 107.101372,31.8857146 C107.373319,31.9336662 107.556609,32.183322 107.506138,32.4695558 L107.359672,33.3002092 C107.47705,33.3548506 107.589448,33.4257754 107.693768,33.5133099 C107.797851,33.6006457 107.887096,33.6990999 107.961216,33.8054829 L108.754247,33.5168433 C109.027368,33.4174354 109.305059,33.5545884 109.399505,33.8140774 C109.491189,34.0659774 109.358187,34.3612048 109.096267,34.456536 L108.225458,34.7734847 C108.223266,34.8031997 108.220189,34.8328787 108.216224,34.8624799 C108.838183,34.8203353 109.476649,35.0093249 109.991901,35.4416728 C111.049588,36.3291772 111.187548,37.9060662 110.300043,38.9637529 C109.500685,39.9163912 108.14208,40.122923 107.107289,39.5060903 C107.049067,39.6731792 106.960079,39.8327195 106.839592,39.976311 C106.307089,40.610923 105.360956,40.6936989 104.726344,40.1611962 C104.432386,39.9145368 104.256832,39.579128 104.205986,39.2270404 C103.850882,39.2385105 103.490084,39.1238516 103.194255,38.875621 C102.870214,38.6037181 102.689986,38.2240477 102.66226,37.8328609 C102.270121,37.8754688 101.861878,37.7642904 101.535854,37.4907236 C100.901242,36.9582209 100.818466,36.0120875 101.350968,35.3774755 C101.479653,35.224115 101.632494,35.1029815 101.799256,35.0149705 C101.105456,34.1056041 101.107561,32.8059648 101.873555,31.8930892 C102.761059,30.8354025 104.337948,30.6974426 105.395635,31.5849471 C105.910626,32.0170757 106.207573,32.6126397 106.27427,33.2321294 L106.27427,33.2321294 L106.27427,33.2321294 Z M106.073547,39.3335234 C106.251048,39.1219861 106.223456,38.8066083 106.011919,38.6291074 C105.800382,38.4516065 105.485004,38.4791984 105.307503,38.6907358 C105.130002,38.9022731 105.157594,39.2176509 105.369131,39.3951518 C105.580669,39.5726527 105.896046,39.5450607 106.073547,39.3335234 L106.073547,39.3335234 L106.073547,39.3335234 Z M102.883057,36.6630507 C103.060558,36.4515134 103.032966,36.1361356 102.821429,35.9586347 C102.609891,35.7811338 102.294514,35.8087258 102.117013,36.0202631 C101.939512,36.2318004 101.967104,36.5471782 102.178641,36.7246791 C102.390178,36.90218 102.705556,36.874588 102.883057,36.6630507 L102.883057,36.6630507 L102.883057,36.6630507 Z M104.937732,34.4642396 C105.470235,33.8296276 105.387459,32.8834942 104.752847,32.3509915 C104.118235,31.8184889 103.172102,31.9012648 102.639599,32.5358768 C102.107096,33.1704888 102.189872,34.1166222 102.824484,34.6491249 C103.459096,35.1816276 104.40523,35.0988516 104.937732,34.4642396 L104.937732,34.4642396 L104.937732,34.4642396 Z M109.533999,38.3209653 C110.066502,37.6863533 109.983726,36.7402199 109.349114,36.2077172 C108.714502,35.6752145 107.768368,35.7579905 107.235866,36.3926024 C106.703363,37.0272144 106.786139,37.9733478 107.420751,38.5058505 C108.055363,39.0383532 109.001496,38.9555773 109.533999,38.3209653 L109.533999,38.3209653 L109.533999,38.3209653 Z" id="Combined-Shape" fill="#CCEAFF"></path>
                    <use id="Mask" stroke="#CCEAFF" mask="url(#mask-2)" stroke-width="4" fill="#FFFFFF" xlink:href="#path-1"></use>
                    <path d="M25,28.0020197 C25,21.3734873 30.3642334,16 37.0005049,16 L80.9994951,16 C87.6271909,16 93,21.3737729 93,28.0020197 L93,58.9979803 C93,65.6265127 87.6357666,71 80.9994951,71 L37.0005049,71 C30.3728091,71 25,65.6262271 25,58.9979803 L25,28.0020197 Z M27,28 L91,28 L91,57.9992759 C91,64.0748081 86.0842962,69 79.9980078,69 L38.0019922,69 C31.9257597,69 27,64.0748208 27,57.9992759 L27,28 Z M34.5,24 C35.3284271,24 36,23.3284271 36,22.5 C36,21.6715729 35.3284271,21 34.5,21 C33.6715729,21 33,21.6715729 33,22.5 C33,23.3284271 33.6715729,24 34.5,24 Z M40.5,24 C41.3284271,24 42,23.3284271 42,22.5 C42,21.6715729 41.3284271,21 40.5,21 C39.6715729,21 39,21.6715729 39,22.5 C39,23.3284271 39.6715729,24 40.5,24 Z" id="Combined-Shape" fill="#CCEAFF"></path>
                    <path d="M48.9369913,41 L49.9991283,41 C50.5553691,41 51,40.5522847 51,40 C51,39.4438648 50.5518945,39 49.9991283,39 L36.0008717,39 C35.4446309,39 35,39.4477153 35,40 C35,40.5561352 35.4481055,41 36.0008717,41 L45.0630087,41 C45.0218765,41.15981 45,41.3273502 45,41.5 C45,42.6045695 45.8954305,43.5 47,43.5 C48.1045695,43.5 49,42.6045695 49,41.5 C49,41.3273502 48.9781235,41.15981 48.9369913,41 Z M80.9369913,41 L81.9991283,41 C82.5553691,41 83,40.5522847 83,40 C83,39.4438648 82.5518945,39 81.9991283,39 L68.0008717,39 C67.4446309,39 67,39.4477153 67,40 C67,40.5561352 67.4481055,41 68.0008717,41 L77.0630087,41 C77.0218765,41.15981 77,41.3273502 77,41.5 C77,42.6045695 77.8954305,43.5 79,43.5 C80.1045695,43.5 81,42.6045695 81,41.5 C81,41.3273502 80.9781235,41.15981 80.9369913,41 Z" id="Combined-Shape" fill="#CCEAFF"></path>
                    <text id="这里什么都没有..." font-family="PingFangSC-Regular, PingFang SC" font-size="14" font-weight="normal" line-spacing="24" fill="#96D1FA">
                        <tspan x="9" y="113">这里什么都没有...</tspan>
                    </text>
                </g>
            </g>
        </g>
    </g>
</svg>