<?xml version="1.0" encoding="UTF-8"?>
<svg width="8px" height="8px" viewBox="0 0 8 8" version="1.1" xmlns="http://www.w3.org/2000/svg" xmlns:xlink="http://www.w3.org/1999/xlink">
    <!-- Generator: Sketch 42 (36781) - http://www.bohemiancoding.com/sketch -->
    <title>Combined Shape Copy 2</title>
    <desc>Created with Sketch.</desc>
    <defs></defs>
    <g id="菜单设置" stroke="none" stroke-width="1" fill="none" fill-rule="evenodd">
        <g id="交互" transform="translate(-271.000000, -164.000000)" fill="#1687D9">
            <g id="Group" transform="translate(108.000000, 104.000000)">
                <path d="M167.033869,63.3267619 L163.852758,60.1456517 C163.660793,59.9536862 163.340043,59.9495192 163.144781,60.1447813 C162.95523,60.3343329 162.949909,60.6570156 163.145652,60.8527585 L166.326762,64.0338686 L163.145652,67.2149788 C162.953686,67.4069443 162.949519,67.7276938 163.144781,67.9229559 C163.334333,68.1125075 163.657016,68.1178284 163.852758,67.9220856 L167.033869,64.7409754 L170.214979,67.9220856 C170.406944,68.1140511 170.727694,68.1182181 170.922956,67.9229559 C171.112508,67.7334044 171.117828,67.4107216 170.922086,67.2149788 L167.740975,64.0338686 L170.922086,60.8527585 C171.114051,60.660793 171.118218,60.3400435 170.922956,60.1447813 C170.733404,59.9552298 170.410722,59.9499089 170.214979,60.1456517 L167.033869,63.3267619 Z" id="Combined-Shape-Copy-2"></path>
            </g>
        </g>
    </g>
</svg>