<?xml version="1.0" encoding="UTF-8"?>
<svg width="11px" height="15px" viewBox="0 0 11 15" version="1.1" xmlns="http://www.w3.org/2000/svg" xmlns:xlink="http://www.w3.org/1999/xlink">
    <!-- Generator: Sketch 42 (36781) - http://www.bohemiancoding.com/sketch -->
    <title>删除 copy</title>
    <desc>Created with Sketch.</desc>
    <defs></defs>
    <g id="菜单设置" stroke="none" stroke-width="1" fill="none" fill-rule="evenodd">
        <g id="交互" transform="translate(-222.000000, -162.000000)">
            <g id="Group" transform="translate(108.000000, 104.000000)">
                <g id="删除-copy" transform="translate(111.000000, 56.000000)">
                    <rect id="Rectangle-13" x="0" y="0" width="18" height="18"></rect>
                    <path d="M4,7.75657061 L4,6.49538898 C4,6.2217932 4.23193359,6 4.5,6 C4.77614237,6 5,6.2157526 5,6.49538898 L5,7.75230551 L5,15.0046024 C5,15.5443356 5.44902676,16 6.00292933,16 L10.9970707,16 C11.5621186,16 12,15.5543453 12,15.0046024 L12,7.75230551 L12,6.49538898 C12,6.2217932 12.2319336,6 12.5,6 C12.7761424,6 13,6.2157526 13,6.49538898 L13,7.75657061 L13,14.9914698 C13,16.1007504 12.1041422,17 11.0026083,17 L5.9973917,17 C4.89426273,17 4,16.0980496 4,14.9914698 L4,7.75657061 Z M10,6.50043583 C10,6.22405275 10.2319336,6 10.5,6 C10.7761424,6 11,6.23079681 11,6.50043583 L11,13.4995642 C11,13.7759472 10.7680664,14 10.5,14 C10.2238576,14 10,13.7692032 10,13.4995642 L10,6.50043583 Z M8,6.50043583 C8,6.22405275 8.23193359,6 8.5,6 C8.77614237,6 9,6.23079681 9,6.50043583 L9,13.4995642 C9,13.7759472 8.76806641,14 8.5,14 C8.22385763,14 8,13.7692032 8,13.4995642 L8,6.50043583 Z M6,6.50043583 C6,6.22405275 6.23193359,6 6.5,6 C6.77614237,6 7,6.23079681 7,6.50043583 L7,13.4995642 C7,13.7759472 6.76806641,14 6.5,14 C6.22385763,14 6,13.7692032 6,13.4995642 L6,6.50043583 Z M7,2.5 C7,2.22385763 7.2157526,2 7.49538898,2 L9.50461102,2 C9.7782068,2 10,2.23193359 10,2.5 C10,2.77614237 9.7842474,3 9.50461102,3 L7.49538898,3 C7.2217932,3 7,2.76806641 7,2.5 Z M3,4.5 C3,4.22385763 3.22975063,4 3.50123084,4 L13.4987692,4 C13.7755913,4 14,4.23193359 14,4.5 C14,4.77614237 13.7702494,5 13.4987692,5 L3.50123084,5 C3.22440869,5 3,4.76806641 3,4.5 Z" id="Combined-Shape" fill="#1687D9"></path>
                </g>
            </g>
        </g>
    </g>
</svg>