<?xml version="1.0" encoding="UTF-8"?>
<svg width="18px" height="14px" viewBox="0 0 18 14" version="1.1" xmlns="http://www.w3.org/2000/svg" xmlns:xlink="http://www.w3.org/1999/xlink">
    <!-- Generator: Sketch 42 (36781) - http://www.bohemiancoding.com/sketch -->
    <title>绩效管理 copy 2</title>
    <desc>Created with Sketch.</desc>
    <defs></defs>
    <g id="菜单设置" stroke="none" stroke-width="1" fill="none" fill-rule="evenodd">
        <g id="交互" transform="translate(-80.000000, -689.000000)">
            <g id="绩效管理-copy-2" transform="translate(80.000000, 687.000000)">
                <rect id="Rectangle-10" x="0" y="0" width="18" height="18"></rect>
                <path d="M9.01493383,11.0860016 L9.01493383,11.0860016 L9.01493383,11.0860016 L7.41394131,9.48500913 C6.68586624,8.75693405 6.6318065,7.61190089 7.26521534,6.8229319 L7.18688314,6.74746244 C6.74681676,6.32347873 6.04464329,6.32337943 5.61161942,6.740578 L2.59816378,9.64390387 L1.63183232,8.70738175 C1.2864001,8.3726054 1,8.48032449 1,8.95559679 L1,14.1394434 C1,14.6089753 1.39936362,15 1.89200362,15 L7.2652815,14.9999999 C7.75197137,14.9999999 7.87648568,14.7301942 7.53010202,14.397372 L6.55270726,13.4582437 L9.01493383,11.0860016 Z M9.70875897,11.8061452 L9.70875897,11.8061452 L7.2465324,14.1783872 L7.24555743,12.7371621 L8.22295219,13.6762904 C9.2347537,14.6484784 8.63161972,15.9999999 7.26528151,15.9999999 L1.89200363,16 C0.856006127,16 -3.50193208e-10,15.1703667 0,14.1394434 L1.76090487e-09,8.95559679 C2.22854835e-09,7.57892905 1.36028702,7.05164144 2.32777646,7.98928582 L3.29410792,8.92580795 L1.90433864,8.92376036 L4.91779429,6.02043449 C5.74015581,5.22812701 7.05538731,5.23216015 7.88070828,6.02731893 L7.95904047,6.10278839 L8.616909,6.73661445 L8.04500608,7.44897216 C7.72742103,7.84455355 7.75778674,8.41464099 8.1210481,8.77790235 L9.72204061,10.3788949 L10.4424313,11.0992856 L9.70875897,11.8061452 Z M15.4018362,8.35609613 L16.3681677,9.29261825 C16.7135999,9.6273946 17,9.51967551 17,9.04440321 L17,3.86055663 C17,3.39102468 16.6006364,2.99999999 16.1079964,3 L10.7347185,3.00000006 C10.2480286,3.00000006 10.1235143,3.26980579 10.469898,3.60262803 L11.4472927,4.54175635 L8.43159563,7.44724176 C8.00441892,7.85880686 8.00177095,8.54393513 8.43874121,8.96493587 L10.8131169,11.2525376 C11.2531832,11.6765213 11.9553567,11.6766206 12.3883806,11.259422 L15.4018362,8.35609613 L15.4018362,8.35609613 L15.4018362,8.35609613 Z M14.7058921,9.07419205 L14.7058921,9.07419205 L16.0956614,9.07623964 L13.0822057,11.9795655 C12.2598442,12.771873 10.9446127,12.7678399 10.1192917,11.9726811 L7.74491607,9.68507938 C6.9024059,8.87335959 6.89967242,7.53456717 7.73777049,6.72709824 L10.7534676,3.82161284 L10.7544426,5.26283792 L9.77704781,4.3237096 C8.7652463,3.35152161 9.36838028,2.00000007 10.7347185,2.00000006 L16.1079964,2 C17.1439939,1.99999999 18,2.82963329 18,3.86055663 L18,9.04440321 C18,10.4210709 16.639713,10.9483586 15.6722235,10.0107142 L14.7058921,9.07419205 Z" id="icon绩效管理" fill="#1687D9" fill-rule="nonzero"></path>
            </g>
        </g>
    </g>
</svg>