<?xml version="1.0" encoding="UTF-8"?>
<svg width="28px" height="28px" viewBox="0 0 28 28" version="1.1" xmlns="http://www.w3.org/2000/svg" xmlns:xlink="http://www.w3.org/1999/xlink">
    <!-- Generator: Sketch 42 (36781) - http://www.bohemiancoding.com/sketch -->
    <title>Rectangle</title>
    <desc>Created with Sketch.</desc>
    <defs></defs>
    <g id="签到设置" stroke="none" stroke-width="1" fill="none" fill-rule="evenodd">
        <g id="签到设置－下拉弹层" transform="translate(-250.000000, -141.000000)">
            <g id="上下班设置" transform="translate(250.000000, 140.000000)">
                <g id="图标-copy" transform="translate(0.000000, 1.000000)">
                    <rect id="Rectangle" fill="#F5D540" x="0" y="0" width="28" height="28" rx="4"></rect>
                    <path d="M14,16 L14,12.4987723 C14,12.2170444 13.7761424,12 13.5,12 C13.2319336,12 13,12.223308 13,12.4987723 L13,16.5 C13,16.7680664 13.2198305,17 13.4910052,17 L18.5089948,17 C18.7721195,17 19,16.7761424 19,16.5 C19,16.2319336 18.7801695,16 18.5089948,16 L14,16 L14,16 Z M14,23 C18.418278,23 22,19.418278 22,15 C22,10.581722 18.418278,7 14,7 C9.581722,7 6,10.581722 6,15 C6,19.418278 9.581722,23 14,23 L14,23 Z M9.53213545,6.71447135 C8.82213186,5.86832202 7.56062067,5.75795409 6.71447135,6.46795768 C5.86832202,7.17796127 5.75795409,8.43947246 6.46795768,9.28562178 L9.53213545,6.71447135 L9.53213545,6.71447135 Z M18,6.07170702 C19.0650054,4.80248303 20.9572722,4.63693114 22.2264962,5.70193652 C23.4957201,6.7669419 23.661272,8.65920869 22.5962667,9.92843268 L18,6.07170702 L18,6.07170702 Z" id="Combined-Shape" fill="#FFFFFF"></path>
                </g>
            </g>
        </g>
    </g>
</svg>