<?xml version="1.0" encoding="UTF-8"?>
<svg width="18px" height="16px" viewBox="0 0 18 16" version="1.1" xmlns="http://www.w3.org/2000/svg" xmlns:xlink="http://www.w3.org/1999/xlink">
    <!-- Generator: Sketch 42 (36781) - http://www.bohemiancoding.com/sketch -->
    <title>职业发展 copy 2</title>
    <desc>Created with Sketch.</desc>
    <defs></defs>
    <g id="菜单设置" stroke="none" stroke-width="1" fill="none" fill-rule="evenodd">
        <g id="交互" transform="translate(-71.000000, -649.000000)">
            <g id="职业发展-copy-2" transform="translate(71.000000, 648.000000)">
                <rect id="Rectangle-10" x="0" y="0" width="18" height="18"></rect>
                <path d="M5.3328247,4.00000008 L3.45749949,1.98380288 L1.67565918,4.00000008 L3,4 L3,4.99999999 L3,6.49983513 C3,6.77461706 3.22508089,7 3.5,7 C3.77930154,7 4,6.77868867 4,6.49983513 L4,4.99999999 L4,4 L5.3328247,4.00000008 Z M5,6.49983513 C5,7.32835331 4.33420277,8 3.5,8 C2.67157288,8 2,7.32567775 2,6.49983513 L2,4.99999999 C1.57287357,4.99999999 1.16593494,4.99999998 0.798082423,4.99999998 C-0.791410229,4.99999994 0.420435495,3.93380342 0.798082423,3.52307101 L2.83567429,1.30696661 C3.21066425,0.899123939 3.81598615,0.896234203 4.19363308,1.30696661 L6.23122495,3.52307101 C6.60621491,3.93091368 7.75560198,4.99999994 6.23122495,4.99999998 C5.8605172,4.99999998 5.44279961,4.99999999 5,4.99999999 L5,6.49983513 Z M16.4886148,15.8751064 L16.4886148,15.8751064 L16.4918024,15.8733278 C16.8046325,15.6995188 17,15.373303 17,15.0081158 L17,3.99188419 C17,3.44658207 16.5505208,3 15.9940809,3 L13.0059191,3 C12.4421399,3 12,3.4407958 12,3.99188419 L12,7 L12,8 L11,8 L8.99201702,8 C8.44979494,8 8,8.45021172 8,8.99961498 L8,11 L8,12 L7,12 L4.99188419,12 C4.44568243,12 4,12.4467834 4,12.9979131 L4,15.0020869 C4,15.5517201 4.44634621,16 4.99188419,16 L16.0081158,16 C16.1795932,16 16.3429087,15.9567584 16.4886148,15.8751064 L16.4886148,15.8751064 Z M16.9774761,16.7474679 C16.690431,16.9083246 16.3597831,17 16.0081158,17 L4.99188419,17 C3.89179693,17 3,16.1017394 3,15.0020869 L3,12.9979131 C3,11.8944962 3.89339733,11 4.99188419,11 L7,11 L7,8.99961498 C7,7.89525812 7.90017617,7 8.99201702,7 L11,7 L11,3.99188419 C11,2.89179693 11.8865548,2 13.0059191,2 L15.9940809,2 C17.1019194,2 18,2.89339733 18,3.99188419 L18,15.0081158 C18,15.755466 17.5908339,16.4066853 16.9774761,16.7474679 L16.9774761,16.7474679 L16.9774761,16.7474679 Z" id="Rectangle-149" fill="#1687D9" fill-rule="nonzero"></path>
            </g>
        </g>
    </g>
</svg>