<?xml version="1.0" encoding="UTF-8"?>
<svg width="11px" height="11px" viewBox="0 0 11 11" version="1.1" xmlns="http://www.w3.org/2000/svg" xmlns:xlink="http://www.w3.org/1999/xlink">
    <!-- Generator: Sketch 42 (36781) - http://www.bohemiancoding.com/sketch -->
    <title>Combined Shape</title>
    <desc>Created with Sketch.</desc>
    <defs></defs>
    <g id="菜单设置" stroke="none" stroke-width="1" fill="none" fill-rule="evenodd">
        <g id="交互" transform="translate(-198.000000, -109.000000)" fill="#C2CBD1">
            <g id="Group" transform="translate(108.000000, 104.000000)">
                <path d="M96,10 L96,5.50123084 C96,5.22975063 95.7761424,5 95.5,5 C95.2319336,5 95,5.22440869 95,5.50123084 L95,10 L90.5012308,10 C90.2297506,10 90,10.2238576 90,10.5 C90,10.7680664 90.2244087,11 90.5012308,11 L95,11 L95,15.4987692 C95,15.7702494 95.2238576,16 95.5,16 C95.7680664,16 96,15.7755913 96,15.4987692 L96,11 L100.498769,11 C100.770249,11 101,10.7761424 101,10.5 C101,10.2319336 100.775591,10 100.498769,10 L96,10 Z" id="Combined-Shape"></path>
            </g>
        </g>
    </g>
</svg>