<?xml version="1.0" encoding="UTF-8" standalone="no"?>
<svg width="5px" height="10px" viewBox="0 0 5 10" version="1.1" xmlns="http://www.w3.org/2000/svg" xmlns:xlink="http://www.w3.org/1999/xlink">
    <!-- Generator: Sketch 42 (36781) - http://www.bohemiancoding.com/sketch -->
    <title>icon展开 copy</title>
    <desc>Created with Sketch.</desc>
    <defs></defs>
    <g id="菜单设置" stroke="none" stroke-width="1" fill="none" fill-rule="evenodd" fill-opacity="0.6">
        <g id="菜单设置页" transform="translate(-481.000000, -234.000000)" fill="#FFFFFF">
            <g id="上下班设置" transform="translate(250.000000, 140.000000)">
                <g id="PC菜单设置" transform="translate(38.000000, 60.000000)">
                    <g transform="translate(15.000000, 15.000000)" id="菜单-宽屏-二级展开">
                        <g transform="translate(0.000000, -364.000000)">
                            <g id="二级文字" transform="translate(43.000000, 67.000000)">
                                <path d="M139.809672,324.725309 C140.063383,325.016415 140.064209,325.487443 139.807548,325.781934 C139.552663,326.074386 139.135745,326.070177 138.886653,325.784371 L135.190328,321.543248 C135.059884,321.393578 134.996289,321.196346 135.000167,321 C134.996289,320.803654 135.059884,320.606422 135.190328,320.456752 L138.886653,316.215629 C139.135745,315.929823 139.552663,315.925614 139.807548,316.218066 C140.064209,316.512557 140.063383,316.983585 139.809672,317.274691 L136.562902,321 L139.809672,324.725309 Z" id="icon展开-copy"></path>
                            </g>
                        </g>
                    </g>
                </g>
            </g>
        </g>
    </g>
</svg>