<?xml version="1.0" encoding="UTF-8"?>
<svg width="18px" height="18px" viewBox="0 0 18 18" version="1.1" xmlns="http://www.w3.org/2000/svg" xmlns:xlink="http://www.w3.org/1999/xlink">
    <!-- Generator: Sketch 42 (36781) - http://www.bohemiancoding.com/sketch -->
    <title>cus-zaopin copy 2</title>
    <desc>Created with Sketch.</desc>
    <defs>
        <rect id="path-1" x="0" y="0" width="340" height="220" rx="2"></rect>
        <mask id="mask-2" maskContentUnits="userSpaceOnUse" maskUnits="objectBoundingBox" x="-1" y="-1" width="342" height="222">
            <rect x="-1" y="-1" width="342" height="222" fill="white"></rect>
            <use xlink:href="#path-1" fill="black"></use>
        </mask>
    </defs>
    <g id="同事页" stroke="none" stroke-width="1" fill="none" fill-rule="evenodd">
        <g id="同事页-同事" transform="translate(-814.000000, -467.000000)">
            <g id="同事" transform="translate(250.000000, 171.000000)">
                <g id="卡片4" transform="translate(360.000000, 270.000000)">
                    <g id="面板1">
                        <use fill-opacity="0.95" fill="#FFFFFF" fill-rule="evenodd" xlink:href="#path-1"></use>
                        <use stroke="#E4EBF0" mask="url(#mask-2)" stroke-width="2" xlink:href="#path-1"></use>
                    </g>
                    <rect id="Rectangle-89" fill="#F5F8FA" x="0" y="0" width="340" height="100"></rect>
                    <g id="cus-zaopin-copy-2" transform="translate(204.000000, 26.000000)" fill="#4AB1B1">
                        <g id="Group-2" transform="translate(9.000000, 10.000000)">
                            <path d="M0,4 C0,1.790861 2.01471863,0 4.5,0 C6.98528137,0 9,1.790861 9,4 C9,6.209139 6.98528137,8 4.5,8 C2.01471863,8 0,6.209139 0,4 Z M8,4 C8,2.37109723 6.45751561,1 4.5,1 C2.54248439,1 1,2.37109723 1,4 C1,5.62890277 2.54248439,7 4.5,7 C6.45751561,7 8,5.62890277 8,4 Z" id="Combined-Shape" fill-rule="nonzero"></path>
                            <path d="M2.5,5 C2.22385763,5 2,4.55228475 2,4 C2,3.44771525 2.22385763,3 2.5,3 C2.77614237,3 3,3.44771525 3,4 C3,4.55228475 2.77614237,5 2.5,5 Z M4.5,5 C4.22385763,5 4,4.55228475 4,4 C4,3.44771525 4.22385763,3 4.5,3 C4.77614237,3 5,3.44771525 5,4 C5,4.55228475 4.77614237,5 4.5,5 Z M6.5,5 C6.22385763,5 6,4.55228475 6,4 C6,3.44771525 6.22385763,3 6.5,3 C6.77614237,3 7,3.44771525 7,4 C7,4.55228475 6.77614237,5 6.5,5 Z" id="Combined-Shape"></path>
                            <polygon id="Rectangle-2" points="8.5 5.5 9 8 6.5 7.5"></polygon>
                        </g>
                        <g id="Group">
                            <path d="M3.5,4.5 C3.5,2.01471863 5.51471863,0 8,0 C10.4852814,0 12.5,2.01471863 12.5,4.5 C12.5,6.98528137 10.4852814,9 8,9 C5.51471863,9 3.5,6.98528137 3.5,4.5 Z M8,8 L8,8 C9.93613601,8 11.5,6.42978994 11.5,4.5 C11.5,2.57021006 9.93613601,1 8,1 C6.06386399,1 4.5,2.57021006 4.5,4.5 C4.5,6.42978994 6.06386399,8 8,8 L8,8 Z" id="Path" fill-rule="nonzero"></path>
                            <path d="M12.5583832,9.07299119 C11.3523916,8.38664925 9.96975928,8 8.5,8 C3.80557963,8 -2.91038305e-10,11.9444704 -2.91038305e-10,17 L-2.91038305e-10,17.5 L1,17.5 L1,17 C1,12.6666889 4.52779815,9 8.5,9 C9.38807958,9 10.2539456,9.18328006 11.0631399,9.51631333 C11.528153,9.30704383 12.0303843,9.15579987 12.5583832,9.07299119 Z" id="Combined-Shape"></path>
                            <circle id="Oval" cx="0.5" cy="17.5" r="0.5"></circle>
                        </g>
                    </g>
                </g>
            </g>
        </g>
    </g>
</svg>