<?xml version="1.0" encoding="UTF-8"?>
<svg width="125px" height="118px" viewBox="0 0 125 118" version="1.1" xmlns="http://www.w3.org/2000/svg" xmlns:xlink="http://www.w3.org/1999/xlink">
    <!-- Generator: Sketch 42 (36781) - http://www.bohemiancoding.com/sketch -->
    <title>空数据</title>
    <desc>Created with Sketch.</desc>
    <defs>
        <rect id="path-1" x="4" y="2" width="3" height="7" rx="1.5"></rect>
        <mask id="mask-2" maskContentUnits="userSpaceOnUse" maskUnits="objectBoundingBox" x="0" y="0" width="3" height="7" fill="white">
            <use xlink:href="#path-1"></use>
        </mask>
        <rect id="path-3" x="4" y="1" width="1" height="2" rx="0.5"></rect>
        <mask id="mask-4" maskContentUnits="userSpaceOnUse" maskUnits="objectBoundingBox" x="0" y="0" width="1" height="2" fill="white">
            <use xlink:href="#path-3"></use>
        </mask>
        <rect id="path-5" x="6" y="1" width="1" height="2" rx="0.5"></rect>
        <mask id="mask-6" maskContentUnits="userSpaceOnUse" maskUnits="objectBoundingBox" x="0" y="0" width="1" height="2" fill="white">
            <use xlink:href="#path-5"></use>
        </mask>
        <circle id="path-7" cx="8.5" cy="4.5" r="2.5"></circle>
        <mask id="mask-8" maskContentUnits="userSpaceOnUse" maskUnits="objectBoundingBox" x="0" y="0" width="5" height="5" fill="white">
            <use xlink:href="#path-7"></use>
        </mask>
        <circle id="path-9" cx="7.5" cy="7.5" r="1.5"></circle>
        <mask id="mask-10" maskContentUnits="userSpaceOnUse" maskUnits="objectBoundingBox" x="0" y="0" width="3" height="3" fill="white">
            <use xlink:href="#path-9"></use>
        </mask>
        <circle id="path-11" cx="3.5" cy="7.5" r="1.5"></circle>
        <mask id="mask-12" maskContentUnits="userSpaceOnUse" maskUnits="objectBoundingBox" x="0" y="0" width="3" height="3" fill="white">
            <use xlink:href="#path-11"></use>
        </mask>
        <circle id="path-13" cx="2.5" cy="4.5" r="2.5"></circle>
        <mask id="mask-14" maskContentUnits="userSpaceOnUse" maskUnits="objectBoundingBox" x="0" y="0" width="5" height="5" fill="white">
            <use xlink:href="#path-13"></use>
        </mask>
        <rect id="path-15" x="0" y="0" width="68" height="55" rx="12"></rect>
        <mask id="mask-16" maskContentUnits="userSpaceOnUse" maskUnits="objectBoundingBox" x="0" y="0" width="68" height="55" fill="white">
            <use xlink:href="#path-15"></use>
        </mask>
        <mask id="mask-18" maskContentUnits="userSpaceOnUse" maskUnits="objectBoundingBox" x="0" y="0" width="68" height="55" fill="white">
            <use xlink:href="#path-15"></use>
        </mask>
        <path d="M-2,6.5 C-2,3.46243388 0.462112427,1 3.50157094,1 L66.4984291,1 C69.5368628,1 72,3.46861471 72,6.5 L72,12 L-2,12 L-2,6.5 Z" id="path-19"></path>
        <mask id="mask-20" maskContentUnits="userSpaceOnUse" maskUnits="objectBoundingBox" x="0" y="0" width="74" height="11" fill="white">
            <use xlink:href="#path-19"></use>
        </mask>
    </defs>
    <g id="同事页" stroke="none" stroke-width="1" fill="none" fill-rule="evenodd">
        <g id="同事页-同事-无数据" transform="translate(-737.000000, -363.000000)">
            <g id="空数据" transform="translate(728.000000, 357.000000)">
                <g id="空页面">
                    <g id="Group-3" transform="translate(59.838582, 59.152498) rotate(50.000000) translate(-59.838582, -59.152498) translate(22.338582, 13.152498)" fill="#F3FAFF">
                        <rect id="Rectangle-1412" x="17.9103351" y="25.0743085" width="17" height="66" rx="8.5"></rect>
                        <rect id="Rectangle-1412" x="0.744718986" y="3.09492216" width="17" height="66" rx="8.5"></rect>
                        <rect id="Rectangle-1412" x="57.2032238" y="0.63311964" width="17" height="66" rx="8.5"></rect>
                    </g>
                    <g id="Group-8" transform="translate(9.000000, 45.000000)">
                        <path d="M0.908757493,34.7287973 C6.01241426,25.5058148 23.5650437,27.545501 23.5650437,33.292249 C23.5650437,39.038997 18.5462811,40.4439157 14.9829324,38.5695794 C11.4195836,36.6952432 10.8031287,25.1057566 32.381864,17.0896085 C53.9605994,9.07346039 80.3577906,21.4908041 91.0367418,27.4705946 C101.715693,33.4503852 106.813246,27.9949429 105.568678,20.3366835 C104.324111,12.6784241 94.4907812,10.9084013 101.709586,3.64631587" id="Path-504" stroke="#CCEAFF"></path>
                        <rect id="Rectangle-1399" fill="#FFFFFF" x="3" y="29" width="3" height="4"></rect>
                        <rect id="Rectangle-1399" fill="#F3FAFF" x="9" y="27" width="3" height="4"></rect>
                        <rect id="Rectangle-1399" fill="#F3FAFF" x="15" y="26" width="3" height="4"></rect>
                        <rect id="Rectangle-1399" fill="#F3FAFF" x="21" y="29" width="4" height="4"></rect>
                        <rect id="Rectangle-1399" fill="#FFFFFF" x="20" y="36" width="4" height="4"></rect>
                        <rect id="Rectangle-1399" fill="#FFFFFF" x="12" y="36" width="4" height="4"></rect>
                        <rect id="Rectangle-1399" fill="#F3FAFF" x="12" y="28.8999939" width="4" height="4"></rect>
                        <rect id="Rectangle-1399" fill="#F3FAFF" transform="translate(22.000000, 22.899994) rotate(-30.000000) translate(-22.000000, -22.899994) " x="20" y="20.8999939" width="4" height="4"></rect>
                        <rect id="Rectangle-1399" fill="#F3FAFF" transform="translate(29.000000, 18.899994) rotate(-30.000000) translate(-29.000000, -18.899994) " x="27" y="16.8999939" width="4" height="4"></rect>
                        <rect id="Rectangle-1399" fill="#F3FAFF" transform="translate(89.000000, 25.899994) rotate(30.000000) translate(-89.000000, -25.899994) " x="87" y="23.8999939" width="4" height="4"></rect>
                        <rect id="Rectangle-1399" fill="#FFFFFF" transform="translate(96.000000, 29.899994) rotate(30.000000) translate(-96.000000, -29.899994) " x="94" y="27.8999939" width="4" height="4"></rect>
                        <rect id="Rectangle-1399" fill="#FFFFFF" transform="translate(104.000000, 27.899994) rotate(-50.000000) translate(-104.000000, -27.899994) " x="102" y="25.8999939" width="4" height="4"></rect>
                        <rect id="Rectangle-1399" fill="#FFFFFF" transform="translate(105.000000, 19.899994) rotate(-110.000000) translate(-105.000000, -19.899994) " x="103" y="17.8999939" width="4" height="4"></rect>
                        <rect id="Rectangle-1399" fill="#F3FAFF" transform="translate(101.000000, 11.899994) rotate(-110.000000) translate(-101.000000, -11.899994) " x="99" y="9.8999939" width="4" height="4"></rect>
                        <rect id="Rectangle-1399" fill="#FFFFFF" transform="translate(103.000000, 2.899994) rotate(-140.000000) translate(-103.000000, -2.899994) " x="101" y="0.899993896" width="4" height="4"></rect>
                    </g>
                    <g id="Group-7" transform="translate(114.500000, 43.500000) rotate(40.000000) translate(-114.500000, -43.500000) translate(109.000000, 39.000000)" stroke="#CCEAFF" stroke-width="2" fill="#FFFFFF">
                        <use id="Rectangle-1396" mask="url(#mask-2)" xlink:href="#path-1"></use>
                        <use id="Rectangle-1396" mask="url(#mask-4)" transform="translate(4.500000, 2.000000) rotate(-30.000000) translate(-4.500000, -2.000000) " xlink:href="#path-3"></use>
                        <use id="Rectangle-1396" mask="url(#mask-6)" transform="translate(6.500000, 2.000000) scale(-1, 1) rotate(-30.000000) translate(-6.500000, -2.000000) " xlink:href="#path-5"></use>
                        <use id="Oval-125" mask="url(#mask-8)" xlink:href="#path-7"></use>
                        <use id="Oval-125" mask="url(#mask-10)" xlink:href="#path-9"></use>
                        <use id="Oval-125" mask="url(#mask-12)" xlink:href="#path-11"></use>
                        <use id="Oval-125" mask="url(#mask-14)" xlink:href="#path-13"></use>
                    </g>
                    <g id="Rectangle-1392" transform="translate(34.000000, 23.000000)">
                        <mask id="mask-17" fill="white">
                            <use xlink:href="#path-15"></use>
                        </mask>
                        <g id="Mask" stroke="#CCEAFF" mask="url(#mask-16)" stroke-width="4" fill="#FFFFFF">
                            <use mask="url(#mask-18)" xlink:href="#path-15"></use>
                        </g>
                        <g mask="url(#mask-17)" stroke-width="4" stroke="#CDEAFF" fill="#CCEAFF">
                            <use mask="url(#mask-20)" xlink:href="#path-19"></use>
                        </g>
                    </g>
                    <rect id="Rectangle-1394" fill="#CCEAFF" x="44" y="46" width="16" height="2" rx="1"></rect>
                    <rect id="Rectangle-1394" fill="#CCEAFF" x="76" y="46" width="16" height="2" rx="1"></rect>
                    <circle id="Oval-129" fill="#CCEAFF" cx="88" cy="48.5" r="2"></circle>
                    <circle id="Oval-129" fill="#CCEAFF" cx="56" cy="48.5" r="2"></circle>
                    <circle id="Oval-123" fill="#F3FAFF" cx="43.5" cy="29.5" r="1.5"></circle>
                    <circle id="Oval-123" fill="#F3FAFF" cx="49.5" cy="29.5" r="1.5"></circle>
                </g>
                <text id="该部门下还没有人…" font-family="PingFangSC-Regular, PingFang SC" font-size="14" font-weight="normal" fill="#96D1FA">
                    <tspan x="9" y="122">该部门下还没有人…</tspan>
                </text>
            </g>
        </g>
    </g>
</svg>