<?xml version="1.0" encoding="UTF-8"?>
<svg width="18px" height="18px" viewBox="0 0 18 18" version="1.1" xmlns="http://www.w3.org/2000/svg" xmlns:xlink="http://www.w3.org/1999/xlink">
    <!-- Generator: Sketch 42 (36781) - http://www.bohemiancoding.com/sketch -->
    <title>已取消</title>
    <desc>Created with Sketch.</desc>
    <defs></defs>
    <g id="平台组件规范+部分组件视觉" stroke="none" stroke-width="1" fill="none" fill-rule="evenodd">
        <g id="A4" transform="translate(-56.000000, -97.000000)" fill="#96D1FA">
            <path d="M66.4142136,106 L68.5387883,108.124575 C68.9275152,108.513302 68.9287809,109.142287 68.5355339,109.535534 C68.1450096,109.926058 67.5062237,109.920437 67.1245748,109.538788 L65,107.414214 L62.8754252,109.538788 C62.4866983,109.927515 61.857713,109.928781 61.4644661,109.535534 C61.0739418,109.14501 61.0795627,108.506224 61.4612117,108.124575 L63.5857864,106 L61.4612117,103.875425 C61.0724848,103.486698 61.0712191,102.857713 61.4644661,102.464466 C61.8549904,102.073942 62.4937763,102.079563 62.8754252,102.461212 L65,104.585786 L67.1245748,102.461212 C67.5133017,102.072485 68.142287,102.071219 68.5355339,102.464466 C68.9260582,102.85499 68.9204373,103.493776 68.5387883,103.875425 L66.4142136,106 Z M56,98.9950893 C56,97.8932319 56.8926228,97 57.9950893,97 L72.0049107,97 C73.1067681,97 74,97.8926228 74,98.9950893 L74,113.004911 C74,114.106768 73.1073772,115 72.0049107,115 L57.9950893,115 C56.8932319,115 56,114.107377 56,113.004911 L56,98.9950893 Z M58,100.006845 L58,111.993155 C58,112.550051 58.4507801,113 59.0068455,113 L70.9931545,113 C71.5500512,113 72,112.54922 72,111.993155 L72,100.006845 C72,99.4499488 71.5492199,99 70.9931545,99 L59.0068455,99 C58.4499488,99 58,99.4507801 58,100.006845 Z" id="已取消"></path>
        </g>
    </g>
</svg>