<?xml version="1.0" encoding="UTF-8"?>
<svg width="16px" height="13px" viewBox="0 0 16 13" version="1.1" xmlns="http://www.w3.org/2000/svg" xmlns:xlink="http://www.w3.org/1999/xlink" style="background: #C82323;">
    <!-- Generator: Sketch 42 (36781) - http://www.bohemiancoding.com/sketch -->
    <title>Combined Shape Copy 2</title>
    <desc>Created with Sketch.</desc>
    <defs>
        <rect id="path-1" x="345" y="565" width="200" height="718"></rect>
        <filter x="-50%" y="-50%" width="200%" height="200%" filterUnits="objectBoundingBox" id="filter-2">
            <feOffset dx="1" dy="0" in="SourceAlpha" result="shadowOffsetOuter1"></feOffset>
            <feGaussianBlur stdDeviation="0.5" in="shadowOffsetOuter1" result="shadowBlurOuter1"></feGaussianBlur>
            <feColorMatrix values="0 0 0 0 0   0 0 0 0 0   0 0 0 0 0  0 0 0 0.2 0" type="matrix" in="shadowBlurOuter1"></feColorMatrix>
        </filter>
    </defs>
    <g id="Pagebuilder" stroke="none" stroke-width="1" fill="none" fill-rule="evenodd">
        <g id="2-pagebuilder组件交互" transform="translate(-524.000000, -660.000000)">
            <g id="组件列表-bg-copy">
                <use fill="black" fill-opacity="1" filter="url(#filter-2)" xlink:href="#path-1"></use>
                <use fill="#F5F8FA" fill-rule="evenodd" xlink:href="#path-1"></use>
            </g>
            <g id="通用组件-copy" transform="translate(345.000000, 617.000000)" fill="#FFFFFF" opacity="0.5">
                <rect id="Rectangle-20-Copy" x="0" y="34" width="200" height="30"></rect>
            </g>
            <path d="M532.286314,663.643042 C532.237605,663.643042 532.189708,663.646522 532.142857,663.643042 C532.142857,663.643042 533.714286,661.928756 532.857143,661.214471 C532,660.500185 530.714286,661.785899 528.857143,662.928756 C527,664.071614 525,664.21277 525,664.704675 L525,670.214471 C525,670.618144 527.041483,670.745194 528.142857,670.928756 C529.11715,671.091139 533.573399,671.357328 533.573399,671.357328 C534.20362,671.357328 534.714286,670.845653 534.714286,670.214471 C534.714286,669.866714 534.558598,669.554599 534.313099,669.344768 C534.863047,669.262656 535.285714,668.787879 535.285714,668.214471 C535.285714,667.851374 535.11576,667.527134 534.850939,667.317604 C535.267164,667.196515 535.571429,666.812424 535.571429,666.357328 C535.571429,666.077872 535.45626,665.82472 535.270679,665.643042 L537.9994,665.643042 C538.551903,665.643042 539,665.195327 539,664.643042 C539,664.091881 538.552016,663.643042 537.9994,663.643042 L532.286314,663.643042 Z M537.9994,662.643042 C539.103953,662.643042 540,663.539248 540,664.643042 C540,665.747724 539.104076,666.643042 537.9994,666.643042 L536.5,666.643042 C536.000016,666.643042 535.270679,665.643042 535.270679,665.643042 C535.270679,665.643042 536.563706,666.560073 536.548766,666.65855 C536.491052,667.038946 536.325626,667.387469 536.081505,667.668603 C535.834811,667.9527 534.850939,667.317604 534.850939,667.317604 C534.850939,667.317604 536.04391,667.142181 536.175257,667.534796 C536.247415,667.750488 536.285714,667.979487 536.285714,668.214471 C536.285714,668.880043 535.980457,669.480735 535.496658,669.875659 C535.206479,670.112532 534.313099,669.344768 534.313099,669.344768 C534.313099,669.344768 535.487601,669.17734 535.609176,669.550754 C535.677915,669.761884 535.714286,669.985402 535.714286,670.214471 C535.714286,671.397579 534.756265,672.357328 533.513772,672.355549 C533.336869,672.344981 525.719997,671.603383 525.363291,671.517191 C524.470301,671.301415 524,671.056294 524,670.214471 L524,664.704675 C524,664.046069 524.372594,663.719 524.956676,663.45683 C524.887685,663.487797 527.233379,662.686495 528.006635,662.265909 C528.118459,662.205086 530.431182,660.666311 530.892759,660.420622 C531.875783,659.897376 532.739082,659.814378 533.497327,660.446249 C534.168733,661.005754 534.247828,661.80412 533.956613,662.61384 C533.860041,662.882358 533.724599,663.14892 533.558817,663.415158 C533.527139,663.466031 532.142857,663.643042 532.142857,663.643042 L533,662.643042 L537.9994,662.643042 Z" id="Combined-Shape-Copy-2" fill="#1587D9" fill-rule="nonzero"></path>
        </g>
    </g>
</svg>