<?xml version="1.0" encoding="UTF-8" standalone="no"?>
<svg width="16px" height="16px" viewBox="0 0 16 16" version="1.1" xmlns="http://www.w3.org/2000/svg" xmlns:xlink="http://www.w3.org/1999/xlink">
    <!-- Generator: Sketch 42 (36781) - http://www.bohemiancoding.com/sketch -->
    <title>Group 9</title>
    <desc>Created with Sketch.</desc>
    <defs></defs>
    <g id="平台组件规范+部分组件视觉" stroke="none" stroke-width="1" fill="none" fill-rule="evenodd">
        <g id="首页-copy" transform="translate(-235.000000, -1766.000000)">
            <g id="任务列表-copy-2" transform="translate(220.000000, 1544.000000)">
                <g id="Group-2" transform="translate(15.000000, 67.000000)">
                    <g id="Group-6-Copy-13" transform="translate(0.000000, 148.000000)">
                        <g id="Group-5">
                            <g id="Group-9" transform="translate(0.000000, 7.000000)">
                                <rect id="Rectangle-2" fill="#38BA72" x="0" y="-3.55271368e-15" width="16" height="16" rx="8"></rect>
                                <path d="M9.89693075,9.64916788 L5.60465139,9.64916788 C5.2290141,9.64916788 4.93962163,9.94764471 4.93962163,10.3158345 C4.93962163,10.6865913 5.23736559,10.9825012 5.60465139,10.9825012 L10.2745919,10.9825012 C10.3244883,10.9825012 10.372863,10.9772348 10.4192398,10.9672382 C10.4657234,10.9772529 10.5140286,10.9825012 10.5635974,10.9825012 C10.9343542,10.9825012 11.2302641,10.6819812 11.2302641,10.3112709 L11.2302641,2.32039819 C11.2302641,1.93873058 10.9317873,1.64916788 10.5635974,1.64916788 C10.1928406,1.64916788 9.89693075,1.94968793 9.89693075,2.32039819 L9.89693075,9.64916788 Z" id="Combined-Shape" fill="#FFFFFF" transform="translate(8.084943, 6.315835) rotate(45.000000) translate(-8.084943, -6.315835) "></path>
                            </g>
                        </g>
                    </g>
                </g>
            </g>
        </g>
    </g>
</svg>