<?xml version="1.0" encoding="UTF-8"?>
<svg width="18px" height="18px" viewBox="0 0 18 18" version="1.1" xmlns="http://www.w3.org/2000/svg" xmlns:xlink="http://www.w3.org/1999/xlink">
    <!-- Generator: Sketch 42 (36781) - http://www.bohemiancoding.com/sketch -->
    <title>进行中</title>
    <desc>Created with Sketch.</desc>
    <defs></defs>
    <g id="平台组件规范+部分组件视觉" stroke="none" stroke-width="1" fill="none" fill-rule="evenodd">
        <g id="A4" transform="translate(-56.000000, -63.000000)" fill="#96D0FA">
            <g id="进行中" transform="translate(56.000000, 63.000000)">
                <path d="M1.19961299,2.20152928 C1.41642794,2.34445748 1.5,2.45650944 1.5,2.5 C1.5,3.94030259 2.74403867,6.28640473 4.32371841,7.73664321 C4.78918681,8.16397045 5.34659224,8.54254234 5.97667647,8.88016264 C6.5862126,9.20677257 7.23195203,9.47873613 7.8769054,9.70106517 C8.26531643,9.83495866 8.57196744,9.9239235 8.75822713,9.97033287 C8.83098952,9.99775573 9.10261323,10.0969199 9.45603645,10.2409072 C10.0464506,10.4814463 10.6362006,10.7566629 11.1810237,11.0593425 C11.8565222,11.4346194 12.4096294,11.823843 12.7928932,12.2071068 C13.8226261,13.2368396 14.5,14.8595095 14.5,15.5 C14.5,16.5611117 15.9453483,18 17,18 L17,16 C17.0990827,16 17.1061114,16.0026207 17.0777597,15.9852204 C16.9861531,15.928999 16.8743688,15.8388737 16.7680213,15.7330014 C16.6615611,15.6270171 16.5712387,15.5158967 16.5150771,15.4248844 C16.4973628,15.3961776 16.5,15.4032511 16.5,15.5 C16.5,14.3270819 15.6105207,12.1963071 14.2071068,10.7928932 C13.6737039,10.2594903 12.9768112,9.76908433 12.1523096,9.31102791 C11.5304661,8.96555928 10.8702161,8.65744262 10.2106302,8.38872246 C9.81405344,8.22715414 9.50234381,8.11335538 9.31622777,8.0513167 C9.10915501,7.99662342 8.85777031,7.9236923 8.52870684,7.81025718 C7.9778694,7.62037188 7.42781801,7.38870888 6.92128271,7.11729025 C6.42891797,6.85346468 6.00673155,6.5667292 5.67628159,6.26335679 C4.47778936,5.16307077 3.5,3.3190817 3.5,2.5 C3.5,1.64893635 3.02107206,1.00679812 2.30038701,0.531709964 C1.9297247,0.287362902 1.57070497,0.132255941 1.30342262,0.0471439169 L0.696577382,1.95285608 C0.804295034,1.98715714 1.0077753,2.07506653 1.19961299,2.20152928 Z" id="Path-4" fill-rule="nonzero"></path>
                <path d="M15.699613,0.531709964 C14.9789279,1.00679812 14.5,1.64893635 14.5,2.5 C14.5,3.3190817 13.5222106,5.16307077 12.3237184,6.26335679 C11.9932684,6.5667292 11.571082,6.85346468 11.0787173,7.11729025 C10.572182,7.38870888 10.0221306,7.62037188 9.47129316,7.81025718 C9.14222969,7.9236923 8.89084499,7.99662342 8.75822713,8.02966713 C8.49765619,8.11335538 8.18594656,8.22715414 7.78936978,8.38872246 C7.12978391,8.65744262 6.46953394,8.96555928 5.8476904,9.31102791 C5.02318885,9.76908433 4.32629611,10.2594903 3.79289322,10.7928932 C2.38947929,12.1963071 1.5,14.3270819 1.5,15.5 C1.5,15.4032511 1.50263724,15.3961776 1.4849229,15.4248844 C1.42876129,15.5158967 1.33843895,15.6270171 1.23197875,15.7330014 C1.12563118,15.8388737 1.01384687,15.928999 0.922240322,15.9852204 C0.893888556,16.0026207 0.900917299,16 1,16 L1,18 C2.05465166,18 3.5,16.5611117 3.5,15.5 C3.5,14.8595095 4.17737393,13.2368396 5.20710678,12.2071068 C5.59037056,11.823843 6.14347782,11.4346194 6.81897626,11.0593425 C7.36379939,10.7566629 7.95354942,10.4814463 8.54396355,10.2409072 C8.89738677,10.0969199 9.16901048,9.99775573 9.31622777,9.9486833 C9.42803256,9.9239235 9.73468357,9.83495866 10.1230946,9.70106517 C10.768048,9.47873613 11.4137874,9.20677257 12.0233235,8.88016264 C12.6534078,8.54254234 13.2108132,8.16397045 13.6762816,7.73664321 C15.2559613,6.28640473 16.5,3.94030259 16.5,2.5 C16.5,2.45650944 16.5835721,2.34445748 16.800387,2.20152928 C16.9922247,2.07506653 17.195705,1.98715714 17.3034226,1.95285608 L16.6965774,0.0471439169 C16.429295,0.132255941 16.0702753,0.287362902 15.699613,0.531709964 Z" id="Path-4" fill-rule="nonzero"></path>
                <rect id="Rectangle-34" x="0" y="0" width="18" height="2" rx="1"></rect>
                <rect id="Rectangle-34-Copy" x="0" y="16" width="18" height="2" rx="1"></rect>
            </g>
        </g>
    </g>
</svg>