<?xml version="1.0" encoding="UTF-8"?>
<svg width="11px" height="6px" viewBox="0 0 11 6" version="1.1" xmlns="http://www.w3.org/2000/svg" xmlns:xlink="http://www.w3.org/1999/xlink">
    <!-- Generator: Sketch 42 (36781) - http://www.bohemiancoding.com/sketch -->
    <title>icon展开</title>
    <desc>Created with Sketch.</desc>
    <defs>
        <rect id="path-1" x="1166" y="50" width="200" height="718"></rect>
        <filter x="-50%" y="-50%" width="200%" height="200%" filterUnits="objectBoundingBox" id="filter-2">
            <feOffset dx="-1" dy="0" in="SourceAlpha" result="shadowOffsetOuter1"></feOffset>
            <feGaussianBlur stdDeviation="0.5" in="shadowOffsetOuter1" result="shadowBlurOuter1"></feGaussianBlur>
            <feColorMatrix values="0 0 0 0 0   0 0 0 0 0   0 0 0 0 0  0 0 0 0.2 0" type="matrix" in="shadowBlurOuter1"></feColorMatrix>
        </filter>
    </defs>
    <g id="Pagebuilder" stroke="none" stroke-width="1" fill="none" fill-rule="evenodd">
        <g id="1-pagebuilder界面" transform="translate(-1341.000000, -94.000000)">
            <g id="属性面板-bg1">
                <use fill="black" fill-opacity="1" filter="url(#filter-2)" xlink:href="#path-1"></use>
                <use fill="#F5F8FA" fill-rule="evenodd" xlink:href="#path-1"></use>
            </g>
            <g id="属性设置" transform="translate(1166.000000, 80.000000)" fill="#66757F">
                <g id="属性设置标题栏">
                    <path d="M182.809672,20.7253092 C183.063383,21.0164152 183.064209,21.4874435 182.807548,21.7819344 C182.552663,22.0743863 182.135745,22.070177 181.886653,21.7843715 L178.190328,17.5432481 C178.059884,17.3935779 177.996289,17.1963463 178.000167,17 C177.996289,16.8036537 178.059884,16.6064221 178.190328,16.4567519 L181.886653,12.2156285 C182.135745,11.929823 182.552663,11.9256137 182.807548,12.2180656 C183.064209,12.5125565 183.063383,12.9835848 182.809672,13.2746908 L179.562902,17 L182.809672,20.7253092 Z" id="icon展开" transform="translate(180.500000, 17.000000) rotate(-90.000000) translate(-180.500000, -17.000000) "></path>
                </g>
            </g>
        </g>
    </g>
</svg>