<?xml version="1.0" encoding="UTF-8"?>
<svg width="28px" height="28px" viewBox="0 0 28 28" version="1.1" xmlns="http://www.w3.org/2000/svg" xmlns:xlink="http://www.w3.org/1999/xlink">
    <!-- Generator: Sketch 42 (36781) - http://www.bohemiancoding.com/sketch -->
    <title>Rectangle</title>
    <desc>Created with Sketch.</desc>
    <defs></defs>
    <g id="签到设置" stroke="none" stroke-width="1" fill="none" fill-rule="evenodd">
        <g id="签到设置－下拉弹层" transform="translate(-250.000000, -542.000000)">
            <g id="办公WI_FI设置" transform="translate(250.000000, 541.000000)">
                <g id="地址-copy">
                    <rect id="Rectangle" fill="#F28D49" x="0" y="1" width="28" height="28" rx="4"></rect>
                    <path d="M23.0032329,11.7704615 L21.9209801,12.8527143 C19.6439617,11.3648894 16.9229837,10.5 14,10.5 C11.0778529,10.5 8.357596,11.3643944 6.08097538,12.8514368 L5,11.7704615 C7.56452891,10.0221269 10.6637074,9 14.0016165,9 C17.3395255,9 20.438704,10.0221269 23.0032329,11.7704615 Z M20.4167937,14.3569007 L19.3251138,15.4485806 C17.76385,14.5280777 15.9435946,14 14,14 C12.0572494,14 10.2377308,14.5276192 8.67692026,15.4473817 L7.58643925,14.3569007 C9.44194525,13.1808944 11.6422652,12.5 14.0016165,12.5 C16.3609678,12.5 18.5612877,13.1808944 20.4167937,14.3569007 Z M18.1284808,16.6452136 C16.9235768,15.9182525 15.5114407,15.5 14.0016165,15.5 C12.4917922,15.5 11.0796561,15.9182525 9.87475213,16.6452136 L10.9749006,17.7453621 C11.8784664,17.2693942 12.907773,17 14,17 C15.0930802,17 16.1231417,17.2698152 17.0272165,17.7464779 L18.1284808,16.6452136 Z M15.830944,18.9427504 C14.684533,18.3517523 13.3135737,18.350195 12.1680334,18.9384948 L14.0016165,20.7720779 L15.830944,18.9427504 Z" id="Combined-Shape-Copy-2" fill="#FFFFFF"></path>
                </g>
            </g>
        </g>
    </g>
</svg>