<?xml version="1.0" encoding="UTF-8"?>
<svg width="14px" height="11px" viewBox="0 0 14 11" version="1.1" xmlns="http://www.w3.org/2000/svg" xmlns:xlink="http://www.w3.org/1999/xlink">
    <!-- Generator: Sketch 42 (36781) - http://www.bohemiancoding.com/sketch -->
    <title>Combined Shape Copy 4</title>
    <desc>Created with Sketch.</desc>
    <defs></defs>
    <g id="菜单设置" stroke="none" stroke-width="1" fill="none" fill-rule="evenodd">
        <g id="交互" transform="translate(-298.000000, -163.000000)" fill="#1687D9">
            <g id="Group" transform="translate(108.000000, 104.000000)">
                <path d="M190,59.5 C190,59.2238576 190.219907,59 190.498267,59 L203.501733,59 C203.776918,59 204,59.2319336 204,59.5 C204,59.7761424 203.780093,60 203.501733,60 L190.498267,60 C190.223082,60 190,59.7680664 190,59.5 Z M190,64.5 C190,64.2238576 190.219907,64 190.498267,64 L203.501733,64 C203.776918,64 204,64.2319336 204,64.5 C204,64.7761424 203.780093,65 203.501733,65 L190.498267,65 C190.223082,65 190,64.7680664 190,64.5 Z M190,69.5 C190,69.2238576 190.219907,69 190.498267,69 L203.501733,69 C203.776918,69 204,69.2319336 204,69.5 C204,69.7761424 203.780093,70 203.501733,70 L190.498267,70 C190.223082,70 190,69.7680664 190,69.5 Z" id="Combined-Shape-Copy-4"></path>
            </g>
        </g>
    </g>
</svg>