<?xml version="1.0" encoding="UTF-8"?>
<svg width="28px" height="28px" viewBox="0 0 28 28" version="1.1" xmlns="http://www.w3.org/2000/svg" xmlns:xlink="http://www.w3.org/1999/xlink">
    <!-- Generator: Sketch 42 (36781) - http://www.bohemiancoding.com/sketch -->
    <title>Rectangle</title>
    <desc>Created with Sketch.</desc>
    <defs></defs>
    <g id="签到设置" stroke="none" stroke-width="1" fill="none" fill-rule="evenodd">
        <g id="签到设置－下拉弹层" transform="translate(-250.000000, -1008.000000)">
            <g id="签到地点设置" transform="translate(249.000000, 1007.000000)">
                <g id="图标" transform="translate(1.000000, 1.000000)">
                    <rect id="Rectangle" fill="#53C6C6" x="0" y="0" width="28" height="28" rx="4"></rect>
                    <path d="M14,23 C14,23 7,15.8659932 7,12 C7,8.13400675 10.1340068,5 14,5 C17.8659932,5 21,8.13400675 21,12 C21,15.8659932 14,23 14,23 Z M14,14 C15.1045695,14 16,13.1045695 16,12 C16,10.8954305 15.1045695,10 14,10 C12.8954305,10 12,10.8954305 12,12 C12,13.1045695 12.8954305,14 14,14 Z" id="Combined-Shape" fill="#FFFFFF"></path>
                </g>
            </g>
        </g>
    </g>
</svg>