<?xml version="1.0" encoding="UTF-8"?>
<svg width="14px" height="14px" viewBox="0 0 14 14" version="1.1" xmlns="http://www.w3.org/2000/svg" xmlns:xlink="http://www.w3.org/1999/xlink">
    <!-- Generator: Sketch 42 (36781) - http://www.bohemiancoding.com/sketch -->
    <title>关闭</title>
    <desc>Created with Sketch.</desc>
    <defs></defs>
    <g id="Pagebuilder" stroke="none" stroke-width="1" fill="none" fill-rule="evenodd">
        <g id="2-pagebuilder组件交互" transform="translate(-755.000000, -374.000000)">
            <g id="搜素-输入完成" transform="translate(583.000000, 354.000000)">
                <rect id="Rectangle-5-Copy-2" fill="#FFFFFF" x="1" y="0" width="200" height="61"></rect>
                <g id="搜索－默认-copy-2" fill="#ACB7BF">
                    <path d="M174.050253,31.9497475 C171.316582,29.2160774 171.316582,24.7839226 174.050253,22.0502525 C176.783923,19.3165825 181.216077,19.3165825 183.949747,22.0502525 C186.683418,24.7839226 186.683418,29.2160774 183.949747,31.9497475 C181.216077,34.6834175 176.783923,34.6834175 174.050253,31.9497475 Z M179,25.8923771 L177.336017,24.2283939 C177.037106,23.9294835 176.536804,23.9250812 176.230943,24.2309428 C175.922949,24.5389368 175.92394,25.0315629 176.228394,25.3360168 L177.892377,27 L176.228394,28.6639832 C175.929483,28.9628936 175.925081,29.4631956 176.230943,29.7690572 C176.538937,30.0770512 177.031563,30.07606 177.336017,29.7716061 L179,28.1076229 L180.663983,29.7716061 C180.962894,30.0705165 181.463196,30.0749188 181.769057,29.7690572 C182.077051,29.4610632 182.07606,28.9684371 181.771606,28.6639832 L180.107623,27 L181.771606,25.3360168 C182.070517,25.0371064 182.074919,24.5368044 181.769057,24.2309428 C181.461063,23.9229488 180.968437,23.92394 180.663983,24.2283939 L179,25.8923771 L179,25.8923771 Z" id="关闭"></path>
                </g>
            </g>
        </g>
    </g>
</svg>