<?xml version="1.0" encoding="UTF-8"?>
<svg width="5px" height="8px" viewBox="0 0 5 8" version="1.1" xmlns="http://www.w3.org/2000/svg" xmlns:xlink="http://www.w3.org/1999/xlink">
    <!-- Generator: Sketch 42 (36781) - http://www.bohemiancoding.com/sketch -->
    <title>Combined Shape Copy 3</title>
    <desc>Created with Sketch.</desc>
    <defs></defs>
    <g id="时间控件" stroke="none" stroke-width="1" fill="none" fill-rule="evenodd">
        <g id="日－日" transform="translate(-637.000000, -242.000000)" fill="#66757F">
            <g id="时间弹层" transform="translate(171.000000, 181.000000)">
                <g id="头部" transform="translate(356.000000, 55.000000)">
                    <path d="M110.008131,10.0970384 C110.01858,10.1649917 110.040823,10.2312265 110.075787,10.2911825 C110.076119,10.2917525 110.076452,10.2923214 110.076786,10.2928893 C110.104256,10.340419 110.138941,10.3830254 110.180592,10.4180442 L114.332591,13.9088922 C114.520005,14.0664628 114.78995,14.0159046 114.923906,13.7861937 C115.053944,13.5632007 115.010306,13.2389816 114.817688,13.0770352 L111.158623,10.0006279 L114.8191,6.92303304 C115.006514,6.76546244 115.059274,6.44358557 114.925318,6.2138746 C114.79528,5.99088167 114.526622,5.9292296 114.334003,6.09117601 L110.182004,9.58202408 C110.180904,9.58294919 110.179808,9.58387995 110.178717,9.58481633 C110.13901,9.61751574 110.103482,9.6589713 110.074374,9.70888573 C110.00756,9.82346056 109.986595,9.96475864 110.008131,10.0970384 L110.008131,10.0970384 Z" id="Combined-Shape-Copy-3" transform="translate(112.500000, 10.000000) scale(-1, 1) translate(-112.500000, -10.000000) "></path>
                </g>
            </g>
        </g>
    </g>
</svg>