<?xml version="1.0" encoding="UTF-8"?>
<svg width="18px" height="18px" viewBox="0 0 18 18" version="1.1" xmlns="http://www.w3.org/2000/svg" xmlns:xlink="http://www.w3.org/1999/xlink">
    <!-- Generator: Sketch 42 (36781) - http://www.bohemiancoding.com/sketch -->
    <title>已取消</title>
    <desc>Created with Sketch.</desc>
    <defs></defs>
    <g id="平台组件规范+部分组件视觉" stroke="none" stroke-width="1" fill="none" fill-rule="evenodd">
        <g id="A4" transform="translate(-56.000000, -178.000000)" fill="#96D1FA">
            <path d="M56,179.995089 C56,178.893232 56.8926228,178 57.9950893,178 L72.0049107,178 C73.1067681,178 74,178.892623 74,179.995089 L74,194.004911 C74,195.106768 73.1073772,196 72.0049107,196 L57.9950893,196 C56.8932319,196 56,195.107377 56,194.004911 L56,179.995089 Z M58,181.006845 L58,192.993155 C58,193.550051 58.4507801,194 59.0068455,194 L70.9931545,194 C71.5500512,194 72,193.54922 72,192.993155 L72,181.006845 C72,180.449949 71.5492199,180 70.9931545,180 L59.0068455,180 C58.4499488,180 58,180.45078 58,181.006845 Z M62,183.99703 C62,183.446386 62.4438648,183 63,183 C63.5522847,183 64,183.453036 64,183.99703 L64,190.00297 C64,190.553614 63.5561352,191 63,191 C62.4477153,191 62,190.546964 62,190.00297 L62,183.99703 Z M66,183.99703 C66,183.446386 66.4438648,183 67,183 C67.5522847,183 68,183.453036 68,183.99703 L68,190.00297 C68,190.553614 67.5561352,191 67,191 C66.4477153,191 66,190.546964 66,190.00297 L66,183.99703 Z" id="已取消"></path>
        </g>
    </g>
</svg>