<?xml version="1.0" encoding="UTF-8" standalone="no"?>
<svg width="5px" height="51px" viewBox="0 0 5 51" version="1.1" xmlns="http://www.w3.org/2000/svg" xmlns:xlink="http://www.w3.org/1999/xlink">
    <!-- Generator: Sketch 42 (36781) - http://www.bohemiancoding.com/sketch -->
    <title>拖拽区tree-right-ico-gray</title>
    <desc>Created with Sketch.</desc>
    <defs></defs>
    <g id="同事页" stroke="none" stroke-width="1" fill="none" fill-rule="evenodd">
        <g id="交互标注" transform="translate(-2707.000000, -397.000000)">
            <g id="拖拽区" transform="translate(2707.000000, 397.000000)">
                <path d="M0,5.99678245 C0,5.4462747 0.185978006,4.5847168 0.412879665,4.08935785 C0.412879665,4.08935785 1.97796556,0.5 2.5,0.5 C2.9780939,0.5 4.58438161,4.10017326 4.58438161,4.10017326 C4.81392131,4.59713384 5,5.44326177 5,5.99678245 L5,46.0032175 C5,46.5537253 4.7998298,47.398159 4.54753251,47.8877296 C4.54753251,47.8877296 3.02860922,51 2.5,51 C2.02848088,51 0.463522808,47.8877296 0.463522808,47.8877296 C0.20752623,47.3974501 0,46.5567382 0,46.0032175 L0,5.99678245 Z" id="Combined-Shape" fill="#E4EBF0"></path>
                <rect id="Rectangle-6" fill="#FFFFFF" x="1.5" y="9" width="2" height="2" rx="1"></rect>
                <rect id="Rectangle-6-Copy" fill="#FFFFFF" x="1.5" y="13" width="2" height="2" rx="1"></rect>
                <rect id="Rectangle-6-Copy-2" fill="#FFFFFF" x="1.5" y="17" width="2" height="2" rx="1"></rect>
                <rect id="Rectangle-6-Copy-3" fill="#FFFFFF" x="1.5" y="21" width="2" height="2" rx="1"></rect>
                <rect id="Rectangle-6-Copy-3" fill="#FFFFFF" x="1.5" y="25" width="2" height="2" rx="1"></rect>
                <rect id="Rectangle-6-Copy-3" fill="#FFFFFF" x="1.5" y="29" width="2" height="2" rx="1"></rect>
                <rect id="Rectangle-6-Copy-3" fill="#FFFFFF" x="1.5" y="33" width="2" height="2" rx="1"></rect>
                <rect id="Rectangle-6-Copy-3" fill="#FFFFFF" x="1.5" y="37" width="2" height="2" rx="1"></rect>
                <rect id="Rectangle-6-Copy-3" fill="#FFFFFF" x="1.5" y="41" width="2" height="2" rx="1"></rect>
            </g>
        </g>
    </g>
</svg>