<?xml version="1.0" encoding="UTF-8"?>
<svg width="14px" height="18px" viewBox="0 0 14 18" version="1.1" xmlns="http://www.w3.org/2000/svg" xmlns:xlink="http://www.w3.org/1999/xlink">
    <!-- Generator: Sketch 42 (36781) - http://www.bohemiancoding.com/sketch -->
    <title>cus-baobiao</title>
    <desc>Created with Sketch.</desc>
    <defs></defs>
    <g id="平台组件规范+部分组件视觉" stroke="none" stroke-width="1" fill="none" fill-rule="evenodd">
        <g id="A4" transform="translate(-200.000000, -86.000000)" fill="#ED5858">
            <g id="cus-baobiao" transform="translate(200.000000, 86.000000)">
                <g id="cus-ribao">
                    <path d="M3,2 L3,0.998956561 C3,0.447248087 3.45303631,0 3.99703014,0 L10.0029699,0 C10.5536144,0 11,0.442660332 11,0.998956561 L11,2 L11.9941413,2 C13.1019465,2 14,2.90121236 14,3.99040006 L14,13.7333333 L10,18 L1.99961498,18 C0.895258123,18 0,17.1054862 0,16.0059397 L0,3.99406028 C0,2.8927712 0.897060126,2 2.00585866,2 L3,2 Z M1,4.00684547 L1,15.9931545 C1,16.5500512 1.44583044,17 1.99579015,17 L9.39337158,17 L13,13.0496169 L13,4.00033642 C13,3.44478656 12.5511774,3 11.9975267,3 L2.00247329,3 C1.45576096,3 1,3.45078007 1,4.00684547 Z M4,1 L4,2 L10,2 L10,1 L4,1 Z M4,4.5 C4,4.22385763 4.22788048,4 4.49100518,4 L9.50899482,4 C9.78016949,4 10,4.23193359 10,4.5 C10,4.77614237 9.77211952,5 9.50899482,5 L4.49100518,5 C4.21983051,5 4,4.76806641 4,4.5 Z M8,12.9954718 C8,12.4456879 8.44722358,12 8.99712326,12 L11.4957908,12 C12.0464868,12 12.1697948,12.3225841 11.7908963,12.7008551 L8.70201783,15.7846177 C8.31430409,16.1716893 8,16.03899 8,15.490001 L8,12.9954718 Z" id="日报"></path>
                </g>
            </g>
        </g>
    </g>
</svg>