<?xml version="1.0" encoding="UTF-8" standalone="no"?>
<svg width="16px" height="16px" viewBox="0 0 16 16" version="1.1" xmlns="http://www.w3.org/2000/svg" xmlns:xlink="http://www.w3.org/1999/xlink">
    <!-- Generator: Sketch 42 (36781) - http://www.bohemiancoding.com/sketch -->
    <title>Combined Shape</title>
    <desc>Created with Sketch.</desc>
    <defs></defs>
    <g id="平台组件规范+部分组件视觉" stroke="none" stroke-width="1" fill="none" fill-rule="evenodd">
        <g id="首页-copy" transform="translate(-1038.000000, -1561.000000)" fill="#55C6C6">
            <g id="任务列表-copy-3" transform="translate(1023.000000, 1544.000000)">
                <g id="模块背景">
                    <g id="Group-19" transform="translate(15.000000, 10.000000)">
                        <g id="cus-rili" transform="translate(0.000000, 7.000000)">
                            <path d="M12,1 L14.0059397,1 C15.1072288,1 16,1.89339733 16,2.99188419 L16,14.0081158 C16,15.1082031 15.1054862,16 14.0059397,16 L1.99406028,16 C0.892771196,16 0,15.1066027 0,14.0081158 L0,2.99188419 C0,1.89179693 0.894513756,1 1.99406028,1 L4,1 L4,0.998956561 C4,0.447248087 4.44386482,0 5,0 C5.55228475,0 6,0.442660332 6,0.998956561 L6,1 L10,1 L10,0.998956561 C10,0.447248087 10.4438648,0 11,0 C11.5522847,0 12,0.442660332 12,0.998956561 L12,1 Z M12,2 L12,2.00104344 C12,2.55275191 11.5561352,3 11,3 C10.4477153,3 10,2.55733967 10,2.00104344 L10,2 L6,2 L6,2.00104344 C6,2.55275191 5.55613518,3 5,3 C4.44771525,3 4,2.55733967 4,2.00104344 L4,2 L2.00684547,2 C1.44994876,2 1,2.44771525 1,3 L1,4 L15,4 L15,3 C15,2.44386482 14.5492199,2 13.9931545,2 L12,2 Z M1,5 L1,14.0046024 C1,14.5443356 1.45078007,15 2.00684547,15 L13.9931545,15 C14.5500512,15 15,14.5543453 15,14.0046024 L15,5 L1,5 Z M3,7 L5,7 L5,9 L3,9 L3,7 Z M3,11 L5,11 L5,13 L3,13 L3,11 Z M7,7 L9,7 L9,9 L7,9 L7,7 Z M7,11 L9,11 L9,13 L7,13 L7,11 Z M11,7 L13,7 L13,9 L11,9 L11,7 Z M11,11 L13,11 L13,13 L11,13 L11,11 Z" id="Combined-Shape"></path>
                        </g>
                    </g>
                </g>
            </g>
        </g>
    </g>
</svg>