<?xml version="1.0" encoding="UTF-8"?>
<svg width="11px" height="11px" viewBox="0 0 11 11" version="1.1" xmlns="http://www.w3.org/2000/svg" xmlns:xlink="http://www.w3.org/1999/xlink">
    <!-- Generator: Sketch 42 (36781) - http://www.bohemiancoding.com/sketch -->
    <title>Combined Shape Copy</title>
    <desc>Created with Sketch.</desc>
    <defs></defs>
    <g id="菜单设置" stroke="none" stroke-width="1" fill="none" fill-rule="evenodd">
        <g id="交互" transform="translate(-198.000000, -163.000000)" fill="#1687D9">
            <g id="Group" transform="translate(108.000000, 104.000000)">
                <path d="M96,64 L96,59.5012308 C96,59.2297506 95.7761424,59 95.5,59 C95.2319336,59 95,59.2244087 95,59.5012308 L95,64 L90.5012308,64 C90.2297506,64 90,64.2238576 90,64.5 C90,64.7680664 90.2244087,65 90.5012308,65 L95,65 L95,69.4987692 C95,69.7702494 95.2238576,70 95.5,70 C95.7680664,70 96,69.7755913 96,69.4987692 L96,65 L100.498769,65 C100.770249,65 101,64.7761424 101,64.5 C101,64.2319336 100.775591,64 100.498769,64 L96,64 Z" id="Combined-Shape-Copy"></path>
            </g>
        </g>
    </g>
</svg>