<?xml version="1.0" encoding="UTF-8" standalone="no"?>
<svg width="147px" height="169px" viewBox="0 0 147 169" version="1.1" xmlns="http://www.w3.org/2000/svg" xmlns:xlink="http://www.w3.org/1999/xlink">
    <!-- Generator: Sketch 44.1 (41455) - http://www.bohemiancoding.com/sketch -->
    <title>Group 3</title>
    <desc>Created with Sketch.</desc>
    <defs></defs>
    <g id="首页" stroke="none" stroke-width="1" fill="none" fill-rule="evenodd">
        <g id="空页面2" transform="translate(-107.000000, -80.000000)">
            <g id="Group-Copy" transform="translate(106.000000, 69.000000)">
                <g id="Group-3">
                    <ellipse id="Oval-14" fill="#DEF3F3" cx="70.2" cy="176.4" rx="39.6" ry="3.6"></ellipse>
                    <g id="Group-10" transform="translate(16.200000, 75.600000)">
                        <polygon id="Rectangle" fill="#92DADB" points="47.7 0 47.7 22.5 0 10.8"></polygon>
                        <path d="M104.4,0 L104.4,20.7 C101.356875,24.0067559 98.9568746,25.5067559 97.2,25.2 C95.4431254,24.8932441 78.6431254,18.2932441 46.8,5.4 L104.4,0 Z" id="Rectangle" fill="#CFF5F4" transform="translate(75.600000, 12.619531) scale(-1, 1) translate(-75.600000, -12.619531) "></path>
                    </g>
                    <rect id="Rectangle-11" fill="#B45AEF" transform="translate(141.461075, 63.688506) rotate(20.000000) translate(-141.461075, -63.688506) " x="137.861075" y="54.6885061" width="7.2" height="18"></rect>
                    <circle id="Oval-8" fill="#FFDC6A" cx="4.5" cy="78.3" r="2.7"></circle>
                    <circle id="Oval-8-Copy-2" fill="#FF6392" cx="126" cy="36" r="1.8"></circle>
                    <circle id="Oval-8" fill="#0ED0FA" cx="57.6" cy="16.2" r="1.8"></circle>
                    <rect id="Rectangle-13" fill="#FF6392" transform="translate(11.060774, 59.958161) rotate(-39.000000) translate(-11.060774, -59.958161) " x="8.36077404" y="48.2581612" width="5.4" height="23.4"></rect>
                    <g id="Group-5" transform="translate(86.780213, 57.231515) rotate(30.000000) translate(-86.780213, -57.231515) translate(65.565928, 30.231515)">
                        <path d="M1,0 L41.4285714,0 L41.4285714,0 C41.9808562,-1.01453063e-16 42.4285714,0.44771525 42.4285714,1 L42.4285714,53 L42.4285714,53 C42.4285714,53.5522847 41.9808562,54 41.4285714,54 L1,54 L1,54 C0.44771525,54 6.76353751e-17,53.5522847 0,53 L0,1 L0,1 C-6.76353751e-17,0.44771525 0.44771525,1.01453063e-16 1,0 Z" id="Rectangle-34-Copy" fill="#51C2FD"></path>
                        <polygon id="Rectangle-41" fill="#ADE4FF" points="3.85714286 3.85714286 38.5714286 3.85714286 38.5714286 50.1428571 3.85714286 50.1428571"></polygon>
                        <path d="M38.5714286,32.7857143 L38.5714286,50.1428571 L3.85714286,50.1428571 C6.97252747,45.4675325 9.86538462,42.6623377 11.5714286,42.4285714 C16.5412088,40.3246753 23.8846154,27 28.9285714,27 C32.7881558,27 35.6810129,28.8701299 38.5714286,32.7857143 Z" id="Rectangle-41" fill="#7AD2FF"></path>
                        <circle id="Oval-19" fill="#8AD7FF" cx="16.3421053" cy="14.9210526" r="4.97368421"></circle>
                        <path d="M3.85714286,40.5 C6.93601736,35.3571429 10.1503031,32.7857143 13.5,32.7857143 C19.2663036,32.7857143 22.5494505,40.0178571 28.9285714,42.4285714 C32.6868132,44.6785714 35.9010989,43.3928571 38.5714286,38.5714286 L38.5714286,50.1428571 L3.85714286,50.1428571 L3.85714286,40.5 Z" id="Rectangle-41" fill="#8AD7FF"></path>
                    </g>
                    <g id="Group-11" transform="translate(5.400000, 81.000000)">
                        <g id="Group-9" transform="translate(0.000000, 5.400000)">
                            <polygon id="Rectangle-31" fill="#82E5D1" points="10.8 0 68.4 7.2 68.4 73.8 10.8 59.4"></polygon>
                            <polygon id="Rectangle-2" fill="#C4F7EE" points="10.8 0 68.4 7.2 55.8 34.2 0 24.3"></polygon>
                        </g>
                        <g id="Group-6" transform="translate(68.400000, 0.000000)">
                            <polygon id="Rectangle-31" fill="#ADF0E4" transform="translate(23.400000, 39.600000) scale(-1, 1) translate(-23.400000, -39.600000) " points="0 0 46.8 12.6 46.8 79.2 0 61.2"></polygon>
                            <polygon id="Rectangle-2" fill="#E5FAFB" transform="translate(30.600000, 19.800000) scale(1, -1) translate(-30.600000, -19.800000) " points="17.1 0 61.2 17.1 46.8 39.6 0 27"></polygon>
                        </g>
                    </g>
                    <g id="Group-12" transform="translate(31.721831, 23.241686) rotate(30.000000) translate(-31.721831, -23.241686) translate(6.194558, 12.441686)">
                        <ellipse id="Oval-21" fill="#FFD594" cx="25.5272727" cy="14.04" rx="25.5272727" ry="7.56"></ellipse>
                        <path d="M12.7636364,11.904969 C13.2924008,5.24079298 18.7862422,0 25.4855901,0 C32.184938,0 37.6787793,5.24079298 38.2075438,11.904969 C34.6593603,13.9242895 30.2558364,15.12 25.4855901,15.12 C20.7153438,15.12 16.3118199,13.9242895 12.7636318,11.9049664 Z" id="Combined-Shape" fill="#FFC56D"></path>
                        <path d="M13.2613722,9.22029139 C13.0063627,10.0808927 12.8370911,10.9791965 12.7636364,11.904969 C16.3118199,13.9242895 20.7153438,15.12 25.4855901,15.12 C30.2558364,15.12 34.6593603,13.9242895 38.2075483,11.9049664 C38.1356763,10.9992016 37.9720883,10.1197285 37.7262193,9.27613443 C35.0329124,11.5037806 30.5731869,12.96 25.5272727,12.96 C20.4393156,12.96 15.9473562,11.4794128 13.2613722,9.22029139 Z" id="Combined-Shape" fill="#FFB466"></path>
                    </g>
                </g>
            </g>
        </g>
    </g>
</svg>