<?xml version="1.0" encoding="UTF-8" standalone="no"?>
<svg width="186px" height="148px" viewBox="0 0 186 148" version="1.1" xmlns="http://www.w3.org/2000/svg" xmlns:xlink="http://www.w3.org/1999/xlink">
    <!-- Generator: Sketch 44.1 (41455) - http://www.bohemiancoding.com/sketch -->
    <title>Group</title>
    <desc>Created with Sketch.</desc>
    <defs></defs>
    <g id="首页" stroke="none" stroke-width="1" fill="none" fill-rule="evenodd">
        <g id="空页面4" transform="translate(-105.000000, -133.000000)">
            <g id="Group" transform="translate(105.000000, 133.000000)">
                <path d="M152.401241,71.4349454 C151.798298,72.1990366 151.255155,72.9465607 150.77185,73.6776883 L151.904538,74.4264424 C152.366289,73.7279218 152.887147,73.0110678 153.467148,72.276051 L152.401241,71.4349454 Z M149.359524,76.099976 C148.90682,77.0038508 148.554989,77.8814444 148.30469,78.7331286 L149.607396,79.1159764 C149.834056,78.3447291 150.155891,77.5419548 150.573563,76.7080254 L149.359524,76.099976 Z M147.844335,81.6235355 C147.830295,82.6423669 147.986635,83.6159586 148.313694,84.5405634 L149.593768,84.0877647 C149.320853,83.3162258 149.190152,82.5023016 149.202004,81.6422449 L147.844335,81.6235355 Z M149.759714,87.104143 C149.836458,87.1999926 149.915474,87.2950879 149.996758,87.3894293 C150.584059,88.0702369 151.178263,88.6495847 151.784559,89.1359658 L152.6342,88.0768502 C152.094463,87.6438639 151.559508,87.1222841 151.02514,86.5028366 C150.95473,86.4211156 150.886137,86.3385652 150.819627,86.2554977 L149.759714,87.104143 Z M154.358063,90.6243543 C155.314459,90.9776865 156.289166,91.1308535 157.290442,91.1053293 L157.255841,89.7479721 C156.423065,89.7692009 155.619699,89.6429588 154.828605,89.3506959 L154.358063,90.6243543 Z M160.229162,90.5689482 C161.017158,90.316401 161.722386,90.0276428 162.821813,89.5328433 L162.264567,88.2946622 C161.208432,88.7699779 160.541918,89.0428845 159.81476,89.2759336 L160.229162,90.5689482 Z M165.226259,88.5283513 C166.072732,88.23048 166.910287,88.0056894 167.740125,87.8649606 L167.513103,86.5262758 C166.60276,86.6806573 165.691389,86.925259 164.775546,87.2475417 L165.226259,88.5283513 Z M170.347672,87.7216895 C171.202866,87.7821376 172.02432,87.9562959 172.809656,88.2534894 L173.290226,86.9835805 C172.378155,86.6384267 171.427169,86.4368064 170.443407,86.3672705 L170.347672,87.7216895 Z M174.988737,89.4744617 C175.529726,89.8890012 176.046707,90.3793938 176.53838,90.9494812 C176.651788,91.0817782 176.740162,91.188363 176.827869,91.2983184 L177.889343,90.4516263 C177.791272,90.3286766 177.692728,90.2098265 177.567918,90.0642336 C177.014922,89.4230376 176.430333,88.8685151 175.814589,88.3966938 L174.988737,89.4744617 Z M178.1446,93.4654941 C178.482727,94.2605395 178.672053,95.0657493 178.719279,95.8808003 L180.074804,95.8022572 C180.018518,94.8308488 179.793179,93.8724779 179.394093,92.9340951 L178.1446,93.4654941 Z M178.426611,98.4034483 C178.206205,99.1799881 177.867807,99.962108 177.417515,100.744322 L178.594261,101.421732 C179.098252,100.546237 179.480814,99.662043 179.732815,98.7741893 L178.426611,98.4034483 Z M175.889111,102.90552 C175.41326,103.472477 174.884129,104.031944 174.307295,104.579967 L175.242506,105.564343 C175.855442,104.982021 176.419581,104.385538 176.929138,103.778424 L175.889111,102.90552 Z" id="Path-5" fill="#FFE781" fill-rule="nonzero" transform="translate(163.959135, 88.499644) rotate(-254.000000) translate(-163.959135, -88.499644) "></path>
                <path d="M91.9115858,147.941912 C114.177087,147.941912 132.226841,146.435148 132.226841,144.576461 C132.226841,142.717773 114.177087,141.211009 91.9115858,141.211009 C69.646085,141.211009 51.5963303,142.717773 51.5963303,144.576461 C51.5963303,146.435148 69.646085,147.941912 91.9115858,147.941912 Z" id="Oval-14-Copy-2" fill="#D7EEF9"></path>
                <path d="M46.1651376,46.1651376 L151.073394,46.1651376 L151.073394,46.1651376 C151.625679,46.1651376 152.073394,46.6128529 152.073394,47.1651376 L152.073394,121.201835 L152.073394,121.201835 C152.073394,121.75412 151.625679,122.201835 151.073394,122.201835 L47.1651376,122.201835 L47.1651376,122.201835 C46.6128529,122.201835 46.1651376,121.75412 46.1651376,121.201835 L46.1651376,46.1651376 Z" id="Rectangle-34-Copy-2" fill="#D4F1FF"></path>
                <path d="M33.587156,31.2293578 L137.495413,31.2293578 L137.495413,31.2293578 C138.047698,31.2293578 138.495413,31.677073 138.495413,32.2293578 L138.495413,108.981651 L138.495413,108.981651 C138.495413,109.533936 138.047698,109.981651 137.495413,109.981651 L33.587156,109.981651 L33.587156,109.981651 C33.0348712,109.981651 32.587156,109.533936 32.587156,108.981651 L32.587156,32.2293578 L32.587156,32.2293578 C32.587156,31.677073 33.0348712,31.2293578 33.587156,31.2293578 Z" id="Rectangle-34" fill="#91DCFF"></path>
                <path d="M30.8715596,31.2292043 L35.3027523,31.2292043 L35.3027523,109.981498 L30.8715596,109.981498 L30.8715596,109.981498 C30.3192749,109.981498 29.8715596,109.533783 29.8715596,108.981498 L29.8715596,32.2292043 L29.8715596,32.2292043 C29.8715596,31.6769196 30.3192749,31.2292043 30.8715596,31.2292043 Z" id="Rectangle-34" fill="#5BCAFF"></path>
                <polygon id="Rectangle-34" fill="#21B8FF" transform="translate(37.339450, 70.605505) scale(-1, 1) translate(-37.339450, -70.605505) " points="35.3027523 31.2292043 39.3761468 31.2292043 39.3761468 109.981498 35.3027523 109.981498"></polygon>
                <rect id="Rectangle-11" fill="#FED00F" transform="translate(29.523111, 10.092376) rotate(20.000000) translate(-29.523111, -10.092376) " x="26.2635023" y="0.538694434" width="6.78899083" height="19.0091743"></rect>
                <rect id="Rectangle-11-Copy-3" fill="#8A92FF" transform="translate(181.038092, 90.206135) rotate(110.000000) translate(-181.038092, -90.206135) " x="179.082326" y="86.1116999" width="4.0733945" height="8.14678899"></rect>
                <circle id="Oval-8" fill="#0ED0FA" cx="167.688073" cy="52.2752294" r="3.39449541"></circle>
                <ellipse id="Oval-8" fill="#FF6392" cx="184.46843" cy="75.8466055" rx="1.16567772" ry="1.16770644"></ellipse>
                <circle id="Oval-8-Copy-3" fill="#82E5D1" cx="14.9357798" cy="71.9633028" r="2.71559633"></circle>
                <rect id="Rectangle-13" fill="#FF6393" transform="translate(8.519090, 29.990008) rotate(-39.000000) translate(-8.519090, -29.990008) " x="5.80349393" y="19.8065216" width="5.43119266" height="20.3669725"></rect>
                <path d="M118.712737,90.1458512 L118.712737,102.148732 C118.712737,102.701017 118.265022,103.148732 117.712737,103.148732 L114.673331,103.148732 C114.121046,103.148732 113.673331,102.701017 113.673331,102.148732 L113.673331,90.1458512 L106.954121,91.3696517 L116.193034,69.4942163 L125.431947,91.3696517 L118.712737,90.1458512 Z" id="Combined-Shape" fill="#00ADFF" transform="translate(116.193034, 86.321474) rotate(-45.000000) translate(-116.193034, -86.321474) "></path>
                <path d="M52.9541284,40.733945 L124.917431,40.733945 L124.917431,40.733945 C125.667322,40.733945 126.275229,41.3418519 126.275229,42.0917431 L126.275229,42.0917431 L126.275229,42.0917431 C126.275229,42.8416343 125.667322,43.4495413 124.917431,43.4495413 L52.9541284,43.4495413 L52.9541284,43.4495413 C52.2042372,43.4495413 51.5963303,42.8416343 51.5963303,42.0917431 L51.5963303,42.0917431 L51.5963303,42.0917431 C51.5963303,41.3418519 52.2042372,40.733945 52.9541284,40.733945 Z" id="Rectangle-36" fill="#38BBF9"></path>
                <polygon id="Rectangle-38" fill="#FFFFFF" points="51.5963303 52.9541284 118.12844 52.9541284 118.12844 58.3853211 51.5963303 58.3853211"></polygon>
                <polygon id="Rectangle-38-Copy" fill="#FFFFFF" points="51.5963303 65.1743119 81.4678899 65.1743119 81.4678899 70.6055046 51.5963303 70.6055046"></polygon>
            </g>
        </g>
    </g>
</svg>