<?xml version="1.0" encoding="UTF-8" standalone="no"?>
<svg width="194px" height="122px" viewBox="0 0 194 122" version="1.1" xmlns="http://www.w3.org/2000/svg" xmlns:xlink="http://www.w3.org/1999/xlink">
    <!-- Generator: Sketch 44.1 (41455) - http://www.bohemiancoding.com/sketch -->
    <title>Group 16</title>
    <desc>Created with Sketch.</desc>
    <defs></defs>
    <g id="首页" stroke="none" stroke-width="1" fill="none" fill-rule="evenodd">
        <g id="空页面3" transform="translate(-85.000000, -122.000000)">
            <g id="Group-18-Copy" transform="translate(85.000000, 122.000000)">
                <g id="Group-16">
                    <path d="M93.5182959,104.14204 C97.1503628,106.202056 100.845677,107.25 104.57219,107.25 C107.14844,107.25 108.582498,106.761983 110.77749,105.51704 C112.218945,104.699483 112.805134,104.5 114.269381,104.5 C115.733628,104.5 116.319817,104.699483 117.761272,105.51704 C119.956263,106.761983 121.390322,107.25 123.966571,107.25 C126.542821,107.25 127.976879,106.761983 130.171871,105.51704 C131.613326,104.699483 132.199515,104.5 133.663762,104.5 C135.128009,104.5 135.714198,104.699483 137.155653,105.51704 C139.350644,106.761983 140.784703,107.25 143.360952,107.25 C145.937202,107.25 147.37126,106.761983 149.566252,105.51704 C151.007707,104.699483 151.593896,104.5 153.058143,104.5 C154.52239,104.5 155.108579,104.699483 156.550034,105.51704 C158.745025,106.761983 160.179084,107.25 162.755333,107.25 C165.331583,107.25 166.765641,106.761983 168.960633,105.51704 C170.402088,104.699483 170.988277,104.5 172.452524,104.5 C173.91677,104.5 174.50296,104.699483 175.944415,105.51704 C178.139406,106.761983 179.573465,107.25 182.149714,107.25 C185.876227,107.25 189.571542,106.202056 193.203609,104.14204 L190.490201,99.3579603 C187.657474,100.964611 184.887995,101.75 182.149714,101.75 C180.685468,101.75 180.099278,101.550517 178.657823,100.73296 C176.462832,99.488017 175.028773,99 172.452524,99 C169.876274,99 168.442216,99.488017 166.247224,100.73296 C164.805769,101.550517 164.21958,101.75 162.755333,101.75 C161.291087,101.75 160.704897,101.550517 159.263442,100.73296 C157.068451,99.488017 155.634392,99 153.058143,99 C150.481894,99 149.047835,99.488017 146.852843,100.73296 C145.411388,101.550517 144.825199,101.75 143.360952,101.75 C141.896706,101.75 141.310516,101.550517 139.869061,100.73296 C137.67407,99.488017 136.240011,99 133.663762,99 C131.087513,99 129.653454,99.488017 127.458463,100.73296 C126.017007,101.550517 125.430818,101.75 123.966571,101.75 C122.502325,101.75 121.916135,101.550517 120.47468,100.73296 C118.279689,99.488017 116.84563,99 114.269381,99 C111.693132,99 110.259073,99.488017 108.064082,100.73296 C106.622627,101.550517 106.036437,101.75 104.57219,101.75 C101.83391,101.75 99.0644309,100.964611 96.2317041,99.3579603 L93.5182959,104.14204 Z" id="Path-71" fill="#EAEBFF" fill-rule="nonzero"></path>
                    <path d="M0.0182958732,46.3920397 C3.65036278,48.4520557 7.34567735,49.5 11.0721905,49.5 C13.6484398,49.5 15.0824984,49.011983 17.2774898,47.7670397 C18.7189449,46.949483 19.3051343,46.75 20.7693809,46.75 C22.2336276,46.75 22.819817,46.949483 24.2612721,47.7670397 C26.4562634,49.011983 27.8903221,49.5 30.4665714,49.5 C33.0428208,49.5 34.4768794,49.011983 36.6718708,47.7670397 C38.1133258,46.949483 38.6995152,46.75 40.1637619,46.75 C41.6280086,46.75 42.214198,46.949483 43.655653,47.7670397 C45.8506444,49.011983 47.284703,49.5 49.8609524,49.5 C52.4372017,49.5 53.8712603,49.011983 56.0662517,47.7670397 C57.5077068,46.949483 58.0938961,46.75 59.5581428,46.75 C61.0223895,46.75 61.6085789,46.949483 63.0500339,47.7670397 C65.2450253,49.011983 66.679084,49.5 69.2553333,49.5 L69.2553333,44 C67.7910866,44 67.2048972,43.800517 65.7634422,42.9829603 C63.5684508,41.738017 62.1343922,41.25 59.5581428,41.25 C56.9818935,41.25 55.5478349,41.738017 53.3528435,42.9829603 C51.9113884,43.800517 51.3251991,44 49.8609524,44 C48.3967057,44 47.8105163,43.800517 46.3690613,42.9829603 C44.1740699,41.738017 42.7400112,41.25 40.1637619,41.25 C37.5875126,41.25 36.1534539,41.738017 33.9584625,42.9829603 C32.5170075,43.800517 31.9308181,44 30.4665714,44 C29.0023247,44 28.4161354,43.800517 26.9746803,42.9829603 C24.7796889,41.738017 23.3456303,41.25 20.7693809,41.25 C18.1931316,41.25 16.759073,41.738017 14.5640816,42.9829603 C13.1226265,43.800517 12.5364372,44 11.0721905,44 C8.33390995,44 5.56443087,43.2146109 2.73170413,41.6079603 L0.0182958732,46.3920397 Z" id="Path-71-Copy" fill="#EAEBFF" fill-rule="nonzero"></path>
                    <g id="Group-15" transform="translate(102.331815, 79.435783) rotate(-30.000000) translate(-102.331815, -79.435783) translate(21.206815, 40.935783)">
                        <polygon id="Rectangle-51" fill="#9FA7F5" points="161.042533 14.7745443 125.583626 76.8276303 75.0922664 76.8276303 70.218952 60.351199 47.6221105 66.2062407 87.9085385 31.026543"></polygon>
                        <path d="M125.583626,14.7745443 L107.585428,46.2713908 L101.351362,46.5024785 L74.8103436,61.032086 C64.0475117,67.612048 58.2081703,71.2480122 57.2923196,71.9399785 C56.3764689,72.6319448 55.247089,74.261162 53.9041799,76.8276303 L-1.30739863e-12,76.8276303 L50.9721778,30.2878158 L125.583626,14.7745443 Z" id="Rectangle-51" fill="#818BEB" transform="translate(62.791813, 45.801087) scale(-1, 1) translate(-62.791813, -45.801087) "></path>
                        <polygon id="Rectangle-10" fill="#D7DAFF" points="81.2599936 0 112.286537 42.8461784 81.2599936 56.1432683"></polygon>
                        <polygon id="Rectangle-10" fill="#C7CBFF" transform="translate(65.746722, 28.071634) scale(-1, 1) translate(-65.746722, -28.071634) " points="50.2334506 0 81.2599936 42.8461784 50.2334506 56.1432683"></polygon>
                        <polygon id="Rectangle-51" fill="#EAECFF" points="161.042533 14.7745443 125.583626 76.8276303 73.5577315 76.8276303 59.4355117 64.9803665"></polygon>
                        <path d="M64.0067359,76.8276303 L125.583626,76.8276303 L-1.30739863e-12,14.7745443 L21.4099384,52.2419366 C22.438167,52.8273897 22.9713929,52.896537 24.4032175,52.7959519 C26.6230091,52.6400124 27.9105981,52.8198888 29.7853637,53.9022852 C31.6601292,54.9846816 32.4597013,56.0098282 33.4345495,58.0101939 C34.0747342,59.3238378 34.4015693,59.7428793 35.467118,60.3580741 C36.5326668,60.973269 37.0589849,61.0467957 38.5167262,60.94439 C40.7365178,60.7884505 42.0241068,60.9683269 43.8988724,62.0507233 C45.773638,63.1331197 46.57321,64.1582663 47.5480582,66.1586319 C48.1882429,67.4722758 48.515078,67.8913173 49.5806268,68.5065122 C50.6461755,69.121707 51.1724936,69.1952338 52.630235,69.092828 C54.8500265,68.9368885 56.1376156,69.1167649 58.0123811,70.1991613 C59.8871467,71.2815577 60.6867188,72.3067044 61.661567,74.30707 C62.3017516,75.6207139 62.6285867,76.0397554 63.6941355,76.6549502 C63.8034846,76.718083 63.907155,76.7755113 64.0067359,76.8276303 Z" id="Combined-Shape" fill="#A3ABFF"></path>
                        <path d="M64.0445117,76.9319212 L80.5212664,76.9319212 L125.583626,76.9319212 L80.5212664,54.6658139 L51.2234756,69.1423693 C51.5770136,69.1688381 51.9828702,69.1548289 52.5109666,69.1177303 C54.7307581,68.9617908 56.0183472,69.1416672 57.8931127,70.2240636 C59.7678783,71.30646 60.5674504,72.3316067 61.5422986,74.3319723 C62.1824833,75.6456162 62.5093183,76.0646577 63.5748671,76.6798525 C63.7429028,76.776868 63.8975285,76.8604128 64.0445117,76.9319212 Z" id="Combined-Shape" fill="#B6BCFF"></path>
                    </g>
                    <circle id="Oval-22-Copy-2" fill="#A0DDFF" cx="48.8125" cy="3.4375" r="3.4375"></circle>
                    <circle id="Oval-22-Copy-4" fill="#82E5D1" cx="176.6875" cy="94.1875" r="2.0625"></circle>
                    <circle id="Oval-22-Copy-3" fill="#FF6392" cx="108.625" cy="17.875" r="2.75"></circle>
                    <rect id="Rectangle-11" fill="#FED00F" transform="translate(122.280821, 21.068020) rotate(20.000000) translate(-122.280821, -21.068020) " x="119.530821" y="12.8180195" width="5.5" height="16.5"></rect>
                    <rect id="Rectangle-11-Copy-2" fill="#FF6392" transform="translate(21.913638, 74.427443) rotate(-30.000000) translate(-21.913638, -74.427443) " x="19.163638" y="67.5524426" width="5.5" height="13.75"></rect>
                </g>
            </g>
        </g>
    </g>
</svg>