<?xml version="1.0" encoding="UTF-8" standalone="no"?>
<svg width="203px" height="167px" viewBox="0 0 203 167" version="1.1" xmlns="http://www.w3.org/2000/svg" xmlns:xlink="http://www.w3.org/1999/xlink">
    <!-- Generator: Sketch 44.1 (41455) - http://www.bohemiancoding.com/sketch -->
    <title>Group 13</title>
    <desc>Created with Sketch.</desc>
    <defs></defs>
    <g id="首页" stroke="none" stroke-width="1" fill="none" fill-rule="evenodd">
        <g id="空页面1" transform="translate(-99.000000, -84.000000)">
            <g id="Group-9" transform="translate(99.000000, 70.000000)">
                <g id="Group-5">
                    <g id="Group-13">
                        <ellipse id="Oval-14" fill="#CFE8FF" cx="93" cy="177.5" rx="36" ry="3.5"></ellipse>
                        <rect id="Rectangle-11" fill="#B45AEF" transform="translate(26.500000, 118.000000) rotate(-25.000000) translate(-26.500000, -118.000000) " x="23" y="113" width="7" height="10"></rect>
                        <rect id="Rectangle-11-Copy" fill="#FED00F" transform="translate(172.500000, 128.500000) rotate(70.000000) translate(-172.500000, -128.500000) " x="167" y="126" width="11" height="5"></rect>
                        <circle id="Oval-8" fill="#0ED0FA" cx="36.5" cy="64.5" r="2.5"></circle>
                        <circle id="Oval-8-Copy" fill="#FF6392" cx="145.5" cy="137.5" r="3.5"></circle>
                        <circle id="Oval-8" fill="#0ED0FA" cx="122.5" cy="154.5" r="1.5"></circle>
                        <rect id="Rectangle-13" fill="#FF6393" transform="translate(38.000000, 99.500000) rotate(75.000000) translate(-38.000000, -99.500000) " x="36" y="94" width="4" height="11"></rect>
                        <g id="Group-2" transform="translate(107.500000, 88.000000) rotate(20.000000) translate(-107.500000, -88.000000) translate(56.000000, 14.000000)">
                            <path d="M23.3718988,98.2302332 L23,97.7290271 L24.0227216,97 L24.3946204,97.5012061 L44.6281012,124.769767 L45,125.270973 L43.9772784,126 L43.6053796,125.498794 L23.3718988,98.2302332 Z M52,95.6086957 L52,95 L53,95 L53,95.6086957 L53,122.391304 L53,123 L52,123 L52,122.391304 L52,95.6086957 Z M34.2101997,88.0144132 L34,87.4291748 L35.1465436,87 L35.3567432,87.5852384 L48.7898003,124.985587 L49,125.570825 L47.8534564,126 L47.6432568,125.414762 L34.2101997,88.0144132 Z M66.6740073,87.6086299 L66.8125438,87 L68,87.2840273 L67.8614634,87.8926571 L59.3259927,125.39137 L59.1874562,126 L58,125.715973 L58.1385366,125.107343 L66.6740073,87.6086299 Z M80.6408622,96.5179279 L80.9644664,96 L82,96.6474099 L81.6763958,97.1653379 L63.3591378,126.482072 L63.0355336,127 L62,126.35259 L62.3236042,125.834662 L80.6408622,96.5179279 Z" id="Combined-Shape" fill="#D8D8D8"></path>
                            <path d="M81.2715562,97.8347915 C84.4913916,94.0413821 87.4376255,90.2158804 90.0953202,86.9148382 C97.3752203,77.8726941 103,61.1934078 103,48.5901639 C103,19.6359569 79.9426646,0 51.5,0 C23.0573354,0 0,19.6359569 0,48.5901639 C0,61.2141862 5.63919646,77.9108232 12.9407098,86.9595398 C16.1420512,90.9269409 19.7601187,95.6560065 23.7692799,100.174634 C26.0706846,93.7190818 33.0054923,89 37.26,89 C41.4879028,89 50.028121,93.6602463 52.9737258,100.053735 C55.7778171,93.6602463 63.9745933,89 68.74,89 C72.9343014,89 78.4966295,92.6101745 81.2715562,97.8347915 Z" id="Combined-Shape" fill="#9DD2FF"></path>
                            <path d="M59.6758342,1.61285872 C84.2648391,5.14100114 103,23.6162275 103,49.5901639 C103,62.1934078 97.3206108,78.8726941 89.970032,87.9148382 C87.4028636,91.0727809 84.5690662,94.7106982 81.4818449,98.3413252 C78.7203334,92.8449581 72.7481694,89 68.28,89 C68.0829988,89 67.8803167,89.0074743 67.6725387,89.0222349 C72.6859782,74.1743761 77.0374095,57.5125671 75.7815179,42.0760256 C74.5106991,26.4560103 72.7572902,12.0996689 59.6758342,1.61285872 Z" id="Combined-Shape" fill="#BDE1FF"></path>
                            <path d="M0.675834234,1.61285872 C25.2648391,5.14100114 44,23.6162275 44,49.5901639 C44,62.1934078 38.3206108,78.8726941 30.970032,87.9148382 C28.0388679,91.5205418 24.7601044,95.7519794 21.1533979,99.8838433 C19.0325554,94.1484017 13.3262303,89.8425254 8.64278393,89.1103129 C13.6687435,74.2402891 18.0398934,57.5430979 16.7815179,42.0760256 C15.5106991,26.4560103 13.7572902,12.0996689 0.675834234,1.61285872 Z" id="Combined-Shape" fill="#69BAFF" transform="translate(22.000000, 50.500000) scale(-1, 1) translate(-22.000000, -50.500000) "></path>
                            <rect id="Rectangle-40" fill="#FFD56C" x="35" y="124" width="35" height="5"></rect>
                            <rect id="Rectangle-40" fill="#FFB000" transform="translate(52.500000, 128.500000) scale(1, -1) translate(-52.500000, -128.500000) " x="35" y="127" width="35" height="2"></rect>
                            <path d="M36,130 L69,130 L69,145 L69,145 C69,146.104569 68.1045695,147 67,147 L38,147 L38,147 C36.8954305,147 36,146.104569 36,145 L36,130 Z" id="Rectangle-3" fill="#FFD56C"></path>
                            <path d="M39,135 L66.3636364,135" id="Path-70" stroke="#FFB000" stroke-linecap="round" stroke-linejoin="bevel" stroke-dasharray="2"></path>
                        </g>
                        <path d="M112.427882,116 C107.49211,122.381114 106.682776,127.533062 109.999883,131.455845 C114.975543,137.340019 119.717228,134.502276 123.115224,132.988949 C126.513219,131.475622 132.269021,129.897507 136.661748,135.129021 C141.054474,140.360534 138.671265,145.81983 134.348062,150.009951 C130.02486,154.200072 127.786715,160.117663 132.224231,165" id="Path-5" stroke="#69B9FF" stroke-dasharray="2,2,2" transform="translate(123.500000, 140.500000) rotate(-10.000000) translate(-123.500000, -140.500000) "></path>
                        <path d="M193.034314,74 C194.037449,74.6334286 195.225916,75 196.5,75 C200.089851,75 203,72.0898509 203,68.5 C203,64.9101491 200.089851,62 196.5,62 C195.59848,62 194.739826,62.1835326 193.959364,62.5152723 C193.986281,62.1803994 194,61.8418018 194,61.5 C194,54.5964406 188.403559,49 181.5,49 C176.072046,49 171.452148,52.4596968 169.72517,57.2942259 C169.015933,57.1023644 168.269921,57 167.5,57 C162.80558,57 159,60.8055796 159,65.5 C159,70.026573 162.53831,73.7267293 167,73.9855382 L167,74 L193.034314,74 Z" id="Combined-Shape" fill="#E4F3FF"></path>
                        <path d="M24,40 C26.209139,40 28,38.209139 28,36 C28,33.790861 26.209139,32 24,32 C23.6543488,32 23.3189375,32.0438422 22.9990237,32.1262689 C22.9996738,32.0842571 23,32.0421666 23,32 C23,27.581722 19.418278,24 15,24 C11.5087301,24 8.53980322,26.2364163 7.44765934,29.3548089 C6.84223187,29.1255087 6.185773,29 5.5,29 C2.46243388,29 0,31.4624339 0,34.5 C0,37.3690213 2.19674999,39.7249641 5,39.9775785 L5,40 L24,40 Z" id="Combined-Shape-Copy-3" fill="#E4F3FF"></path>
                    </g>
                </g>
            </g>
        </g>
    </g>
</svg>