<?xml version="1.0" encoding="UTF-8" standalone="no"?>
<svg width="137px" height="32px" viewBox="0 0 137 32" version="1.1" xmlns="http://www.w3.org/2000/svg" xmlns:xlink="http://www.w3.org/1999/xlink">
    <!-- Generator: Sketch 3.8.2 (29753) - http://www.bohemiancoding.com/sketch -->
    <title>无数据提示</title>
    <desc>Created with Sketch.</desc>
    <defs></defs>
    <g id="审批模块" stroke="none" stroke-width="1" fill="none" fill-rule="evenodd">
        <g id="审批-列表页-无数据提示" transform="translate(-467.000000, -406.000000)" fill="#ACB7BF">
            <g id="无数据提示" transform="translate(467.000000, 405.000000)">
                <text id="暂无数据" font-family="PingFangSC-Regular, PingFang SC" font-size="24" font-weight="normal">
                    <tspan x="42" y="25">暂无数据</tspan>
                </text>
                <g id="Group-2-Copy-3" transform="translate(0.000000, 1.000000)">
                    <path d="M16,32 C24.836556,32 32,24.836556 32,16 C32,7.163444 24.836556,0 16,0 C7.163444,0 0,7.163444 0,16 C0,24.836556 7.163444,32 16,32 Z M16,30.2222222 C23.8547164,30.2222222 30.2222222,23.8547164 30.2222222,16 C30.2222222,8.14528356 23.8547164,1.77777778 16,1.77777778 C8.14528356,1.77777778 1.77777778,8.14528356 1.77777778,16 C1.77777778,23.8547164 8.14528356,30.2222222 16,30.2222222 Z" id="Combined-Shape"></path>
                    <path d="M9.52334213,11.6456146 C7.391421,11.6456146 7.01516756,12.5953265 5.33333333,13.75583 L6.38679972,14.9728274 C6.38679972,14.9728274 8.24590164,14.2130544 9.65404171,14.1922198 C11.0621818,14.1713852 12.2819242,14.8197187 12.3648452,14.8843771 L13.4190665,13.7615814 C12.6580336,13.1299619 11.6552633,11.6456146 9.52334213,11.6456146 Z" id="Path-184"></path>
                    <circle id="Oval-70-Copy" cx="22.2222222" cy="13.3333333" r="0.888888889"></circle>
                    <path d="M22.2222222,16 L22.2222222,16 C23.6949816,16 24.8888889,14.8060927 24.8888889,13.3333333 C24.8888889,11.860574 23.6949816,10.6666667 22.2222222,10.6666667 C20.7494629,10.6666667 19.5555556,11.860574 19.5555556,13.3333333 C19.5555556,14.8060927 20.7494629,16 22.2222222,16 L22.2222222,16 Z M22.2222222,17.7777778 L22.2222222,17.7777778 C19.7676233,17.7777778 17.7777778,15.7879322 17.7777778,13.3333333 C17.7777778,10.8787344 19.7676233,8.88888889 22.2222222,8.88888889 C24.6768211,8.88888889 26.6666667,10.8787344 26.6666667,13.3333333 C26.6666667,15.7879322 24.6768211,17.7777778 22.2222222,17.7777778 L22.2222222,17.7777778 Z" id="Oval-68-Copy"></path>
                    <path d="M10.6626519,26.6618926 C9.38509115,25.9171009 7.13704799,23.4732773 7.11111111,21.3333333 C7.155035,19.5525842 11.0908022,21.4510165 16,21.4510165 C20.9091978,21.4510165 24.9286736,19.6144603 24.8888889,21.3333333 C24.9131009,23.560864 22.7375217,25.9907771 21.3333333,26.6618926 L10.6626519,26.6618926 Z M21.3333333,26.6666667 L21.3333333,24.7111003 C22.6072045,23.6134983 23.1012263,22.4298595 22.9254849,22.4536272 C22.8292881,22.4666372 20.9877852,22.7603895 20.8605185,22.780619 C18.9812342,23.0793389 17.5431857,23.2287943 16,23.2287943 C14.4536685,23.2287943 13.0199283,23.0741609 11.1506386,22.765122 C11.0293699,22.7450733 10.0248481,22.6246745 9.07409631,22.4065216 C9.34786164,23.249098 9.91204839,24.0518782 10.6831335,24.7287787 L10.6831335,26.6666666 L21.3333333,26.6666667 Z" id="Oval-77"></path>
                    <path d="M10.6666667,23.1111111 L10.6666667,23.1111111 L12.4444444,21.3333333 L12.4444444,26.6666667 C12.4444444,28.6267309 14.0386982,30.2222222 16,30.2222222 C17.9600642,30.2222222 19.5555556,28.6279684 19.5555556,26.6666667 L19.5555556,21.3333333 L21.3333333,23.1111111 L10.6666667,23.1111111 Z M10.6666667,21.3333333 L21.3333333,21.3333333 L21.3333333,26.6666667 C21.3333333,29.6121853 18.9395251,32 16,32 C13.0544813,32 10.6666667,29.6061918 10.6666667,26.6666667 L10.6666667,21.3333333 L10.6666667,21.3333333 Z" id="Rectangle-470"></path>
                </g>
            </g>
        </g>
    </g>
</svg>