<?xml version="1.0" encoding="UTF-8" standalone="no"?>
<svg width="24px" height="24px" viewBox="0 0 24 24" version="1.1" xmlns="http://www.w3.org/2000/svg" xmlns:xlink="http://www.w3.org/1999/xlink">
    <!-- Generator: Sketch 43.1 (39012) - http://www.bohemiancoding.com/sketch -->
    <title>ocean</title>
    <desc>Created with Sketch.</desc>
    <defs></defs>
    <g id="Page-1" stroke="none" stroke-width="1" fill="none" fill-rule="evenodd">
        <g id="ocean" fill="#9DA1A3">
            <path d="M2.11769671,11.3851466 L9.963097,13.4772534 C12.1086849,14.0494102 13.2488819,12.8141768 12.5247612,10.7222727 L9.68181329,2.50931209 C10.7288402,2.17844888 11.8435806,2 13,2 C19.0751322,2 24,6.92486775 24,13 C24,19.0751322 19.0751322,24 13,24 C6.92486775,24 2,19.0751322 2,13 C2,12.4514095 2.0401587,11.9121986 2.11769671,11.3851466 Z M7.10608015,1 L10.4140012,10.5562164 C10.5958043,11.0814253 10.3087334,11.3913375 9.7708509,11.2479022 L0,8.64234197 C0.950976877,5.06696884 3.63936149,2.19983028 7.10608015,1 Z"></path>
        </g>
    </g>
</svg>