<?xml version="1.0" encoding="UTF-8" standalone="no"?>
<svg width="18px" height="14px" viewBox="0 0 18 14" version="1.1" xmlns="http://www.w3.org/2000/svg" xmlns:xlink="http://www.w3.org/1999/xlink">
    <!-- Generator: Sketch 3.7.1 (28215) - http://www.bohemiancoding.com/sketch -->
    <title>Group 3</title>
    <desc>Created with Sketch.</desc>
    <defs></defs>
    <g id="同事页" stroke="none" stroke-width="1" fill="none" fill-rule="evenodd">
        <g id="同事页-组织架构-竖" transform="translate(-978.000000, -80.000000)" fill="#66757F">
            <g id="筛选内容" transform="translate(70.000000, 70.000000)">
                <g id="全屏按钮" transform="translate(900.000000, 0.000000)">
                    <g id="Group-3" transform="translate(8.000000, 10.000000)">
                        <path d="M14,1 L15.9991283,1 C16.5518945,1 17,1.45576096 17,2.00247329 L17,4 L18,4 L18,10 L17,10 L17,11.9975267 C17,12.5511774 16.5553691,13 15.9991283,13 L14,13 L14,14 L4,14 L4,13 L2.00087166,13 C1.4481055,13 1,12.544239 1,11.9975267 L1,10 L0,10 L0,4 L1,4 L1,2.00247329 C1,1.44882258 1.44463086,1 2.00087166,1 L4,1 L4,0 L14,0 L14,1 Z M0,2.00585866 C0,0.898053512 0.892622799,0 1.99508929,0 L16.0049107,0 C17.1067681,0 18,0.897060126 18,2.00585866 L18,11.9941413 C18,13.1019465 17.1073772,14 16.0049107,14 L1.99508929,14 C0.893231902,14 0,13.1029399 0,11.9941413 L0,2.00585866 Z" id="Combined-Shape"></path>
                        <path d="M3,3.99703014 C3,3.4463856 3.45576096,3 4.00247329,3 L13.9975267,3 C14.5511774,3 15,3.45303631 15,3.99703014 L15,10.0029699 C15,10.5536144 14.544239,11 13.9975267,11 L4.00247329,11 C3.44882258,11 3,10.5469637 3,10.0029699 L3,3.99703014 Z M4,4.99077797 C4,4.44358641 4.4556644,4 4.99539757,4 L13.0046024,4 C13.5543453,4 14,4.45097518 14,4.99077797 L14,9.00922203 C14,9.55641359 13.5443356,10 13.0046024,10 L4.99539757,10 C4.44565467,10 4,9.54902482 4,9.00922203 L4,4.99077797 Z" id="Combined-Shape"></path>
                    </g>
                </g>
            </g>
        </g>
    </g>
</svg>