<?xml version="1.0" encoding="UTF-8"?>
<svg width="40px" height="40px" viewBox="0 0 40 40" version="1.1" xmlns="http://www.w3.org/2000/svg" xmlns:xlink="http://www.w3.org/1999/xlink">
    <!-- Generator: Sketch 43.1 (39012) - http://www.bohemiancoding.com/sketch -->
    <title>Group 9</title>
    <desc>Created with Sketch.</desc>
    <defs></defs>
    <g id="工作页" stroke="none" stroke-width="1" fill="none" fill-rule="evenodd">
        <g id="工作页-薪酬假勤" transform="translate(-124.000000, -312.000000)">
            <g id="Group-15" transform="translate(12.000000, 286.000000)">
                <g id="Group-5" transform="translate(0.000000, 12.000000)">
                    <g id="Group-2-Copy" transform="translate(88.000000, 0.000000)">
                        <g id="Group-9" transform="translate(24.000000, 14.000000)">
                            <rect id="Rectangle-2" fill="#FF9500" x="2.77555756e-15" y="0" width="40" height="40" rx="10"></rect>
                            <path d="M13.677649,24.1450226 C11.9272634,21.1208467 11,17.8761207 11,16 C11,11.581722 15.0294373,8 20,8 C24.9705627,8 29,11.581722 29,16 C29,17.8377044 28.1040834,21.1776012 26.4016047,24.1450226 C24.0109201,28.311987 20.5220109,32 20,32 C19.4857601,32 16.0494343,28.2428029 13.677649,24.1450226 Z M20,19.2 C21.9882251,19.2 23.6,17.7673112 23.6,16 C23.6,14.2326888 21.9882251,12.8 20,12.8 C18.0117749,12.8 16.4,14.2326888 16.4,16 C16.4,17.7673112 18.0117749,19.2 20,19.2 Z" id="签到" fill="#FFFFFF"></path>
                        </g>
                    </g>
                </g>
            </g>
        </g>
    </g>
</svg>