<?xml version="1.0" encoding="UTF-8" standalone="no"?>
<svg width="24px" height="24px" viewBox="0 0 24 24" version="1.1" xmlns="http://www.w3.org/2000/svg" xmlns:xlink="http://www.w3.org/1999/xlink">
    <!-- Generator: Sketch 43.1 (39012) - http://www.bohemiancoding.com/sketch -->
    <title>qiandao</title>
    <desc>Created with Sketch.</desc>
    <defs></defs>
    <g id="Page-1" stroke="none" stroke-width="1" fill="none" fill-rule="evenodd">
        <g id="qiandao" fill="#9DA1A3">
            <path d="M5.67764904,16.1450226 C3.92726341,13.1208467 3,9.87612073 3,8 C3,3.581722 7.02943725,0 12,0 C16.9705627,0 21,3.581722 21,8 C21,9.83770445 20.1040834,13.1776012 18.4016047,16.1450226 C16.0109201,20.311987 12.5220109,24 12,24 C11.4857601,24 8.04943434,20.2428029 5.67764904,16.1450226 Z M12,11.2 C13.9882251,11.2 15.6,9.7673112 15.6,8 C15.6,6.2326888 13.9882251,4.8 12,4.8 C10.0117749,4.8 8.4,6.2326888 8.4,8 C8.4,9.7673112 10.0117749,11.2 12,11.2 Z" id="签到"></path>
        </g>
    </g>
</svg>