<?xml version="1.0" encoding="UTF-8"?>
<svg width="40px" height="40px" viewBox="0 0 40 40" version="1.1" xmlns="http://www.w3.org/2000/svg" xmlns:xlink="http://www.w3.org/1999/xlink">
    <!-- Generator: Sketch 43.1 (39012) - http://www.bohemiancoding.com/sketch -->
    <title>Group 20</title>
    <desc>Created with Sketch.</desc>
    <defs></defs>
    <g id="工作页" stroke="none" stroke-width="1" fill="none" fill-rule="evenodd">
        <g id="工作页-薪酬假勤" transform="translate(-212.000000, -312.000000)">
            <g id="Group-15" transform="translate(12.000000, 286.000000)">
                <g id="Group-5" transform="translate(0.000000, 12.000000)">
                    <g id="Group-2-Copy-2" transform="translate(176.000000, 0.000000)">
                        <g id="Group-20" transform="translate(24.000000, 14.000000)">
                            <rect id="Rectangle-2" fill="#FFC300" x="2.77555756e-15" y="0" width="40" height="40" rx="10"></rect>
                            <path d="M19.2321824,21.9572932 L17.6402194,20.3650084 C17.1507402,19.8754303 16.3603564,19.8796431 15.8702645,20.369834 C15.3767558,20.8634425 15.3780126,21.6526209 15.8654399,22.1401467 L18.3597806,24.6349916 C18.608855,24.8841164 18.9358441,25.0053817 19.2615339,24.9998169 C19.5972188,25.0054528 19.9338634,24.8809745 20.1859323,24.6286806 L25.6254456,19.1843136 C26.1241582,18.6851559 26.1264413,17.8781465 25.6227558,17.3740115 C25.1225576,16.873367 24.3067569,16.8781905 23.8140677,17.3713194 L19.2321824,21.9572932 Z M14.2667221,11 C14.0970531,10.7065768 14,10.3654054 14,10 C14,8.8954305 14.9019504,8 16.0085302,8 L23.9914698,8 C25.1007504,8 26,8.88772964 26,10 C26,10.3642871 25.9018966,10.7058266 25.7307038,11 L27.0057979,11 C28.6594501,11 30,12.3455902 30,14.008788 L30,28.991212 C30,30.6529197 28.656688,32 27.0057979,32 L12.9942021,32 C11.3405499,32 10,30.6544098 10,28.991212 L10,14.008788 C10,12.3470803 11.343312,11 12.9942021,11 L14.2667221,11 Z" id="请假-" fill="#FFFFFF"></path>
                        </g>
                    </g>
                </g>
            </g>
        </g>
    </g>
</svg>