<?xml version="1.0" encoding="UTF-8" standalone="no"?>
<svg width="16px" height="16px" viewBox="0 0 16 16" version="1.1" xmlns="http://www.w3.org/2000/svg" xmlns:xlink="http://www.w3.org/1999/xlink">
    <!-- Generator: Sketch 3.7.1 (28215) - http://www.bohemiancoding.com/sketch -->
    <title>icons-sys-shouqi-disabled</title>
    <desc>Created with Sketch.</desc>
    <defs></defs>
    <g id="Page-1" stroke="none" stroke-width="1" fill="none" fill-rule="evenodd">
        <g id="系统图标" transform="translate(-238.000000, -131.000000)" fill="#E4EBF0">
            <g id="disabled" transform="translate(118.000000, 131.000000)">
                <g id="icons-sys-shouqi-disabled" transform="translate(120.000000, 0.000000)">
                    <path d="M1,1.99406028 L1,1.99406028 L1,14.0059397 C1,14.5539384 1.44579254,15 1.99406028,15 L14.0059397,15 C14.5539384,15 15,14.5542075 15,14.0059397 L15,1.99406028 C15,1.44606163 14.5542075,1 14.0059397,1 L1.99406028,1 C1.44606163,1 1,1.44579254 1,1.99406028 L1,1.99406028 Z M0,1.99406028 C0,0.892771196 0.894513756,0 1.99406028,0 L14.0059397,0 C15.1072288,0 16,0.894513756 16,1.99406028 L16,14.0059397 C16,15.1072288 15.1054862,16 14.0059397,16 L1.99406028,16 C0.892771196,16 0,15.1054862 0,14.0059397 L0,1.99406028 L0,1.99406028 Z" id="Rectangle-41"></path>
                    <path d="M7,7 L3.99539757,7 C3.4556644,7 3,7.44771525 3,8 C3,8.55613518 3.44565467,9 3.99539757,9 L7,9 L7,12.0046024 C7,12.5443356 7.44771525,13 8,13 C8.55613518,13 9,12.5543453 9,12.0046024 L9,9 L12.0046024,9 C12.5443356,9 13,8.55228475 13,8 C13,7.44386482 12.5543453,7 12.0046024,7 L9,7 L9,3.99539757 C9,3.4556644 8.55228475,3 8,3 C7.44386482,3 7,3.44565467 7,3.99539757 L7,7 L7,7 Z" id="Combined-Shape"></path>
                </g>
            </g>
        </g>
    </g>
</svg>