<?xml version="1.0" encoding="UTF-8" standalone="no"?>
<svg width="24px" height="24px" viewBox="0 0 24 24" version="1.1" xmlns="http://www.w3.org/2000/svg" xmlns:xlink="http://www.w3.org/1999/xlink">
    <!-- Generator: Sketch 44 (41411) - http://www.bohemiancoding.com/sketch -->
    <title>Group 101</title>
    <desc>Created with Sketch.</desc>
    <defs></defs>
    <g id="首页" stroke="none" stroke-width="1" fill="none" fill-rule="evenodd">
        <g id="全部组件1" transform="translate(-174.000000, -2959.000000)">
            <g id="Group-71" transform="translate(151.000000, 2802.000000)">
                <g id="Group-69">
                    <g transform="translate(0.000000, 39.000000)" id="Group-101">
                        <g transform="translate(23.000000, 118.000000)">
                            <g id="Group-8" transform="translate(6.400000, 1.000000)">
                                <polygon id="Rectangle-17" fill="#6CC10F" transform="translate(8.400000, 2.400000) scale(-1, 1) translate(-8.400000, -2.400000) " points="4.8 0 8.32653061 0 12 4.8 8.47346939 4.8"></polygon>
                                <polygon id="Rectangle-17" fill="#7ED321" points="0 0 3.52653061 0 7.2 4.8 3.67346939 4.8"></polygon>
                            </g>
                            <rect id="Rectangle-7" opacity="0.507695896" x="0" y="1" width="24" height="24"></rect>
                            <circle id="Oval-13" fill="#A7BFD0" cx="12" cy="13.8" r="9.6"></circle>
                            <circle id="Oval-11" fill="#F2F7FA" cx="12" cy="13.8" r="8"></circle>
                            <path d="M11.9689526,17.0095419 L9.60246986,18.3235192 C9.12400562,18.589184 8.80512872,18.3647102 8.89102437,17.8171322 L9.33759277,14.9702941 L7.43474693,12.9756326 C7.05002252,12.5723446 7.18012925,12.1749464 7.72309844,12.0883776 L10.3426828,11.6707218 L11.5416694,9.10573377 C11.7776514,8.6008982 12.1555064,8.5907421 12.3962359,9.10573377 L13.5952224,11.6707218 L16.2148068,12.0883776 C16.7587833,12.175107 16.8913644,12.5686949 16.5031583,12.9756326 L14.6003124,14.9702941 L15.0468808,17.8171322 C15.1324246,18.3624668 14.8053644,18.5844449 14.3354354,18.3235192 L11.9689526,17.0095419 Z" id="Star" fill="#A7BFD0"></path>
                        </g>
                    </g>
                </g>
            </g>
        </g>
    </g>
</svg>