<?xml version="1.0" encoding="UTF-8" standalone="no"?>
<svg width="18px" height="18px" viewBox="0 0 18 18" version="1.1" xmlns="http://www.w3.org/2000/svg" xmlns:xlink="http://www.w3.org/1999/xlink">
    <!-- Generator: Sketch 39.1 (31720) - http://www.bohemiancoding.com/sketch -->
    <title>icons-sys-Singlebox-active-disabled</title>
    <desc>Created with Sketch.</desc>
    <defs></defs>
    <g id="系统图标" stroke="none" stroke-width="1" fill="none" fill-rule="evenodd">
        <g transform="translate(-388.000000, -464.000000)" id="单复选框" fill="#E4EBF0">
            <g transform="translate(110.000000, 347.000000)">
                <g id="icons-sys-Singlebox-active-disabled" transform="translate(278.000000, 117.000000)">
                    <path d="M9,16 L9,16 C12.8659932,16 16,12.8659932 16,9 C16,5.13400675 12.8659932,2 9,2 C5.13400675,2 2,5.13400675 2,9 C2,12.8659932 5.13400675,16 9,16 L9,16 Z M9,18 L9,18 C4.02943725,18 0,13.9705627 0,9 C0,4.02943725 4.02943725,0 9,0 C13.9705627,0 18,4.02943725 18,9 C18,13.9705627 13.9705627,18 9,18 L9,18 Z" id="单选框-copy"></path>
                    <circle id="Oval-2" cx="9" cy="9" r="5"></circle>
                </g>
            </g>
        </g>
    </g>
</svg>