<?xml version="1.0" encoding="UTF-8" standalone="no"?>
<svg width="18px" height="18px" viewBox="0 0 18 18" version="1.1" xmlns="http://www.w3.org/2000/svg" xmlns:xlink="http://www.w3.org/1999/xlink">
    <!-- Generator: Sketch 3.7.1 (28215) - http://www.bohemiancoding.com/sketch -->
    <title>icons-sys-Singlebox-nomal</title>
    <desc>Created with Sketch.</desc>
    <defs></defs>
    <g id="Page-1" stroke="none" stroke-width="1" fill="none" fill-rule="evenodd">
        <g id="系统图标" transform="translate(-118.000000, -404.000000)" fill="#96D1FA">
            <g id="单复选框" transform="translate(118.000000, 345.000000)">
                <g id="icons-sys-Singlebox-nomal" transform="translate(0.000000, 59.000000)">
                    <path d="M9,16 L9,16 C12.8659932,16 16,12.8659932 16,9 C16,5.13400675 12.8659932,2 9,2 C5.13400675,2 2,5.13400675 2,9 C2,12.8659932 5.13400675,16 9,16 L9,16 Z M9,18 L9,18 C4.02943725,18 0,13.9705627 0,9 C0,4.02943725 4.02943725,0 9,0 C13.9705627,0 18,4.02943725 18,9 C18,13.9705627 13.9705627,18 9,18 L9,18 Z"></path>
                </g>
            </g>
        </g>
    </g>
</svg>