<?xml version="1.0" encoding="UTF-8" standalone="no"?>
<svg width="101px" height="110px" viewBox="0 0 101 110" version="1.1" xmlns="http://www.w3.org/2000/svg" xmlns:xlink="http://www.w3.org/1999/xlink">
    <!-- Generator: Sketch 43.1 (39012) - http://www.bohemiancoding.com/sketch -->
    <title>Fill 14</title>
    <desc>Created with Sketch.</desc>
    <defs></defs>
    <g id="2.3-团队/个人统计面板" stroke="none" stroke-width="1" fill="none" fill-rule="evenodd" fill-opacity="0.1">
        <g id="个人、团队统计面板" transform="translate(-47.000000, -91.000000)" fill="#FFFFFF">
            <g id="准时上班率" transform="translate(47.000000, 41.000000)">
                <g id="Combined-Shape">
                    <g id="Group-16">
                        <g transform="translate(-1.000000, 50.000000)" id="Fill-14">
                            <path d="M88.5975079,83.5512464 L55.1368463,116.331054 C52.8682881,118.549015 49.1511664,118.563604 46.8677163,116.331054 L13.373577,83.5839486 C-4.96056868,63.9881811 -4.44911267,33.5617873 14.9414226,14.6037275 C34.8572798,-4.86790916 67.1472534,-4.86790916 87.0631106,14.6037275 C106.453646,33.5617873 106.965102,63.9881811 88.5975079,83.5512464 Z M51.2919716,70.5996312 C62.3739762,70.5996312 71.3577457,61.5893712 71.3577457,50.4746891 C71.3577457,39.3599775 62.3739762,30.349747 51.2919716,30.349747 C40.2099376,30.349747 31.2261976,39.3599775 31.2261976,50.4746891 C31.2261976,61.5893712 40.2099376,70.5996312 51.2919716,70.5996312 Z"></path>
                        </g>
                    </g>
                </g>
            </g>
        </g>
    </g>
</svg>