<?xml version="1.0" standalone="no"?>
<!DOCTYPE svg PUBLIC "-//W3C//DTD SVG 1.1//EN" "http://www.w3.org/Graphics/SVG/1.1/DTD/svg11.dtd" >
<svg xmlns="http://www.w3.org/2000/svg">
<metadata>Generated by IcoMoon</metadata>
<defs>
<font id="sys-icon" horiz-adv-x="1024">
<font-face units-per-em="1024" ascent="960" descent="-64" />
<missing-glyph horiz-adv-x="1024" />
<glyph unicode="&#x20;" horiz-adv-x="512" d="" />
<glyph unicode="&#xe900;" glyph-name="1" d="M910.222 732.111c0 63.078-50.789 114.111-113.44 114.111h-683.342c-62.552 0-113.44-51.089-113.44-114.111v-568.222c0-63.078 50.789-114.111 113.44-114.111h569.227v56.889h-568.499c-31.634 0-57.278 25.928-57.278 57.030v568.607c0 31.497 25.597 57.030 57.278 57.030h681.888c31.634 0 57.278-25.928 57.278-57.030v-568.607c0-0.047 56.888-0.141 56.888-0.141 0 0.111 0 568.556 0 568.556zM1024 703.833v-539.945c0-63.022-50.888-114.111-113.44-114.111h-683.342c-41.931 0-78.548 22.859-98.182 56.889h781.137c31.644 0 56.938 25.432 56.938 56.804v512.085h56.889v28.278zM170.667 647.111c0-15.25 12.981-28.444 28.993-28.444h510.902c16.042 0 28.993 12.735 28.993 28.444 0 15.25-12.981 28.444-28.993 28.444h-510.902c-16.042 0-28.993-12.735-28.993-28.444zM170.667 476.444c0-15.25 12.492-28.444 27.903-28.444h171.75c15.668 0 27.903 12.735 27.903 28.444 0 15.25-12.492 28.444-27.903 28.444h-171.75c-15.668 0-27.903-12.735-27.903-28.444zM170.667 305.778c0-15.25 12.492-28.444 27.903-28.444h171.75c15.668 0 27.903 12.735 27.903 28.444 0 15.25-12.492 28.444-27.903 28.444h-171.75c-15.668 0-27.903-12.735-27.903-28.444zM455.111 447.467v-112.712c0-32.2 25.465-57.422 56.878-57.422h170.689c31.635 0 56.878 25.709 56.878 57.422v112.712c0 32.2-25.465 57.422-56.878 57.422h-170.689c-31.635 0-56.878-25.709-56.878-57.422zM512 448h170.667v-113.778h-170.667v113.778z" />
<glyph unicode="&#xe901;" glyph-name="2" d="M0 732.111v-568.222c0-63.078 50.815-114.111 113.498-114.111h797.003c62.718 0 113.498 51.089 113.498 114.111v568.222c0 63.078-50.815 114.111-113.498 114.111h-797.003c-62.718 0-113.498-51.089-113.498-114.111zM56.889 732.304c0 31.497 25.295 57.030 56.938 57.030h796.345c31.446 0 56.938-25.928 56.938-57.030v-568.607c0-31.497-25.295-57.030-56.938-57.030h-796.345c-31.446 0-56.938 25.928-56.938 57.030v568.607zM492.729 344.158l-147.539 217.62-231.412-341.333h652.776l-188.023 227.556-85.802-103.842zM766.554 504.889c47.927 0 86.78 38.205 86.78 85.333s-38.853 85.333-86.78 85.333c-47.927 0-86.78-38.205-86.78-85.333s38.853-85.333 86.78-85.333z" />
<glyph unicode="&#xe902;" glyph-name="3" d="M0 732.111v-568.222c0-63.078 50.815-114.111 113.498-114.111h797.003c62.718 0 113.498 51.089 113.498 114.111v568.222c0 63.078-50.815 114.111-113.498 114.111h-797.003c-62.718 0-113.498-51.089-113.498-114.111zM56.889 732.304c0 31.497 25.295 57.030 56.938 57.030h796.345c31.446 0 56.938-25.928 56.938-57.030v-568.607c0-31.497-25.295-57.030-56.938-57.030h-796.345c-31.446 0-56.938 25.928-56.938 57.030v568.607zM56.889 675.556h910.222v-113.778h-910.222v113.778zM170.667 248.889c0 15.709 13.25 28.444 28.639 28.444h340.944c15.817 0 28.639-13.194 28.639-28.444 0-15.709-13.25-28.444-28.639-28.444h-340.944c-15.817 0-28.639 13.194-28.639 28.444zM170.667 419.556c0 15.709 12.222 28.444 28.314 28.444h227.817c15.637 0 28.314-13.194 28.314-28.444 0-15.709-12.222-28.444-28.314-28.444h-227.817c-15.637 0-28.314 13.194-28.314 28.444z" />
<glyph unicode="&#xe903;" glyph-name="4" d="M0 732.111v-568.222c0-63.078 50.815-114.111 113.498-114.111h797.003c62.718 0 113.498 51.089 113.498 114.111v568.222c0 63.078-50.815 114.111-113.498 114.111h-797.003c-62.718 0-113.498-51.089-113.498-114.111zM56.889 732.669c0 31.295 25.295 56.664 56.938 56.664h796.345c31.446 0 56.938-25.762 56.938-56.664v-564.963c0-31.295-25.295-56.664-56.938-56.664h-796.345c-31.446 0-56.938 25.762-56.938 56.664v564.963zM682.667 305.778c0-15.25 12.492-28.444 27.903-28.444h171.75c15.668 0 27.903 12.735 27.903 28.444 0 15.25-12.492 28.444-27.903 28.444h-171.75c-15.668 0-27.903-12.735-27.903-28.444zM625.778 476.444c0-15.25 12.676-28.444 28.314-28.444h227.817c16.091 0 28.314 12.735 28.314 28.444 0 15.25-12.676 28.444-28.314 28.444h-227.817c-16.091 0-28.314-12.735-28.314-28.444zM568.889 647.111c0-15.25 12.506-28.444 27.933-28.444h285.468c14.969 0 27.933 12.735 27.933 28.444 0 15.25-12.506 28.444-27.933 28.444h-285.468c-14.969 0-27.933-12.735-27.933-28.444zM341.333 448c-62.838 0-113.778 50.94-113.778 113.778s50.94 113.778 113.778 113.778c62.838 0 113.778-50.94 113.778-113.778s-50.94-113.778-113.778-113.778zM341.333 504.889c31.419 0 56.889 25.47 56.889 56.889s-25.47 56.889-56.889 56.889c-31.419 0-56.889-25.47-56.889-56.889s25.47-56.889 56.889-56.889zM568.889 220.444c0 125.675-101.88 227.556-227.556 227.556s-227.556-101.88-227.556-227.556h56.889c0 94.257 76.41 170.667 170.667 170.667s170.667-76.41 170.667-170.667h56.889z" />
<glyph unicode="&#xe904;" glyph-name="5" d="M0 732.111v-568.222c0-63.078 50.815-114.111 113.498-114.111h797.003c62.718 0 113.498 51.089 113.498 114.111v568.222c0 63.078-50.815 114.111-113.498 114.111h-797.003c-62.718 0-113.498-51.089-113.498-114.111zM56.889 732.304c0 31.497 25.295 57.030 56.938 57.030h796.345c31.446 0 56.938-25.928 56.938-57.030v-568.607c0-31.497-25.295-57.030-56.938-57.030h-796.345c-31.446 0-56.938 25.928-56.938 57.030v568.607zM398.222 789.333h56.889v-682.667h-56.889v682.667zM56.889 675.556h341.333v-56.889h-341.333v56.889zM56.889 504.889h341.333v-56.889h-341.333v56.889zM56.889 334.222h341.333v-56.889h-341.333v56.889z" />
<glyph unicode="&#xe905;" glyph-name="6" d="M967.111 245.883v429.339c0 63.078-50.789 114.111-113.44 114.111h-512.338v56.948c0 31.647-25.465 56.83-56.878 56.83h-170.689c-31.635 0-56.878-25.443-56.878-56.83v-739.282c0-63.078 50.789-114.111 113.44-114.111h398.56v56.889h-397.833c-31.634 0-57.278 25.928-57.278 57.030v625.637h739.166c31.634 0 57.278-25.928 57.278-57.030v-341.193h56.889v-88.339c0 8.028-2.877 16.139-8.745 22.286-11.34 11.88-30.451 12.416-41.922 0.399l-190.742-199.824-106.159 111.214c-11.651 12.206-30.218 11.816-41.9-0.422-11.34-11.88-11.862-31.89-0.403-43.895l127.713-133.794c5.762-6.037 13.216-8.992 20.692-8.958 7.626 0.17 15.159 3.043 20.827 8.981l212.274 222.381c5.54 5.804 8.365 13.678 8.365 21.632v0c0 0 0 0 0 0zM113.778 817.511c0 15.857 12.274 28.711 28.182 28.711h114.302c15.565 0 28.182-12.176 28.182-28.711v-85.067h-170.667v85.067zM113.778 561.778h796.444v-56.889h-796.444v56.889zM398.222 675.556h113.778v-56.889h-113.778v56.889zM568.889 675.556h113.778v-56.889h-113.778v56.889zM739.556 675.556h113.778v-56.889h-113.778v56.889z" />
<glyph unicode="&#xe906;" glyph-name="7" d="M739.556 220.444v142.028c0 15.817 13.194 28.639 28.444 28.639 15.709 0 28.444-13.25 28.444-28.639v-142.028h142.028c15.817 0 28.639-13.194 28.639-28.444 0-15.709-13.25-28.444-28.639-28.444h-142.028v-142.028c0-15.817-13.194-28.639-28.444-28.639-15.709 0-28.444 13.25-28.444 28.639v142.028h-142.028c-15.817 0-28.639 13.194-28.639 28.444 0 15.709 13.25 28.444 28.639 28.444h142.028zM910.222 334.222h56.889v341c0 63.078-50.789 114.111-113.44 114.111h-512.338v56.948c0 31.647-25.465 56.83-56.878 56.83h-170.689c-31.635 0-56.878-25.443-56.878-56.83v-739.282c0-63.078 50.789-114.111 113.44-114.111h455.449v56.889h-454.722c-31.634 0-57.278 25.928-57.278 57.030v625.637h739.166c31.634 0 57.278-25.928 57.278-57.030v-341.193zM113.778 817.511c0 15.857 12.274 28.711 28.182 28.711h114.302c15.565 0 28.182-12.176 28.182-28.711v-85.067h-170.667v85.067zM113.778 561.778h796.444v-56.889h-796.444v56.889zM398.222 675.556h113.778v-56.889h-113.778v56.889zM568.889 675.556h113.778v-56.889h-113.778v56.889zM739.556 675.556h113.778v-56.889h-113.778v56.889z" />
<glyph unicode="&#xe907;" glyph-name="8" d="M910.222 360.668c21.413-12.387 40.621-28.163 56.889-46.595v361.149c0 63.078-50.789 114.111-113.44 114.111h-512.338v56.948c0 31.647-25.465 56.83-56.878 56.83h-170.689c-31.635 0-56.878-25.443-56.878-56.83v-739.282c0-63.078 50.789-114.111 113.44-114.111h475.598c-18.432 16.268-34.208 35.476-46.595 56.889h-428.276c-31.634 0-57.278 25.928-57.278 57.030v625.637h739.166c31.634 0 57.278-25.928 57.278-57.030v-314.747zM113.778 817.511c0 15.857 12.274 28.711 28.182 28.711h114.302c15.565 0 28.182-12.176 28.182-28.711v-85.067h-170.667v85.067zM113.778 561.778h796.444v-56.889h-796.444v56.889zM398.222 675.556h113.778v-56.889h-113.778v56.889zM568.889 675.556h113.778v-56.889h-113.778v56.889zM739.556 675.556h113.778v-56.889h-113.778v56.889zM796.444-7.111c-94.257 0-170.667 76.41-170.667 170.667s76.41 170.667 170.667 170.667c94.257 0 170.667-76.41 170.667-170.667s-76.41-170.667-170.667-170.667zM796.444 49.778c62.838 0 113.778 50.94 113.778 113.778s-50.94 113.778-113.778 113.778c-62.838 0-113.778-50.94-113.778-113.778s50.94-113.778 113.778-113.778zM796.444 106.667c31.419 0 56.889 25.47 56.889 56.889s-25.47 56.889-56.889 56.889c-31.419 0-56.889-25.47-56.889-56.889s25.47-56.889 56.889-56.889z" />
<glyph unicode="&#xe908;" glyph-name="9" d="M56.889 618.51v-511.686c0-63.102 51.010-113.935 113.935-113.935h511.686c63.102 0 113.935 51.010 113.935 113.935v511.686c0 63.102-51.010 113.935-113.935 113.935h-511.686c-63.102 0-113.935-51.010-113.935-113.935zM113.778 618.918c0 31.28 25.306 56.637 56.637 56.637h512.503c31.28 0 56.637-25.306 56.637-56.637v-512.503c0-31.28-25.306-56.637-56.637-56.637h-512.503c-31.28 0-56.637 25.306-56.637 56.637v512.503zM113.778 448h625.778v-56.889h-625.778v56.889zM227.556 277.333h170.667c31.419 0 56.889-25.47 56.889-56.889s-25.47-56.889-56.889-56.889h-170.667c-31.419 0-56.889 25.47-56.889 56.889s25.47 56.889 56.889 56.889zM625.778 277.333c31.419 0 56.889-25.47 56.889-56.889s-25.47-56.889-56.889-56.889c-31.419 0-56.889 25.47-56.889 56.889s25.47 56.889 56.889 56.889zM597.333 163.556h255.843c63.102 0 113.935 51.010 113.935 113.935v511.686c0 63.102-51.010 113.935-113.935 113.935h-511.686c-63.102 0-113.935-51.010-113.935-113.935v-255.843 256h56.889v0.252c0 31.28 25.306 56.637 56.637 56.637h512.503c31.28 0 56.637-25.306 56.637-56.637v-512.503c0-31.28-25.306-56.637-56.637-56.637h-0.252v-56.889h-256z" />
<glyph unicode="&#xe909;" glyph-name="10" d="M122.63 664.974c-38.787-18.156-65.741-57.754-65.741-103.681v-454.141c0-62.952 50.789-114.263 113.44-114.263h683.342c62.552 0 113.44 51.157 113.44 114.263v454.141c0 33.187-14.115 63.139-36.643 84.044 4.757 26.735-10.159 53.571-36.386 63.117l-481.595 175.286c-29.442 10.716-61.923-4.535-72.656-34.024l-18.814-51.69-79.197 28.825c-29.442 10.716-61.923-4.535-72.656-34.024l-46.535-127.853zM187.021 675.556l25.895 71.145c5.348 14.694 21.577 22.277 36.93 16.689l51.715-18.823-25.118-69.012h-89.421zM818.137 675.556h-481.155l46.601 128.034c5.348 14.694 21.577 22.277 36.93 16.689l397.625-144.724zM113.778 562.040c0 31.274 25.597 56.627 57.278 56.627h681.888c31.634 0 57.278-25.922 57.278-56.627v-455.635c0-31.274-25.597-56.627-57.278-56.627h-681.888c-31.634 0-57.278 25.922-57.278 56.627v455.635zM512 106.667c-125.675 0-227.556 101.88-227.556 227.556s101.88 227.556 227.556 227.556c125.675 0 227.556-101.88 227.556-227.556s-101.88-227.556-227.556-227.556zM512 163.556c94.257 0 170.667 76.41 170.667 170.667s-76.41 170.667-170.667 170.667c-94.257 0-170.667-76.41-170.667-170.667s76.41-170.667 170.667-170.667z" />
<glyph unicode="&#xe90a;" glyph-name="11" d="M56.889 789.671v-683.342c0-62.552 50.789-113.44 113.44-113.44h683.342c62.552 0 113.44 50.789 113.44 113.44v683.342c0 62.552-50.789 113.44-113.44 113.44h-683.342c-62.552 0-113.44-50.789-113.44-113.44zM113.778 788.944c0 31.634 25.597 57.278 57.278 57.278h681.888c31.634 0 57.278-25.597 57.278-57.278v-681.888c0-31.634-25.597-57.278-57.278-57.278h-681.888c-31.634 0-57.278 25.597-57.278 57.278v681.888zM312.889 277.333c-47.128 0-85.333 38.205-85.333 85.333s38.205 85.333 85.333 85.333c47.128 0 85.333-38.205 85.333-85.333s-38.205-85.333-85.333-85.333zM312.889 334.222c15.709 0 28.444 12.735 28.444 28.444s-12.735 28.444-28.444 28.444c-15.709 0-28.444-12.735-28.444-28.444s12.735-28.444 28.444-28.444zM540.444 618.667c-47.128 0-85.333 38.205-85.333 85.333s38.205 85.333 85.333 85.333c47.128 0 85.333-38.205 85.333-85.333s-38.205-85.333-85.333-85.333zM540.444 675.556c15.709 0 28.444 12.735 28.444 28.444s-12.735 28.444-28.444 28.444c-15.709 0-28.444-12.735-28.444-28.444s12.735-28.444 28.444-28.444zM768 106.667c-47.128 0-85.333 38.205-85.333 85.333s38.205 85.333 85.333 85.333c47.128 0 85.333-38.205 85.333-85.333s-38.205-85.333-85.333-85.333zM768 163.556c15.709 0 28.444 12.735 28.444 28.444s-12.735 28.444-28.444 28.444c-15.709 0-28.444-12.735-28.444-28.444s12.735-28.444 28.444-28.444zM284.444 761.020c0 15.637 13.194 28.314 28.444 28.314 15.709 0 28.444-12.222 28.444-28.314v-227.817c0-15.637-13.194-28.314-28.444-28.314-15.709 0-28.444 12.222-28.444 28.314v227.817zM512 533.309c0 15.723 13.194 28.469 28.444 28.469 15.709 0 28.444-13.13 28.444-28.469v-398.173c0-15.723-13.194-28.469-28.444-28.469-15.709 0-28.444 13.13-28.444 28.469v398.173zM739.556 760.864c0 15.723 13.194 28.469 28.444 28.469 15.709 0 28.444-13.13 28.444-28.469v-398.173c0-15.723-13.194-28.469-28.444-28.469-15.709 0-28.444 13.13-28.444 28.469v398.173zM284.444 191.734c0 15.857 13.194 28.711 28.444 28.711 15.709 0 28.444-12.176 28.444-28.711v-56.356c0-15.857-13.194-28.711-28.444-28.711-15.709 0-28.444 12.176-28.444 28.711v56.356z" />
<glyph unicode="&#xe90b;" glyph-name="12" d="M227.556 675.556h-57.227c-62.552 0-113.44-51.157-113.44-114.263v-454.141c0-62.952 50.789-114.263 113.44-114.263h683.342c62.552 0 113.44 51.157 113.44 114.263v454.141c0 62.952-50.789 114.263-113.44 114.263h-57.227v113.5c0 63.203-50.93 114.055-113.756 114.055h-341.377c-63.271 0-113.756-51.064-113.756-114.055v-113.5zM113.778 562.040c0 31.274 25.597 56.627 57.278 56.627h681.888c31.634 0 57.278-25.922 57.278-56.627v-455.635c0-31.274-25.597-56.627-57.278-56.627h-681.888c-31.634 0-57.278 25.922-57.278 56.627v455.635zM284.444 789.393c0 31.386 25.773 56.83 56.72 56.83h341.671c31.326 0 56.72-25.182 56.72-56.83v-113.837h-455.111v113.837zM284.444 618.667h56.889v-568.889h-56.889v568.889zM682.667 618.667h56.889v-568.889h-56.889v568.889zM398.222 391.111c0 31.419 25.222 56.889 57.422 56.889h112.712c31.713 0 57.422-25.251 57.422-56.889 0-31.419-25.222-56.889-57.422-56.889h-112.712c-31.713 0-57.422 25.251-57.422 56.889z" />
<glyph unicode="&#xe90c;" glyph-name="13" d="M56.889 789.671v-683.342c0-62.552 50.789-113.44 113.44-113.44h683.342c62.552 0 113.44 50.789 113.44 113.44v683.342c0 62.552-50.789 113.44-113.44 113.44h-683.342c-62.552 0-113.44-50.789-113.44-113.44zM113.778 788.944c0 31.634 25.597 57.278 57.278 57.278h681.888c31.634 0 57.278-25.597 57.278-57.278v-681.888c0-31.634-25.597-57.278-57.278-57.278h-681.888c-31.634 0-57.278 25.597-57.278 57.278v681.888zM512 106.667c-188.513 0-341.333 152.82-341.333 341.333s152.82 341.333 341.333 341.333c188.513 0 341.333-152.82 341.333-341.333s-152.82-341.333-341.333-341.333zM512 163.556c157.094 0 284.444 127.35 284.444 284.444s-127.35 284.444-284.444 284.444c-157.094 0-284.444-127.35-284.444-284.444s127.35-284.444 284.444-284.444zM398.222 391.111c31.419 0 56.889 25.47 56.889 56.889s-25.47 56.889-56.889 56.889c-31.419 0-56.889-25.47-56.889-56.889s25.47-56.889 56.889-56.889zM625.778 391.111c31.419 0 56.889 25.47 56.889 56.889s-25.47 56.889-56.889 56.889c-31.419 0-56.889-25.47-56.889-56.889s25.47-56.889 56.889-56.889z" />
<glyph unicode="&#xe90d;" glyph-name="14" d="M910.222 561.778v227.807c0 31.331-25.644 56.637-57.278 56.637h-681.888c-31.681 0-57.278-25.357-57.278-56.637v-227.807h796.444zM910.222 504.889h-796.444v-227.807c0-31.331 25.644-56.637 57.278-56.637h681.888c31.681 0 57.278 25.357 57.278 56.637v227.807zM455.111 49.778v113.778h-284.782c-62.651 0-113.44 50.833-113.44 113.935v511.686c0 62.924 50.888 113.935 113.44 113.935h683.342c62.651 0 113.44-50.833 113.44-113.935v-511.686c0-62.924-50.888-113.935-113.44-113.935h-284.782v-113.778h255.98c15.72 0 28.464-13.194 28.464-28.444 0-15.709-13.028-28.444-28.464-28.444h-625.738c-15.72 0-28.464 13.194-28.464 28.444 0 15.709 13.028 28.444 28.464 28.444h255.98zM739.556 675.556c31.419 0 56.889 25.47 56.889 56.889s-25.47 56.889-56.889 56.889c-31.419 0-56.889-25.47-56.889-56.889s25.47-56.889 56.889-56.889zM739.556 277.333c31.419 0 56.889 25.47 56.889 56.889s-25.47 56.889-56.889 56.889c-31.419 0-56.889-25.47-56.889-56.889s25.47-56.889 56.889-56.889z" />
<glyph unicode="&#xe90e;" glyph-name="15" d="M56.889 789.671v-683.342c0-62.552 50.789-113.44 113.44-113.44h683.342c62.552 0 113.44 50.789 113.44 113.44v683.342c0 62.552-50.789 113.44-113.44 113.44h-683.342c-62.552 0-113.44-50.789-113.44-113.44zM113.778 788.944c0 31.634 25.597 57.278 57.278 57.278h681.888c31.634 0 57.278-25.597 57.278-57.278v-681.888c0-31.634-25.597-57.278-57.278-57.278h-681.888c-31.634 0-57.278 25.597-57.278 57.278v681.888zM512 277.333c0-31.419-25.47-56.889-56.889-56.889s-56.889 25.47-56.889 56.889c0 31.419 25.47 56.889 56.889 56.889s56.889-25.47 56.889-56.889zM739.556 789.333h56.889c31.419 0 56.889-25.47 56.889-56.889s-25.47-56.889-56.889-56.889h-56.889c-31.419 0-56.889 25.47-56.889 56.889s25.47 56.889 56.889 56.889z" />
<glyph unicode="&#xe90f;" glyph-name="16" d="M56.889 789.671v-683.342c0-62.552 50.789-113.44 113.44-113.44h683.342c62.552 0 113.44 50.789 113.44 113.44v683.342c0 62.552-50.789 113.44-113.44 113.44h-683.342c-62.552 0-113.44-50.789-113.44-113.44zM113.778 788.944c0 31.634 25.597 57.278 57.278 57.278h681.888c31.634 0 57.278-25.597 57.278-57.278v-681.888c0-31.634-25.597-57.278-57.278-57.278h-681.888c-31.634 0-57.278 25.597-57.278 57.278v681.888zM427.549 587.388l-86.216-60.369-28.444-22.13h-28.444v398.222h56.889v-306.643l84.359 59.069 0.974-1.391 1.555 2.221 83.778-62.695v309.44h56.889v-398.222h-28.444l-28.444 22.83v0.537l-84.451 59.133zM398.222 334.222c31.419 0 56.889-25.47 56.889-56.889s-25.47-56.889-56.889-56.889c-31.419 0-56.889 25.47-56.889 56.889s25.47 56.889 56.889 56.889zM568.889 334.222c31.419 0 56.889-25.47 56.889-56.889s-25.47-56.889-56.889-56.889c-31.419 0-56.889 25.47-56.889 56.889s25.47 56.889 56.889 56.889zM739.556 334.222c31.419 0 56.889-25.47 56.889-56.889s-25.47-56.889-56.889-56.889c-31.419 0-56.889 25.47-56.889 56.889s25.47 56.889 56.889 56.889zM227.556 334.222c31.419 0 56.889-25.47 56.889-56.889s-25.47-56.889-56.889-56.889c-31.419 0-56.889 25.47-56.889 56.889s25.47 56.889 56.889 56.889z" />
<glyph unicode="&#xe910;" glyph-name="17" d="M56.889 789.671v-683.342c0-62.552 50.789-113.44 113.44-113.44h683.342c62.552 0 113.44 50.789 113.44 113.44v683.342c0 62.552-50.789 113.44-113.44 113.44h-683.342c-62.552 0-113.44-50.789-113.44-113.44zM113.778 788.944c0 31.634 25.597 57.278 57.278 57.278h681.888c31.634 0 57.278-25.597 57.278-57.278v-681.888c0-31.634-25.597-57.278-57.278-57.278h-681.888c-31.634 0-57.278 25.597-57.278 57.278v681.888zM513 367.657l-133.046-93.031-9.62-11.393h-28.444l-0.556 621.539h56.889l0.499-527.632 113.279 79.483 0.080-0.105 0.081 0.105 113.617-83.343v531.531h56.889v-619.228h-28.444l-6.113 7.47-135.109 94.604zM113.778 504.889h284.444v-56.889h-284.444v56.889zM625.778 504.889h284.444v-56.889h-284.444v56.889z" />
<glyph unicode="&#xe911;" glyph-name="18" d="M910.222 334.222v454.722c0 31.681-25.644 57.278-57.278 57.278h-284.055v-512h341.333zM910.222 277.333h-341.333v-227.556h284.055c31.681 0 57.278 25.644 57.278 57.278v170.277zM512 561.778h-398.222v56.889h398.222v227.556h-340.944c-31.681 0-57.278-25.644-57.278-57.278v-681.888c0-31.681 25.644-57.278 57.278-57.278h340.944v512zM56.889 789.671c0 62.651 50.888 113.44 113.44 113.44h683.342c62.651 0 113.44-50.888 113.44-113.44v-683.342c0-62.651-50.888-113.44-113.44-113.44h-683.342c-62.651 0-113.44 50.888-113.44 113.44v683.342z" />
<glyph unicode="&#xe912;" glyph-name="19" d="M56.889 789.671v-683.342c0-62.552 50.789-113.44 113.44-113.44h683.342c62.552 0 113.44 50.789 113.44 113.44v683.342c0 62.552-50.789 113.44-113.44 113.44h-683.342c-62.552 0-113.44-50.789-113.44-113.44zM113.778 788.944c0 31.634 25.597 57.278 57.278 57.278h681.888c31.634 0 57.278-25.597 57.278-57.278v-681.888c0-31.634-25.597-57.278-57.278-57.278h-681.888c-31.634 0-57.278 25.597-57.278 57.278v681.888zM170.667 704c0 15.709 12.274 28.444 28.182 28.444h114.302c15.565 0 28.182-13.194 28.182-28.444 0-15.709-12.274-28.444-28.182-28.444h-114.302c-15.565 0-28.182 13.194-28.182 28.444zM398.222 704c0 15.709 12.234 28.444 27.903 28.444h171.75c15.41 0 27.903-13.194 27.903-28.444 0-15.709-12.234-28.444-27.903-28.444h-171.75c-15.41 0-27.903 13.194-27.903 28.444zM682.667 704c0 15.709 12.274 28.444 28.182 28.444h114.302c15.565 0 28.182-13.194 28.182-28.444 0-15.709-12.274-28.444-28.182-28.444h-114.302c-15.565 0-28.182 13.194-28.182 28.444zM391.64 258.533h216.899l49.523-129.763c4.388-11.911 14.418-17.552 25.702-17.552 3.761 0 7.523 0.627 11.284 1.881 12.537 3.134 22.567 12.537 22.567 25.075 0 3.761-0.627 6.896-2.508 10.657l-170.51 429.409c-8.149 21.314-24.448 29.463-44.508 29.463-19.433 0-35.105-8.149-43.254-29.463l-170.51-428.155c-1.254-3.761-1.881-6.896-1.881-10.657 0-11.911 9.403-22.567 21.941-25.702 4.388-1.254 8.149-1.881 12.537-1.881 10.657 0 20.060 5.015 24.448 17.552l48.269 129.136zM410.446 311.191l70.837 181.794c7.522 18.806 13.791 38.866 19.433 60.18 5.642-21.314 12.537-41.374 19.433-59.553l69.583-182.421h-179.286z" />
<glyph unicode="&#xe913;" glyph-name="20" d="M739.556 846.222v28.986c0 15.668-12.735 27.903-28.444 27.903-15.25 0-28.444-12.492-28.444-27.903v-28.986h-341.333v28.986c0 15.668-12.735 27.903-28.444 27.903-15.25 0-28.444-12.492-28.444-27.903v-28.986h-114.116c-62.552 0-113.44-50.733-113.44-113.316v-626.701c0-62.492 50.789-113.316 113.44-113.316h683.342c62.552 0 113.44 50.733 113.44 113.316v626.701c0 62.492-50.789 113.316-113.44 113.316h-114.116zM739.556 789.333h113.388c31.634 0 57.278-25.457 57.278-56.804v-625.948c0-31.372-25.597-56.804-57.278-56.804h-681.888c-31.634 0-57.278 25.457-57.278 56.804v625.948c0 31.372 25.597 56.804 57.278 56.804h113.388v-85.875c0-15.668 12.735-27.903 28.444-27.903 15.25 0 28.444 12.492 28.444 27.903v85.875h341.333v-85.875c0-15.668 12.735-27.903 28.444-27.903 15.25 0 28.444 12.492 28.444 27.903v85.875zM512 334.222c-94.257 0-170.667 76.41-170.667 170.667s76.41 170.667 170.667 170.667c94.257 0 170.667-76.41 170.667-170.667s-76.41-170.667-170.667-170.667zM512 391.111c62.838 0 113.778 50.94 113.778 113.778s-50.94 113.778-113.778 113.778c-62.838 0-113.778-50.94-113.778-113.778s50.94-113.778 113.778-113.778zM796.444 106.667c0 157.094-127.35 284.444-284.444 284.444s-284.444-127.35-284.444-284.444h56.889c0 125.675 101.88 227.556 227.556 227.556s227.556-101.88 227.556-227.556h56.889z" />
<glyph unicode="&#xe914;" glyph-name="21" d="M113.778 561.621v-511.686c0-63.102 51.089-113.935 114.111-113.935h568.222c63.078 0 114.111 51.010 114.111 113.935v511.686c0 63.102-51.089 113.935-114.111 113.935h-568.222c-63.078 0-114.111-51.010-114.111-113.935zM170.667 562.029c0 31.28 25.928 56.637 57.030 56.637h568.607c31.497 0 57.030-25.306 57.030-56.637v-512.503c0-31.28-25.928-56.637-57.030-56.637h-568.607c-31.497 0-57.030 25.306-57.030 56.637v512.503zM739.556 732.444c0 125.675-101.88 227.556-227.556 227.556s-227.556-101.88-227.556-227.556h56.889c0 94.257 76.41 170.667 170.667 170.667s170.667-76.41 170.667-170.667h56.889zM682.667 751.424h56.889v-246.535h-56.889v246.535zM284.444 751.424h56.889v-246.535h-56.889v246.535zM312.889 391.111c-47.128 0-85.333 38.205-85.333 85.333s38.205 85.333 85.333 85.333c47.128 0 85.333-38.205 85.333-85.333s-38.205-85.333-85.333-85.333zM312.889 448c15.709 0 28.444 12.735 28.444 28.444s-12.735 28.444-28.444 28.444c-15.709 0-28.444-12.735-28.444-28.444s12.735-28.444 28.444-28.444zM711.111 391.111c-47.128 0-85.333 38.205-85.333 85.333s38.205 85.333 85.333 85.333c47.128 0 85.333-38.205 85.333-85.333s-38.205-85.333-85.333-85.333zM711.111 448c15.709 0 28.444 12.735 28.444 28.444s-12.735 28.444-28.444 28.444c-15.709 0-28.444-12.735-28.444-28.444s12.735-28.444 28.444-28.444z" />
<glyph unicode="&#xe915;" glyph-name="22" d="M113.778 846.502v-797.003c0-62.718 51.089-113.498 114.111-113.498h568.222c63.078 0 114.111 50.815 114.111 113.498v797.003c0 62.718-51.089 113.498-114.111 113.498h-568.222c-63.078 0-114.111-50.815-114.111-113.498zM170.667 846.173c0 31.446 25.928 56.938 57.030 56.938h568.607c31.497 0 57.030-25.295 57.030-56.938v-796.345c0-31.446-25.928-56.938-57.030-56.938h-568.607c-31.497 0-57.030 25.295-57.030 56.938v796.345zM341.333 618.667c31.419 0 56.889 25.47 56.889 56.889s-25.47 56.889-56.889 56.889c-31.419 0-56.889-25.47-56.889-56.889s25.47-56.889 56.889-56.889zM512 618.667c31.419 0 56.889 25.47 56.889 56.889s-25.47 56.889-56.889 56.889c-31.419 0-56.889-25.47-56.889-56.889s25.47-56.889 56.889-56.889zM682.667 618.667c31.419 0 56.889 25.47 56.889 56.889s-25.47 56.889-56.889 56.889c-31.419 0-56.889-25.47-56.889-56.889s25.47-56.889 56.889-56.889zM227.556 476.444c0 15.709 12.951 28.444 28.993 28.444h510.902c16.013 0 28.993-13.194 28.993-28.444 0-15.709-12.951-28.444-28.993-28.444h-510.902c-16.013 0-28.993 13.194-28.993 28.444zM227.556 305.778c0 15.709 12.951 28.444 28.993 28.444h510.902c16.013 0 28.993-13.194 28.993-28.444 0-15.709-12.951-28.444-28.993-28.444h-510.902c-16.013 0-28.993 13.194-28.993 28.444zM227.556 135.111c0 15.709 12.964 28.444 27.933 28.444h285.468c15.427 0 27.933-13.194 27.933-28.444 0-15.709-12.964-28.444-27.933-28.444h-285.468c-15.427 0-27.933 13.194-27.933 28.444z" />
<glyph unicode="&#xe916;" glyph-name="23" d="M113.778 846.502v-797.003c0-62.718 51.089-113.498 114.111-113.498h568.222c63.078 0 114.111 50.815 114.111 113.498v797.003c0 62.718-51.089 113.498-114.111 113.498h-568.222c-63.078 0-114.111-50.815-114.111-113.498zM170.667 846.173c0 31.446 25.928 56.938 57.030 56.938h568.607c31.497 0 57.030-25.295 57.030-56.938v-796.345c0-31.446-25.928-56.938-57.030-56.938h-568.607c-31.497 0-57.030 25.295-57.030 56.938v796.345zM227.556 760.889c0 15.709 12.951 28.444 28.993 28.444h510.902c16.013 0 28.993-13.194 28.993-28.444 0-15.709-12.951-28.444-28.993-28.444h-510.902c-16.013 0-28.993 13.194-28.993 28.444zM227.556 590.222c0 15.709 12.951 28.444 28.993 28.444h510.902c16.013 0 28.993-13.194 28.993-28.444 0-15.709-12.951-28.444-28.993-28.444h-510.902c-16.013 0-28.993 13.194-28.993 28.444zM227.556 362.667c0 15.709 12.234 28.444 27.903 28.444h171.75c15.41 0 27.903-13.194 27.903-28.444 0-15.709-12.234-28.444-27.903-28.444h-171.75c-15.41 0-27.903 13.194-27.903 28.444zM227.556 192c0 15.709 12.234 28.444 27.903 28.444h171.75c15.41 0 27.903-13.194 27.903-28.444 0-15.709-12.234-28.444-27.903-28.444h-171.75c-15.41 0-27.903 13.194-27.903 28.444zM512 391.636v-228.605c0-30.709 25.465-56.364 56.878-56.364h170.689c31.635 0 56.878 25.235 56.878 56.364v228.605c0 30.709-25.465 56.364-56.878 56.364h-170.689c-31.635 0-56.878-25.235-56.878-56.364zM568.889 363.208c0 15.41 12.274 27.903 28.182 27.903h114.302c15.565 0 28.182-12.234 28.182-27.903v-171.75c0-15.41-12.274-27.903-28.182-27.903h-114.302c-15.565 0-28.182 12.234-28.182 27.903v171.75z" />
<glyph unicode="&#xe917;" glyph-name="24" d="M113.778 846.502v-797.003c0-62.718 51.089-113.498 114.111-113.498h568.222c63.078 0 114.111 50.815 114.111 113.498v797.003c0 62.718-51.089 113.498-114.111 113.498h-568.222c-63.078 0-114.111-50.815-114.111-113.498zM170.667 846.173c0 31.446 25.928 56.938 57.030 56.938h568.607c31.497 0 57.030-25.295 57.030-56.938v-796.345c0-31.446-25.928-56.938-57.030-56.938h-568.607c-31.497 0-57.030 25.295-57.030 56.938v796.345zM227.556 788.8v-112.712c0-32.2 25.709-57.422 57.422-57.422h112.712c32.2 0 57.422 25.709 57.422 57.422v112.712c0 32.2-25.709 57.422-57.422 57.422h-112.712c-32.2 0-57.422-25.709-57.422-57.422zM284.444 789.333h113.778v-113.778h-113.778v113.778zM568.889 219.911v-112.712c0-32.2 25.709-57.422 57.422-57.422h112.712c32.2 0 57.422 25.709 57.422 57.422v112.712c0 32.2-25.709 57.422-57.422 57.422h-112.712c-32.2 0-57.422-25.709-57.422-57.422zM625.778 220.444h113.778v-113.778h-113.778v113.778zM512 760.889c0-15.25 12.676-28.444 28.314-28.444h227.817c16.091 0 28.314 12.735 28.314 28.444 0 15.25-12.676 28.444-28.314 28.444h-227.817c-16.091 0-28.314-12.735-28.314-28.444zM512 476.444c0-15.25 12.676-28.444 28.314-28.444h227.817c16.091 0 28.314 12.735 28.314 28.444 0 15.25-12.676 28.444-28.314 28.444h-227.817c-16.091 0-28.314-12.735-28.314-28.444zM227.556 192c0-15.25 12.676-28.444 28.314-28.444h227.817c16.091 0 28.314 12.735 28.314 28.444 0 15.25-12.676 28.444-28.314 28.444h-227.817c-16.091 0-28.314-12.735-28.314-28.444zM227.556 504.356v-112.712c0-32.2 25.709-57.422 57.422-57.422h112.712c32.2 0 57.422 25.709 57.422 57.422v112.712c0 32.2-25.709 57.422-57.422 57.422h-112.712c-32.2 0-57.422-25.709-57.422-57.422zM284.444 504.889h113.778v-113.778h-113.778v113.778z" />
<glyph unicode="&#xe918;" glyph-name="25" d="M682.667 675.556v114.116c0 62.552-50.737 113.44-113.324 113.44h-399.131c-62.114 0-113.324-50.789-113.324-113.44v-796.782h910.222v568.404c0 62.952-50.887 114.263-113.659 114.263h-170.785zM113.778 788.944c0 31.634 25.39 57.278 56.749 57.278h398.502c31.342 0 56.749-25.597 56.749-57.278v-739.166h-512v739.166zM682.667 618.667h170.134c31.713 0 57.422-25.922 57.422-56.627v-512.262h-227.556v568.889zM170.667 704c0 15.709 12.222 28.444 28.314 28.444h227.817c15.637 0 28.314-13.194 28.314-28.444 0-15.709-12.222-28.444-28.314-28.444h-227.817c-15.637 0-28.314 13.194-28.314 28.444zM170.667 476.444c0 15.709 13.25 28.444 28.639 28.444h340.944c15.817 0 28.639-13.194 28.639-28.444 0-15.709-13.25-28.444-28.639-28.444h-340.944c-15.817 0-28.639 13.194-28.639 28.444zM170.667 248.889c0 15.709 13.25 28.444 28.639 28.444h340.944c15.817 0 28.639-13.194 28.639-28.444 0-15.709-13.25-28.444-28.639-28.444h-340.944c-15.817 0-28.639 13.194-28.639 28.444zM682.667 448h142.485c15.565 0 28.182-13.194 28.182-28.444 0-15.709-12.274-28.444-28.182-28.444h-142.485v56.889zM682.667 220.444h142.485c15.565 0 28.182-13.194 28.182-28.444 0-15.709-12.274-28.444-28.182-28.444h-142.485v56.889z" />
<glyph unicode="&#xe919;" glyph-name="26" d="M284.444 846.222h-56.556c-63.078 0-114.111-50.789-114.111-113.44v-683.342c0-62.552 51.089-113.44 114.111-113.44h568.222c63.078 0 114.111 50.789 114.111 113.44v683.342c0 62.552-51.089 113.44-114.111 113.44h-56.556v-56.889h56.748c31.497 0 57.030-25.597 57.030-57.278v-681.888c0-31.634-25.928-57.278-57.030-57.278h-568.607c-31.497 0-57.030 25.597-57.030 57.278v681.888c0 31.634 25.928 57.278 57.030 57.278h56.748v56.889zM398.222 590.222c0-15.25 12.492-28.444 27.903-28.444h171.75c15.668 0 27.903 12.735 27.903 28.444 0 15.25-12.492 28.444-27.903 28.444h-171.75c-15.668 0-27.903-12.735-27.903-28.444zM284.444 419.556c0-15.25 12.746-28.444 28.469-28.444h398.173c15.339 0 28.469 12.735 28.469 28.444 0 15.25-12.746 28.444-28.469 28.444h-398.173c-15.339 0-28.469-12.735-28.469-28.444zM284.444 248.889c0-15.25 12.746-28.444 28.469-28.444h398.173c15.339 0 28.469 12.735 28.469 28.444 0 15.25-12.746 28.444-28.469 28.444h-398.173c-15.339 0-28.469-12.735-28.469-28.444zM341.333 903.17v-57.008c0-31.647 25.235-56.83 56.364-56.83h228.605c30.709 0 56.364 25.443 56.364 56.83v57.008c0 31.647-25.235 56.83-56.364 56.83h-228.605c-30.709 0-56.364-25.443-56.364-56.83zM398.222 903.111h227.556v-56.889h-227.556v56.889z" />
<glyph unicode="&#xe91a;" glyph-name="27" d="M482.071 176.894l262.884 262.884c11.118 11.118 29.461 10.801 40.244 0.018 11.108-11.108 10.829-29.397-0.018-40.244l-281.551-281.551c-6.814-6.814-16.341-9.332-25.178-7.779-6.675 0.353-13.225 3.062-18.294 8.131l-167.661 167.661c-10.985 10.985-10.561 29.22 0.223 40.004 11.108 11.108 29.027 11.2 40.004 0.223l149.347-149.347zM113.778 846.502v-797.003c0-62.718 51.089-113.498 114.111-113.498h568.222c63.078 0 114.111 50.815 114.111 113.498v797.003c0 62.718-51.089 113.498-114.111 113.498h-568.222c-63.078 0-114.111-50.815-114.111-113.498zM170.667 846.173c0 31.446 25.928 56.938 57.030 56.938h568.607c31.497 0 57.030-25.295 57.030-56.938v-796.345c0-31.446-25.928-56.938-57.030-56.938h-568.607c-31.497 0-57.030 25.295-57.030 56.938v796.345zM284.444 760.889c0 15.709 13.13 28.444 28.469 28.444h398.173c15.723 0 28.469-13.194 28.469-28.444 0-15.709-13.13-28.444-28.469-28.444h-398.173c-15.723 0-28.469 13.194-28.469 28.444zM284.444 590.222c0 15.709 12.964 28.444 27.933 28.444h285.468c15.427 0 27.933-13.194 27.933-28.444 0-15.709-12.964-28.444-27.933-28.444h-285.468c-15.427 0-27.933 13.194-27.933 28.444z" />
<glyph unicode="&#xe91b;" glyph-name="28" d="M113.778 846.502v-797.003c0-62.718 51.089-113.498 114.111-113.498h568.222c63.078 0 114.111 50.815 114.111 113.498v797.003c0 62.718-51.089 113.498-114.111 113.498h-568.222c-63.078 0-114.111-50.815-114.111-113.498zM170.667 846.173c0 31.446 25.928 56.938 57.030 56.938h568.607c31.497 0 57.030-25.295 57.030-56.938v-796.345c0-31.446-25.928-56.938-57.030-56.938h-568.607c-31.497 0-57.030 25.295-57.030 56.938v796.345zM611.035 117.943l8.065-4.433c27.58-15.16 45.813-2.304 40.79 28.317l-1.93 11.763-17.768 116.431 86.291 87.943c21.867 22.286 14.706 44.133-16.239 48.834l-9.017 1.37-110.764 16.965-53.966 114.327c-13.514 28.63-35.269 28.962-48.94 0l-4.531-9.6-49.023-104.801-120.193-18.26c-30.835-4.685-37.824-26.836-16.239-48.834l87.42-89.178-18.897-115.196c-6.118-37.295 33.473-43.041 46.925-35.646v0l99.738 54.823 98.279-54.823zM424.338 183.076l16.893 102.98-71.873 72.728 99.156 15.064 44.69 92.366 43.6-92.366 98.174-15.544-70.891-72.249 16.631-102.662-88.059 48.404-88.321-48.721zM341.333 675.556c31.419 0 56.889 25.47 56.889 56.889s-25.47 56.889-56.889 56.889c-31.419 0-56.889-25.47-56.889-56.889s25.47-56.889 56.889-56.889zM512 675.556c31.419 0 56.889 25.47 56.889 56.889s-25.47 56.889-56.889 56.889c-31.419 0-56.889-25.47-56.889-56.889s25.47-56.889 56.889-56.889zM682.667 675.556c31.419 0 56.889 25.47 56.889 56.889s-25.47 56.889-56.889 56.889c-31.419 0-56.889-25.47-56.889-56.889s25.47-56.889 56.889-56.889z" />
<glyph unicode="&#xe91c;" glyph-name="29" d="M113.778 846.502v-797.003c0-62.718 51.089-113.498 114.111-113.498h568.222c63.078 0 114.111 50.815 114.111 113.498v797.003c0 62.718-51.089 113.498-114.111 113.498h-568.222c-63.078 0-114.111-50.815-114.111-113.498zM170.667 846.173c0 31.446 25.928 56.938 57.030 56.938h568.607c31.497 0 57.030-25.295 57.030-56.938v-796.345c0-31.446-25.928-56.938-57.030-56.938h-568.607c-31.497 0-57.030 25.295-57.030 56.938v796.345zM227.556 789.393c0 31.386 25.251 56.83 56.889 56.83 31.419 0 56.889-25.182 56.889-56.83v-57.008c0-31.386-25.251-56.83-56.889-56.83-31.419 0-56.889 25.182-56.889 56.83v57.008zM682.667 163.615c0 31.386 25.251 56.83 56.889 56.83 31.419 0 56.889-25.182 56.889-56.83v-57.008c0-31.386-25.251-56.83-56.889-56.83-31.419 0-56.889 25.182-56.889 56.83v57.008zM398.222 590.222c0 15.709 12.964 28.444 27.933 28.444h285.468c15.427 0 27.933-13.194 27.933-28.444 0-15.709-12.964-28.444-27.933-28.444h-285.468c-15.427 0-27.933 13.194-27.933 28.444zM341.333 419.556c0 15.709 12.964 28.444 27.933 28.444h285.468c15.427 0 27.933-13.194 27.933-28.444 0-15.709-12.964-28.444-27.933-28.444h-285.468c-15.427 0-27.933 13.194-27.933 28.444zM284.444 248.889c0 15.709 12.964 28.444 27.933 28.444h285.468c15.427 0 27.933-13.194 27.933-28.444 0-15.709-12.964-28.444-27.933-28.444h-285.468c-15.427 0-27.933 13.194-27.933 28.444z" />
<glyph unicode="&#xe91d;" glyph-name="30" d="M341.333 618.667h56.889c0-62.838 50.94-113.778 113.778-113.778s113.778 50.94 113.778 113.778h56.889c0-62.838 50.94-113.778 113.778-113.778s113.778 50.94 113.778 113.778c0 42.114-22.881 78.884-56.889 98.556v129.010c0 31.635-25.533 56.878-57.030 56.878h-568.607c-31.102 0-57.030-25.465-57.030-56.878v-129.010c-34.008-19.673-56.889-56.442-56.889-98.556 0-62.838 50.94-113.778 113.778-113.778s113.778 50.94 113.778 113.778zM669.235 504.889h-30.025c5.451 6.090 10.471 12.575 15.013 19.405 4.541-6.83 9.561-13.314 15.013-19.405h-30.025c-31.25-34.916-76.664-56.889-127.21-56.889s-95.959 21.973-127.21 56.889h-30.025c-31.25-34.916-76.664-56.889-127.21-56.889-19.659 0-38.541 3.324-56.116 9.44-0.508-3.026-0.773-6.133-0.773-9.3v-398.502c0-31.359 25.533-56.749 57.030-56.749h568.607c31.102 0 57.030 25.407 57.030 56.749v398.502c0 3.169-0.261 6.277-0.762 9.304-17.578-6.119-36.464-9.444-56.127-9.444-50.546 0-95.959 21.973-127.21 56.889zM910.222 491.457v-441.701c0-62.826-51.033-113.756-114.111-113.756h-568.222c-63.022 0-114.111 50.485-114.111 113.756v441.701c-34.916 31.25-56.889 76.664-56.889 127.21s21.973 95.959 56.889 127.21v100.009c0 63.024 51.033 114.115 114.111 114.115h568.222c63.022 0 114.111-50.435 114.111-114.115v-100.009c34.916-31.25 56.889-76.664 56.889-127.21s-21.973-95.959-56.889-127.21zM384.79 504.889c-5.451 6.090-10.471 12.575-15.013 19.405-4.541-6.83-9.561-13.314-15.013-19.405h30.025zM512 220.444c0-31.638 25.465-56.889 56.878-56.889h170.689c31.635 0 56.878 25.47 56.878 56.889 0 31.638-25.465 56.889-56.878 56.889h-170.689c-31.635 0-56.878-25.47-56.878-56.889zM284.444 760.889c0-15.25 12.746-28.444 28.469-28.444h398.173c15.339 0 28.469 12.735 28.469 28.444 0 15.25-12.746 28.444-28.469 28.444h-398.173c-15.339 0-28.469-12.735-28.469-28.444z" />
<glyph unicode="&#xe91e;" glyph-name="31" d="M711.111 903.111c-84.85 0-120.833 23.746-142.309 56.889h-113.924c-21.477-33.143-53.402-56.889-141.99-56.889-83.62 0-141.445 56.889-141.445 56.889h-57.666v-682.667c0 0 47.93-95.985 137.091-182.768s261.132-158.566 261.132-158.566c0 0 177.973 84.485 265.409 163.295s132.813 178.039 132.813 178.039v682.667h-56.889l-0.177-669.734c0 0-43.973-84.947-129.069-161.687s-212.406-130.261-212.406-130.261c0 0-144.208 61.066-221.134 137.015s-119.863 155.91-119.863 155.91l0.759 594.803c0 0 55.955-39.822 141.445-39.822 141.99 0 170.667 56.889 170.667 56.889h56.889c0 0 28.358-56.889 170.667-56.889 84.872 0 142.222 39.822 142.222 39.822v73.956c0 0-51.58-56.889-142.222-56.889zM284.444 647.111c0 15.709 13.13 28.444 28.469 28.444h398.173c15.723 0 28.469-13.194 28.469-28.444 0-15.709-13.13-28.444-28.469-28.444h-398.173c-15.723 0-28.469 13.194-28.469 28.444zM284.444 476.444c0 15.709 13.13 28.444 28.469 28.444h398.173c15.723 0 28.469-13.194 28.469-28.444 0-15.709-13.13-28.444-28.469-28.444h-398.173c-15.723 0-28.469 13.194-28.469 28.444zM341.333 305.778c0 15.709 12.964 28.444 27.933 28.444h285.468c15.427 0 27.933-13.194 27.933-28.444 0-15.709-12.964-28.444-27.933-28.444h-285.468c-15.427 0-27.933 13.194-27.933 28.444z" />
<glyph unicode="&#xe91f;" glyph-name="32" d="M711.111 903.111c-84.85 0-120.833 23.746-142.309 56.889h-113.924c-21.477-33.143-53.402-56.889-141.99-56.889-83.62 0-141.445 56.889-141.445 56.889h-57.666v-682.667c0 0 47.93-95.985 137.091-182.768s261.132-158.566 261.132-158.566c0 0 177.973 84.485 265.409 163.295s132.813 178.039 132.813 178.039v682.667h-56.889l-0.177-669.734c0 0-43.973-84.947-129.069-161.687s-212.406-130.261-212.406-130.261c0 0-144.208 61.066-221.134 137.015s-119.863 155.91-119.863 155.91l0.759 594.803c0 0 55.955-39.822 141.445-39.822 141.99 0 170.667 56.889 170.667 56.889h56.889c0 0 28.358-56.889 170.667-56.889 84.872 0 142.222 39.822 142.222 39.822v73.956c0 0-51.58-56.889-142.222-56.889zM732.387 448c-20.581-79.963-83.534-142.917-163.498-163.498v-35.064c0-16.013-12.176-28.993-28.711-28.993h-56.356c-15.857 0-28.711 12.951-28.711 28.993v35.064c-79.963 20.581-142.917 83.534-163.498 163.498h-35.064c-16.013 0-28.993 12.176-28.993 28.711v56.356c0 15.857 12.951 28.711 28.993 28.711h35.064c20.581 79.963 83.534 142.917 163.498 163.498v35.064c0 16.013 12.176 28.993 28.711 28.993h56.356c15.857 0 28.711-12.951 28.711-28.993v-35.064c79.963-20.581 142.917-83.534 163.498-163.498h35.064c16.013 0 28.993-12.176 28.993-28.711v-56.356c0-15.857-12.951-28.711-28.993-28.711h-35.064zM512 334.222c94.257 0 170.667 76.41 170.667 170.667s-76.41 170.667-170.667 170.667c-94.257 0-170.667-76.41-170.667-170.667s76.41-170.667 170.667-170.667z" />
<glyph unicode="&#xe920;" glyph-name="33" d="M711.111 903.111c-84.85 0-120.833 23.746-142.309 56.889h-113.924c-21.477-33.143-53.402-56.889-141.99-56.889-83.62 0-141.445 56.889-141.445 56.889h-57.666v-682.667c0 0 47.93-95.985 137.091-182.768s261.132-158.566 261.132-158.566c0 0 177.973 84.485 265.409 163.295s132.813 178.039 132.813 178.039v682.667h-56.889l-0.177-669.734c0 0-43.973-84.947-129.069-161.687s-212.406-130.261-212.406-130.261c0 0-144.208 61.066-221.134 137.015s-119.863 155.91-119.863 155.91l0.759 594.803c0 0 55.955-39.822 141.445-39.822 141.99 0 170.667 56.889 170.667 56.889h56.889c0 0 28.358-56.889 170.667-56.889 84.872 0 142.222 39.822 142.222 39.822v73.956c0 0-51.58-56.889-142.222-56.889zM426.667 334.222h284.444c15.709 0 28.444-12.735 28.444-28.444s-12.735-28.444-28.444-28.444h-284.444c-15.709 0-28.444 12.735-28.444 28.444s12.735 28.444 28.444 28.444zM711.111 675.556c15.709 0 28.444-12.735 28.444-28.444v-341.333c0-15.709-12.735-28.444-28.444-28.444s-28.444 12.735-28.444 28.444v341.333c0 15.709 12.735 28.444 28.444 28.444z" />
<glyph unicode="&#xe921;" glyph-name="34" d="M910.222 448c31.621 0.027 56.889 25.725 56.889 57.422v112.712c0 32.2-25.492 57.422-56.938 57.422h-796.345c-31.644 0-56.938-25.709-56.938-57.422v-112.712c0-32.183 25.465-57.395 56.889-57.422v-398.244c0-63.271 51.089-113.756 114.111-113.756h568.222c63.078 0 114.111 50.93 114.111 113.756v398.244zM170.667 448h682.667v-398.391c0-31.326-25.928-56.72-57.030-56.72h-568.607c-31.497 0-57.030 25.773-57.030 56.72v398.391zM113.778 589.956c0 15.857 12.51 28.711 28.346 28.711h739.753c15.655 0 28.346-12.176 28.346-28.711v-56.356c0-15.857-12.51-28.711-28.346-28.711h-739.753c-15.655 0-28.346 12.176-28.346 28.711v56.356zM455.331 855.791c-41.917 49.303-83.706 84.127-124.426 97.887-36.165 12.221-70.257 7.080-100.277-18.539-68.278-58.267-80.614-150.1-24.748-218.29 51.122-62.4 153.906-98.183 293.954-98.183 270.002 0 416.22 139.729 327.633 284.101-66.289 108.032-203.64 54.744-276.059-100.486-18.761-40.215-23.876-46.945-23.876-46.945-3.883 6.599-53.581 78.553-72.201 100.455zM526.77 675.164c39.825 0 48.717 50.898 77.3 102.388 64.318 115.863 139.683 144.792 184.075 76.511 44.68-68.724-57.766-178.899-291.685-178.899-128.748 0-353.144 75.112-238.972 196.439 49.399 52.495 120.046-17.044 153.69-60.058 57.043-72.93 76.9-136.381 115.591-136.381z" />
<glyph unicode="&#xe922;" glyph-name="35" d="M345.447 55.627l-158.59 13.96c-30.379 2.674-56.735 29.378-58.888 59.925l-11.19 158.809-102.268 122.011c-19.59 23.372-19.344 60.891 0.733 84.013l104.382 120.208 13.96 158.59c2.674 30.379 29.378 56.735 59.924 58.888l158.809 11.19 122.011 102.268c23.372 19.59 60.891 19.344 84.013-0.733l120.208-104.382 158.59-13.96c30.379-2.674 56.735-29.378 58.888-59.924l11.19-158.809 102.268-122.011c19.59-23.372 19.344-60.891-0.733-84.013l-104.382-120.208-13.96-158.59c-2.674-30.379-29.378-56.735-59.925-58.888l-158.809-11.19-122.011-102.268c-23.372-19.59-60.891-19.344-84.013 0.733l-120.208 104.382zM350.436 112.296v0l18.38-1.618 134.139-116.48c1.965-1.706 8.18-1.756 10.169-0.089l136.152 114.121 177.214 12.487c2.596 0.183 7.026 4.542 7.253 7.128l15.578 176.969 116.48 134.139c1.706 1.965 1.756 8.18 0.089 10.169l-114.121 136.152-12.487 177.214c-0.183 2.596-4.542 7.026-7.128 7.253l-176.969 15.578-134.139 116.48c-1.965 1.706-8.18 1.756-10.169 0.089l-136.152-114.121-177.214-12.487c-2.596-0.183-7.026-4.542-7.253-7.128l-15.578-176.969-116.48-134.139c-1.706-1.965-1.756-8.18-0.089-10.169l114.121-136.152 12.487-177.214c0.183-2.596 4.542-7.026 7.128-7.253l158.59-13.96zM512 448v199.242c0 16.091-12.735 28.314-28.444 28.314-15.25 0-28.444-12.676-28.444-28.314v-227.817c0-8.023 3.166-15.085 8.288-20.149 5.169-4.885 12.229-8.165 20.025-8.165h227.817c16.091 0 28.314 12.735 28.314 28.444 0 15.25-12.676 28.444-28.314 28.444h-199.242z" />
<glyph unicode="&#xe923;" glyph-name="36" d="M345.447 55.627l-158.59 13.96c-30.379 2.674-56.735 29.378-58.888 59.925l-11.19 158.809-102.268 122.011c-19.59 23.372-19.344 60.891 0.733 84.013l104.382 120.208 13.96 158.59c2.674 30.379 29.378 56.735 59.924 58.888l158.809 11.19 122.011 102.268c23.372 19.59 60.891 19.344 84.013-0.733l120.208-104.382 158.59-13.96c30.379-2.674 56.735-29.378 58.888-59.924l11.19-158.809 102.268-122.011c19.59-23.372 19.344-60.891-0.733-84.013l-104.382-120.208-13.96-158.59c-2.674-30.379-29.378-56.735-59.925-58.888l-158.809-11.19-122.011-102.268c-23.372-19.59-60.891-19.344-84.013 0.733l-120.208 104.382zM350.436 112.296v0l18.38-1.618 134.139-116.48c1.965-1.706 8.18-1.756 10.169-0.089l136.152 114.121 177.214 12.487c2.596 0.183 7.026 4.542 7.253 7.128l15.578 176.969 116.48 134.139c1.706 1.965 1.756 8.18 0.089 10.169l-114.121 136.152-12.487 177.214c-0.183 2.596-4.542 7.026-7.128 7.253l-176.969 15.578-134.139 116.48c-1.965 1.706-8.18 1.756-10.169 0.089l-136.152-114.121-177.214-12.487c-2.596-0.183-7.026-4.542-7.253-7.128l-15.578-176.969-116.48-134.139c-1.706-1.965-1.756-8.18-0.089-10.169l114.121-136.152 12.487-177.214c0.183-2.596 4.542-7.026 7.128-7.253l158.59-13.96zM568.889 334.222v-85.309c0-15.339 12.735-28.469 28.444-28.469 15.25 0 28.444 12.746 28.444 28.469v85.309h85.309c15.339 0 28.469 12.735 28.469 28.444 0 15.25-12.746 28.444-28.469 28.444h-85.309v113.778h142.197c15.339 0 28.469 12.735 28.469 28.444 0 15.25-12.746 28.444-28.469 28.444h-142.197v85.309c0 15.339-12.735 28.469-28.444 28.469-15.25 0-28.444-12.746-28.444-28.469v-85.309h-113.778v142.197c0 15.339-12.735 28.469-28.444 28.469-15.25 0-28.444-12.746-28.444-28.469v-142.197h-28.42c-15.339 0-28.469-12.735-28.469-28.444 0-15.25 12.746-28.444 28.469-28.444h28.42v-113.778h-85.309c-15.339 0-28.469-12.735-28.469-28.444 0-15.25 12.746-28.444 28.469-28.444h85.309v-28.42c0-15.339 12.735-28.469 28.444-28.469 15.25 0 28.444 12.746 28.444 28.469v28.42h113.778zM568.889 391.111h-113.778v113.778h113.778v-113.778z" />
<glyph unicode="&#xe924;" glyph-name="37" d="M345.447 55.627l-158.59 13.96c-30.379 2.674-56.735 29.378-58.888 59.925l-11.19 158.809-102.268 122.011c-19.59 23.372-19.344 60.891 0.733 84.013l104.382 120.208 13.96 158.59c2.674 30.379 29.378 56.735 59.924 58.888l158.809 11.19 122.011 102.268c23.372 19.59 60.891 19.344 84.013-0.733l120.208-104.382 158.59-13.96c30.379-2.674 56.735-29.378 58.888-59.924l11.19-158.809 102.268-122.011c19.59-23.372 19.344-60.891-0.733-84.013l-104.382-120.208-13.96-158.59c-2.674-30.379-29.378-56.735-59.925-58.888l-158.809-11.19-122.011-102.268c-23.372-19.59-60.891-19.344-84.013 0.733l-120.208 104.382zM350.436 112.296v0l18.38-1.618 134.139-116.48c1.965-1.706 8.18-1.756 10.169-0.089l136.152 114.121 177.214 12.487c2.596 0.183 7.026 4.542 7.253 7.128l15.578 176.969 116.48 134.139c1.706 1.965 1.756 8.18 0.089 10.169l-114.121 136.152-12.487 177.214c-0.183 2.596-4.542 7.026-7.128 7.253l-176.969 15.578-134.139 116.48c-1.965 1.706-8.18 1.756-10.169 0.089l-136.152-114.121-177.214-12.487c-2.596-0.183-7.026-4.542-7.253-7.128l-15.578-176.969-116.48-134.139c-1.706-1.965-1.756-8.18-0.089-10.169l114.121-136.152 12.487-177.214c0.183-2.596 4.542-7.026 7.128-7.253l158.59-13.96zM513 385.957l-130.47-91.356-12.196-13.068h-28.444v544.633l56.333 17.706 0.49-468.439 113.288 79.49 0.080-0.105 0.081 0.105 113.617-83.343v474.642l56.889-16.418v-545.921h-28.444l-7.789 8.644-133.433 93.431zM398.222 732.444h227.556v-56.889h-227.556v56.889zM398.222 618.667h227.556v-56.889h-227.556v56.889z" />
<glyph unicode="&#xe925;" glyph-name="38" d="M512 160.336c19.032 0.478 38.15 2.947 57.354 7.409 21.508 4.997 40.952 13.035 58.332 24.115s31.61 25.418 42.69 43.016c11.080 17.597 16.62 38.779 16.62 63.546 0 23.029-4.236 42.147-12.709 57.354s-19.77 27.808-33.891 37.802c-14.121 9.994-30.089 17.923-47.904 23.789s-35.955 10.971-54.422 15.316c-18.466 4.345-36.607 8.364-54.422 12.057s-33.783 8.364-47.904 14.013c-14.121 5.649-25.418 12.926-33.891 21.834s-12.709 20.53-12.709 34.869c0 15.208 2.933 27.917 8.799 38.128s13.687 18.358 23.463 24.441c9.776 6.083 20.965 10.428 33.565 13.035s25.418 3.911 38.454 3.911c32.153 0 58.549-7.495 79.188-22.486s32.696-39.214 36.172-72.671h58.658c-0.869 25.636-5.757 47.687-14.664 66.153s-21.073 33.783-36.498 45.949c-15.425 12.166-33.348 21.073-53.77 26.722-15.797 4.369-32.634 7.049-50.511 8.038v85.768h-56.889v-88.791c-7.173-1.233-14.28-2.796-21.322-4.689-20.205-5.431-38.236-13.687-54.096-24.767s-28.569-25.201-38.128-42.364c-9.559-17.163-14.339-37.476-14.339-60.939 0-21.291 4.236-38.997 12.709-53.118s19.77-25.636 33.891-34.543c14.121-8.907 30.089-16.077 47.904-21.508s35.955-10.211 54.422-14.339c18.466-4.128 36.607-8.147 54.422-12.057s33.783-9.016 47.904-15.316c14.121-6.3 25.418-14.447 33.891-24.441s12.709-23.029 12.709-39.105c0-16.946-3.476-30.85-10.428-41.712s-16.077-19.444-27.374-25.744c-11.297-6.3-24.006-10.754-38.128-13.361s-28.134-3.911-42.038-3.911c-17.38 0-34.326 2.172-50.837 6.518s-30.958 11.080-43.342 20.204c-12.383 9.125-22.377 20.747-29.981 34.869s-11.406 30.958-11.406 50.511h-58.658c0-28.243 5.105-52.683 15.316-73.322s24.115-37.584 41.712-50.837c17.597-13.252 38.019-23.137 61.265-29.655 7.817-2.192 15.793-4.015 23.929-5.469v-86.335h56.889v82.114z" />
<glyph unicode="&#xe926;" glyph-name="39" d="M483.556 391.111v-170.642c0-15.339 12.735-28.469 28.444-28.469 15.25 0 28.444 12.746 28.444 28.469v170.642h170.642c15.339 0 28.469 12.735 28.469 28.444 0 15.25-12.746 28.444-28.469 28.444h-170.642v170.642c0 15.339-12.735 28.469-28.444 28.469-15.25 0-28.444-12.746-28.444-28.469v-170.642h-170.642c-15.339 0-28.469-12.735-28.469-28.444 0-15.25 12.746-28.444 28.469-28.444h170.642z" />
<glyph unicode="&#xe927;" glyph-name="40" d="M132.225 391.457c-73.882 5.131-132.225 66.69-132.225 141.876 0 78.547 63.675 142.222 142.222 142.222s128.066-49.54 137.217-111.722c61.725 17.585 102.217 66.351 118.086 112.641-17.764 24.062-27.748 53.465-27.748 84.414 0 78.547 63.675 142.222 142.222 142.222s142.222-63.675 142.222-142.222c0-45.51-16.278-70.629-31.461-86.361 15.183-63.825 79.81-109.382 120.366-109.382 14.448 63.232 71.040 110.41 138.651 110.41 78.547 0 142.222-63.675 142.222-142.222s-66.567-148.326-130.261-141.050c-28.040-100.945-84.121-302.834-84.121-302.834-15.227-54.816-70.151-96.56-126.783-96.56h-341.671c-56.947 0-111.509 41.573-126.783 96.56 0 0-78.854 301.779-82.157 302.008zM269.195 104.675c8.452-30.428 40.644-54.897 71.969-54.897h341.671c30.947 0 63.547 24.578 71.969 54.897l97.898 343.325c9.358-3.527 18.484 0 29.075 0 47.128 0 85.333 38.205 85.333 85.333s-38.205 85.333-85.333 85.333c-47.128 0-85.333-38.205-85.333-85.333 0-8.847 1.346-17.38 3.845-25.405-11.51-1.998-23.356-3.040-35.45-3.040-107.915 0-196.092 82.973-201.961 187.487 20.909 15.553 34.454 40.451 34.454 68.513 0 47.128-38.205 85.333-85.333 85.333s-85.333-38.205-85.333-85.333c0-25.717 11.376-48.776 29.37-64.421-5.41-106.85-92.829-191.579-200.036-191.579-11.040 0-17.894-1.728-28.444 0 2.582 8.145 0 19.445 0 28.444 0 47.128-38.205 85.333-85.333 85.333s-85.333-38.205-85.333-85.333c0-47.128 38.205-85.333 85.333-85.333h29.89l97.083-343.325z" />
<glyph unicode="&#xe928;" glyph-name="41" d="M512-64c-282.77 0-512 229.23-512 512s229.23 512 512 512c282.77 0 512-229.23 512-512s-229.23-512-512-512zM512-7.111c251.351 0 455.111 203.76 455.111 455.111s-203.76 455.111-455.111 455.111c-251.351 0-455.111-203.76-455.111-455.111s203.76-455.111 455.111-455.111zM672.906 608.906l160.906-482.718-482.718 160.906-160.906 482.718 482.718-160.906zM628.304 563.807l-347.921 115.318 115.493-346.993 348.165-116.055-115.737 347.73zM568.889 448c0-31.419-25.47-56.889-56.889-56.889s-56.889 25.47-56.889 56.889c0 31.419 25.47 56.889 56.889 56.889s56.889-25.47 56.889-56.889z" />
<glyph unicode="&#xe929;" glyph-name="42" d="M512-64c-282.77 0-512 229.23-512 512s229.23 512 512 512c282.77 0 512-229.23 512-512s-229.23-512-512-512zM512-7.111c251.351 0 455.111 203.76 455.111 455.111s-203.76 455.111-455.111 455.111c-251.351 0-455.111-203.76-455.111-455.111s203.76-455.111 455.111-455.111zM512-7.111v0c116.677 0 227.556 199.582 227.556 455.111s-110.879 455.111-227.556 455.111c-116.677 0-227.556-199.582-227.556-455.111s110.879-455.111 227.556-455.111v0zM512-64v0c-157.094 0-284.444 229.23-284.444 512s127.35 512 284.444 512c157.094 0 284.444-229.23 284.444-512s-127.35-512-284.444-512v0zM512 334.222v227.556h-455.111v56.889h455.111v284.444h56.889v-284.444h398.222v-56.889h-398.222v-227.556h398.222v-56.889h-398.222v-341.333h-56.889v341.333h-455.111v56.889h455.111z" />
<glyph unicode="&#xe92a;" glyph-name="43" d="M512-64c-282.77 0-512 229.23-512 512s229.23 512 512 512c282.77 0 512-229.23 512-512s-229.23-512-512-512zM512-7.111c251.351 0 455.111 203.76 455.111 455.111s-203.76 455.111-455.111 455.111c-251.351 0-455.111-203.76-455.111-455.111s203.76-455.111 455.111-455.111zM512 647.111c0 15.709 12.222 28.444 28.314 28.444h227.817c15.637 0 28.314-13.194 28.314-28.444 0-15.709-12.222-28.444-28.314-28.444h-227.817c-15.637 0-28.314 13.194-28.314 28.444zM227.556 362.667c0 15.709 12.222 28.444 28.314 28.444h227.817c15.637 0 28.314-13.194 28.314-28.444 0-15.709-12.222-28.444-28.314-28.444h-227.817c-15.637 0-28.314 13.194-28.314 28.444zM227.556 192c0 15.709 12.951 28.444 28.993 28.444h510.902c16.013 0 28.993-13.194 28.993-28.444 0-15.709-12.951-28.444-28.993-28.444h-510.902c-16.013 0-28.993 13.194-28.993 28.444zM227.556 675.023v-112.712c0-32.2 25.709-57.422 57.422-57.422h112.712c32.2 0 57.422 25.709 57.422 57.422v112.712c0 32.2-25.709 57.422-57.422 57.422h-112.712c-32.2 0-57.422-25.709-57.422-57.422zM284.444 646.845c0 15.857 12.176 28.711 28.711 28.711h56.356c15.857 0 28.711-12.176 28.711-28.711v-56.356c0-15.857-12.176-28.711-28.711-28.711h-56.356c-15.857 0-28.711 12.176-28.711 28.711v56.356zM568.889 447.467v-112.712c0-32.2 25.709-57.422 57.422-57.422h112.712c32.2 0 57.422 25.709 57.422 57.422v112.712c0 32.2-25.709 57.422-57.422 57.422h-112.712c-32.2 0-57.422-25.709-57.422-57.422zM625.778 419.289c0 15.857 12.176 28.711 28.711 28.711h56.356c15.857 0 28.711-12.176 28.711-28.711v-56.356c0-15.857-12.176-28.711-28.711-28.711h-56.356c-15.857 0-28.711 12.176-28.711 28.711v56.356z" />
<glyph unicode="&#xe92b;" glyph-name="44" d="M512-64c-282.77 0-512 229.23-512 512s229.23 512 512 512c282.77 0 512-229.23 512-512s-229.23-512-512-512zM512-7.111c251.351 0 455.111 203.76 455.111 455.111s-203.76 455.111-455.111 455.111c-251.351 0-455.111-203.76-455.111-455.111s203.76-455.111 455.111-455.111zM833.812 732.444l-302.291-663.145-360.855 360.855 663.145 302.291zM719.609 617.865l-449.799-206.401 244.455-244.455 205.344 450.856zM743.599 675.556l40.227-40.227-519.365-486.911-40.227 40.227z" />
<glyph unicode="&#xe92c;" glyph-name="45" d="M483.556 279.693c-25.935 4.351-49.887 14.552-70.452 29.198l-121.523-121.523c52.69-44.605 119.085-73.52 191.975-79.534v171.858zM343.693 419.556c4.35-25.928 14.546-49.874 29.186-70.435l-121.524-121.524c-44.598 52.687-73.508 119.077-79.52 191.959h171.858zM540.444 616.307c25.928-4.35 49.874-14.546 70.435-29.186l121.524 121.524c-52.687 44.598-119.077 73.508-191.959 79.52v-171.858zM680.307 476.444c-4.351 25.935-14.552 49.887-29.198 70.452l121.523 121.523c44.605-52.69 73.52-119.085 79.534-191.975h-171.858zM540.444 279.693c25.928 4.35 49.874 14.546 70.435 29.186l121.524-121.524c-52.687-44.598-119.077-73.508-191.959-79.52v171.858zM680.307 419.556c-4.351-25.935-14.552-49.887-29.198-70.452l121.523-121.523c44.605 52.69 73.52 119.085 79.534 191.975h-171.858zM483.556 616.307c-25.935-4.351-49.887-14.551-70.452-29.198l-121.523 121.523c52.69 44.605 119.085 73.52 191.975 79.534v-171.858zM343.693 476.444c4.35 25.928 14.546 49.874 29.186 70.435l-121.524 121.524c-44.598-52.687-73.508-119.077-79.52-191.959h171.858zM512-64c-282.77 0-512 229.23-512 512s229.23 512 512 512c282.77 0 512-229.23 512-512s-229.23-512-512-512zM512-7.111c251.351 0 455.111 203.76 455.111 455.111s-203.76 455.111-455.111 455.111c-251.351 0-455.111-203.76-455.111-455.111s203.76-455.111 455.111-455.111zM512 49.778c-219.932 0-398.222 178.29-398.222 398.222s178.29 398.222 398.222 398.222c219.932 0 398.222-178.29 398.222-398.222s-178.29-398.222-398.222-398.222zM512 334.222c62.838 0 113.778 50.94 113.778 113.778s-50.94 113.778-113.778 113.778c-62.838 0-113.778-50.94-113.778-113.778s50.94-113.778 113.778-113.778z" />
<glyph unicode="&#xe92d;" glyph-name="46" d="M512-64c-157.094 0-284.444 127.35-284.444 284.444s127.35 284.444 284.444 284.444c157.094 0 284.444-127.35 284.444-284.444s-127.35-284.444-284.444-284.444zM512-7.111c125.675 0 227.556 101.88 227.556 227.556s-101.88 227.556-227.556 227.556c-125.675 0-227.556-101.88-227.556-227.556s101.88-227.556 227.556-227.556zM710.849 355.359l108.129 81.097c50.562 37.922 91.244 119.325 91.244 182.103v341.441h-796.444v-341.441c0-63.226 40.852-144.308 91.244-182.103l107.495-80.621 32.954 55.997-74.133 39.465c-55.6 29.599-100.672 104.037-100.672 167.263v341.441h682.667v-341.441c0-62.778-44.542-137.634-100.613-167.802l-72.35-38.926 30.478-56.472zM284.444 960v-312.581c0-110.235 89.372-199.419 199.618-199.419h55.874c110.788 0 199.618 89.283 199.618 199.419v312.581h-455.111zM341.333 960h341.333v-312.36c0-78.839-64.202-142.751-142.778-142.751h-55.777c-78.854 0-142.778 63.281-142.778 142.751v312.36zM512 135.111l-50.158-26.369c-27.701-14.563-45.906-1.579-40.578 29.482l9.579 55.851-40.578 39.554c-22.411 21.845-15.687 43.171 15.5 47.703l56.078 8.149 25.079 50.815c13.851 28.065 36.21 28.26 50.158 0l25.079-50.815 56.078-8.149c30.971-4.5 38.067-25.705 15.5-47.703l-40.578-39.554 9.579-55.851c5.29-30.846-12.684-44.147-40.578-29.482l-50.158 26.369z" />
<glyph unicode="&#xe92e;" glyph-name="47" d="M644.276 220.444l219.603-219.603c10.677-10.677 28.24-10.426 38.535-0.131 10.605 10.605 10.257 28.146-0.131 38.535l-136.412 181.2h87.801c62.552 0 113.44 51.157 113.44 114.263v454.141c0 62.952-50.789 114.263-113.44 114.263h-683.342c-62.552 0-113.44-51.157-113.44-114.263v-454.141c0-62.952 50.789-114.263 113.44-114.263h87.801l-136.412-181.2c-10.389-10.389-10.736-27.93-0.131-38.535 10.295-10.295 27.858-10.546 38.535 0.131l219.603 219.603h264.552zM597.081 518.417l-148.388 148.388c-6.26 6.26-14.34 9.114-22.279 8.714-7.939 0.4-16.018-2.454-22.279-8.714l-168.082-168.082c-11.537-11.537-11.155-30.624 0.097-41.876 11.59-11.59 30.003-11.969 41.876-0.097l148.388 148.388 148.388-148.388c6.26-6.26 14.34-9.114 22.279-8.714 7.939-0.4 16.018 2.454 22.279 8.714l224.97 224.97c11.537 11.537 9.4 32.063 0 41.972s-30.1 11.872-41.972 0l-205.277-205.277zM113.778 789.595c0 31.274 25.597 56.627 57.278 56.627h681.888c31.634 0 57.278-25.922 57.278-56.627v-455.635c0-31.274-25.597-56.627-57.278-56.627h-681.888c-31.634 0-57.278 25.922-57.278 56.627v455.635z" />
<glyph unicode="&#xe92f;" glyph-name="48" d="M113.778 334.222c0 0.056 0 0.111 0 0.167v284.111c0 31.511 25.251 57.056 56.889 57.056h56.889v-341.167c0-0.056 0-0.111 0-0.167h512v-227.567c0-31.413-25.306-56.878-56.637-56.878h-512.503c-31.28 0-56.637 25.243-56.637 56.878v227.567zM455.033 732.444h-284.209c-63.102 0-113.935-51.010-113.935-113.935v-511.686c0-63.102 51.010-113.935 113.935-113.935h511.686c63.102 0 113.935 51.010 113.935 113.935v284.287h-568.889v341.333h227.477zM910.222 561.778c0-0.056 0-0.111 0-0.167v-284.111c0-31.511-25.251-57.056-56.889-57.056h-56.889v341.167c0 0.056 0 0.111 0 0.167h-512v227.567c0 31.413 25.306 56.878 56.637 56.878h512.503c31.28 0 56.637-25.243 56.637-56.878v-227.567zM568.967 163.556h284.209c63.102 0 113.935 51.010 113.935 113.935v511.686c0 63.102-51.010 113.935-113.935 113.935h-511.686c-63.102 0-113.935-51.010-113.935-113.935v-284.287h568.889v-341.333h-227.477z" />
<glyph unicode="&#xe930;" glyph-name="49" d="M968.042 900.134l-8.221-58.537-128.038-778.348c0 0-4.533-41.615-21.048-52.312s-50.466 5.993-50.466 5.993l-352.918 162.68 124.895 206.257-226.13-168.163-248.99 145.225c0 0-25.278 17.261-25.309 33.747s25.184 32.385 25.184 32.385l818.303 471.072 47.571 26.175c0 0 26.046 12.060 36.946 5.743s8.221-31.918 8.221-31.918zM903.686 850.831l-790.219-454.905 188.852-110.15 302.869 225.23c0 0 59.888 45.238 70.465 35.025s-28.556-75.492-28.556-75.492l-158.488-265.744 287.040-132.313 128.038 778.348zM284.643 33.909v201.123l322.105 223.888-148.248-301.865-106.222-139.531c0 0-34.357-51.427-51.305-46.868s-16.33 63.253-16.33 63.253z" />
<glyph unicode="&#xe931;" glyph-name="50" d="M682.689 789.333c62.826 0 129.816-48.181 149.756-108l58.815-176.444h19.242c62.683 0 113.498-51.101 113.498-113.659v-171.31c0-31.129-25.313-56.364-56.513-56.364h-57.264v-85.286c0-47.154-38.602-85.381-85.381-85.381h-56.794c-47.154 0-85.381 38.602-85.381 85.381v85.286h-341.333v-85.286c0-47.154-38.693-85.381-85.136-85.381h-57.254c-47.036 0-85.166 38.602-85.166 85.381v85.286h-57.264c-31.211 0-56.513 25.655-56.513 56.364v171.31c0 62.772 50.78 113.659 113.498 113.659h19.242l58.815 176.444c19.882 59.647 86.485 108 149.756 108l0.022 56.948c0 31.386 25.655 56.83 56.364 56.83h228.605c31.129 0 56.364-25.182 56.364-56.83v-56.948zM113.778 448c-31.621-0.027-56.889-25.725-56.889-57.422v-170.134h910.222v170.134c0 32.183-25.465 57.395-56.889 57.422h-796.444zM227.556 277.333c-31.419 0-56.889 25.47-56.889 56.889s25.47 56.889 56.889 56.889c31.419 0 56.889-25.47 56.889-56.889s-25.47-56.889-56.889-56.889zM796.444 277.333c-31.419 0-56.889 25.47-56.889 56.889s25.47 56.889 56.889 56.889c31.419 0 56.889-25.47 56.889-56.889s-25.47-56.889-56.889-56.889zM260.344 678.517l-60.629-173.628h625.576l-56.497 173.628c-9.623 29.575-43.042 53.927-74.49 53.927h-358.187c-31.562 0-65.374-24.144-75.774-53.927zM398.222 846.222v-56.889h227.556v56.889h-227.556zM170.667 134.845v-56.356c0-16.535 12.854-28.711 28.711-28.711h56.356c16.535 0 28.711 12.854 28.711 28.711v56.356c0 16.535-12.854 28.711-28.711 28.711h-56.356c-16.535 0-28.711-12.854-28.711-28.711zM739.556 134.845v-56.356c0-16.535 12.854-28.711 28.711-28.711h56.356c16.535 0 28.711 12.854 28.711 28.711v56.356c0 16.535-12.854 28.711-28.711 28.711h-56.356c-16.535 0-28.711-12.854-28.711-28.711z" />
<glyph unicode="&#xe932;" glyph-name="51" d="M598.687 844.877c7.693 0.701-394.717-517.553-394.717-517.553l248.626-240.701-108.55-80.801c-29.863-22.229-71.998-14.973-93.523 15.379l-237.642 335.096c-21.788 30.723-15.29 73.612 14.622 95.878l489.294 364.211c20.476 15.242 52.285 25.792 81.891 28.49zM182.874 325.349l317.024 407.005-438.682-326.538c-4.714-3.509-5.816-10.747-2.114-15.968l237.642-335.096c3.239-4.568 9.501-5.613 13.586-2.572l82.578 61.468-210.035 211.7zM575.767 843.687c23.769 28.909 73.277 54.158 110.072 55.838 0 0 222.179 17.221 270.103-23.82s67.394-265.197 67.394-265.197c4.162-37.199-11.693-90.742-35.5-119.698l-389.434-473.653c-23.769-28.909-66.372-32.361-94.392-8.365l-309.358 264.919c-28.363 24.289-32.126 67.367-8.319 96.322l389.434 473.653zM619.71 807.558v0l-389.434-473.653c-4.135-5.029-3.458-12.841 1.379-16.983l309.358-264.919c3.959-3.39 10.033-2.866 13.446 1.285l389.434 473.653c14.032 17.067 25.364 55.291 22.768 78.646-0.682 7.849-2.135 22.039-4.397 40.407-3.768 30.595-8.419 61.149-13.947 89.39-10.396 53.104-24.054 92.554-29.377 97.112-4.948 4.237-43.894 11.288-95.54 13.116-33.436 1.183-69.671 0.594-104.81-1.115-13.237-0.644-23.088-1.282-30.155-1.801-20.478-0.935-55.043-18.499-68.724-35.138v0zM853.333 675.556c0-31.419-25.47-56.889-56.889-56.889s-56.889 25.47-56.889 56.889c0 31.419 25.47 56.889 56.889 56.889s56.889-25.47 56.889-56.889z" />
<glyph unicode="&#xe933;" glyph-name="52" d="M499.81 846.222c-188.050 0-327.889-129.455-335.569-319.88-102.888-32.679-164.24-124.802-164.24-240.12 0-125.963 102.546-236.444 219.429-236.444h585.143c118.174 0 219.429 130.020 219.429 236.444 0 187.777-103.81 253.86-196.921 261.426-11.729 148.854-121.665 298.574-327.27 298.574zM804.556 106.667h-565.623c-96.984 0-182.045 90.385-182.044 193.422 0 75.33 60.848 170.015 182.044 170.015h34.133c6.281 0 14.893 16.162 14.893 33.106s-3.284 23.931-9.564 23.931c0 0-44.019 1.866-54.692 0 8.92 136.306 94.556 262.192 276.919 262.192 195.425 0 264.718-152.231 264.718-294.703v-34.133c0-6.281 15.858-12.497 35.347-12.497s26.624 5.097 26.624 11.378c0 0 0 13.156 0 20.688 68.699-7.532 139.799-67.61 139.799-179.977 0-87.063-83.991-193.422-182.044-193.422h19.49z" />
<glyph unicode="&#xe934;" glyph-name="53" d="M499.81 846.222c-188.050 0-327.889-129.455-335.569-319.88-102.888-32.679-164.24-124.802-164.24-240.12 0-125.963 102.546-236.444 219.429-236.444h585.143c118.174 0 219.429 130.020 219.429 236.444 0 187.777-103.81 253.86-196.921 261.426-11.729 148.854-121.665 298.574-327.27 298.574zM804.556 106.667h-565.623c-96.984 0-182.045 90.385-182.044 193.422 0 75.33 60.848 170.015 182.044 170.015h34.133c6.281 0 14.893 16.162 14.893 33.106s-3.284 23.931-9.564 23.931c0 0-44.019 1.866-54.692 0 8.92 136.306 94.556 262.192 276.919 262.192 195.425 0 264.718-152.231 264.718-294.703v-34.133c0-6.281 15.858-12.497 35.347-12.497s26.624 5.097 26.624 11.378c0 0 0 13.156 0 20.688 68.699-7.532 139.799-67.61 139.799-179.977 0-87.063-83.991-193.422-182.044-193.422h19.49zM390.488 230.242c-5.505 5.268-8.258 10.851-8.258 16.751 0 2.95 1.049 6.532 3.146 10.746v273.067c-4.719-1.264-9.438-1.896-14.157-1.896-8.914 0-16.123 2.318-21.628 6.953s-8.258 10.114-8.258 16.435c0 9.271 6.292 17.909 18.876 25.916s27.789 15.065 45.616 21.175c17.827 6.11 36.309 10.851 55.447 14.222s35.261 5.057 48.369 5.057c23.595 0 44.96-3.16 64.098-9.481s35.392-14.433 48.762-24.336c13.37-9.903 23.594-20.859 30.673-32.869s10.618-23.704 10.618-35.081c0-16.013-5.112-31.5-15.336-46.459s-24.512-27.918-42.863-38.874c26.216-10.535 45.616-23.914 58.2-40.138s18.876-33.185 18.876-50.884c0-11.799-2.622-23.282-7.865-34.449s-12.453-21.597-21.628-31.289c-9.176-9.692-20.055-18.225-32.639-25.6s-26.478-12.958-41.684-16.751c-19.4-5.057-39.193-8.323-59.379-9.798s-40.242-2.212-60.166-2.212h-21.628c-7.078 0-14.288 0.211-21.628 0.632-11.535 0.843-20.055 3.898-25.561 9.165zM588.289 379.733c-12.059 6.742-25.298 11.694-39.717 14.854s-29.231 5.373-44.436 6.637c-8.914-0.843-17.958-1.58-27.134-2.212s-18.22-0.948-27.134-0.948v-126.42c11.011 0 25.954 0.421 44.829 1.264s37.358 3.266 55.447 7.269c18.089 4.003 33.819 10.43 47.189 19.279s20.055 21.281 20.055 37.294c0 8.428-2.359 16.435-7.078 24.020s-12.059 13.906-22.022 18.963v0zM449.868 454.321c8.389 0 16.647-0.105 24.774-0.316s16.385-0.527 24.774-0.948c7.341 0.421 16.778 2.002 28.313 4.741s22.546 6.532 33.032 11.378c10.486 4.846 19.531 10.851 27.134 18.015s11.404 15.592 11.404 25.284c0 9.271-2.884 17.277-8.651 24.020s-13.108 12.326-22.022 16.751c-8.914 4.425-19.007 7.691-30.28 9.798s-22.153 3.16-32.639 3.16c-19.924 0-38.538-2.739-55.84-8.217v-103.664z" />
<glyph unicode="&#xe935;" glyph-name="54" d="M499.81 846.222c-188.050 0-327.889-129.455-335.569-319.88-102.888-32.679-164.24-124.802-164.24-240.12 0-125.963 102.546-236.444 219.429-236.444h585.143c118.174 0 219.429 130.020 219.429 236.444 0 187.777-103.81 253.86-196.921 261.426-11.729 148.854-121.665 298.574-327.27 298.574zM804.556 106.667h-565.623c-96.984 0-182.045 90.385-182.044 193.422 0 75.33 60.848 170.015 182.044 170.015h34.133c6.281 0 14.893 16.162 14.893 33.106s-3.284 23.931-9.564 23.931c0 0-41.598 1.866-52.27 0 8.92 136.306 92.134 262.192 274.497 262.192 195.425 0 264.718-152.231 264.718-294.703v-34.133c0-6.281 15.858-12.497 35.347-12.497s26.624 5.097 26.624 11.378c0 0 0 13.156 0 20.688 68.699-7.532 139.799-67.61 139.799-179.977 0-87.063-83.991-193.422-182.044-193.422h19.49zM625.778 618.667l-56.657-227.556h-227.788l284.444 227.556zM398.222 163.556l56.889 227.556h227.503l-284.392-227.556z" />
<glyph unicode="&#xe936;" glyph-name="55" d="M499.81 846.222c-188.050 0-327.889-129.455-335.569-319.88-102.888-32.679-164.24-124.802-164.24-240.12 0-125.963 102.546-236.444 219.429-236.444h585.143c118.174 0 219.429 130.020 219.429 236.444 0 187.777-103.81 253.86-196.921 261.426-11.729 148.854-121.665 298.574-327.27 298.574zM804.556 106.667h-565.623c-96.984 0-182.045 90.385-182.044 193.422 0 75.33 60.848 170.015 182.044 170.015h34.133c6.281 0 14.893 16.162 14.893 33.106s-3.284 23.931-9.564 23.931c0 0-41.598 1.866-52.27 0 8.92 136.306 92.134 262.192 274.497 262.192 195.425 0 264.718-152.231 264.718-294.703v-34.133c0-6.281 15.858-12.497 35.347-12.497s26.624 5.097 26.624 11.378c0 0 0 13.156 0 20.688 68.699-7.532 139.799-67.61 139.799-179.977 0-87.063-83.991-193.422-182.044-193.422h19.49zM512 391.111h-142.028c-15.39 0-28.639-12.735-28.639-28.444 0-15.25 12.822-28.444 28.639-28.444h142.028v-142.028c0-15.39 12.735-28.639 28.444-28.639 15.25 0 28.444 12.822 28.444 28.639v142.028h142.028c15.39 0 28.639 12.735 28.639 28.444 0 15.25-12.822 28.444-28.639 28.444h-142.028v142.028c0 15.39-12.735 28.639-28.444 28.639-15.25 0-28.444-12.822-28.444-28.639v-142.028z" />
<glyph unicode="&#xe937;" glyph-name="56" d="M499.81 846.222c-188.050 0-327.889-129.455-335.569-319.88-102.888-32.679-164.24-124.802-164.24-240.12 0-125.963 102.546-236.444 219.429-236.444h585.143c118.174 0 219.429 130.020 219.429 236.444 0 187.777-103.81 253.86-196.921 261.426-11.729 148.854-121.665 298.574-327.27 298.574zM804.556 106.667h-565.623c-96.984 0-182.045 90.385-182.044 193.422 0 75.33 60.848 170.015 182.044 170.015h34.133c6.281 0 14.893 16.162 14.893 33.106s-3.284 23.931-9.564 23.931c0 0-41.598 1.866-52.27 0 8.92 136.306 92.134 262.192 274.497 262.192 195.425 0 264.718-152.231 264.718-294.703v-34.133c0-6.281 15.858-12.497 35.347-12.497s26.624 5.097 26.624 11.378c0 0 0 13.156 0 20.688 68.699-7.532 139.799-67.61 139.799-179.977 0-87.063-83.991-193.422-182.044-193.422h19.49zM341.333 362.667c0 15.709 13.25 28.444 28.639 28.444h340.944c15.817 0 28.639-13.194 28.639-28.444 0-15.709-13.25-28.444-28.639-28.444h-340.944c-15.817 0-28.639 13.194-28.639 28.444z" />
<glyph unicode="&#xe938;" glyph-name="57" d="M454.915 374.834v272.235c0 52.010-41.995 93.909-93.799 93.909-31.836 0-59.75-15.681-76.671-39.708v-0.177c-0.439-0.576-0.876-1.153-1.31-1.733-0.023-0.034-0.046-0.069-0.069-0.103-0.003 0-0.006 0-0.009-0.001-35.315-47.215-52.847-107.74-56.931-170.378 10.672 1.873 52.27 0 52.27 0 6.281 0 9.564-7.013 9.564-24.019s-8.612-33.226-14.893-33.226h-34.133c-121.196 0-182.044-95.029-182.044-170.634 0-103.412 85.060-194.126 182.044-194.126h546.133c98.054 0 182.044 106.746 182.044 194.126 0 112.776-71.1 173.072-139.799 180.632 0-7.559 0-20.763 0-20.763 0-6.303-7.135-11.419-26.624-11.419s-35.347 6.239-35.347 12.542v34.257c0 130.123-65.785 268.672-224.896 292.555-15.709 0.417-28.444 10.415-28.444 32.207s28.444 25.212 28.444 25.212c179.474-17.545 275.703-157.532 286.635-296.763 93.111-7.594 196.921-73.917 196.921-262.377 0-106.812-101.254-237.305-219.429-237.305h-585.143c-116.882 0-219.429 110.884-219.429 237.305 0 115.738 61.353 208.196 164.24 240.994 3.533 87.928 35.041 162.904 86.347 218.235 26.184 34.423 67.338 55.753 115.025 55.753 89.303 0 146.388-70.084 146.388-150.916v-283.778l72.688 72.688c10.897 10.897 29.060 10.4 39.844-0.383 11.108-11.108 11.462-28.764 0.383-39.844l-106.171-106.171c-1.063-5.432-3.739-10.641-7.989-14.891-6.307-6.307-15.138-9.095-23.564-8.143-8.426-0.952-17.257 1.836-23.564 8.143-4.25 4.25-6.926 9.459-7.989 14.891l-106.171 106.171c-11.079 11.079-10.725 28.735 0.383 39.844 10.783 10.783 28.947 11.28 39.844 0.383l65.224-65.224z" />
<glyph unicode="&#xe939;" glyph-name="58" d="M262.177 382.218l258.716 258.716c22.076-14.097 48.304-22.267 76.44-22.267 13.766 0 27.076 1.956 39.665 5.605l166.354-356.747c1.709-3.664 4.154-6.815 7.090-9.348-25.332-14.716-45.705-37.029-57.997-63.819l-468.487 99.58c0.322 3.904 0.486 7.853 0.486 11.84 0 28.136-8.17 54.364-22.267 76.44zM222.619 423.112c-22.87 15.7-50.56 24.888-80.396 24.888-78.547 0-142.222-63.675-142.222-142.222s63.675-142.222 142.222-142.222c54.487 0 101.817 30.64 125.701 75.63l471.682-100.259c-0.033-1.268-0.050-2.54-0.050-3.816 0-78.547 63.675-142.222 142.222-142.222s142.222 63.675 142.222 142.222c0 78.547-63.675 142.222-142.222 142.222-8.398 0-16.625-0.728-24.623-2.124 0.869 5.387 0.222 11.070-2.243 16.357l-167.518 359.243c31.842 26.082 52.162 65.708 52.162 110.079 0 78.547-63.675 142.222-142.222 142.222s-142.222-63.675-142.222-142.222c0-29.836 9.187-57.527 24.888-80.396l-257.38-257.38zM597.333 675.556c-47.128 0-85.333 38.205-85.333 85.333s38.205 85.333 85.333 85.333c47.128 0 85.333-38.205 85.333-85.333s-38.205-85.333-85.333-85.333zM142.222 220.444c-47.128 0-85.333 38.205-85.333 85.333s38.205 85.333 85.333 85.333c47.128 0 85.333-38.205 85.333-85.333s-38.205-85.333-85.333-85.333zM881.778 49.778c-47.128 0-85.333 38.205-85.333 85.333s38.205 85.333 85.333 85.333c47.128 0 85.333-38.205 85.333-85.333s-38.205-85.333-85.333-85.333z" />
<glyph unicode="&#xe93a;" glyph-name="59" d="M540.444 675.556c-78.547 0-142.222 63.675-142.222 142.222s63.675 142.222 142.222 142.222c78.547 0 142.222-63.675 142.222-142.222s-63.675-142.222-142.222-142.222zM540.444 732.444c47.128 0 85.333 38.205 85.333 85.333s-38.205 85.333-85.333 85.333c-47.128 0-85.333-38.205-85.333-85.333s38.205-85.333 85.333-85.333zM142.222 49.778c-78.547 0-142.222 63.675-142.222 142.222s63.675 142.222 142.222 142.222c78.547 0 142.222-63.675 142.222-142.222s-63.675-142.222-142.222-142.222zM142.222 106.667c47.128 0 85.333 38.205 85.333 85.333s-38.205 85.333-85.333 85.333c-47.128 0-85.333-38.205-85.333-85.333s38.205-85.333 85.333-85.333zM881.778 49.778c-78.547 0-142.222 63.675-142.222 142.222s63.675 142.222 142.222 142.222c78.547 0 142.222-63.675 142.222-142.222s-63.675-142.222-142.222-142.222zM881.778 106.667c47.128 0 85.333 38.205 85.333 85.333s-38.205 85.333-85.333 85.333c-47.128 0-85.333-38.205-85.333-85.333s38.205-85.333 85.333-85.333zM732.933 59.745c-63.218-42.233-139.2-66.857-220.933-66.857s-157.715 24.623-220.933 66.857c12.591 14.161 23.192 30.13 31.365 47.47 54.226-36.28 119.426-57.437 189.568-57.437s135.343 21.157 189.568 57.437c8.172-17.34 18.773-33.309 31.365-47.47zM910.217 389.095c0.003 0.672 0.005 1.343 0.005 2.016 0 143.833-76.255 269.855-190.542 339.846-8.377-17.261-19.173-33.13-31.949-47.165 99.225-59.705 165.602-168.441 165.602-292.681 0-0.673-0.002-1.345-0.006-2.017 9.292 1.329 18.791 2.017 28.45 2.017 9.656 0 19.151-0.687 28.439-2.016zM113.783 389.095c-0.003 0.672-0.005 1.343-0.005 2.016 0 162.73 97.608 302.662 237.471 364.444 6.021-18.319 14.628-35.464 25.39-51.003-121.178-52.402-205.972-173.019-205.972-313.441 0-0.673 0.002-1.345 0.006-2.017-9.292 1.329-18.791 2.017-28.45 2.017-9.656 0-19.151-0.687-28.439-2.016z" />
<glyph unicode="&#xe93b;" glyph-name="60" d="M640.803 327.869c220.421-22.212 383.197-100.092 383.197-192.758 0-109.966-229.23-199.111-512-199.111s-512 89.145-512 199.111c0 92.665 162.775 170.546 383.197 192.758l35.435-53.531c-206.564-13.459-361.742-70.68-361.742-139.226 0-78.547 203.76-142.222 455.111-142.222s455.111 63.675 455.111 142.222c0 68.547-155.178 125.767-361.742 139.226l35.435 53.531zM312.182 385.955c-55.321 107.526-84.627 222.894-84.627 289.601 0 157.094 127.35 284.444 284.444 284.444s284.444-127.35 284.444-284.444c0-65.341-28.315-184.092-82.122-289.601-75.557-148.159-185.824-279.288-202.322-279.288-16.253 0-124.857 133.589-199.818 279.288zM355.647 420.162c62.482-128.156 149.71-233.85 156.353-233.85 6.446 0 94.327 109.831 155.691 233.85 46.948 94.884 71.865 200.92 71.865 255.394 0 125.675-101.88 227.556-227.556 227.556s-227.556-101.88-227.556-227.556c0-52.303 26.663-164.038 71.203-255.394zM512 561.778c-62.838 0-113.778 50.94-113.778 113.778s50.94 113.778 113.778 113.778c62.838 0 113.778-50.94 113.778-113.778s-50.94-113.778-113.778-113.778zM512 618.667c31.419 0 56.889 25.47 56.889 56.889s-25.47 56.889-56.889 56.889c-31.419 0-56.889-25.47-56.889-56.889s25.47-56.889 56.889-56.889z" />
<glyph unicode="&#xe93c;" glyph-name="61" d="M56.889 788.997v-169.993c0-63.679 50.789-114.115 113.44-114.115h683.342c62.552 0 113.44 51.091 113.44 114.115v169.993c0 63.679-50.789 114.115-113.44 114.115h-683.342c-62.552 0-113.44-51.091-113.44-114.115zM113.778 789.344c0 31.413 25.597 56.878 57.278 56.878h681.888c31.634 0 57.278-25.243 57.278-56.878v-170.689c0-31.413-25.597-56.878-57.278-56.878h-681.888c-31.634 0-57.278 25.243-57.278 56.878v170.689zM796.444 761.151v-114.302c0-15.908 12.434-28.182 27.772-28.182h0.327c15.595 0 28.79 12.618 28.79 28.182v114.302c0 15.908-12.735 28.182-28.444 28.182-15.25 0-28.444-12.618-28.444-28.182zM56.889 276.997v-169.993c0-63.679 50.789-114.115 113.44-114.115h683.342c62.552 0 113.44 51.091 113.44 114.115v169.993c0 63.679-50.789 114.115-113.44 114.115h-683.342c-62.552 0-113.44-51.091-113.44-114.115zM113.778 277.344c0 31.413 25.597 56.878 57.278 56.878h681.888c31.634 0 57.278-25.243 57.278-56.878v-170.689c0-31.413-25.597-56.878-57.278-56.878h-681.888c-31.634 0-57.278 25.243-57.278 56.878v170.689zM170.667 249.151c0 15.565 13.194 28.182 28.444 28.182 15.709 0 28.444-12.274 28.444-28.182v-114.302c0-15.565-13.194-28.182-28.444-28.182-15.709 0-28.444 12.274-28.444 28.182v114.302z" />
<glyph unicode="&#xe93d;" glyph-name="62" d="M170.667 789.333v-0.059c0-31.647 25.432-56.83 56.804-56.83h682.752v57.029-739.975c0-62.683-51.033-113.498-114.111-113.498h-568.222c-63.022 0-114.111 50.78-114.111 113.498v796.724c0.148 62.863 50.483 113.778 113.321 113.778h654.679c15.709 0 28.444-12.735 28.444-28.444s-12.735-28.444-28.444-28.444h-654.307c-31.347 0-56.804-25.443-56.804-56.83v-0.059h711.21c15.655 0 28.346-13.194 28.346-28.444 0-15.709-12.51-28.444-28.346-28.444h-711.21zM170.667 690.636v-640.808c0-31.644 25.533-56.938 57.030-56.938h568.607c31.102 0 57.030 25.492 57.030 56.938v625.728h-626.235c-20.547 0-39.816 5.481-56.432 15.080zM284.444 504.356v-112.712c0-32.2 25.394-57.422 56.72-57.422h341.671c30.947 0 56.72 25.709 56.72 57.422v112.712c0 32.2-25.394 57.422-56.72 57.422h-341.671c-30.947 0-56.72-25.709-56.72-57.422zM341.333 504.889h341.333v-113.778h-341.333v113.778zM398.222 192c0 15.709 12.234 28.444 27.903 28.444h171.75c15.41 0 27.903-13.194 27.903-28.444 0-15.709-12.234-28.444-27.903-28.444h-171.75c-15.41 0-27.903 13.194-27.903 28.444zM455.111 78.222c0 15.709 12.176 28.444 28.711 28.444h56.356c15.857 0 28.711-13.194 28.711-28.444 0-15.709-12.176-28.444-28.711-28.444h-56.356c-15.857 0-28.711 13.194-28.711 28.444z" />
<glyph unicode="&#xe93e;" glyph-name="63" d="M338.183 954.080c4.805 3.712 10.831 5.92 17.373 5.92 15.709 0 28.444-12.735 28.444-28.444 0-10.576-5.772-19.805-14.338-24.706 0.028-0.048 0.055-0.096 0.083-0.144-119.011-68.859-199.078-197.543-199.078-344.928 0-219.932 178.29-398.222 398.222-398.222 72.547 0 140.564 19.4 199.144 53.294 0.028-0.048 0.055-0.096 0.083-0.144 4.157 2.379 8.973 3.739 14.106 3.739 15.709 0 28.444-12.735 28.444-28.444 0-11.901-7.309-22.095-17.682-26.338-70.858-40.103-147.988-59.142-224.095-59.071v-113.702h85.464c15.637 0 28.314-13.194 28.314-28.444 0-15.709-12.222-28.444-28.314-28.444h-227.817c-15.637 0-28.314 13.194-28.314 28.444 0 15.709 12.222 28.444 28.314 28.444h85.464v117.322c-136.313 17.276-263.247 95.836-337.249 224.011-125.067 216.623-51.811 493.325 163.432 619.858zM568.889 220.444c-188.513 0-341.333 152.82-341.333 341.333s152.82 341.333 341.333 341.333c188.513 0 341.333-152.82 341.333-341.333s-152.82-341.333-341.333-341.333zM568.889 277.333c157.094 0 284.444 127.35 284.444 284.444s-127.35 284.444-284.444 284.444c-157.094 0-284.444-127.35-284.444-284.444s127.35-284.444 284.444-284.444z" />
<glyph unicode="&#xe93f;" glyph-name="64" d="M990.787 83.112c20.566 20.657 33.213 49.221 33.213 80.777v568.222c0 63.078-50.892 114.111-113.67 114.111h-227.772c-63.226 0-113.67-51.089-113.67-114.111v-55.866l-101.719 101.719c-43.78 43.78-116.124 44.204-160.484-0.156l-154.427-154.427c-31.942-31.942-40.921-78.447-26.708-118.492h-12.052c-62.718 0-113.498-50.892-113.498-113.67v-227.772c0-63.226 50.815-113.67 113.498-113.67h797.003c31.359 0 59.734 12.723 80.268 33.293zM568.889 598.259v-434.37c0-11.558 1.709-22.711 4.886-33.22-8.878 2.571-17.255 7.359-24.263 14.367l-362.546 362.546c-22.128 22.128-22.304 57.826 0.020 80.151l156.13 156.13c22.138 22.138 57.987 22.183 80.151 0.020l145.623-145.623zM509.998 106.667h-396.171c-31.446 0-56.938 25.655-56.938 56.364v228.605c0 31.129 25.295 56.364 56.938 56.364h53.173l330.691-330.691c3.89-3.89 8.006-7.438 12.307-10.642zM625.778 739.415c0 31.496 25.655 57.029 56.364 57.029h228.605c31.129 0 56.364-25.629 56.364-57.029v-582.83c0-31.496-25.655-57.029-56.364-57.029h-228.605c-31.129 0-56.364 25.629-56.364 57.029v582.83zM711.111 163.556c15.709 0 28.444 12.735 28.444 28.444s-12.735 28.444-28.444 28.444c-15.709 0-28.444-12.735-28.444-28.444s12.735-28.444 28.444-28.444z" />
<glyph unicode="&#xe940;" glyph-name="65" d="M796.444 220.444h57.227c62.552 0 113.44 50.874 113.44 113.629v284.741c0 62.665-50.789 113.629-113.44 113.629h-57.227v56.889c0 63.276-50.93 113.778-113.756 113.778h-341.377c-63.271 0-113.756-50.94-113.756-113.778v-56.889h-57.227c-62.552 0-113.44-50.874-113.44-113.629v-284.741c0-62.665 50.789-113.629 113.44-113.629h57.227v-113.886c0-63.226 50.93-113.67 113.756-113.67h341.377c63.271 0 113.756 50.892 113.756 113.67v113.886zM227.556 277.333h-56.499c-31.634 0-57.278 24.911-57.278 57.056v284.111c0 31.511 25.597 57.056 57.278 57.056h681.888c31.634 0 57.278-24.911 57.278-57.056v-284.111c0-31.511-25.597-57.056-57.278-57.056h-56.499v56.997c0 63.226-50.93 113.67-113.756 113.67h-341.377c-63.271 0-113.756-50.892-113.756-113.67v-56.997zM739.556 732.444h-455.111v56.948c0 31.386 25.773 56.83 56.72 56.83h341.671c31.326 0 56.72-25.182 56.72-56.83v-56.948zM284.444 334.747c0 31.129 25.773 56.364 56.72 56.364h341.671c31.326 0 56.72-25.655 56.72-56.364v-228.605c0-31.129-25.773-56.364-56.72-56.364h-341.671c-31.326 0-56.72 25.655-56.72 56.364v228.605zM256 561.778c15.709 0 28.444 12.735 28.444 28.444s-12.735 28.444-28.444 28.444c-15.709 0-28.444-12.735-28.444-28.444s12.735-28.444 28.444-28.444z" />
<glyph unicode="&#xe941;" glyph-name="66" d="M284.444 448c0 125.675 101.88 227.556 227.556 227.556s227.556-101.88 227.556-227.556h114.116c62.651 0 113.44-50.444 113.44-113.67v-227.772c0-62.778-50.888-113.67-113.44-113.67h-683.342c-62.651 0-113.44 50.444-113.44 113.67v227.772c0 62.778 50.888 113.67 113.44 113.67h114.116zM682.667 448h-341.333c0-94.257 76.41-170.667 170.667-170.667s170.667 76.41 170.667 170.667zM739.556 448c0 125.675-101.88 227.556-227.556 227.556s-227.556-101.88-227.556-227.556h455.111zM291.613 391.111h-120.557c-31.681 0-57.278-25.235-57.278-56.364v-228.605c0-30.709 25.644-56.364 57.278-56.364h681.888c31.681 0 57.278 25.235 57.278 56.364v228.605c0 30.709-25.644 56.364-57.278 56.364h-120.557c-25.261-98.146-114.355-170.667-220.387-170.667s-195.125 72.52-220.387 170.667v0zM398.114 903.111h227.772c62.778 0 132.68-47.525 155.938-105.67l143.019-357.548c7.052-17.63 9.057-34.252 6.695-48.866l-838.992 0.084c-2.455 14.316-0.48 31.055 6.611 48.782l143.019 357.548c23.344 58.36 92.712 105.67 155.938 105.67zM151.977 418.765c-8.378-20.946-3.871-27.654 18.352-27.654h683.342c22.281 0 26.757 6.64 18.352 27.654l-143.019 357.548c-14.656 36.64-63.702 69.91-103.118 69.91h-227.772c-39.779 0-88.344-32.975-103.118-69.91l-143.019-357.548z" />
<glyph unicode="&#xe942;" glyph-name="67" d="M455.111 732.444v28.444c0 47.457-38.169 85.333-85.252 85.333h-170.829c-47.42 0-85.252-38.205-85.252-85.333v-28.444h-0.279c-62.718 0-113.498-51.157-113.498-114.263v-454.141c0-62.952 50.815-114.263 113.498-114.263h797.003c62.718 0 113.498 51.157 113.498 114.263v454.141c0 62.952-50.815 114.263-113.498 114.263h-455.39zM398.222 732.444h-227.556c0 31.419 25.222 56.889 57.422 56.889h112.712c31.713 0 57.422-25.251 57.422-56.889zM56.889 618.928c0 31.274 25.295 56.627 56.938 56.627h796.345c31.446 0 56.938-25.922 56.938-56.627v-455.635c0-31.274-25.295-56.627-56.938-56.627h-796.345c-31.446 0-56.938 25.922-56.938 56.627v455.635zM512 163.556c-125.675 0-227.556 101.88-227.556 227.556s101.88 227.556 227.556 227.556c125.675 0 227.556-101.88 227.556-227.556s-101.88-227.556-227.556-227.556zM512 220.444c94.257 0 170.667 76.41 170.667 170.667s-76.41 170.667-170.667 170.667c-94.257 0-170.667-76.41-170.667-170.667s76.41-170.667 170.667-170.667zM512 277.333c-62.838 0-113.778 50.94-113.778 113.778s50.94 113.778 113.778 113.778c62.838 0 113.778-50.94 113.778-113.778s-50.94-113.778-113.778-113.778zM512 334.222c31.419 0 56.889 25.47 56.889 56.889s-25.47 56.889-56.889 56.889c-31.419 0-56.889-25.47-56.889-56.889s25.47-56.889 56.889-56.889zM824.889 561.778c15.709 0 28.444 12.735 28.444 28.444s-12.735 28.444-28.444 28.444c-15.709 0-28.444-12.735-28.444-28.444s12.735-28.444 28.444-28.444z" />
<glyph unicode="&#xe943;" glyph-name="68" d="M210.807 628.801l-80.33 80.33 40.165 40.165 80.33-80.33 40.165 40.165-80.33 80.33 40.165 40.165 80.33-80.33 40.165 40.165-40.165 40.165c-22.337 22.337-58.144 22.186-80.322 0.008l-120.51-120.51c-22.335-22.335-22.175-58.14 0.008-80.322l40.165-40.165 40.165 40.165zM411.632 829.626l-40.165 40.165c-44.674 44.674-116.401 44.258-160.897-0.238l-120.019-120.019c-44.959-44.959-44.603-116.532-0.238-160.897l40.165-40.165-0.321-0.321c-44.188-44.188-44.12-115.898 0.431-160.45l361.262-361.262c44.426-44.426 116.596-44.285 160.45-0.431l281.795 281.795c44.188 44.188 44.12 115.898-0.431 160.45l-361.262 361.262c-44.426 44.426-116.596 44.285-160.45 0.431l-0.321-0.321zM170.465 428.155c-22.084 22.084-22.061 57.913 0.079 80.053l281.351 281.351c22.128 22.128 57.933 22.199 80.053 0.079l361.839-361.839c22.084-22.084 22.061-57.913-0.079-80.053l-281.351-281.351c-22.128-22.128-57.933-22.199-80.053-0.079l-361.839 361.839zM230.89 448.060v0c10.767-10.767 29.135-11.030 40.302 0.137l240.714 240.714c10.865 10.865 11.229 29.211 0.137 40.302-10.767 10.767-29.135 11.030-40.302-0.137l-240.714-240.714c-10.865-10.865-11.229-29.211-0.137-40.302zM451.992 226.957l39.773-39.773c44.622-44.622 116.597-44.455 161.093 0.042l120.019 120.019c44.959 44.959 44.515 116.62 0.042 161.093l-39.773 39.773c-44.622 44.622-116.597 44.455-161.093-0.042l-120.019-120.019c-44.959-44.959-44.515-116.62-0.042-161.093zM491.919 267.36c-22.159 22.159-22.301 57.945 0.034 80.28l120.51 120.51c22.178 22.178 57.937 22.378 80.28 0.034l40.249-40.249c22.159-22.159 22.301-57.945-0.034-80.28l-120.51-120.51c-22.178-22.178-57.937-22.378-80.28-0.034l-40.249 40.249z" />
<glyph unicode="&#xe944;" glyph-name="69" d="M284.444 618.667v-56.889h-57.058c-30.947 0-56.72-25.394-56.72-56.72v-341.671c0-30.947 25.394-56.72 56.72-56.72h341.671c30.947 0 56.72 25.394 56.72 56.72v57.058h56.889v-56.911c0-62.826-50.485-113.756-113.756-113.756h-341.377c-62.826 0-113.756 50.485-113.756 113.756v341.377c0 62.826 50.485 113.756 113.756 113.756h56.911zM341.333 732.466v-341.377c0-63.271 50.93-113.756 113.756-113.756h341.377c63.271 0 113.756 50.93 113.756 113.756v341.377c0 63.271-50.93 113.756-113.756 113.756h-341.377c-63.271 0-113.756-50.93-113.756-113.756zM398.222 732.613c0 31.326 25.773 56.72 56.72 56.72h341.671c31.326 0 56.72-25.773 56.72-56.72v-341.671c0-31.326-25.773-56.72-56.72-56.72h-341.671c-31.326 0-56.72 25.773-56.72 56.72v341.671z" />
<glyph unicode="&#xe945;" glyph-name="70" d="M812.269 789.333l-365.44-365.44c-10.921-10.921-11.158-29.168-0.050-40.276 10.783-10.783 29.14-11.086 40.276 0.050l366.277 366.277v-217.123c0-14.969 12.735-27.933 28.444-27.933 15.25 0 28.444 12.506 28.444 27.933v285.468c0 7.403-3.115 14.316-8.164 19.413-5.227 5.295-12.141 8.52-19.769 8.52h-285.468c-14.969 0-27.933-12.735-27.933-28.444 0-15.25 12.506-28.444 27.933-28.444h215.448zM739.556 391.111v-227.817c0-31.274-25.922-56.627-56.627-56.627h-455.635c-31.274 0-56.627 25.922-56.627 56.627v455.635c0 31.274 25.922 56.627 56.627 56.627h227.817c15.709 0 28.444 12.735 28.444 28.444s-12.735 28.444-28.444 28.444h-227.070c-62.952 0-114.263-51.157-114.263-114.263v-454.141c0-62.952 51.157-114.263 114.263-114.263h454.141c62.952 0 114.263 51.157 114.263 114.263v227.070c0 15.709-12.735 28.444-28.444 28.444s-28.444-12.735-28.444-28.444z" />
<glyph unicode="&#xe946;" glyph-name="71" d="M68.595 192c-62.838 108.838 84.741 311.684 329.627 453.069s494.345 167.769 557.183 58.931c62.838-108.838-84.741-311.684-329.627-453.069s-494.345-167.769-557.183-58.931v0 0zM117.862 220.444c40.824-70.71 258.79-47.657 479.471 79.754s349.629 304.647 308.804 375.357c-40.824 70.71-258.79 47.657-479.471-79.754s-349.629-304.647-308.804-375.357v0 0zM68.595 704c62.838 108.838 312.297 82.454 557.183-58.931s392.465-344.231 329.627-453.069c-62.838-108.838-312.297-82.454-557.183 58.931s-392.465 344.231-329.627 453.069v0 0zM117.862 675.556c-40.824-70.71 88.123-247.947 308.804-375.357s438.647-150.464 479.471-79.754c40.824 70.71-88.123 247.947-308.804 375.357s-438.647 150.464-479.471 79.754v0 0zM512-64c-125.675 0-227.556 229.23-227.556 512s101.88 512 227.556 512c125.675 0 227.556-229.23 227.556-512s-101.88-512-227.556-512v0 0zM512-7.111c81.649 0 170.667 200.29 170.667 455.111s-89.018 455.111-170.667 455.111c-81.649 0-170.667-200.29-170.667-455.111s89.018-455.111 170.667-455.111v0 0zM512 391.111v0c-31.419 0-56.889 25.47-56.889 56.889s25.47 56.889 56.889 56.889c31.419 0 56.889-25.47 56.889-56.889s-25.47-56.889-56.889-56.889v0z" />
<glyph unicode="&#xe947;" glyph-name="72" d="M585.118 561.778h-186.896v56.889h243.785l-56.889-56.889zM665.571 561.778h17.095v17.095l-17.095-17.095h17.095v-227.556h-56.889v187.762l39.793 39.793zM398.222 374.882v130.007h130.007l-130.007-130.007zM568.889 465.095v-130.873h-130.873l130.873 130.873zM690.803 667.463c-11.017 5.196-23.332 8.093-36.327 8.093h-256.253v142.719c0 47.145-38.205 84.836-85.333 84.836-47.457 0-85.333-37.983-85.333-84.836v-142.719h-85.587c-46.421 0-85.080-38.205-85.080-85.333 0-47.457 38.092-85.333 85.080-85.333h85.587v-256.497c0-23.49 9.484-44.633 24.831-59.936 15.517-15.497 36.66-24.901 60.005-24.901h256.497v-85.587c0-46.421 38.205-85.080 85.333-85.080 47.457 0 85.333 38.092 85.333 85.080v85.587h142.719c47.145 0 84.836 38.205 84.836 85.333 0 47.457-37.983 85.333-84.836 85.333h-142.719v256.253c0 13.117-3.051 25.615-8.491 36.795l141.531 141.531c10.915 10.915 11.122 29.132 0.014 40.24-10.783 10.783-29.125 11.102-40.24-0.014l-141.566-141.566zM341.333 334.222h-28.941c-9.81 0-19.211-1.654-27.948-4.699v488.184c0 15.748 13.194 28.514 28.444 28.514 15.709 0 28.444-13.070 28.444-28.514v-483.486zM682.667 163.556v-84.783c0-16.013-13.194-28.994-28.444-28.994-15.709 0-28.444 12.656-28.444 28.994v84.783h56.889zM227.556 618.667v-56.889h-84.784c-16.013 0-28.993 13.194-28.993 28.444 0 15.709 12.951 28.444 28.993 28.444h84.784zM284.444 248.889c0 15.709 13.070 28.444 28.514 28.444h568.749c15.748 0 28.514-13.194 28.514-28.444 0-15.709-13.070-28.444-28.514-28.444h-568.749c-15.748 0-28.514 13.194-28.514 28.444z" />
<glyph unicode="&#xe948;" glyph-name="73" d="M113.778 302.873c-49.388 0-75.316 58.588-42.094 95.116l442.469 486.509c37.706 41.459 106.339 9.174 98.411-46.293l-34.206-244.69h331.865c49.388 0 75.316-58.588 42.094-95.116l-442.469-486.509c-37.706-41.459-106.339-9.174-98.411 46.293l34.898 244.18-332.556 0.51zM512 359.738l-44.247-309.596 442.469 486.509h-398.222l44.247 309.596-442.469-486.509h398.222z" />
<glyph unicode="&#xe949;" glyph-name="74" d="M56.889 789.671v-683.342c0-62.552 50.892-113.44 113.67-113.44h227.772c63.226 0 113.67 50.789 113.67 113.44v683.342c0 62.552-50.892 113.44-113.67 113.44h-227.772c-63.226 0-113.67-50.789-113.67-113.44zM113.778 788.944c0 31.634 25.655 57.278 56.364 57.278h228.605c31.129 0 56.364-25.597 56.364-57.278v-681.888c0-31.634-25.655-57.278-56.364-57.278h-228.605c-31.129 0-56.364 25.597-56.364 57.278v681.888zM512 789.671v-683.342c0-62.552 50.892-113.44 113.67-113.44h227.772c63.226 0 113.67 50.789 113.67 113.44v683.342c0 62.552-50.892 113.44-113.67 113.44h-227.772c-63.226 0-113.67-50.789-113.67-113.44zM568.889 788.944c0 31.634 25.655 57.278 56.364 57.278h228.605c31.129 0 56.364-25.597 56.364-57.278v-681.888c0-31.634-25.655-57.278-56.364-57.278h-228.605c-31.129 0-56.364 25.597-56.364 57.278v681.888zM625.778 675.219v-169.993c0-63.679 50.94-114.115 113.778-114.115 63.276 0 113.778 51.091 113.778 114.115v169.993c0 63.679-50.94 114.115-113.778 114.115-63.276 0-113.778-51.091-113.778-114.115zM682.667 675.567c0 31.413 25.251 56.878 56.889 56.878 31.419 0 56.889-25.243 56.889-56.878v-170.689c0-31.413-25.251-56.878-56.889-56.878-31.419 0-56.889 25.243-56.889 56.878v170.689zM170.667 675.219v-169.993c0-63.679 50.94-114.115 113.778-114.115 63.276 0 113.778 51.091 113.778 114.115v169.993c0 63.679-50.94 114.115-113.778 114.115-63.276 0-113.778-51.091-113.778-114.115zM227.556 675.567c0 31.413 25.251 56.878 56.889 56.878 31.419 0 56.889-25.243 56.889-56.878v-170.689c0-31.413-25.251-56.878-56.889-56.878-31.419 0-56.889 25.243-56.889 56.878v170.689zM284.444 106.667c-62.838 0-113.778 50.94-113.778 113.778s50.94 113.778 113.778 113.778c62.838 0 113.778-50.94 113.778-113.778s-50.94-113.778-113.778-113.778zM284.444 163.556c31.419 0 56.889 25.47 56.889 56.889s-25.47 56.889-56.889 56.889c-31.419 0-56.889-25.47-56.889-56.889s25.47-56.889 56.889-56.889zM739.556 106.667c-62.838 0-113.778 50.94-113.778 113.778s50.94 113.778 113.778 113.778c62.838 0 113.778-50.94 113.778-113.778s-50.94-113.778-113.778-113.778zM739.556 163.556c31.419 0 56.889 25.47 56.889 56.889s-25.47 56.889-56.889 56.889c-31.419 0-56.889-25.47-56.889-56.889s25.47-56.889 56.889-56.889z" />
<glyph unicode="&#xe94a;" glyph-name="75" d="M156.149 903.111c-54.733 0-99.26-44.44-99.26-99.26v-711.702c0-54.733 44.44-99.26 99.26-99.26h711.702c54.733 0 99.26 44.44 99.26 99.26v579.851l-231.111 231.111h-579.851zM162.873 846.222h544.174l203.175-203.175v-544.174c0-27.115-21.94-49.096-49.096-49.096h-698.253c-27.115 0-49.096 21.94-49.096 49.096v698.253c0 27.115 21.94 49.096 49.096 49.096zM170.667 846.222v-284.108c0-63.679 50.874-114.115 113.629-114.115h284.741c62.665 0 113.629 51.091 113.629 114.115v284.108h-512zM227.556 846.222h398.222v-284.969c0-31.129-24.911-56.364-57.056-56.364h-284.111c-31.511 0-57.056 25.655-57.056 56.364v284.969zM512 761.431c0 15.41 13.194 27.903 28.444 27.903 15.709 0 28.444-12.234 28.444-27.903v-171.75c0-15.41-13.194-27.903-28.444-27.903-15.709 0-28.444 12.234-28.444 27.903v171.75z" />
<glyph unicode="&#xe94b;" glyph-name="76" d="M227.556 277.333c0 15.709-12.735 28.444-28.444 28.444s-28.444-12.735-28.444-28.444c0-125.675 101.88-227.556 227.556-227.556 15.709 0 28.444 12.735 28.444 28.444s-12.735 28.444-28.444 28.444c-94.257 0-170.667 76.41-170.667 170.667zM625.778 789.333c-15.709 0-28.444 12.735-28.444 28.444s12.735 28.444 28.444 28.444c125.675 0 227.556-101.88 227.556-227.556 0-15.709-12.735-28.444-28.444-28.444s-28.444 12.735-28.444 28.444c0 94.257-76.41 170.667-170.667 170.667zM568.889 334.33v-227.772c0-63.226 51.091-113.67 114.115-113.67h169.993c63.679 0 114.115 50.892 114.115 113.67v227.772c0 63.226-51.091 113.67-114.115 113.67h-169.993c-63.679 0-114.115-50.892-114.115-113.67zM625.778 334.747c0 31.129 25.243 56.364 56.878 56.364h170.689c31.413 0 56.878-25.655 56.878-56.364v-228.605c0-31.129-25.243-56.364-56.878-56.364h-170.689c-31.413 0-56.878 25.655-56.878 56.364v228.605zM625.778 334.222h284.444v-56.889h-284.444v56.889zM625.778 163.556v-56.889h284.444v56.889h-284.444zM56.889 789.441v-227.772c0-63.226 51.091-113.67 114.115-113.67h169.993c63.679 0 114.115 50.892 114.115 113.67v227.772c0 63.226-51.091 113.67-114.115 113.67h-169.993c-63.679 0-114.115-50.892-114.115-113.67zM113.778 789.858c0 31.129 25.243 56.364 56.878 56.364h170.689c31.413 0 56.878-25.655 56.878-56.364v-228.605c0-31.129-25.243-56.364-56.878-56.364h-170.689c-31.413 0-56.878 25.655-56.878 56.364v228.605zM113.778 789.333h284.444v-56.889h-284.444v56.889zM113.778 618.667h284.444v-56.889h-284.444v56.889z" />
<glyph unicode="&#xe94c;" glyph-name="77" d="M512 106.667c188.228 0.026 341.333 153.151 341.333 341.333 0 15.709 12.735 28.444 28.444 28.444s28.444-12.735 28.444-28.444c0-210.326-163.106-382.619-369.778-397.22v-86.598c0-15.565-13.194-28.182-28.444-28.182-15.709 0-28.444 12.274-28.444 28.182v114.302c0 15.565 13.194 28.182 28.444 28.182v0zM483.556 845.224c-206.643-14.572-369.778-186.85-369.778-397.224 0-15.709 12.735-28.444 28.444-28.444s28.444 12.735 28.444 28.444c0 188.229 153.099 341.333 341.286 341.333 15.297 0 28.492 12.618 28.492 28.182v114.302c0 15.908-12.735 28.182-28.444 28.182-15.25 0-28.444-12.618-28.444-28.182v-86.594zM739.556 448c0 125.673-101.879 227.556-227.573 227.556-125.658 0-227.538-101.882-227.538-227.556 0-125.656 101.879-227.556 227.538-227.556 125.694 0 227.573 101.9 227.573 227.556v0zM341.333 448c0 94.115 76.55 170.667 170.643 170.667 94.125 0 170.69-76.552 170.69-170.667 0-94.099-76.565-170.667-170.69-170.667-94.093 0-170.643 76.568-170.643 170.667v0z" />
<glyph unicode="&#xe94d;" glyph-name="78" d="M8.865 478.497v0c6.677 10.514 18.777 27.702 36.024 49.373 28.416 35.704 61.377 71.356 98.691 104.746 108.862 97.414 232.36 156.717 368.42 156.717 135.449 0 258.773-59.291 367.844-156.676 37.373-33.368 70.435-68.996 98.978-104.675 17.322-21.652 29.488-38.822 36.204-49.316 12.003-18.755 11.961-42.788-0.108-61.5-6.756-10.476-18.988-27.627-36.384-49.26-28.671-35.654-61.835-71.258-99.266-104.605-109.28-97.356-232.431-156.634-367.269-156.634-135.449 0-258.773 59.291-367.844 156.676-37.373 33.368-70.435 68.996-98.978 104.675-17.322 21.652-29.488 38.822-36.204 49.316-11.925 18.633-11.967 42.489-0.108 61.163zM56.889 448c0 0 182.044-284.444 455.111-284.444 271.656 0 455.111 284.444 455.111 284.444s-182.044 284.444-455.111 284.444c-274.478 0-455.111-284.444-455.111-284.444zM341.333 448c0 94.252 76.415 170.667 170.667 170.667s170.667-76.415 170.667-170.667c0-94.252-76.415-170.667-170.667-170.667s-170.667 76.415-170.667 170.667zM398.222 448c0-62.834 50.944-113.778 113.778-113.778s113.778 50.944 113.778 113.778c0 62.834-50.944 113.778-113.778 113.778s-113.778-50.944-113.778-113.778z" />
<glyph unicode="&#xe94e;" glyph-name="79" d="M8.865 478.497v0c6.677 10.514 18.777 27.702 36.024 49.373 28.416 35.704 61.377 71.356 98.691 104.746 108.862 97.414 232.36 156.717 368.42 156.717 135.449 0 258.773-59.291 367.844-156.676 37.373-33.368 70.435-68.996 98.978-104.675 17.322-21.652 29.488-38.822 36.204-49.316 12.003-18.755 11.961-42.788-0.108-61.5-6.756-10.476-18.988-27.627-36.384-49.26-28.671-35.654-61.835-71.258-99.266-104.605-109.28-97.356-232.431-156.634-367.269-156.634-135.449 0-258.773 59.291-367.844 156.676-37.373 33.368-70.435 68.996-98.978 104.675-17.322 21.652-29.488 38.822-36.204 49.316-11.925 18.633-11.967 42.489-0.108 61.163zM56.889 448c0 0 182.044-284.444 455.111-284.444 271.656 0 455.111 284.444 455.111 284.444s-182.044 284.444-455.111 284.444c-274.478 0-455.111-284.444-455.111-284.444zM341.333 448c0 94.252 76.415 170.667 170.667 170.667s170.667-76.415 170.667-170.667c0-94.252-76.415-170.667-170.667-170.667s-170.667 76.415-170.667 170.667zM398.222 448c0-62.834 50.944-113.778 113.778-113.778s113.778 50.944 113.778 113.778c0 62.834-50.944 113.778-113.778 113.778s-113.778-50.944-113.778-113.778zM845.594 810.039c11.108-11.108 11.108-29.118 0-40.227l-683.851-683.851c-11.108-11.108-29.118-11.108-40.227 0s-11.108 29.118 0 40.227l683.851 683.851c11.108 11.108 29.118 11.108 40.227 0z" />
<glyph unicode="&#xe94f;" glyph-name="80" d="M584.11 163.556c-9.681-16.735-15.221-36.165-15.221-56.889s5.541-40.154 15.221-56.889h-413.583c-31.342 0-56.749 25.251-56.749 56.889 0 31.419 25.39 56.889 56.749 56.889h413.583zM170.667 220.444h-0.454c-62.114 0-113.324-50.94-113.324-113.778 0-63.276 50.737-113.778 113.324-113.778h512.908c62.114 0 113.324 51.089 113.324 114.111v682.333h170.667c0 62.838-50.94 113.778-113.778 113.778h-568.404c-62.952 0-114.263-50.789-114.263-113.44v-569.227zM227.556 220.444v568.499c0 31.634 25.922 57.278 56.627 57.278h470.594c-9.681-16.735-15.221-36.165-15.221-56.889v-682.752c0-31.372-25.39-56.804-56.749-56.804h-0.14v170.667h-455.111zM910.222 789.333h-113.778c0 31.419 25.47 56.889 56.889 56.889s56.889-25.47 56.889-56.889zM796.444 789.333v-56.889h170.667v56.889h-170.667zM682.667 163.556v-113.778c-31.419 0-56.889 25.47-56.889 56.889s25.47 56.889 56.889 56.889z" />
</font>
</defs>
</svg>
