<?xml version="1.0" encoding="UTF-8" standalone="no"?>
<svg width="24px" height="24px" viewBox="0 0 24 24" version="1.1" xmlns="http://www.w3.org/2000/svg" xmlns:xlink="http://www.w3.org/1999/xlink">
    <!-- Generator: Sketch 40 (33762) - http://www.bohemiancoding.com/sketch -->
    <title>tishi-nomal</title>
    <desc>Created with Sketch.</desc>
    <defs></defs>
    <g id="Page-6" stroke="none" stroke-width="1" fill="none" fill-rule="evenodd">
        <g id="Artboard" transform="translate(-382.000000, -236.000000)" fill="#E4A600">
            <g id="系统提示图标" transform="translate(118.000000, 236.000000)">
                <g id="tishi-nomal" transform="translate(264.000000, 0.000000)">
                    <path d="M12,24 C18.627417,24 24,18.627417 24,12 C24,5.372583 18.627417,0 12,0 C5.372583,0 0,5.372583 0,12 C0,18.627417 5.372583,24 12,24 Z M14.4995188,16.2422255 L14.4995188,17.0020869 C14.4995188,18.1055038 13.605619,19 12.4946373,19 L11.5044003,19 C10.3971348,19 9.49951876,18.1017394 9.49951876,17.0020869 L9.49951876,16.2422255 C8.29353302,15.4349641 7.49951876,14.0602081 7.49951876,12.5 C7.49951876,10.0147186 9.51423739,8 11.9995188,8 C14.4848001,8 16.4995188,10.0147186 16.4995188,12.5 C16.4995188,14.0602081 15.7055045,15.4349641 14.4995188,16.2422255 L14.4995188,16.2422255 Z M12.9995188,15.3292943 C14.1647111,14.9174579 14.9995188,13.8062188 14.9995188,12.5 C14.9995188,10.8431458 13.656373,9.5 11.9995188,9.5 C10.3426645,9.5 8.99951876,10.8431458 8.99951876,12.5 C8.99951876,13.8062188 9.83432639,14.9174579 10.9995188,15.3292943 L10.9995188,16.5013041 C10.9995188,17.0520711 11.447234,17.5 11.9995188,17.5 C12.5556539,17.5 12.9995188,17.0528686 12.9995188,16.5013041 L12.9995188,15.3292943 L12.9995188,15.3292943 Z M11.4995188,5.0059123 C11.4995188,4.72650465 11.7314524,4.5 11.9995188,4.5 C12.2756611,4.5 12.4995188,4.73071289 12.4995188,5.0059123 L12.4995188,6.4940877 C12.4995188,6.77349535 12.2675852,7 11.9995188,7 C11.7233764,7 11.4995188,6.76928711 11.4995188,6.4940877 L11.4995188,5.0059123 Z M7.38725156,6.86484385 C7.18968052,6.66727281 7.19351936,6.34310802 7.38307093,6.15355644 C7.57833308,5.9582943 7.89976297,5.9631417 8.09435834,6.15773707 L9.14665725,7.21003598 C9.3442283,7.40760703 9.34038946,7.73177182 9.15083788,7.9213234 C8.95557574,8.11658554 8.63414584,8.11173814 8.43955047,7.91714277 L7.38725156,6.86484385 Z M16.6166585,6.86484385 C16.8142295,6.66727281 16.8103907,6.34310802 16.6208391,6.15355644 C16.425577,5.9582943 16.1041471,5.9631417 15.9095517,6.15773707 L14.8572528,7.21003598 C14.6596817,7.40760703 14.6635206,7.73177182 14.8530721,7.9213234 C15.0483343,8.11658554 15.3697642,8.11173814 15.5643596,7.91714277 L16.6166585,6.86484385 Z" id="Combined-Shape"></path>
                </g>
            </g>
        </g>
    </g>
</svg>