<?xml version="1.0" encoding="UTF-8" standalone="no"?>
<svg width="24px" height="24px" viewBox="0 0 24 24" version="1.1" xmlns="http://www.w3.org/2000/svg" xmlns:xlink="http://www.w3.org/1999/xlink">
    <!-- Generator: Sketch 3.7.1 (28215) - http://www.bohemiancoding.com/sketch -->
    <title>icons-sys-tishi-nomal</title>
    <desc>Created with Sketch.</desc>
    <defs></defs>
    <g id="Page-1" stroke="none" stroke-width="1" fill="none" fill-rule="evenodd">
        <g id="系统图标" transform="translate(-331.000000, -236.000000)">
            <g id="系统提示图标" transform="translate(118.000000, 236.000000)">
                <g id="icons-sys-tishi-nomal" transform="translate(213.000000, 0.000000)">
                    <path d="M12,24 C18.627417,24 24,18.627417 24,12 C24,5.372583 18.627417,0 12,0 C5.372583,0 0,5.372583 0,12 C0,18.627417 5.372583,24 12,24 Z" id="Oval-9-Copy" fill="#E4A600"></path>
                    <g id="灯泡" transform="translate(7.000000, 5.000000)" fill="#FFFFFF">
                        <g id="Group-7" transform="translate(0.000000, 3.000000)">
                            <path d="M4.02046065,8.13573317 C3.54220257,8.01104438 3.10893995,7.79101364 2.74773338,7.5 L2.74773338,9.25 C2.74773338,10.2232366 3.5331474,11 4.50200469,11 L5.36846206,11 C6.34057105,11 7.12273338,10.2164983 7.12273338,9.25 L7.12273338,7.5 L7.12192348,7.5 C6.74099531,7.80690276 6.27992787,8.03485979 5.77046065,8.15530028 L5.77046065,8.81266844 C5.77046065,9.29582457 5.38207893,9.6875 4.89546065,9.6875 C4.41221149,9.6875 4.02046065,9.29924794 4.02046065,8.81266844 L4.02046065,8.13573317 L4.02046065,8.13573317 Z" id="Combined-Shape"></path>
                            <path d="M5.77046065,9.30679007 C7.80691818,8.92716495 9.3500061,7.11646357 9.3500061,4.94000006 C9.3500061,2.48785574 7.39125188,0.5 4.9750061,0.5 C2.55876032,0.5 0.600006104,2.48785574 0.600006104,4.94000006 C0.600006104,7.05941848 2.06326543,8.83199676 4.02046065,9.27401005 L4.02046065,7.93308988 C2.75543423,7.54891613 1.83296065,6.35313421 1.83296065,4.9375 C1.83296065,3.21161016 3.2040886,1.8125 4.89546065,1.8125 C6.5868327,1.8125 7.95796065,3.21161016 7.95796065,4.9375 C7.95796065,6.35313421 7.03548706,7.54891613 5.77046065,7.93308988 L5.77046065,9.30679007 L5.77046065,9.30679007 Z" id="Combined-Shape"></path>
                        </g>
                        <path d="M4.35502404,0.635439277 C4.35502404,0.284495855 4.63528047,0 4.98642444,0 C5.33513725,0 5.61782483,0.280920982 5.61782483,0.635439277 L5.61782483,1.98956072 C5.61782483,2.34050415 5.33756841,2.625 4.98642444,2.625 C4.63771163,2.625 4.35502404,2.34407902 4.35502404,1.98956072 L4.35502404,0.635439277 L4.35502404,0.635439277 Z M0.387600413,2.38950936 C0.139445939,2.14135488 0.136448209,1.74201472 0.384744492,1.49371843 C0.631321684,1.24714124 1.02985312,1.24589206 1.28053541,1.49657435 L2.23804387,2.45408281 C2.48619834,2.70223729 2.48919608,3.10157745 2.24089979,3.34987373 C1.9943226,3.59645093 1.59579116,3.5977001 1.34510887,3.34701781 L0.387600413,2.38950936 L0.387600413,2.38950936 Z M8.69231346,1.49657435 C8.94046793,1.24841988 9.3398081,1.24542215 9.58810438,1.49371843 C9.83468157,1.74029563 9.83593075,2.13882707 9.58524846,2.38950936 L8.62774,3.34701781 C8.37958553,3.59517229 7.98024536,3.59817002 7.73194908,3.34987373 C7.48537189,3.10329654 7.48412271,2.7047651 7.734805,2.45408281 L8.69231346,1.49657435 L8.69231346,1.49657435 Z" id="Combined-Shape"></path>
                    </g>
                </g>
            </g>
        </g>
    </g>
</svg>