<?xml version="1.0" encoding="UTF-8" standalone="no"?>
<svg width="16px" height="16px" viewBox="0 0 16 16" version="1.1" xmlns="http://www.w3.org/2000/svg" xmlns:xlink="http://www.w3.org/1999/xlink">
    <!-- Generator: Sketch 40 (33762) - http://www.bohemiancoding.com/sketch -->
    <title>sys-tishi-nomal</title>
    <desc>Created with Sketch.</desc>
    <defs></defs>
    <g id="Page-6" stroke="none" stroke-width="1" fill="none" fill-rule="evenodd">
        <g id="Artboard" transform="translate(-385.000000, -288.000000)" fill="#E4A600">
            <g id="系统提示图标-小" transform="translate(122.000000, 288.000000)">
                <g id="sys-tishi-nomal" transform="translate(263.000000, 0.000000)">
                    <path d="M8,16 C12.418278,16 16,12.418278 16,8 C16,3.581722 12.418278,0 8,0 C3.581722,0 0,3.581722 0,8 C0,12.418278 3.581722,16 8,16 Z M9.66634584,10.8281503 L9.66634584,11.3347246 C9.66634584,12.0703359 9.07041264,12.6666667 8.32975817,12.6666667 L7.66960017,12.6666667 C6.93142319,12.6666667 6.33301251,12.0678263 6.33301251,11.3347246 L6.33301251,10.8281503 C5.52902201,10.2899761 4.99967917,9.37347203 4.99967917,8.33333333 C4.99967917,6.67647908 6.34282492,5.33333333 7.99967917,5.33333333 C9.65653342,5.33333333 10.9996792,6.67647908 10.9996792,8.33333333 C10.9996792,9.37347203 10.4703363,10.2899761 9.66634584,10.8281503 L9.66634584,10.8281503 Z M8.66634584,10.2195295 C9.44314075,9.94497192 9.99967917,9.20414588 9.99967917,8.33333333 C9.99967917,7.22876383 9.10424867,6.33333333 7.99967917,6.33333333 C6.89510967,6.33333333 5.99967917,7.22876383 5.99967917,8.33333333 C5.99967917,9.20414588 6.55621759,9.94497192 7.33301251,10.2195295 L7.33301251,11.0008694 C7.33301251,11.3680474 7.63148934,11.6666667 7.99967917,11.6666667 C8.37043596,11.6666667 8.66634584,11.3685791 8.66634584,11.0008694 L8.66634584,10.2195295 L8.66634584,10.2195295 Z M7.66634584,3.33727487 C7.66634584,3.1510031 7.82096824,3 7.99967917,3 C8.18377409,3 8.33301251,3.15380859 8.33301251,3.33727487 L8.33301251,4.3293918 C8.33301251,4.51566356 8.17839011,4.66666667 7.99967917,4.66666667 C7.81558426,4.66666667 7.66634584,4.51285807 7.66634584,4.3293918 L7.66634584,3.33727487 Z M4.92483437,4.57656257 C4.79312034,4.44484854 4.79567957,4.22873868 4.92204729,4.10237096 C5.05222205,3.9721962 5.26650865,3.9754278 5.39623889,4.10515805 L6.0977715,4.80669066 C6.22948553,4.93840469 6.2269263,5.15451455 6.10055859,5.28088226 C5.97038382,5.41105703 5.75609723,5.40782542 5.62636698,5.27809518 L4.92483437,4.57656257 Z M11.0777723,4.57656257 C11.2094863,4.44484854 11.2069271,4.22873868 11.0805594,4.10237096 C10.9503846,3.9721962 10.736098,3.9754278 10.6063678,4.10515805 L9.90483519,4.80669066 C9.77312116,4.93840469 9.77568038,5.15451455 9.9020481,5.28088226 C10.0322229,5.41105703 10.2465095,5.40782542 10.3762397,5.27809518 L11.0777723,4.57656257 Z" id="Combined-Shape"></path>
                </g>
            </g>
        </g>
    </g>
</svg>