<?xml version="1.0" encoding="UTF-8"?>
<svg width="40px" height="40px" viewBox="0 0 40 40" version="1.1" xmlns="http://www.w3.org/2000/svg" xmlns:xlink="http://www.w3.org/1999/xlink">
    <!-- Generator: Sketch 43.1 (39012) - http://www.bohemiancoding.com/sketch -->
    <title>Group 7</title>
    <desc>Created with Sketch.</desc>
    <defs></defs>
    <g id="Page-1" stroke="none" stroke-width="1" fill="none" fill-rule="evenodd">
        <g id="图标" transform="translate(-212.000000, -299.000000)">
            <g id="Group-15" transform="translate(12.000000, 97.000000)">
                <g id="Group-5" transform="translate(0.000000, 12.000000)">
                    <g id="Group-2-Copy-9" transform="translate(88.000000, 176.000000)">
                        <g id="Group-3" transform="translate(4.000000, 14.000000)">
                            <g id="Group-7" transform="translate(108.000000, 0.000000)">
                                <rect id="Rectangle-2-Copy" fill="#39B6FF" x="2.77555756e-15" y="0" width="40" height="40" rx="10"></rect>
                                <path d="M15.0773231,18.7230879 C14.0944057,17.5842349 13.5,16.1006571 13.5,14.4782485 C13.5,13.9978913 13.5521064,13.5297042 13.6509753,13.079031 C12.2348667,13.4393161 11.1837226,14.7237948 11.1837226,16.2531129 L11.1837226,16.3702994 C11.1837226,17.6021776 11.861699,18.6728525 12.8643439,19.2320395 C10.6242187,19.9348432 9,22.0178834 9,24.4782485 C9,25.4517777 9.25429826,25.8526405 9.70042883,25.9479132 C10.321635,22.8124513 12.3388686,20.1792407 15.0773231,18.7230879 Z M30.2997228,25.9486785 C30.7456955,25.8548019 31,25.4544072 31,24.4782485 C31,22.0123439 29.3771977,19.9254651 27.1412942,19.2273134 C28.1398845,18.6663067 28.8162774,17.597078 28.8162774,16.3702994 L28.8162774,16.2531129 C28.8162774,14.7206725 27.7671067,13.4376949 26.3489089,13.0785035 C26.4478529,13.5293388 26.5,13.9977039 26.5,14.4782485 C26.5,16.1006571 25.9055943,17.5842349 24.9226769,18.7230879 C27.6613542,20.1793592 29.6786933,22.8128798 30.2997228,25.9486785 Z" id="Combined-Shape" fill="#FFFFFF"></path>
                                <path d="M15.0153846,13.9804785 C15.0153846,11.2298362 17.2526746,9 20,9 C22.7529271,9 24.9846154,11.2384333 24.9846154,13.9804785 L24.9846154,14.2195215 C24.9846154,16.9701638 22.7473254,19.2 20,19.2 C17.2470729,19.2 15.0153846,16.9615667 15.0153846,14.2195215 L15.0153846,13.9804785 Z M19.8924228,30.0155543 C14.9812733,30.0155543 11,33.1482192 11,28.2370697 C11,23.3259202 14.9812733,19.3446469 19.8924228,19.3446469 C24.8035722,19.3446469 28.7848455,23.3259202 28.7848455,28.2370697 C28.7848455,33.1482192 24.8035722,30.0155543 19.8924228,30.0155543 Z" id="Combined-Shape" fill="#FFFFFF"></path>
                            </g>
                        </g>
                    </g>
                </g>
            </g>
        </g>
    </g>
</svg>