<?xml version="1.0" encoding="UTF-8" standalone="no"?>
<svg width="9px" height="9px" viewBox="0 0 9 9" version="1.1" xmlns="http://www.w3.org/2000/svg" xmlns:xlink="http://www.w3.org/1999/xlink">
    <!-- Generator: Sketch 39.1 (31720) - http://www.bohemiancoding.com/sketch -->
    <title>icons-sys-tuozhuai-nomal</title>
    <desc>Created with Sketch.</desc>
    <defs></defs>
    <g id="系统图标" stroke="none" stroke-width="1" fill="none" fill-rule="evenodd">
        <g transform="translate(-491.000000, -164.000000)" id="icons-sys-tuozhuai-nomal" fill="#66757F">
            <g transform="translate(491.000000, 164.000000)">
                <path d="M0.346699474,8.00203712 C0.155222642,7.81056029 0.159892607,7.49544504 0.348826481,7.30651116 L7.30651116,0.348826481 C7.49916271,0.156174935 7.80961933,0.154281682 8.00203712,0.346699474 L8.03612706,0.380789415 C8.22760389,0.572266247 8.22293393,0.887381496 8.03400005,1.07631537 L1.07631537,8.03400005 C0.883663824,8.2266516 0.573207207,8.22854485 0.380789415,8.03612706 L0.346699474,8.00203712 Z M3.34669947,7.93990206 C3.15522264,7.74842523 3.15282407,7.44037852 3.3604209,7.23278168 L7.23278168,3.3604209 C7.43183665,3.16136593 7.74748427,3.15428168 7.93990206,3.34669947 L7.973992,3.38078942 C8.16546883,3.57226625 8.16786741,3.88031296 7.96027057,4.08790979 L4.08790979,7.96027057 C3.88885482,8.15932554 3.57320721,8.16640979 3.38078942,7.973992 L3.34669947,7.93990206 Z M6.34669947,7.877767 C6.15522264,7.68629017 6.16385105,7.36721648 6.35510599,7.17596153 L7.17596153,6.35510599 C7.37208116,6.15898637 7.68534921,6.15428168 7.877767,6.34669947 L7.91185694,6.38078942 C8.10333378,6.57226625 8.09470537,6.89133993 7.90345042,7.08259488 L7.08259488,7.90345042 C6.88647526,8.09957005 6.57320721,8.10427474 6.38078942,7.91185694 L6.34669947,7.877767 Z" id="Combined-Shape"></path>
            </g>
        </g>
    </g>
</svg>