<?xml version="1.0" encoding="UTF-8" standalone="no"?>
<svg width="14px" height="18px" viewBox="0 0 14 18" version="1.1" xmlns="http://www.w3.org/2000/svg" xmlns:xlink="http://www.w3.org/1999/xlink">
    <!-- Generator: Sketch 3.7.1 (28215) - http://www.bohemiancoding.com/sketch -->
    <title>Combined Shape</title>
    <desc>Created with Sketch.</desc>
    <defs></defs>
    <g id="发分享控件" stroke="none" stroke-width="1" fill="none" fill-rule="evenodd">
        <g id="发表框控件" transform="translate(-75.000000, -308.000000)" fill="#66757F">
            <g id="发表框-激活" transform="translate(70.000000, 176.000000)">
                <g id="功能按钮" transform="translate(5.000000, 124.000000)">
                    <path d="M5.25328278,14.5668503 L2.66962057,19.3474814 C2.01946796,20.5504791 2.40716399,22.0851541 3.5331921,22.7796624 C4.66707068,23.4790128 6.09823836,23.0635515 6.74732909,21.8625186 L9.33887214,17.0673054 L8.52333044,16.5642979 L5.93665007,21.3505136 C5.54491881,22.0753462 4.68437247,22.3280382 4.00404533,21.908428 C3.32842846,21.4917229 3.09924745,20.5645591 3.49002496,19.8414912 L6.06882448,15.0698577 L8.66332302,10.2691759 C9.31513394,9.06310969 10.7485068,8.64356816 11.8823854,9.34291851 C13.0084135,10.0374269 13.3940609,11.5758923 12.7410315,12.7842131 L10.6237727,16.7018435 L11.017158,16.9444746 L11.4393144,17.204851 L13.5606358,13.2797035 C14.4651404,11.6060702 13.9296779,9.44399575 12.3532386,8.47168405 C10.780007,7.5013508 8.76145615,8.07556724 7.85184385,9.75865136 L5.25328278,14.5668503 L5.25328278,14.5668503 Z M7.90739814,23.7400661 C6.7383063,25.9032734 4.14335881,26.6409371 2.12063244,25.3933658 C0.0937818338,24.1432508 -0.601744115,21.3765303 0.567522809,19.2129991 L4.10093344,12.6750188 L4.91647514,13.1780262 L1.38107215,19.7196931 C0.473164837,21.3996224 1.0150463,23.5498196 2.59148566,24.5221313 C4.16471728,25.4924646 6.18191764,24.9207469 7.08986407,23.2407452 L10.6252671,16.6990784 L11.4408088,17.2020858 L7.90739814,23.7400661 L7.90739814,23.7400661 Z" id="Combined-Shape"></path>
                </g>
            </g>
        </g>
    </g>
</svg>