<?xml version="1.0" encoding="UTF-8"?>
<svg width="84px" height="96px" viewBox="0 0 84 96" version="1.1" xmlns="http://www.w3.org/2000/svg" xmlns:xlink="http://www.w3.org/1999/xlink">
    <!-- Generator: Sketch 44.1 (41455) - http://www.bohemiancoding.com/sketch -->
    <title>图标</title>
    <desc>Created with Sketch.</desc>
    <defs></defs>
    <g id="首页" stroke="none" stroke-width="1" fill="none" fill-rule="evenodd">
        <g id="中屏幕1-1440" transform="translate(-391.000000, -453.000000)">
            <g id="图标" transform="translate(391.000000, 453.000000)">
                <path d="M55.954844,25.6810432 C59.2685525,25.6810432 63.6343747,23.3856359 63.6343747,19.4526508 C63.6343747,15.5196657 58.6258056,12.9611228 55.3120971,12.9611228 C51.9983886,12.9611228 43.5864084,16.4709459 43.5864084,19.5074073 C43.5864084,22.5438688 52.6411355,25.6810432 55.954844,25.6810432 Z" id="Oval-4" fill="#CE8FEB" transform="translate(53.610392, 19.321083) rotate(-127.000000) translate(-53.610392, -19.321083) "></path>
                <path d="M64.8622008,28.3807705 C68.1759093,28.3807705 72.5417316,26.0853633 72.5417316,22.1523782 C72.5417316,18.219393 67.5331625,15.6608502 64.219454,15.6608502 C60.9057455,15.6608502 52.4937653,19.1706732 52.4937653,22.2071347 C52.4937653,25.2435962 61.5484923,28.3807705 64.8622008,28.3807705 Z" id="Oval-4" fill="#BE6CDE" transform="translate(62.517748, 22.020810) rotate(-32.000000) translate(-62.517748, -22.020810) "></path>
                <path d="M60.6224794,24.4325967 C64.2507778,24.4325967 67.8020101,21.919595 67.8020101,18.7042043 C67.8020101,15.5870022 63.8114199,13.1382356 59.9645152,13.1382356 C56.0650778,13.1382356 48.7540438,16.4851896 48.7540438,18.7589608 C48.7540438,21.0063033 56.6375725,24.4325967 60.6224794,24.4325967 Z" id="Oval-4" stroke="#EFDAF8" transform="translate(58.278027, 18.785416) rotate(-74.000000) translate(-58.278027, -18.785416) "></path>
                <ellipse id="Oval-3" fill="#E7CCF7" cx="53.5" cy="94.5" rx="23.5" ry="1.5"></ellipse>
                <rect id="Rectangle-15" fill="#BE6CDE" transform="translate(32.602292, 50.846418) rotate(-20.000000) translate(-32.602292, -50.846418) " x="31.6022916" y="47.8464177" width="2" height="6"></rect>
                <path d="M29,52 L77,52 L77,84 L77,84 C77,85.1045695 76.1045695,86 75,86 L31,86 L31,86 C29.8954305,86 29,85.1045695 29,84 L29,52 Z" id="Rectangle-3" fill="#EFDAF8"></path>
                <rect id="Rectangle-17" fill="#CE8FEB" x="50" y="52" width="6" height="34"></rect>
                <path d="M29.3680012,58.6786511 L76.3680012,58.6786511" id="Path-70" stroke="#BE6CDE" stroke-dasharray="2"></path>
                <path d="M26.9438694,25.702946 L80.9438694,25.702946 L80.9438694,25.702946 C82.0484389,25.702946 82.9438694,26.5983765 82.9438694,27.702946 L82.9438694,40.702946 L24.9438694,40.702946 L24.9438694,27.702946 L24.9438694,27.702946 C24.9438694,26.5983765 25.8392999,25.702946 26.9438694,25.702946 Z" id="Rectangle-8" fill="#EFDAF8" transform="translate(53.943869, 33.202946) rotate(16.000000) translate(-53.943869, -33.202946) "></path>
                <path d="M18.0221704,13.5994149 C14.9574431,17.4832477 14.4549108,20.618955 16.5145736,23.0065368 C19.6040679,26.5879094 22.5482816,24.8607314 24.65817,23.9396529 C26.7680584,23.0185743 30.3419594,22.0580624 33.0694976,25.2421966 C35.7970358,28.4263307 34.3172498,31.749104 31.6328807,34.2994 C28.9485116,36.8496959 27.5587996,40.4514078 30.3141486,43.4230173 C33.0694976,46.3946268 36.4703073,45.3004568 39.1310165,43.9032732 C41.7917256,42.5060896 45.3261934,43.36449 46.9911082,45.867466 C48.6560231,48.370442 47.8021887,51.4640871 47.3966485,51.968003" id="Path-5" stroke="#BE6CDE" stroke-dasharray="2,2,2"></path>
                <rect id="Rectangle-11" fill="#FEC300" x="32" y="0" width="5" height="15"></rect>
                <circle id="Oval-5" fill="#FF3B45" cx="25" cy="14" r="1"></circle>
                <circle id="Oval-6" fill="#7ACB62" cx="20.5" cy="39.5" r="1.5"></circle>
                <circle id="Oval-8" fill="#0ED0FA" cx="1.5" cy="38.5" r="1.5"></circle>
                <rect id="Rectangle-12" fill="#0ED0FA" x="37" y="29" width="4" height="10"></rect>
                <rect id="Rectangle-13" fill="#FF3B45" transform="translate(8.707794, 28.865982) rotate(-39.000000) translate(-8.707794, -28.865982) " x="6.20779412" y="21.8659817" width="5" height="14"></rect>
                <rect id="Rectangle-8" fill="#CE8FEB" transform="translate(54.036426, 33.129179) rotate(16.000000) translate(-54.036426, -33.129179) " x="50.9476253" y="25.6291791" width="6.17760169" height="15"></rect>
            </g>
        </g>
    </g>
</svg>