<?xml version="1.0" encoding="UTF-8"?>
<svg width="340px" height="62px" viewBox="0 0 340 62" version="1.1" xmlns="http://www.w3.org/2000/svg" xmlns:xlink="http://www.w3.org/1999/xlink">
    <!-- Generator: Sketch 44.1 (41455) - http://www.bohemiancoding.com/sketch -->
    <title>Group 13</title>
    <desc>Created with Sketch.</desc>
    <defs>
        <path d="M82.1801226,18.8313766 C104.925429,18.8313766 113.864979,36.7711464 135.375929,36.2748805 C156.88688,35.7786146 202.917777,13.5575872 237.175243,13.5575872 C271.43271,13.5575872 291.474624,36.2748805 309.806955,36.2748805 C328.139286,36.2748805 343.329409,22.6844334 361.613941,22.6844334 C379.898473,22.6844334 393.607906,29.7158624 400.046355,36.2748805 C406.484804,42.8338986 397.271872,47.7444537 397.271872,47.7444537 L17,47.7444537 C17,47.7444537 59.4348165,18.8313766 82.1801226,18.8313766 Z" id="path-1"></path>
        <filter x="-4.5%" y="-62.9%" width="109.1%" height="202.4%" filterUnits="objectBoundingBox" id="filter-2">
            <feMorphology radius="0.5" operator="dilate" in="SourceAlpha" result="shadowSpreadOuter1"></feMorphology>
            <feOffset dx="0" dy="-4" in="shadowSpreadOuter1" result="shadowOffsetOuter1"></feOffset>
            <feGaussianBlur stdDeviation="5" in="shadowOffsetOuter1" result="shadowBlurOuter1"></feGaussianBlur>
            <feComposite in="shadowBlurOuter1" in2="SourceAlpha" operator="out" result="shadowBlurOuter1"></feComposite>
            <feColorMatrix values="0 0 0 0 0   0 0 0 0 0   0 0 0 0 0  0 0 0 0.02 0" type="matrix" in="shadowBlurOuter1"></feColorMatrix>
        </filter>
        <path d="M412.729474,47.5793259 C412.729474,47.5793259 419.040191,-0.000397307878 372.143167,-0.000397307878 C325.246142,-0.000397307878 286.206321,37.3761879 264.695371,36.6904011 C243.184421,36.0046144 217.040082,15.2196698 182.782616,15.2196698 C148.525149,15.2196698 130.669588,33.6892383 112.337257,33.6892383 C94.0049255,33.6892383 48.3617142,8.78331958 17,25.6872194 C-14.3617142,42.5911193 8.85703408,47.5793259 8.85703408,47.5793259 L372.143167,47.5793259 L412.729474,47.5793259 Z" id="path-3"></path>
        <filter x="-4.2%" y="-45.2%" width="108.5%" height="173.6%" filterUnits="objectBoundingBox" id="filter-4">
            <feMorphology radius="0.5" operator="dilate" in="SourceAlpha" result="shadowSpreadOuter1"></feMorphology>
            <feOffset dx="0" dy="-4" in="shadowSpreadOuter1" result="shadowOffsetOuter1"></feOffset>
            <feGaussianBlur stdDeviation="5" in="shadowOffsetOuter1" result="shadowBlurOuter1"></feGaussianBlur>
            <feComposite in="shadowBlurOuter1" in2="SourceAlpha" operator="out" result="shadowBlurOuter1"></feComposite>
            <feColorMatrix values="0 0 0 0 0   0 0 0 0 0   0 0 0 0 0  0 0 0 0.02 0" type="matrix" in="shadowBlurOuter1"></feColorMatrix>
        </filter>
    </defs>
    <g id="首页" stroke="none" stroke-width="1" fill="none" fill-rule="evenodd">
        <g id="1280" transform="translate(-177.000000, -356.000000)">
            <g id="个人卡片" transform="translate(177.000000, 200.000000)">
                <g id="Group-3" transform="translate(0.000000, 40.000000)">
                    <g id="卡片背景160" transform="translate(-17.000000, -7.000000)">
                        <g id="Group-13" transform="translate(-17.000000, 137.000000)">
                            <g id="Path-4">
                                <use fill="black" fill-opacity="1" filter="url(#filter-2)" xlink:href="#path-1"></use>
                                <use stroke-opacity="0.1" stroke="#FFFFFF" stroke-width="1" fill-opacity="0.1" fill="#FFFFFF" fill-rule="evenodd" xlink:href="#path-1"></use>
                            </g>
                            <g id="Path-4">
                                <use fill="black" fill-opacity="1" filter="url(#filter-4)" xlink:href="#path-3"></use>
                                <use stroke-opacity="0.1" stroke="#FFFFFF" stroke-width="1" fill-opacity="0.1" fill="#FFFFFF" fill-rule="evenodd" xlink:href="#path-3"></use>
                            </g>
                        </g>
                    </g>
                </g>
            </g>
        </g>
    </g>
</svg>