<?xml version="1.0" encoding="UTF-8" standalone="no"?>
<svg width="24px" height="24px" viewBox="0 0 24 24" version="1.1" xmlns="http://www.w3.org/2000/svg" xmlns:xlink="http://www.w3.org/1999/xlink">
    <!-- Generator: Sketch 40 (33762) - http://www.bohemiancoding.com/sketch -->
    <title>wenhao-nomal</title>
    <desc>Created with Sketch.</desc>
    <defs></defs>
    <g id="Page-6" stroke="none" stroke-width="1" fill="none" fill-rule="evenodd">
        <g id="Artboard" transform="translate(-282.000000, -236.000000)" fill="#0095FF">
            <g id="系统提示图标" transform="translate(118.000000, 236.000000)">
                <g id="wenhao-nomal" transform="translate(164.000000, 0.000000)">
                    <path d="M12,24 C18.627417,24 24,18.627417 24,12 C24,5.372583 18.627417,0 12,0 C5.372583,0 0,5.372583 0,12 C0,18.627417 5.372583,24 12,24 Z M8.03439349,9.19448214 C8.36020036,7.37999098 10.0007679,6 11.9755872,6 C14.1847262,6 15.9755872,7.72690168 15.9755872,9.85714286 C15.9755872,11.6459287 14.7128266,13.1503143 13,13.58663 L13,14.4673477 C13,15.0218863 12.5561352,15.4714287 12,15.4714287 C11.4477153,15.4714287 11,15.0232015 11,14.4797408 L11,13.0345348 C11,12.4948789 11.4309316,12.0466697 11.9755872,12.0222322 L11.9755872,11.9998734 C11.9837144,11.9999577 11.9918521,12 12,12 C13.2272994,12 14.2222222,11.0406102 14.2222222,9.85714286 C14.2222222,8.67367554 13.2272994,7.71428571 12,7.71428571 C10.9249076,7.71428571 10.0281282,8.45046843 9.82223027,9.42857143 C9.82222218,9.90195836 9.41430385,10.2857143 8.91111109,10.2857143 C8.40791833,10.2857143 8,9.90195836 8,9.42857143 C8,9.34741317 8.01198964,9.26888937 8.03439349,9.19448214 Z M12,18 C12.5522847,18 13,17.5522847 13,17 C13,16.4477153 12.5522847,16 12,16 C11.4477153,16 11,16.4477153 11,17 C11,17.5522847 11.4477153,18 12,18 Z" id="Combined-Shape"></path>
                </g>
            </g>
        </g>
    </g>
</svg>