<?xml version="1.0" encoding="UTF-8" standalone="no"?>
<svg width="24px" height="24px" viewBox="0 0 24 24" version="1.1" xmlns="http://www.w3.org/2000/svg" xmlns:xlink="http://www.w3.org/1999/xlink">
    <!-- Generator: Sketch 3.7.1 (28215) - http://www.bohemiancoding.com/sketch -->
    <title>icons-sys-wenhao-nomal</title>
    <desc>Created with Sketch.</desc>
    <defs></defs>
    <g id="Page-1" stroke="none" stroke-width="1" fill="none" fill-rule="evenodd">
        <g id="系统图标" transform="translate(-282.000000, -236.000000)">
            <g id="系统提示图标" transform="translate(118.000000, 236.000000)">
                <g id="icons-sys-wenhao-nomal" transform="translate(164.000000, 0.000000)">
                    <circle id="Oval-9-Copy" fill="#0095FF" cx="12" cy="12" r="12"></circle>
                    <g id="问号" transform="translate(8.000000, 6.000000)" fill="#FFFFFF">
                        <circle id="Oval-12" cx="4" cy="11" r="1"></circle>
                        <path d="M-1.21517379e-14,3.42857143 C0.22108635,1.50002123 1.91667448,0 3.97558721,0 C6.18472621,0 7.97558721,1.72690168 7.97558721,3.85714286 C7.97558721,5.98738403 6.18472621,7.71428571 3.97558721,7.71428571 L3.97558721,5.99987336 C3.98371442,5.99995771 3.99185209,6 4,6 C5.22729944,6 6.22222222,5.04061018 6.22222222,3.85714286 C6.22222222,2.67367554 5.22729944,1.71428571 4,1.71428571 C2.9249076,1.71428571 2.0281282,2.45046843 1.82223027,3.42857143 L-9.19125887e-13,3.42857143 Z" id="Combined-Shape"></path>
                        <path d="M3,7.03453476 C3,6.48684063 3.44386482,6.03333771 4,6.02142341 L5,6 L5,8.46734771 C5,9.02188635 4.55613518,9.47142873 4,9.47142873 L4,9.47142873 C3.44771525,9.47142873 3,9.02320152 3,8.47974079 L3,7.03453476 Z" id="Rectangle-56"></path>
                        <ellipse id="Oval-21" cx="0.91111109" cy="3.42857143" rx="0.91111109" ry="0.857142857"></ellipse>
                    </g>
                </g>
            </g>
        </g>
    </g>
</svg>