<?xml version="1.0" encoding="UTF-8" standalone="no"?>
<svg width="16px" height="16px" viewBox="0 0 16 16" version="1.1" xmlns="http://www.w3.org/2000/svg" xmlns:xlink="http://www.w3.org/1999/xlink">
    <!-- Generator: Sketch 40 (33762) - http://www.bohemiancoding.com/sketch -->
    <title>wenhao-nomal-small</title>
    <desc>Created with Sketch.</desc>
    <defs></defs>
    <g id="Page-6" stroke="none" stroke-width="1" fill="none" fill-rule="evenodd">
        <g id="Artboard" transform="translate(-286.000000, -288.000000)" fill="#0095FF">
            <g id="系统提示图标-小" transform="translate(122.000000, 288.000000)">
                <g id="wenhao-nomal-small" transform="translate(164.000000, 0.000000)">
                    <path d="M8,16 C12.418278,16 16,12.418278 16,8 C16,3.581722 12.418278,0 8,0 C3.581722,0 0,3.581722 0,8 C0,12.418278 3.581722,16 8,16 Z M5.35626232,6.12965476 C5.57346691,4.91999399 6.66717861,4 7.98372481,4 C9.45648414,4 10.6503915,5.15126779 10.6503915,6.57142857 C10.6503915,7.76395245 9.8085511,8.76687619 8.66666667,9.05775335 L8.66666667,9.64489848 C8.66666667,10.0145909 8.37075679,10.3142858 8,10.3142858 C7.63181017,10.3142858 7.33333333,10.0154677 7.33333333,9.65316052 L7.33333333,8.68968984 C7.33333333,8.32991925 7.6206211,8.03111313 7.98372481,8.0148215 L7.98372481,7.99991557 C7.98914294,7.99997181 7.99456806,8 8,8 C8.81819963,8 9.48148148,7.36040679 9.48148148,6.57142857 C9.48148148,5.78245036 8.81819963,5.14285714 8,5.14285714 C7.28327173,5.14285714 6.6854188,5.63364562 6.54815352,6.28571429 C6.54814812,6.60130557 6.27620257,6.85714286 5.94074073,6.85714286 C5.60527889,6.85714286 5.33333333,6.60130557 5.33333333,6.28571429 C5.33333333,6.23160878 5.34132643,6.17925958 5.35626232,6.12965476 Z M8,12 C8.36818983,12 8.66666667,11.7015232 8.66666667,11.3333333 C8.66666667,10.9651435 8.36818983,10.6666667 8,10.6666667 C7.63181017,10.6666667 7.33333333,10.9651435 7.33333333,11.3333333 C7.33333333,11.7015232 7.63181017,12 8,12 Z" id="Combined-Shape"></path>
                </g>
            </g>
        </g>
    </g>
</svg>