<?xml version="1.0" encoding="UTF-8"?>
<svg width="40px" height="40px" viewBox="0 0 40 40" version="1.1" xmlns="http://www.w3.org/2000/svg" xmlns:xlink="http://www.w3.org/1999/xlink">
    <!-- Generator: Sketch 43.1 (39012) - http://www.bohemiancoding.com/sketch -->
    <title>Group 6</title>
    <desc>Created with Sketch.</desc>
    <defs></defs>
    <g id="Page-1" stroke="none" stroke-width="1" fill="none" fill-rule="evenodd">
        <g id="图标" transform="translate(-124.000000, -299.000000)">
            <g id="Group-15" transform="translate(12.000000, 97.000000)">
                <g id="Group-5" transform="translate(0.000000, 12.000000)">
                    <g id="Group-2-Copy-9" transform="translate(88.000000, 176.000000)">
                        <g id="Group-3" transform="translate(4.000000, 14.000000)">
                            <g id="Group-6" transform="translate(20.000000, 0.000000)">
                                <rect id="Rectangle-2" fill="#349AF6" x="2.77555756e-15" y="0" width="40" height="40" rx="10"></rect>
                                <path d="M8,14.9970619 C8,11.6849761 10.6832456,9 13.9943041,9 L26.0056959,9 C29.3162587,9 32,11.6866258 32,14.9970619 L32,25.0029381 C32,28.3150239 29.3167544,31 26.0056959,31 L13.9943041,31 C10.6837413,31 8,28.3133742 8,25.0029381 L8,14.9970619 Z M14,16.5 C14,17.8903379 15.1192881,19 16.5,19 C17.8903379,19 19,17.8807119 19,16.5 C19,15.1096621 17.8807119,14 16.5,14 C15.1096621,14 14,15.1192881 14,16.5 Z M16.5,25 C18.9852814,25 21,25.9852814 21,23.5 C21,21.0147186 18.9852814,19 16.5,19 C14.0147186,19 12,21.0147186 12,23.5 C12,25.9852814 14.0147186,25 16.5,25 Z M21,16 C21,16.5561352 21.4490268,17 22.0029293,17 L26.9970707,17 C27.5621186,17 28,16.5522847 28,16 C28,15.4438648 27.5509732,15 26.9970707,15 L22.0029293,15 C21.4378814,15 21,15.4477153 21,16 Z M23,20 C23,20.5561352 23.4476291,21 23.9998075,21 L27.0001925,21 C27.5562834,21 28,20.5522847 28,20 C28,19.4438648 27.5523709,19 27.0001925,19 L23.9998075,19 C23.4437166,19 23,19.4477153 23,20 Z M23,24 C23,24.5561352 23.4476291,25 23.9998075,25 L27.0001925,25 C27.5562834,25 28,24.5522847 28,24 C28,23.4438648 27.5523709,23 27.0001925,23 L23.9998075,23 C23.4437166,23 23,23.4477153 23,24 Z" id="我的档案" fill="#FFFFFF"></path>
                            </g>
                        </g>
                    </g>
                </g>
            </g>
        </g>
    </g>
</svg>