<?xml version="1.0" encoding="UTF-8"?>
<svg width="40px" height="40px" viewBox="0 0 40 40" version="1.1" xmlns="http://www.w3.org/2000/svg" xmlns:xlink="http://www.w3.org/1999/xlink">
    <!-- Generator: Sketch 43.1 (39012) - http://www.bohemiancoding.com/sketch -->
    <title>Group 6</title>
    <desc>Created with Sketch.</desc>
    <defs></defs>
    <g id="工作页" stroke="none" stroke-width="1" fill="none" fill-rule="evenodd">
        <g id="工作页-无统计" transform="translate(-124.000000, -306.000000)">
            <g id="Group-15" transform="translate(12.000000, 192.000000)">
                <g id="Group-5" transform="translate(0.000000, 12.000000)">
                    <g id="Group-2-Copy-5" transform="translate(88.000000, 88.000000)">
                        <g id="Group-6" transform="translate(24.000000, 14.000000)">
                            <rect id="Rectangle-2" fill="#4DD0E1" x="2.77555756e-15" y="0" width="40" height="40" rx="10"></rect>
                            <path d="M21,16.8019646 C21.050138,16.8459624 21.0931067,16.8898387 21.1289062,16.9335938 C21.2460943,17.0768236 21.3776034,17.3333315 21.5234375,17.703125 L24.4296875,17.2421875 C24.2421866,16.40885 23.8398468,15.7526066 23.2226562,15.2734375 C22.6957769,14.8643835 21.9686873,14.6033623 21.041371,14.4903689 C21.0326125,14.4893017 21.0186211,14.4882153 21,14.487115 L21,13.9954598 C21,13.4493219 20.5522847,13 20,13 C19.4438648,13 19,13.4456825 19,13.9954598 L19,14.4453125 C17.7187436,14.5130212 17.1601595,14.8580698 16.5117188,15.4804688 C15.863278,16.1028677 15.5390625,16.8775995 15.5390625,17.8046875 C15.5390625,18.4817742 15.7005192,19.0559872 16.0234375,19.5273438 C16.3463558,19.9987003 16.7278624,20.3411448 17.1679688,20.5546875 C17.6080751,20.7682302 17.9479114,21.0208319 19,21.3125 L19,24.0703125 C18.3384478,23.8277098 18.0966015,23.6407255 17.8697144,23.4456509 C17.6428274,23.2505763 17.4532143,23.0078151 17.3594638,22.4921875 L15.0859375,22.7109375 C15.179688,23.2317734 15.3203116,23.6757794 15.5078125,24.0429688 C15.6953134,24.4101581 15.9622379,24.7526026 16.3085938,25.0703125 C16.6549496,25.3880224 17.0664039,25.6367179 17.5429688,25.8164062 C18.0195336,25.9960946 18.2343712,26.1197913 19,26.1875 L19,26.4873149 C19,27.0334527 19.4477153,27.4827747 20,27.4827747 C20.5561352,27.4827747 21,27.0370922 21,26.4873149 L21,26.1578003 C21.4470269,26.1164607 21.8376496,26.0417255 22.171875,25.9335938 C22.6145855,25.7903639 23.0325501,25.5598974 23.4257812,25.2421875 C23.8190124,24.9244776 24.1419258,24.5286482 24.3945312,24.0546875 C24.6471367,23.5807268 24.7734375,23.0598987 24.7734375,22.4921875 C24.7734375,21.5234327 24.4218785,20.7239615 23.71875,20.09375 C23.2398927,19.6712288 22.3336504,19.2677556 21,18.8833205 L21,16.8019646 Z M20,32 C13.372583,32 8,26.627417 8,20 C8,13.372583 13.372583,8 20,8 C26.627417,8 32,13.372583 32,20 C32,26.627417 26.627417,32 20,32 Z M18.9998058,16.4632605 L18.9998058,18.4632605 C18.6716792,18.3486766 18.3320319,18.2044279 18.1992188,18.0351562 C18.0664056,17.8658846 18,17.6666678 18,17.4375 C18,17.2187489 18.0651035,17.0286466 18.1953125,16.8671875 C18.3255215,16.7057284 18.6664708,16.5726361 18.9998058,16.4632605 Z M21,24.1484375 L21,21.6484375 C21.3943109,21.8255217 21.8641611,22.0169261 22.0003407,22.2226562 C22.1365202,22.4283864 22.204609,22.6536446 22.204609,22.8984375 C22.204609,23.1796889 22.1243252,23.4335926 21.9637553,23.6601562 C21.8031854,23.8867199 21.3455302,24.0494787 21,24.1484375 Z" id="Combined-Shape" fill="#FFFFFF"></path>
                        </g>
                    </g>
                </g>
            </g>
        </g>
    </g>
</svg>