<?xml version="1.0" encoding="UTF-8" standalone="no"?>
<svg width="24px" height="24px" viewBox="0 0 24 24" version="1.1" xmlns="http://www.w3.org/2000/svg" xmlns:xlink="http://www.w3.org/1999/xlink">
    <!-- Generator: Sketch 40 (33762) - http://www.bohemiancoding.com/sketch -->
    <title>zhengque-nomal</title>
    <desc>Created with Sketch.</desc>
    <defs></defs>
    <g id="Page-6" stroke="none" stroke-width="1" fill="none" fill-rule="evenodd">
        <g id="Artboard" transform="translate(-118.000000, -236.000000)" fill="#36B336">
            <g id="系统提示图标" transform="translate(118.000000, 236.000000)">
                <g id="zhengque-nomal">
                    <path d="M10.5857864,14.2426407 L7.04815252,10.7050068 C6.6634908,10.320345 6.02656326,10.3165825 5.63603897,10.7071068 C5.24279201,11.1003537 5.24457447,11.7298558 5.63393896,12.1192203 L9.88077967,16.366061 C10.2654414,16.7507228 10.9023689,16.7544853 11.2928932,16.363961 C11.3541646,16.3026897 11.4058461,16.2356829 11.4479658,16.1647426 C11.5188671,16.1226764 11.5857352,16.0711191 11.6467522,16.0101021 L18.3636555,9.29319877 C18.7522944,8.90455981 18.7544853,8.26920395 18.363961,7.87867966 C17.9707141,7.4854327 17.340135,7.48829216 16.9494419,7.87898521 L10.5857864,14.2426407 Z M12,24 C18.627417,24 24,18.627417 24,12 C24,5.372583 18.627417,0 12,0 C5.372583,0 0,5.372583 0,12 C0,18.627417 5.372583,24 12,24 Z" id="Combined-Shape"></path>
                </g>
            </g>
        </g>
    </g>
</svg>