<?xml version="1.0" encoding="UTF-8" standalone="no"?>
<svg width="16px" height="16px" viewBox="0 0 16 16" version="1.1" xmlns="http://www.w3.org/2000/svg" xmlns:xlink="http://www.w3.org/1999/xlink">
    <!-- Generator: Sketch 40 (33762) - http://www.bohemiancoding.com/sketch -->
    <title>zhengque-nomal-small</title>
    <desc>Created with Sketch.</desc>
    <defs></defs>
    <g id="Page-6" stroke="none" stroke-width="1" fill="none" fill-rule="evenodd">
        <g id="Artboard" transform="translate(-122.000000, -288.000000)" fill="#36B336">
            <g id="系统提示图标-小" transform="translate(122.000000, 288.000000)">
                <g id="zhengque-nomal-small">
                    <path d="M7.05719096,9.49509379 L4.7063935,7.14429633 C4.4423272,6.88023003 4.01770884,6.87772166 3.75735931,7.13807119 C3.49519468,7.40023582 3.49979688,7.82331779 3.76358446,8.08710537 L6.57956129,10.9030822 C6.84362759,11.1671485 7.26824595,11.1696569 7.52859548,10.9093074 C7.56927538,10.8686274 7.60353221,10.8240731 7.63139427,10.7768405 C7.67887823,10.7487334 7.72365625,10.7142466 7.76450144,10.6734014 L12.242437,6.19546585 C12.5081494,5.92975341 12.5029902,5.51280263 12.2426407,5.2524531 C11.9804761,4.99028847 11.56009,4.99219478 11.2996279,5.2526568 L7.05719096,9.49509379 Z M8,16 C12.418278,16 16,12.418278 16,8 C16,3.581722 12.418278,0 8,0 C3.581722,0 0,3.581722 0,8 C0,12.418278 3.581722,16 8,16 Z" id="Combined-Shape"></path>
                </g>
            </g>
        </g>
    </g>
</svg>