<?xml version="1.0" encoding="UTF-8" standalone="no"?>
<svg width="16px" height="16px" viewBox="0 0 16 16" version="1.1" xmlns="http://www.w3.org/2000/svg" xmlns:xlink="http://www.w3.org/1999/xlink">
    <!-- Generator: Sketch 40 (33762) - http://www.bohemiancoding.com/sketch -->
    <title>zhuyi -nomal-small</title>
    <desc>Created with Sketch.</desc>
    <defs></defs>
    <g id="Page-6" stroke="none" stroke-width="1" fill="none" fill-rule="evenodd">
        <g id="Artboard" transform="translate(-234.000000, -288.000000)" fill="#E4A600">
            <g id="系统提示图标-小" transform="translate(122.000000, 288.000000)">
                <g id="zhuyi--nomal-small" transform="translate(112.000000, 0.000000)">
                    <path d="M8,16 C12.418278,16 16,12.418278 16,8 C16,3.581722 12.418278,0 8,0 C3.581722,0 0,3.581722 0,8 C0,12.418278 3.581722,16 8,16 Z M7.04060677,4.9640038 C6.99556401,4.4315992 7.38035531,4 7.92686638,4 L8.07314351,4 C8.60765394,4 9.00445312,4.4315052 8.95940153,4.9640038 L8.57487644,9.50899482 C8.55193394,9.78016949 8.30712194,10 8.02499196,10 L7.97500804,10 C7.69425773,10 7.44738537,9.77211952 7.42512437,9.50899482 L7.04060677,4.9640038 Z M8,12 C8.36818983,12 8.66666667,11.7015232 8.66666667,11.3333333 C8.66666667,10.9651435 8.36818983,10.6666667 8,10.6666667 C7.63181017,10.6666667 7.33333333,10.9651435 7.33333333,11.3333333 C7.33333333,11.7015232 7.63181017,12 8,12 Z" id="Combined-Shape"></path>
                </g>
            </g>
        </g>
    </g>
</svg>