<?xml version="1.0" encoding="UTF-8" standalone="no"?>
<svg width="24px" height="24px" viewBox="0 0 24 24" version="1.1" xmlns="http://www.w3.org/2000/svg" xmlns:xlink="http://www.w3.org/1999/xlink">
    <!-- Generator: Sketch 40 (33762) - http://www.bohemiancoding.com/sketch -->
    <title>zhuyi -nomal</title>
    <desc>Created with Sketch.</desc>
    <defs></defs>
    <g id="Page-6" stroke="none" stroke-width="1" fill="none" fill-rule="evenodd">
        <g id="Artboard" transform="translate(-230.000000, -236.000000)" fill="#E4A600">
            <g id="系统提示图标" transform="translate(118.000000, 236.000000)">
                <g id="zhuyi--nomal" transform="translate(112.000000, 0.000000)">
                    <path d="M12,24 C18.627417,24 24,18.627417 24,12 C24,5.372583 18.627417,0 12,0 C5.372583,0 0,5.372583 0,12 C0,18.627417 5.372583,24 12,24 Z M10.5609102,7.4460057 C10.493346,6.6473988 11.070533,6 11.8902996,6 L12.1097153,6 C12.9114809,6 13.5066797,6.6472578 13.4391023,7.4460057 L12.8623147,14.2634922 C12.8279009,14.6702542 12.4606829,15 12.0374879,15 L11.9625121,15 C11.5413866,15 11.1710781,14.6581793 11.1376865,14.2634922 L10.5609102,7.4460057 Z M12,18 C12.5522847,18 13,17.5522847 13,17 C13,16.4477153 12.5522847,16 12,16 C11.4477153,16 11,16.4477153 11,17 C11,17.5522847 11.4477153,18 12,18 Z" id="Combined-Shape"></path>
                </g>
            </g>
        </g>
    </g>
</svg>